<svg width="16" height="16" viewBox="0 0 16 16" fill="none" xmlns="http://www.w3.org/2000/svg">
<path d="M11.4667 7.03333L11.4333 6.96667H10.2L7.66667 14H9.06667L9.73333 12.1333H11.9333L12.6 14H14L11.4667 7.03333ZM11.4 10.7H10.2333L10.8 9.1L11.4 10.7ZM7.76667 10.8667L8.26667 9.53333L8.2 9.5C7.76667 9.2 7.33333 8.86667 6.96667 8.5C7.86667 7.36667 8.53333 6.1 8.96667 4.66667H10.1V3.23333H6.66667V2H5.36667V3.23333H2V4.66667H7.56667C7.2 5.7 6.7 6.63333 6.03333 7.46667C5.63333 6.93333 5.26667 6.36667 4.96667 5.76667L4.93333 5.73333H3.5L3.56667 5.86667C3.96667 6.83333 4.5 7.7 5.13333 8.5C4.26667 9.33333 3.3 9.93333 2.23333 10.3L2.13333 10.3333L2.46667 11.7L2.56667 11.6667C3.86667 11.2333 5.03333 10.5 6.03333 9.5C6.53333 10 7.1 10.4333 7.7 10.8L7.76667 10.8667Z" fill="#6C7380"/>
</svg>
