<svg width="20" height="20" viewBox="0 0 20 20" fill="none" xmlns="http://www.w3.org/2000/svg">
<path fill-rule="evenodd" clip-rule="evenodd" d="M4.16602 1.66699H2.49935C2.03911 1.66699 1.66602 2.04009 1.66602 2.50033V4.16699H2.66602V2.66699H4.16602V1.66699ZM1.66602 15.8337V17.5003C1.66602 17.9606 2.03911 18.3337 2.49935 18.3337H4.16602V17.3337H2.66602V15.8337H1.66602ZM1.66602 14.167H2.66602V10.8337H1.66602V14.167ZM1.66602 9.16699H2.66602V5.83366H1.66602V9.16699ZM5.83268 1.66699V2.66699H9.16602V1.66699H5.83268ZM10.8327 1.66699V2.66699H14.166V1.66699H10.8327ZM15.8327 1.66699V2.66699H17.3327V4.16699H18.3327V2.50033C18.3327 2.04009 17.9596 1.66699 17.4993 1.66699H15.8327ZM18.3327 5.83366H17.3327V9.16699H18.3327V5.83366ZM9.16602 18.3337V17.3337H5.83268V18.3337H9.16602Z" fill="black"/>
<path d="M10.4412 6.67081C8.85411 6.74834 7.55579 8.06802 7.50199 9.65512C7.4864 10.0892 7.56239 10.5218 7.72501 10.9246C7.88763 11.3274 8.13325 11.6914 8.44587 11.9931C8.76946 12.3056 9.31142 12.1434 9.42693 11.7082C9.45522 11.6086 9.45628 11.5032 9.42998 11.403C9.40368 11.3028 9.35099 11.2115 9.27739 11.1386C9.08846 10.9581 8.93881 10.7406 8.83779 10.4996C8.73678 10.2587 8.68658 9.99945 8.69034 9.7382C8.70379 8.75872 9.49813 7.92245 10.4768 7.86311C10.8891 7.83782 11.2985 7.94701 11.6435 8.17428C11.9885 8.40154 12.2504 8.73462 12.3899 9.12345C12.4595 9.31808 12.6185 9.46841 12.8227 9.50243L12.8733 9.51034C13.314 9.58392 13.6645 9.15589 13.5165 8.73419C13.2945 8.10496 12.8752 7.56422 12.3211 7.19245C11.767 6.82067 11.1077 6.63772 10.4412 6.67081Z" fill="black"/>
<path d="M17.1514 12.8661L10.909 9.22191C10.8082 9.16218 10.6925 9.1324 10.5753 9.13604C10.4582 9.13968 10.3445 9.1766 10.2476 9.24248C10.15 9.30678 10.0727 9.39756 10.0248 9.50418C9.97688 9.61081 9.96031 9.72887 9.97704 9.84456L10.9628 17.0055C10.979 17.1217 11.0277 17.231 11.1031 17.3208C11.1786 17.4106 11.2778 17.4774 11.3895 17.5134C11.5012 17.5494 11.6207 17.5532 11.7344 17.5244C11.8482 17.4956 11.9515 17.4353 12.0325 17.3505L13.7517 15.5482L15.5983 18.3094C15.6897 18.432 15.8247 18.5148 15.9754 18.5407C16.1261 18.5666 16.281 18.5337 16.4082 18.4487C16.5353 18.3637 16.6249 18.2332 16.6585 18.084C16.6922 17.9349 16.6672 17.7785 16.5889 17.6471L14.7423 14.8883L17.0636 13.9864C17.1726 13.9434 17.2674 13.8707 17.337 13.7765C17.4067 13.6823 17.4485 13.5705 17.4577 13.4537C17.4668 13.3369 17.443 13.2198 17.3888 13.1159C17.3347 13.012 17.2524 12.9255 17.1514 12.8661Z" fill="black"/>
</svg>
