<svg width="16" height="16" viewBox="0 0 16 16" fill="none" xmlns="http://www.w3.org/2000/svg">
<path d="M14.9997 8.88874C14.9997 12.2637 12.0896 14.9995 8.49968 14.9995C4.90973 14.9995 1.99968 12.2637 1.99968 8.88874C1.99892 7.93995 2.23353 7.00406 2.68487 6.15544C3.13621 5.30681 3.79184 4.56883 4.59968 4.00012L4.59968 5.65614C3.93782 6.36179 3.50661 7.232 3.35779 8.16234C3.20897 9.09268 3.34886 10.0436 3.76067 10.9011C4.17248 11.7585 4.83873 12.4861 5.67945 12.9964C6.52018 13.5067 7.49967 13.778 8.5004 13.778C9.50113 13.7779 10.4806 13.5063 11.3212 12.9959C12.1618 12.4855 12.828 11.7579 13.2396 10.9003C13.6513 10.0428 13.791 9.09186 13.642 8.16154C13.493 7.23122 13.0617 6.36108 12.3997 5.65553L12.3997 3.99951C13.2076 4.56828 13.8633 5.30636 14.3146 6.1551C14.766 7.00384 15.0005 7.93984 14.9997 8.88874ZM9.14968 2.6112L9.14968 8.49982L7.84968 8.49982L7.84968 5.55551L7.84968 2.6112L9.14968 2.6112Z" fill="#6C7380"/>
</svg>
