<svg width="16" height="16" viewBox="0 0 16 16" fill="none" xmlns="http://www.w3.org/2000/svg">
<g clip-path="url(#clip0_4099_14411)">
<path d="M4 5.33342V4.66675C4 3.60588 4.42143 2.58847 5.17157 1.83832C5.92172 1.08818 6.93913 0.666748 8 0.666748C9.06087 0.666748 10.0783 1.08818 10.8284 1.83832C11.5786 2.58847 12 3.60588 12 4.66675V5.33342H13.3333C13.5101 5.33342 13.6797 5.40365 13.8047 5.52868C13.9298 5.6537 14 5.82327 14 6.00008V14.0001C14 14.1769 13.9298 14.3465 13.8047 14.4715C13.6797 14.5965 13.5101 14.6667 13.3333 14.6667H2.66667C2.48986 14.6667 2.32029 14.5965 2.19526 14.4715C2.07024 14.3465 2 14.1769 2 14.0001V6.00008C2 5.82327 2.07024 5.6537 2.19526 5.52868C2.32029 5.40365 2.48986 5.33342 2.66667 5.33342H4ZM12.6667 6.66675H3.33333V13.3334H12.6667V6.66675ZM7.33333 10.4881C7.07914 10.3413 6.88048 10.1148 6.76816 9.84363C6.65584 9.57246 6.63613 9.2718 6.7121 8.98829C6.78807 8.70478 6.95546 8.45426 7.18832 8.27558C7.42118 8.0969 7.70649 8.00005 8 8.00005C8.29351 8.00005 8.57882 8.0969 8.81168 8.27558C9.04454 8.45426 9.21193 8.70478 9.2879 8.98829C9.36387 9.2718 9.34416 9.57246 9.23184 9.84363C9.11952 10.1148 8.92086 10.3413 8.66667 10.4881V12.0001H7.33333V10.4881ZM5.33333 5.33342H10.6667V4.66675C10.6667 3.9595 10.3857 3.28123 9.88562 2.78113C9.38552 2.28103 8.70724 2.00008 8 2.00008C7.29276 2.00008 6.61448 2.28103 6.11438 2.78113C5.61428 3.28123 5.33333 3.9595 5.33333 4.66675V5.33342Z" fill="#6C7380"/>
</g>
<defs>
<clipPath id="clip0_4099_14411">
<rect width="16" height="16" fill="white"/>
</clipPath>
</defs>
</svg>
