<svg width="20" height="20" viewBox="0 0 20 20" fill="none" xmlns="http://www.w3.org/2000/svg">
<path d="M3.99036 3.54248H6.5413L7.68173 8.59684L3.01895 9.37556V4.51466C3.01895 4.25682 3.1213 4.00954 3.30347 3.82723C3.48565 3.64491 3.73273 3.54248 3.99036 3.54248Z" fill="white"/>
<path d="M13.8333 18.7499L11.8293 11.2349L18.75 10.043V16.3194C18.75 16.964 18.4941 17.5822 18.0387 18.038C17.5833 18.4938 16.9655 18.7499 16.3215 18.7499H13.8333Z" fill="white"/>
<path d="M1.2529 16.3194V13.0564L10.4163 11.4782L12.5961 18.7499H3.68143C3.03735 18.7499 2.41964 18.4938 1.9642 18.038C1.50876 17.5822 1.2529 16.964 1.2529 16.3194Z" fill="white"/>
<path d="M11.4862 9.94837L9.16667 1.25H16.7926C17.0477 1.25 17.3004 1.30029 17.5361 1.39801C17.7718 1.49572 17.986 1.63894 18.1664 1.81949C18.3468 2.00004 18.4899 2.21438 18.5875 2.45028C18.6852 2.68619 18.7354 2.93902 18.7354 3.19436V8.87869L11.4862 9.94837Z" fill="white"/>
<path d="M2.22141 10.616V10.3311H1.25V11.3033C1.27449 11.515 1.45374 11.6747 1.66682 11.6747H1.76096L2.71975 11.5201L2.56724 10.5606L2.22141 10.616Z" fill="white"/>
<path d="M4.63926 11.2129L4.48481 10.2534L3.52602 10.407L3.6795 11.3665L4.63926 11.2129Z" fill="white"/>
<path d="M6.5578 10.9047L6.40432 9.94517L5.44456 10.0988L5.59805 11.0583L6.5578 10.9047Z" fill="white"/>
<path d="M8.47537 10.5965L8.32189 9.63796L7.3631 9.79157L7.51659 10.7511L8.47537 10.5965Z" fill="white"/>
<path d="M9.99272 10.3545L9.77027 9.40464L9.28164 9.48339L9.37684 10.0803L8.95428 10.1804L9.03005 10.5081L9.99272 10.3545Z" fill="white"/>
<path d="M2.22141 9.35895V8.38677H1.25V9.35895H2.22141Z" fill="white"/>
<path d="M9.67701 9.01091L9.45456 8.06498L8.50937 8.28761L8.73182 9.23451L9.67701 9.01091Z" fill="white"/>
<path d="M2.22141 7.41459V6.44241H1.25V7.41459H2.22141Z" fill="white"/>
<path d="M9.2321 7.11807L9.00965 6.17214L8.06446 6.39477L8.28692 7.34168L9.2321 7.11807Z" fill="white"/>
<path d="M2.22141 5.47023V4.49805H1.25V5.47023H2.22141Z" fill="white"/>
<path d="M8.78817 5.22524L8.56571 4.27834L7.61956 4.50194L7.84298 5.44884L8.78817 5.22524Z" fill="white"/>
<path d="M8.34326 3.33241L8.12081 2.38648L7.17562 2.60911L7.39807 3.55601L8.34326 3.33241Z" fill="white"/>
<path d="M2.27387 2.8784L1.35491 2.56147C1.28691 2.75979 1.25 2.9727 1.25 3.19436V3.52587H2.22141V3.19436C2.22127 3.08686 2.239 2.98008 2.27387 2.8784Z" fill="white"/>
<path d="M2.98883 2.24357L2.78678 1.29278C2.45941 1.3618 2.16119 1.51443 1.91833 1.72734L2.55558 2.46036C2.67924 2.35243 2.82835 2.27782 2.98883 2.24357Z" fill="white"/>
<path d="M4.16424 2.22218V1.25H3.19283V2.22218H4.16424Z" fill="white"/>
<path d="M6.10707 2.22218V1.25H5.13565V2.22218H6.10707Z" fill="white"/>
<path d="M7.85367 1.45027L7.85464 1.25H7.07848V2.22218H7.85367V1.45027Z" fill="white"/>
</svg>
