<svg width="16" height="16" viewBox="0 0 16 16" fill="none" xmlns="http://www.w3.org/2000/svg">
<path d="M4.66659 3.33464V1.33464C4.66659 1.15782 4.73682 0.988255 4.86185 0.863231C4.98687 0.738207 5.15644 0.667969 5.33325 0.667969H10.6666C10.8434 0.667969 11.013 0.738207 11.138 0.863231C11.263 0.988255 11.3333 1.15782 11.3333 1.33464V3.33464H13.9999C14.1767 3.33464 14.3463 3.40487 14.4713 3.5299C14.5963 3.65492 14.6666 3.82449 14.6666 4.0013V13.3346C14.6666 13.5114 14.5963 13.681 14.4713 13.806C14.3463 13.9311 14.1767 14.0013 13.9999 14.0013H1.99992C1.82311 14.0013 1.65354 13.9311 1.52851 13.806C1.40349 13.681 1.33325 13.5114 1.33325 13.3346V4.0013C1.33325 3.82449 1.40349 3.65492 1.52851 3.5299C1.65354 3.40487 1.82311 3.33464 1.99992 3.33464H4.66659ZM2.66659 10.668V12.668H13.3333V10.668H2.66659ZM2.66659 9.33464H13.3333V4.66797H2.66659V9.33464ZM5.99992 2.0013V3.33464H9.99992V2.0013H5.99992ZM7.33325 7.33464H8.66659V8.66797H7.33325V7.33464Z" fill="#6C7380"/>
</svg>
