<svg width="20" height="20" viewBox="0 0 20 20" fill="none" xmlns="http://www.w3.org/2000/svg">
<path fill-rule="evenodd" clip-rule="evenodd" d="M2 8C1.44772 8 1 8.44772 1 9V11.5V12V18.5C1 19.0523 1.44772 19.5 2 19.5H18C18.5523 19.5 19 19.0523 19 18.5V11.5C19 10.9477 18.5523 10.5 18 10.5H11L10.2514 8.62861C10.0996 8.24895 9.73187 8 9.32297 8H2Z" fill="white"/>
<path fill-rule="evenodd" clip-rule="evenodd" d="M5 0.5C4.17157 0.5 3.5 1.17157 3.5 2V7H9.95837C10.2855 7 10.5797 7.19916 10.7012 7.50289L11.5 9.5H17.5V2C17.5 1.17157 16.8284 0.5 16 0.5H5ZM7 3.1C7 2.76863 7.26863 2.5 7.6 2.5H15.4C15.7314 2.5 16 2.76863 16 3.1C16 3.43137 15.7314 3.7 15.4 3.7H7.6C7.26863 3.7 7 3.43137 7 3.1ZM10.6 5.1C10.2686 5.1 10 5.36863 10 5.7C10 6.03137 10.2686 6.3 10.6 6.3H15.4C15.7314 6.3 16 6.03137 16 5.7C16 5.36863 15.7314 5.1 15.4 5.1H10.6Z" fill="white"/>
</svg>
