<svg xmlns="http://www.w3.org/2000/svg" width="16" height="16" viewBox="0 0 16 16" fill="none">
  <g clip-path="url(#clip0_3146_15856)">
    <path
      d="M0.931999 7.99041C0.931999 8.91544 1.1142 9.83142 1.46819 10.686C1.82219 11.5407 2.34104 12.3172 2.99514 12.9713C3.64924 13.6254 4.42576 14.1442 5.28038 14.4982C6.13499 14.8522 7.05097 15.0344 7.976 15.0344C8.90103 15.0344 9.817 14.8522 10.6716 14.4982C11.5262 14.1442 12.3028 13.6254 12.9569 12.9713C13.611 12.3172 14.1298 11.5407 14.4838 10.686C14.8378 9.83142 15.02 8.91544 15.02 7.99041C15.02 7.06538 14.8378 6.14941 14.4838 5.29479C14.1298 4.44017 13.611 3.66365 12.9569 3.00955C12.3028 2.35546 11.5262 1.8366 10.6716 1.4826C9.817 1.12861 8.90103 0.946411 7.976 0.946411C7.05097 0.946411 6.13499 1.12861 5.28038 1.4826C4.42576 1.8366 3.64924 2.35546 2.99514 3.00955C2.34104 3.66365 1.82219 4.44017 1.46819 5.29479C1.1142 6.14941 0.931999 7.06538 0.931999 7.99041Z"
      fill="#E2EBFF" />
    <path
      d="M10.6544 3.45837H5.2976C4.5 3.45837 3.8528 4.10557 3.8528 4.90317V11.0776C3.8528 11.8752 4.5 12.5224 5.2976 12.5224H10.6544C11.452 12.5224 12.0992 11.8752 12.0992 11.0776V4.90317C12.0992 4.10557 11.4528 3.45837 10.6544 3.45837ZM9.7272 10.3984H6.2256C5.8728 10.3984 5.5872 10.1128 5.5872 9.75997C5.5872 9.40717 5.8728 9.12157 6.2256 9.12157H9.7272C10.08 9.12157 10.3656 9.40717 10.3656 9.75997C10.3656 10.1128 10.08 10.3984 9.7272 10.3984ZM9.7272 8.66397H6.2256C5.8728 8.66397 5.5872 8.37837 5.5872 8.02557C5.5872 7.67277 5.8728 7.38717 6.2256 7.38717H9.7272C10.08 7.38717 10.3656 7.67277 10.3656 8.02557C10.3656 8.37837 10.08 8.66397 9.7272 8.66397ZM9.7272 6.84477H6.2256C5.8728 6.84477 5.5872 6.55917 5.5872 6.20637C5.5872 5.85357 5.8728 5.56797 6.2256 5.56797H9.7272C10.08 5.56797 10.3656 5.85357 10.3656 6.20637C10.3656 6.55917 10.08 6.84477 9.7272 6.84477Z"
      fill="#2D70FF" />
    <path
      d="M12.0992 4.90317C12.0992 4.10557 11.452 3.45837 10.6544 3.45837H5.2976C4.5 3.45837 3.8528 4.10557 3.8528 4.90317V11.0776C3.8528 11.8752 4.5 12.5224 5.2976 12.5224H6.0352C8.98 12.2064 11.3808 10.076 12.0992 7.27117V4.90317ZM9.7272 10.3984H6.2256C5.8728 10.3984 5.5872 10.1128 5.5872 9.75997C5.5872 9.40717 5.8728 9.12157 6.2256 9.12157H9.7272C10.08 9.12157 10.3656 9.40717 10.3656 9.75997C10.3656 10.1128 10.08 10.3984 9.7272 10.3984ZM9.7272 8.66397H6.2256C5.8728 8.66397 5.5872 8.37837 5.5872 8.02557C5.5872 7.67277 5.8728 7.38717 6.2256 7.38717H9.7272C10.08 7.38717 10.3656 7.67277 10.3656 8.02557C10.3656 8.37837 10.08 8.66397 9.7272 8.66397ZM9.7272 6.84477H6.2256C5.8728 6.84477 5.5872 6.55917 5.5872 6.20637C5.5872 5.85357 5.8728 5.56797 6.2256 5.56797H9.7272C10.08 5.56797 10.3656 5.85357 10.3656 6.20637C10.3656 6.55917 10.08 6.84477 9.7272 6.84477Z"
      fill="#3F7CFF" />
    <path
      d="M5.2976 3.45839C4.5 3.45839 3.8528 4.10559 3.8528 4.90319V10.0432C4.456 10.0008 5.0384 9.88159 5.5904 9.69679C5.60608 9.5392 5.67976 9.39307 5.79715 9.28677C5.91453 9.18048 6.06724 9.1216 6.2256 9.12159H6.8656C7.1064 8.98239 7.3392 8.82959 7.5608 8.66319H6.2256C5.8728 8.66319 5.5872 8.37759 5.5872 8.02479C5.5872 7.67199 5.8728 7.38639 6.2256 7.38639H8.8736C9.012 7.21199 9.1416 7.03119 9.2632 6.84399H6.2256C5.8728 6.84399 5.5872 6.55839 5.5872 6.20559C5.5872 5.85279 5.8728 5.56719 6.2256 5.56719H9.7272C9.7896 5.56719 9.8496 5.57679 9.9064 5.59279C10.1743 4.90982 10.3336 4.18907 10.3784 3.45679H5.2976V3.45839Z"
      fill="#598EFF" />
    <path
      d="M3.8528 4.90317V7.19277C4.47219 6.98107 5.05894 6.68379 5.596 6.30957C5.5904 6.27597 5.5872 6.24157 5.5872 6.20637C5.5872 5.85357 5.8728 5.56797 6.2256 5.56797H6.4936C7.1155 4.96242 7.62023 4.24723 7.9824 3.45837H5.2976C4.5 3.45837 3.8528 4.10557 3.8528 4.90317Z"
      fill="#76A2FF" />
  </g>
  <defs>
    <clipPath id="clip0_3146_15856">
      <rect width="16" height="16" fill="white" />
    </clipPath>
  </defs>
</svg>