<svg xmlns="http://www.w3.org/2000/svg" width="16" height="16" viewBox="0 0 16 16" fill="none">
  <path
    d="M1.0488 8.02081C1.0488 8.94584 1.231 9.86181 1.58499 10.7164C1.93898 11.571 2.45784 12.3476 3.11194 13.0017C3.76603 13.6558 4.54256 14.1746 5.39718 14.5286C6.25179 14.8826 7.16777 15.0648 8.0928 15.0648C9.01783 15.0648 9.9338 14.8826 10.7884 14.5286C11.643 14.1746 12.4196 13.6558 13.0737 13.0017C13.7278 12.3476 14.2466 11.571 14.6006 10.7164C14.9546 9.86181 15.1368 8.94584 15.1368 8.02081C15.1368 7.09578 14.9546 6.1798 14.6006 5.32518C14.2466 4.47057 13.7278 3.69404 13.0737 3.03995C12.4196 2.38585 11.643 1.86699 10.7884 1.513C9.9338 1.15901 9.01783 0.976807 8.0928 0.976807C7.16777 0.976807 6.25179 1.15901 5.39718 1.513C4.54256 1.86699 3.76603 2.38585 3.11194 3.03995C2.45784 3.69404 1.93898 4.47057 1.58499 5.32518C1.231 6.1798 1.0488 7.09578 1.0488 8.02081Z"
    fill="#FFF1DC" />
  <path
    d="M8.9688 5.06797H7.1816C6.7 5.06797 6.3096 4.67757 6.3096 4.19597C6.3096 3.71437 6.7 3.32397 7.1816 3.32397H8.9688C9.4504 3.32397 9.8408 3.71437 9.8408 4.19597C9.84 4.67757 9.4504 5.06797 8.9688 5.06797Z"
    fill="#FF9552" />
  <path
    d="M10.7544 3.93677H10.3616C10.3792 4.02397 10.3888 4.11357 10.3888 4.20557C10.3888 4.95277 9.78239 5.55917 9.03519 5.55917H7.11519C6.36799 5.55917 5.76159 4.95277 5.76159 4.20557C5.76159 4.11357 5.77119 4.02317 5.78879 3.93677H5.39599C4.70959 3.93677 4.15359 4.49277 4.15359 5.17917V11.1536C4.15359 11.84 4.70959 12.396 5.39599 12.396H10.7544C11.4408 12.396 11.9968 11.84 11.9968 11.1536V5.17917C11.996 4.49357 11.44 3.93677 10.7544 3.93677ZM8.0888 10.8096H5.89999C5.66159 10.8096 5.46799 10.616 5.46799 10.3776C5.46799 10.1392 5.66159 9.94557 5.89999 9.94557H8.0888C8.3272 9.94557 8.52079 10.1392 8.52079 10.3776C8.52079 10.616 8.3272 10.8096 8.0888 10.8096ZM10.312 9.25037H5.89999C5.66159 9.25037 5.46799 9.05677 5.46799 8.81837C5.46799 8.57997 5.66159 8.38637 5.89999 8.38637H10.312C10.5504 8.38637 10.744 8.57997 10.744 8.81837C10.744 9.05677 10.5504 9.25037 10.312 9.25037ZM10.312 7.54317H5.89999C5.66159 7.54317 5.46799 7.34957 5.46799 7.11117C5.46799 6.87277 5.66159 6.67917 5.89999 6.67917H10.312C10.5504 6.67917 10.744 6.87277 10.744 7.11117C10.744 7.34957 10.5504 7.54317 10.312 7.54317Z"
    fill="#FC7032" />
  <path
    d="M11.996 7.73117V5.17917C11.996 4.49277 11.44 3.93677 10.7536 3.93677H10.3608C10.3784 4.02397 10.388 4.11357 10.388 4.20557C10.388 4.95277 9.78159 5.55917 9.03439 5.55917H7.11519C6.36799 5.55917 5.76159 4.95277 5.76159 4.20557C5.76159 4.11357 5.77119 4.02317 5.78879 3.93677H5.39599C4.70959 3.93677 4.15359 4.49277 4.15359 5.17917V11.1536C4.15359 11.7376 4.55759 12.2264 5.10079 12.3592C5.19199 12.3624 5.28319 12.3648 5.37519 12.3648C8.41919 12.3656 11.012 10.4352 11.996 7.73117ZM5.89999 6.67837H10.312C10.5504 6.67837 10.744 6.87197 10.744 7.11037C10.744 7.34877 10.5504 7.54237 10.312 7.54237H5.89999C5.66159 7.54237 5.46799 7.34877 5.46799 7.11037C5.46799 6.87197 5.66159 6.67837 5.89999 6.67837ZM8.08879 10.8096H5.89999C5.66159 10.8096 5.46799 10.616 5.46799 10.3776C5.46799 10.1392 5.66159 9.94557 5.89999 9.94557H8.08879C8.3272 9.94557 8.52079 10.1392 8.52079 10.3776C8.52079 10.616 8.3272 10.8096 8.08879 10.8096ZM5.89999 9.25037C5.66159 9.25037 5.46799 9.05677 5.46799 8.81837C5.46799 8.57997 5.66159 8.38637 5.89999 8.38637H10.312C10.5504 8.38637 10.744 8.57997 10.744 8.81837C10.744 9.05677 10.5504 9.25037 10.312 9.25037H5.89999Z"
    fill="#FF7C33" />
  <path
    d="M6.328 9.25037H5.9C5.66159 9.25037 5.46799 9.05677 5.46799 8.81837C5.46799 8.57997 5.66159 8.38637 5.9 8.38637H7.7656C8.0928 8.13197 8.3968 7.85037 8.6744 7.54317H5.9C5.66159 7.54317 5.46799 7.34957 5.46799 7.11117C5.46799 6.87277 5.66159 6.67917 5.9 6.67917H9.34239C9.69403 6.14376 9.97048 5.5626 10.164 4.95197C9.9216 5.31837 9.5064 5.55997 9.0344 5.55997H7.1152C6.368 5.55997 5.7616 4.95357 5.7616 4.20637C5.7616 4.11437 5.77119 4.02397 5.78879 3.93757H5.39599C4.70959 3.93757 4.15359 4.49357 4.15359 5.17997V9.82957C4.90482 9.75464 5.63904 9.55906 6.328 9.25037ZM10.3816 4.07277C10.3896 4.02797 10.3968 3.98237 10.404 3.93677H10.3608C10.3704 3.98157 10.3768 4.02717 10.3816 4.07277Z"
    fill="#FF9552" />
  <path
    d="M6.53519 5.42803C6.07839 5.21043 5.76159 4.74643 5.76159 4.20643C5.76159 4.11443 5.77119 4.02403 5.78879 3.93763H5.39599C4.70959 3.93763 4.15359 4.49363 4.15359 5.18003V6.92323C5.03973 6.58966 5.84968 6.08116 6.53519 5.42803ZM8.05279 3.32483H7.18159C6.69999 3.32483 6.30959 3.71523 6.30959 4.19683C6.30959 4.58803 6.56719 4.91923 6.92159 5.02963C7.3793 4.5192 7.76036 3.94492 8.05279 3.32483Z"
    fill="#FFA56A" />
</svg>