<svg width="20" height="20" viewBox="0 0 20 20" fill="none" xmlns="http://www.w3.org/2000/svg">
<path fill-rule="evenodd" clip-rule="evenodd" d="M5.75 0.75C5.47386 0.75 5.25 0.973858 5.25 1.25V2.75C5.25 3.02614 5.47386 3.25 5.75 3.25H13.75C14.0261 3.25 14.25 3.02614 14.25 2.75V1.25C14.25 0.973858 14.0261 0.75 13.75 0.75H5.75ZM4.25 1.25H2.5C1.94772 1.25 1.5 1.69772 1.5 2.25V18.25C1.5 18.8023 1.94772 19.25 2.5 19.25H17.5C18.0523 19.25 18.5 18.8023 18.5 18.25V11.0784L14.5118 15.6296C14.3672 15.7974 14.18 15.9199 13.9736 15.9864L12.5618 16.4418C11.7657 16.6985 10.8744 16.0564 11.0133 15.1349L11.2288 13.704L11.2289 13.7028C11.2625 13.4794 11.359 13.2725 11.5042 13.1044L11.5049 13.1035L18.5 5.12097V2.25C18.5 1.69772 18.0523 1.25 17.5 1.25H15.25V2.5C15.25 3.32843 14.5784 4 13.75 4H5.75C4.92157 4 4.25 3.32843 4.25 2.5V1.25ZM18.5 9.56111V6.63825L12.2611 13.7579C12.238 13.7846 12.223 13.8171 12.2178 13.8517L12.0021 15.2839C11.9812 15.4226 12.1178 15.5342 12.2547 15.4901L13.6667 15.0347C13.7008 15.0237 13.7311 15.0037 13.7541 14.9769L18.5 9.56111Z" fill="white"/>
</svg>
