<svg xmlns="http://www.w3.org/2000/svg" width="40" height="40" viewBox="0 0 40 40" fill="none">
  <path opacity="0.6"
    d="M2 20C2 22.3638 2.46558 24.7044 3.37017 26.8883C4.27475 29.0722 5.60062 31.0565 7.27208 32.7279C8.94353 34.3994 10.9278 35.7252 13.1117 36.6298C15.2956 37.5344 17.6362 38 20 38C22.3638 38 24.7044 37.5344 26.8883 36.6298C29.0722 35.7252 31.0565 34.3994 32.7279 32.7279C34.3994 31.0565 35.7252 29.0722 36.6298 26.8883C37.5344 24.7044 38 22.3638 38 20C38 17.6362 37.5344 15.2956 36.6298 13.1117C35.7252 10.9278 34.3994 8.94353 32.7279 7.27208C31.0565 5.60062 29.0722 4.27475 26.8883 3.37017C24.7044 2.46558 22.3638 2 20 2C17.6362 2 15.2956 2.46558 13.1117 3.37017C10.9278 4.27475 8.94353 5.60062 7.27208 7.27208C5.60062 8.94353 4.27475 10.9278 3.37017 13.1117C2.46558 15.2956 2 17.6362 2 20Z"
    fill="#A5C2FF" />
  <path
    d="M20.0517 6.5H20C12.5466 6.5 6.5 12.5466 6.5 20C6.5 27.4534 12.5466 33.5 20 33.5C27.4419 33.5 33.477 27.4821 33.5 20.0459H20.0517V6.5Z"
    fill="#2D70FF" />
  <path d="M21.1822 5.375H21.125V18.875H34.625C34.6021 11.4166 28.5926 5.375 21.1822 5.375Z" fill="#2D70FF" />
</svg>