<svg width="20" height="20" viewBox="0 0 20 20" fill="none" xmlns="http://www.w3.org/2000/svg">
  <path fill-rule="evenodd" clip-rule="evenodd"
    d="M2 1.5C2 0.947715 2.44772 0.5 3 0.5H18C18.5523 0.5 19 0.947715 19 1.5V18.5C19 19.0523 18.5523 19.5 18 19.5H3C2.44772 19.5 2 19.0523 2 18.5V16.5H4.5V15.5H2V12.5H4.5V11.5H2V8.5H4.5V7.5H2V4.5H4.5V3.5H2V1.5ZM12 3.5C12 3.22386 12.2239 3 12.5 3H17.5C17.7761 3 18 3.22386 18 3.5C18 3.77614 17.7761 4 17.5 4H12.5C12.2239 4 12 3.77614 12 3.5ZM9.5 6C9.22386 6 9 6.22386 9 6.5C9 6.77614 9.22386 7 9.5 7H17.5C17.7761 7 18 6.77614 18 6.5C18 6.22386 17.7761 6 17.5 6H9.5Z"
    fill="white" />
  <rect x="1" y="3.5" width="1" height="1" fill="white" />
  <rect x="1" y="7.5" width="1" height="1" fill="white" />
  <rect x="1" y="11.5" width="1" height="1" fill="white" />
  <rect x="1" y="15.5" width="1" height="1" fill="white" />
</svg>