<svg xmlns="http://www.w3.org/2000/svg" width="41" height="40" viewBox="0 0 41 40" fill="none">
  <path
    d="M20.5 2C25.2739 2 29.8523 3.89642 33.2279 7.27208C36.6036 10.6477 38.5 15.2261 38.5 20C38.5 24.7739 36.6036 29.3523 33.2279 32.7279C29.8523 36.1036 25.2739 38 20.5 38C15.7261 38 11.1477 36.1036 7.77208 32.7279C4.39642 29.3523 2.5 24.7739 2.5 20C2.5 15.2261 4.39642 10.6477 7.77208 7.27208C11.1477 3.89642 15.7261 2 20.5 2Z"
    fill="#FFECD8" />
  <path opacity="0.9"
    d="M20.5 6C24.213 6 27.774 7.475 30.3995 10.1005C33.025 12.726 34.5 16.287 34.5 20C34.5 23.713 33.025 27.274 30.3995 29.8995C27.774 32.525 24.213 34 20.5 34C16.787 34 13.226 32.525 10.6005 29.8995C7.975 27.274 6.5 23.713 6.5 20C6.5 16.287 7.975 12.726 10.6005 10.1005C13.226 7.475 16.787 6 20.5 6Z"
    fill="#FF9A2F" />
  <path
    d="M29.8149 15.5L19.1679 26.3L18.8529 26.597L18.5379 26.3L11.9409 19.622L14.0919 17.444L18.8529 22.259L27.6999 13.295L29.8149 15.5Z"
    fill="white" />
</svg>