<svg width="20" height="20" viewBox="0 0 20 20" fill="none" xmlns="http://www.w3.org/2000/svg">
<path fill-rule="evenodd" clip-rule="evenodd" d="M10.1165 9.50094C10.0527 9.53294 9.97489 9.53254 9.91155 9.50014L1.55199 5.2642L9.89752 1.02426C9.92885 1.00836 9.96433 1 10.0005 1C10.0366 1 10.0721 1.00836 10.1034 1.02426L18.5141 5.2982L10.1165 9.50094ZM9.45476 10.3515C9.47304 10.3794 9.48265 10.4111 9.48262 10.4433L9.48217 19L1.10406 14.7425C1.03982 14.7097 1 14.6493 1 14.5841V6.03939L9.37855 10.2845C9.41019 10.3005 9.43649 10.3237 9.45476 10.3515ZM10.5451 10.366C10.5635 10.338 10.59 10.3149 10.6219 10.2989L19 6.10459V14.5845C18.9999 14.6166 18.9903 14.6482 18.972 14.676C18.9538 14.7038 18.9275 14.7269 18.8959 14.7429L10.5169 19V10.4581C10.5169 10.4257 10.5266 10.3939 10.5451 10.366ZM4.21395 8.78796C3.86158 8.62892 3.447 8.78565 3.28796 9.13803C3.12893 9.4904 3.28566 9.90498 3.63803 10.064L7.12662 11.6385C7.47899 11.7976 7.89357 11.6408 8.05261 11.2885C8.21164 10.9361 8.05491 10.5215 7.70254 10.3625L4.21395 8.78796Z" fill="white"/>
</svg>
