<svg width="16" height="16" viewBox="0 0 16 16" fill="none" xmlns="http://www.w3.org/2000/svg">
<path d="M7.15576 6.8L7.60021 5.64445C6.22243 5.86667 5.15576 7.11111 5.15576 8.48889C5.15576 9.15556 5.42243 9.77778 5.82243 10.3111L6.26687 9.2C6.17798 8.97778 6.13354 8.75556 6.13354 8.48889C6.13354 7.82222 6.57798 7.15556 7.15576 6.8Z" fill="#303133"/>
<path d="M1.33322 8.48889C2.88878 5.73333 5.19989 4.04444 7.99989 4.04444H8.22211L8.53323 3.15556H7.99989C6.35545 3.15556 4.75545 3.64444 3.37767 4.62222C0.755447 6.44444 0.444336 8.48889 0.444336 8.48889C0.444336 8.48889 0.755447 10.5333 3.37767 12.3556C3.82211 12.6667 4.26656 12.8889 4.75545 13.1111L5.06656 12.2667C3.42211 11.5111 1.99989 10.1333 1.33322 8.48889ZM12.6221 4.57778C12.2221 4.31111 11.7777 4.04444 11.3332 3.86667L10.9777 4.71111C12.6221 5.46667 13.9999 6.84444 14.6666 8.44444C13.5999 11.0222 10.7999 12.8889 7.99989 12.8889H7.59989L7.24434 13.7778C7.511 13.8222 7.73322 13.8222 7.99989 13.8222C9.64434 13.8222 11.2443 13.3333 12.6221 12.3556C13.9554 11.4222 15.0221 10.2667 15.5554 8.48889C15.5554 8.48889 15.111 6.35556 12.6221 4.57778Z" fill="#303133"/>
<path d="M8.71089 10.2667L8.26645 11.3778C9.68867 11.2444 10.8442 9.95555 10.8442 8.48889C10.8442 7.82222 10.622 7.2 10.222 6.71111L9.77756 7.73333C9.91089 7.95555 9.95534 8.22222 9.95534 8.48889C9.91089 9.2 9.37756 9.91111 8.71089 10.2667ZM11.0664 2.22222H10.222L4.88867 15.5556C4.88867 15.5556 4.88867 15.6 4.93312 15.6H5.73312C5.77756 15.6 5.77756 15.6 5.77756 15.5556L11.1109 2.31111C11.1109 2.26667 11.1109 2.22222 11.0664 2.22222Z" fill="#303133"/>
</svg>
