<svg width="16" height="16" viewBox="0 0 16 16" fill="none" xmlns="http://www.w3.org/2000/svg">
<path d="M6.33301 3.33317V2.33317C6.33301 1.96498 6.63147 1.6665 6.99967 1.6665H13.6663C14.0345 1.6665 14.333 1.96498 14.333 2.33317V9.6665C14.333 10.0347 14.0345 10.3332 13.6663 10.3332H12.333" stroke="currentColor" stroke-width="1.16667" stroke-linecap="round" stroke-linejoin="round"/>
<path d="M9.00033 6H2.33366C1.96547 6 1.66699 6.29848 1.66699 6.66667V13.3333C1.66699 13.7015 1.96547 14 2.33366 14H9.00033C9.36852 14 9.66699 13.7015 9.66699 13.3333V6.66667C9.66699 6.29848 9.36852 6 9.00033 6Z" stroke="currentColor" stroke-width="1.16667" stroke-linecap="round" stroke-linejoin="round"/>
<path d="M5.66699 8.3335V11.6668" stroke="currentColor" stroke-width="1.16667" stroke-linecap="round" stroke-linejoin="round"/>
<path d="M4 10H7.33333" stroke="currentColor" stroke-width="1.16667" stroke-linecap="round" stroke-linejoin="round"/>
</svg>
