<svg width="16" height="16" viewBox="0 0 16 16" fill="none" xmlns="http://www.w3.org/2000/svg">
  <g clip-path="url(#clip0_20429_6817)">
    <path
      d="M8.00016 14.6666C4.31816 14.6666 1.3335 11.6819 1.3335 7.99992C1.3335 4.31792 4.31816 1.33325 8.00016 1.33325C11.6822 1.33325 14.6668 4.31792 14.6668 7.99992C14.6668 11.6819 11.6822 14.6666 8.00016 14.6666ZM8.00016 13.3333C9.41465 13.3333 10.7712 12.7713 11.7714 11.7712C12.7716 10.771 13.3335 9.41441 13.3335 7.99992C13.3335 6.58543 12.7716 5.22888 11.7714 4.22868C10.7712 3.22849 9.41465 2.66659 8.00016 2.66659C6.58567 2.66659 5.22912 3.22849 4.22893 4.22868C3.22873 5.22888 2.66683 6.58543 2.66683 7.99992C2.66683 9.41441 3.22873 10.771 4.22893 11.7712C5.22912 12.7713 6.58567 13.3333 8.00016 13.3333ZM8.00016 7.05725L9.8855 5.17125L10.8288 6.11459L8.94283 7.99992L10.8288 9.88525L9.8855 10.8286L8.00016 8.94258L6.11483 10.8286L5.1715 9.88525L7.0575 7.99992L5.1715 6.11459L6.11483 5.17125L8.00016 7.05725Z"
      fill="#FF5633" />
  </g>
  <defs>
    <clipPath id="clip0_20429_6817">
      <rect width="16" height="16" fill="white" />
    </clipPath>
  </defs>
</svg>