<svg width="16" height="16" viewBox="0 0 16 16" fill="none" xmlns="http://www.w3.org/2000/svg">
<path d="M7.15552 6.80003L7.59996 5.64447C6.22218 5.86669 5.15552 7.11114 5.15552 8.48891C5.15552 9.15558 5.42218 9.7778 5.82218 10.3111L6.26663 9.20003C6.17774 8.9778 6.1333 8.75558 6.1333 8.48891C6.1333 7.82225 6.57774 7.15558 7.15552 6.80003Z" fill="#0D376A"/>
<path d="M1.33322 8.48891C2.88878 5.73336 5.19989 4.04447 7.99989 4.04447H8.22211L8.53323 3.15558H7.99989C6.35545 3.15558 4.75545 3.64447 3.37767 4.62225C0.755447 6.44447 0.444336 8.48891 0.444336 8.48891C0.444336 8.48891 0.755447 10.5334 3.37767 12.3556C3.82211 12.6667 4.26656 12.8889 4.75545 13.1111L5.06656 12.2667C3.42211 11.5111 1.99989 10.1334 1.33322 8.48891ZM12.6221 4.5778C12.2221 4.31113 11.7777 4.04447 11.3332 3.86669L10.9777 4.71113C12.6221 5.46669 13.9999 6.84447 14.6666 8.44447C13.5999 11.0222 10.7999 12.8889 7.99989 12.8889H7.59989L7.24434 13.7778C7.511 13.8222 7.73322 13.8222 7.99989 13.8222C9.64434 13.8222 11.2443 13.3334 12.6221 12.3556C13.9554 11.4222 15.0221 10.2667 15.5554 8.48891C15.5554 8.48891 15.111 6.35558 12.6221 4.5778Z" fill="#0D376A"/>
<path d="M8.71114 10.2667L8.26669 11.3778C9.68892 11.2445 10.8445 9.95556 10.8445 8.4889C10.8445 7.82223 10.6222 7.20001 10.2222 6.71112L9.7778 7.73334C9.91114 7.95556 9.95558 8.22223 9.95558 8.4889C9.91114 9.20001 9.3778 9.91112 8.71114 10.2667ZM11.0667 2.22223H10.2222L4.88892 15.5556C4.88892 15.5556 4.88892 15.6 4.93336 15.6H5.73336C5.7778 15.6 5.7778 15.6 5.7778 15.5556L11.1111 2.31112C11.1111 2.26667 11.1111 2.22223 11.0667 2.22223Z" fill="#0D376A"/>
</svg>
