<svg width="20" height="20" viewBox="0 0 20 20" fill="none" xmlns="http://www.w3.org/2000/svg">
<g clip-path="url(#clip0_23249_5133)">
<path d="M13.1572 0.834624L16.0728 2.55743C16.4703 2.82248 16.7354 3.35258 16.6029 3.88267L16.3378 4.94286C16.2053 5.87053 16.7354 6.79819 17.663 7.06324L18.3257 7.19577C18.8558 7.32829 19.2533 7.85838 19.2533 8.38848V11.7016C19.2533 12.2317 18.8558 12.7618 18.4582 12.8943L17.663 13.1593C16.7354 13.4244 16.2053 14.352 16.4703 15.2797L16.6029 16.2074C16.7354 16.7375 16.4703 17.2676 16.0728 17.5326L13.2898 19.2554C12.8922 19.5205 12.2296 19.388 11.832 19.1229L11.1694 18.4603C10.9043 17.9302 10.5068 17.7977 9.97667 17.7977C9.44657 17.7977 9.049 17.9302 8.78395 18.3278L8.12133 18.9904C7.72376 19.388 7.19367 19.388 6.66357 19.1229L3.88057 17.4001C3.483 17.135 3.21795 16.605 3.35048 16.0749L3.483 15.1472C3.61552 14.2195 3.08543 13.2919 2.29029 13.0268L1.49514 12.7618C1.09757 12.6292 0.700001 12.2317 0.700001 11.7016V8.25596C0.700001 7.72586 0.965048 7.32829 1.49514 7.19577L2.29029 6.93072C3.21795 6.66567 3.74805 5.60548 3.483 4.67781L3.35048 3.88267C3.21795 3.35258 3.483 2.82248 3.88057 2.55743L6.79609 0.834624C7.19367 0.569577 7.72376 0.569577 8.12133 0.967148L8.78395 1.49724C9.44657 2.15986 10.5068 2.15986 11.3019 1.49724L11.9645 0.967148C12.2296 0.7021 12.7597 0.569577 13.1572 0.834624ZM7.06114 8.25596C6.39852 9.31615 6.39852 10.6414 7.06114 11.7016C7.72376 12.7618 8.78395 13.4244 9.97667 13.4244C11.832 13.4244 13.2898 11.8341 13.2898 9.97876C13.2898 8.12343 11.832 6.53315 9.97667 6.53315C8.78395 6.53315 7.59124 7.19577 7.06114 8.25596Z" fill="white"/>
</g>
<defs>
<clipPath id="clip0_23249_5133">
<rect width="20" height="20" fill="white"/>
</clipPath>
</defs>
</svg>
