<svg xmlns="http://www.w3.org/2000/svg" width="16" height="16" viewBox="0 0 16 16" fill="none">
  <g clip-path="url(#clip0_3146_15836)">
    <path
      d="M0.991211 8.04241C0.991211 8.96744 1.17341 9.88342 1.5274 10.738C1.8814 11.5927 2.40025 12.3692 3.05435 13.0233C3.70845 13.6774 4.48497 14.1962 5.33959 14.5502C6.19421 14.9042 7.11018 15.0864 8.03521 15.0864C8.96024 15.0864 9.87622 14.9042 10.7308 14.5502C11.5855 14.1962 12.362 13.6774 13.0161 13.0233C13.6702 12.3692 14.189 11.5927 14.543 10.738C14.897 9.88342 15.0792 8.96744 15.0792 8.04241C15.0792 6.17423 14.3371 4.38256 13.0161 3.06155C11.6951 1.74055 9.9034 0.998413 8.03521 0.998413C6.16703 0.998413 4.37536 1.74055 3.05435 3.06155C1.73334 4.38256 0.991211 6.17423 0.991211 8.04241Z"
      fill="#E3FFEC" />
    <path
      d="M11.8656 6.84482L9.6496 8.98642C9.55088 9.08205 9.43605 9.15951 9.3104 9.21522L8.1624 9.72882C7.988 9.80722 7.8024 9.84642 7.6104 9.84642C7.272 9.84642 6.9472 9.72002 6.6976 9.49122C6.50313 9.31317 6.36498 9.08213 6.30016 8.82655C6.23534 8.57098 6.24669 8.30203 6.3328 8.05282L6.7288 6.90802C6.788 6.73682 6.8872 6.57922 7.016 6.45202L9.4488 4.05282L9.268 3.84402C9.22675 3.79621 9.17565 3.75788 9.11822 3.73164C9.06078 3.70541 8.99835 3.69189 8.9352 3.69202H4.9408C4.224 3.69202 3.6392 4.27522 3.6384 4.99202C3.636 6.48002 3.6376 9.48642 3.6392 11.1456C3.64 11.8576 4.2192 12.4368 4.9312 12.4376C5.8048 12.4384 7.5208 12.4392 9.036 12.4392C9.8088 12.4392 10.5296 12.4392 11.06 12.4384C11.7768 12.4376 12.36 11.8536 12.36 11.136V7.58002C12.36 7.47442 12.3216 7.37202 12.2528 7.29202L11.8656 6.84482Z"
      fill="#59BF78" />
    <path
      d="M9.8992 4.71838L7.5776 7.02238C7.536 7.06398 7.504 7.11438 7.4848 7.16958L7.0888 8.31438C7.06005 8.39751 7.0516 8.4863 7.06414 8.57336C7.07668 8.66042 7.10985 8.74322 7.1609 8.81485C7.21194 8.88648 7.27937 8.94487 7.35756 8.98515C7.43576 9.02542 7.52245 9.04642 7.6104 9.04638C7.6864 9.04638 7.7632 9.03038 7.836 8.99838L8.984 8.48478C9.0248 8.46638 9.0616 8.44158 9.0936 8.41038L11.3072 6.25278L9.8992 4.71838Z"
      fill="#75D693" />
    <path
      d="M12.2576 4.47516L11.6824 3.87676C11.6245 3.81613 11.555 3.7677 11.478 3.73432C11.4011 3.70093 11.3183 3.68327 11.2344 3.68236C11.0648 3.67916 10.9024 3.74476 10.7808 3.86476L10.504 4.13836L11.9192 5.68236L12.2416 5.37036C12.492 5.12716 12.4992 4.72636 12.2576 4.47516Z"
      fill="#59BF78" />
    <path
      d="M12.048 7.05603L11.8656 6.84563L9.6496 8.98723C9.55088 9.08286 9.43605 9.16032 9.3104 9.21603L8.1624 9.72963C7.988 9.80803 7.8024 9.84723 7.6104 9.84723C7.272 9.84723 6.9472 9.72083 6.6976 9.49203C6.50313 9.31398 6.36498 9.08294 6.30016 8.82737C6.23534 8.57179 6.24669 8.30284 6.3328 8.05363L6.7288 6.90883C6.788 6.73763 6.8872 6.58003 7.016 6.45283L9.4488 4.05363L9.268 3.84483C9.22675 3.79702 9.17565 3.75869 9.11822 3.73245C9.06078 3.70622 8.99835 3.6927 8.9352 3.69283H4.9408C4.224 3.69283 3.6392 4.27603 3.6384 4.99283C3.636 6.48083 3.6376 9.48723 3.6392 11.1464C3.64 11.8584 4.2192 12.4376 4.9312 12.4384C5.3952 12.4384 6.096 12.4392 6.8784 12.4392C9.4744 11.7856 11.4976 9.69123 12.048 7.05603ZM12.072 4.28083L11.6824 3.87603C11.6245 3.8154 11.555 3.76697 11.478 3.73359C11.4011 3.7002 11.3183 3.68254 11.2344 3.68163C11.0648 3.67843 10.9024 3.74403 10.7808 3.86403L10.504 4.13763L11.9192 5.68163L12.1944 5.41523C12.184 5.02803 12.1416 4.64963 12.072 4.28083Z"
      fill="#75D693" />
    <path
      d="M6.33281 8.05355L6.72881 6.90875C6.78801 6.73755 6.88721 6.57995 7.01601 6.45275L9.44881 4.05355L9.268 3.84475C9.22675 3.79694 9.17566 3.75861 9.11822 3.73237C9.06078 3.70614 8.99835 3.69262 8.9352 3.69275H4.94081C4.22401 3.69275 3.63921 4.27595 3.63841 4.99275C3.63681 6.21355 3.63761 8.45595 3.63841 10.1384C4.6542 10.0806 5.64521 9.80215 6.54241 9.32235C6.40492 9.14487 6.31377 8.93596 6.27718 8.71445C6.24059 8.49295 6.2597 8.26582 6.33281 8.05355Z"
      fill="#93E6AD" />
    <path
      d="M10.0456 4.87844L9.90001 4.71924L7.57841 7.02324C7.53681 7.06484 7.50481 7.11524 7.48561 7.17044L7.08961 8.31524C7.05469 8.41622 7.04986 8.52518 7.0757 8.62885C7.10155 8.73253 7.15697 8.82647 7.23521 8.89924C8.60161 7.95124 9.61681 6.53284 10.0456 4.87844Z"
      fill="#93E6AD" />
    <path
      d="M7.7912 3.69275H4.9408C4.224 3.69275 3.6392 4.27595 3.6384 4.99275C3.6376 5.58555 3.6376 6.41915 3.6376 7.31195C5.4632 6.71755 6.9608 5.39755 7.7912 3.69275Z"
      fill="#CAFBD9" />
  </g>
  <defs>
    <clipPath id="clip0_3146_15836">
      <rect width="16" height="16" fill="white" />
    </clipPath>
  </defs>
</svg>