<svg width="14" height="14" viewBox="0 0 14 14" fill="none" xmlns="http://www.w3.org/2000/svg">
<g clip-path="url(#clip0_17537_26767)">
<path fill-rule="evenodd" clip-rule="evenodd" d="M4.61263 2.04167C4.48175 2.04167 4.37565 2.14777 4.37565 2.27865V3.62588C4.37565 3.94805 4.11448 4.20922 3.79232 4.20922C3.47015 4.20922 3.20898 3.94805 3.20898 3.62588V2.27865C3.20898 1.50343 3.83742 0.875 4.61263 0.875H11.722C12.4972 0.875 13.1257 1.50343 13.1257 2.27865V9.38802C13.1257 10.1632 12.4972 10.7917 11.722 10.7917H10.3596C10.0374 10.7917 9.77624 10.5305 9.77624 10.2083C9.77624 9.88617 10.0374 9.625 10.3596 9.625H11.722C11.8529 9.625 11.959 9.5189 11.959 9.38802V2.27865C11.959 2.14777 11.8529 2.04167 11.722 2.04167H4.61263Z" fill="#6C7380"/>
<path fill-rule="evenodd" clip-rule="evenodd" d="M0.875 4.61165C0.875 3.83644 1.50343 3.20801 2.27865 3.20801H9.38802C10.1632 3.20801 10.7917 3.83644 10.7917 4.61165V11.721C10.7917 12.4962 10.1632 13.1247 9.38802 13.1247H2.27865C1.50343 13.1247 0.875 12.4962 0.875 11.721V4.61165ZM2.27865 4.37467C2.14777 4.37467 2.04167 4.48077 2.04167 4.61165V11.721C2.04167 11.8519 2.14777 11.958 2.27865 11.958H9.38802C9.5189 11.958 9.625 11.8519 9.625 11.721V4.61165C9.625 4.48077 9.5189 4.37467 9.38802 4.37467H2.27865Z" fill="#6C7380"/>
</g>
<defs>
<clipPath id="clip0_17537_26767">
<rect width="14" height="14" fill="white"/>
</clipPath>
</defs>
</svg>
