<svg width="16" height="16" viewBox="0 0 16 16" fill="none" xmlns="http://www.w3.org/2000/svg">
  <path fill-rule="evenodd" clip-rule="evenodd"
    d="M10.6499 7.99961C10.6499 7.64062 10.3589 7.34961 9.9999 7.34961H4.66657C4.30758 7.34961 4.01657 7.64062 4.01657 7.99961C4.01657 8.35859 4.30758 8.64961 4.66657 8.64961H9.9999C10.3589 8.64961 10.6499 8.35859 10.6499 7.99961Z"
    fill="#2871FF" />
  <path fill-rule="evenodd" clip-rule="evenodd"
    d="M7.54028 5.53999C7.28644 5.79383 7.28644 6.20539 7.54028 6.45923L9.08066 7.99961L7.54028 9.53999C7.28644 9.79383 7.28644 10.2054 7.54028 10.4592C7.79412 10.7131 8.20568 10.7131 8.45952 10.4592L10.4595 8.45923C10.7134 8.20539 10.7134 7.79383 10.4595 7.53999L8.45952 5.53999C8.20568 5.28615 7.79412 5.28615 7.54028 5.53999Z"
    fill="#2871FF" />
  <path fill-rule="evenodd" clip-rule="evenodd"
    d="M3.33332 7.31758C3.71071 7.31758 4.01665 7.62352 4.01665 8.00091C4.01665 8.37831 3.71071 8.68425 3.33332 8.68425C2.95592 8.68425 2.64998 8.37831 2.64998 8.00091C2.64998 7.62352 2.95592 7.31758 3.33332 7.31758ZM5.31665 8.00091C5.31665 6.90555 4.42868 6.01758 3.33332 6.01758C2.23795 6.01758 1.34998 6.90555 1.34998 8.00091C1.34998 9.09628 2.23795 9.98424 3.33332 9.98424C4.42868 9.98424 5.31665 9.09628 5.31665 8.00091Z"
    fill="#2871FF" />
  <path fill-rule="evenodd" clip-rule="evenodd"
    d="M15.3167 8.00026C15.3167 3.95937 12.0409 0.683594 7.99998 0.683594C6.00609 0.683594 4.19737 1.48202 2.87829 2.77514L3.33332 3.2393L2.87829 2.77514C2.50782 3.13833 2.17575 3.54069 1.88878 3.97561C1.69107 4.27525 1.7737 4.67843 2.07334 4.87613C2.37297 5.07384 2.77615 4.99121 2.97386 4.69158C3.20995 4.33376 3.48329 4.00253 3.78835 3.70347C4.87427 2.63892 6.35995 1.98359 7.99998 1.98359C11.3229 1.98359 14.0167 4.67735 14.0167 8.00026C14.0167 11.3232 11.3229 14.0169 7.99998 14.0169C6.35995 14.0169 4.87427 13.3616 3.78835 12.2971C3.48328 11.998 3.20995 11.6668 2.97386 11.3089C2.77615 11.0093 2.37297 10.9267 2.07334 11.1244C1.7737 11.3221 1.69107 11.7253 1.88878 12.0249C2.17575 12.4598 2.50781 12.8622 2.87828 13.2254L2.87829 13.2254C4.19737 14.5185 6.00609 15.3169 7.99998 15.3169C12.0409 15.3169 15.3167 12.0411 15.3167 8.00026Z"
    fill="#2871FF" />
</svg>