<svg width="80" height="80" viewBox="0 0 80 80" fill="none" xmlns="http://www.w3.org/2000/svg">
<path fill-rule="evenodd" clip-rule="evenodd" d="M51.5433 7.60254L66.4362 22.4949V55H62.5169V25.2185H48.8004V11.502H15.488V66.3689H45V70.308H13.5284C13.271 70.308 13.0161 70.2573 12.7783 70.1588C12.5405 70.0603 12.3245 69.9159 12.1425 69.7339C11.9605 69.5518 11.8162 69.3358 11.7177 69.0979C11.6193 68.8601 11.5687 68.6052 11.5687 68.3478V9.56219C11.5687 9.04246 11.7752 8.54401 12.1427 8.17651C12.5102 7.809 13.0086 7.60254 13.5284 7.60254H51.5433Z" fill="#E1E3E5"/>
<path fill-rule="evenodd" clip-rule="evenodd" d="M70 32H7V59H70V32ZM15.494 39.073L18.439 53H20.529L22.6 44.602C22.7051 44.0941 22.8182 43.6063 22.9302 43.1239C23.0611 42.5596 23.1903 42.0026 23.303 41.429H23.379C23.4426 41.7257 23.5047 42.0181 23.5666 42.3092C23.7265 43.0621 23.8849 43.8073 24.063 44.602L26.172 53H28.3L31.169 39.073H29.497L27.996 46.654C27.8822 47.3456 27.7644 48.0372 27.6462 48.7306C27.5079 49.5422 27.3692 50.3563 27.236 51.176H27.122C26.9675 50.4894 26.8208 49.8027 26.6748 49.1196C26.4976 48.2905 26.3215 47.4665 26.134 46.654L24.196 39.073H22.581L20.662 46.654C20.32 48.155 19.978 49.656 19.674 51.176H19.598C19.4698 50.4925 19.3455 49.8129 19.2216 49.1353C19.0699 48.3061 18.9188 47.4801 18.762 46.654L17.299 39.073H15.494ZM32.6687 47.851C32.6687 51.271 34.9107 53.247 37.4377 53.247C39.9647 53.247 42.2067 51.271 42.2067 47.851C42.2067 44.412 39.9647 42.417 37.4377 42.417C34.9107 42.417 32.6687 44.412 32.6687 47.851ZM40.4397 47.851C40.4397 50.226 39.2237 51.803 37.4377 51.803C35.6517 51.803 34.4547 50.226 34.4547 47.851C34.4547 45.476 35.6517 43.88 37.4377 43.88C39.2237 43.88 40.4397 45.476 40.4397 47.851ZM44.9511 42.683V53H46.6991V46.369C47.3831 44.621 48.4281 43.975 49.2831 43.975C49.7201 43.975 49.9481 44.032 50.2901 44.146L50.6131 42.645C50.2901 42.474 49.9671 42.417 49.5111 42.417C48.3711 42.417 47.3071 43.253 46.5851 44.564H46.5471L46.3761 42.683H44.9511ZM51.3722 47.851C51.3722 51.29 53.0442 53.247 55.6282 53.247C56.8632 53.247 57.9652 52.582 58.7632 51.784H58.8202L58.9722 53H60.3972V37.876H58.6492V41.847L58.7442 43.614C57.8322 42.873 57.0532 42.417 55.8372 42.417C53.4812 42.417 51.3722 44.507 51.3722 47.851ZM58.6492 50.378C57.7942 51.328 56.9582 51.784 56.0082 51.784C54.2032 51.784 53.1582 50.321 53.1582 47.832C53.1582 45.476 54.4882 43.88 56.1412 43.88C56.9962 43.88 57.7942 44.184 58.6492 44.963V50.378Z" fill="#C1C4CB"/>
<path d="M63.6496 68.5084C62.9133 67.7617 61.712 67.756 60.9662 68.4932L59.9073 69.542V62.0865C59.9073 61.0377 59.0571 60.1865 58.0095 60.1865C56.962 60.1865 56.1118 61.0377 56.1118 62.0865V69.5458L55.0548 68.4951C54.3109 67.756 53.1096 67.7598 52.3714 68.5046C51.6332 69.2494 51.637 70.4521 52.3809 71.1912L56.6622 75.449C57.0322 75.8176 57.5161 76 58.0001 76C58.4821 76 58.9641 75.8176 59.3342 75.4509L63.6344 71.1931C64.3802 70.4578 64.3859 69.2532 63.6496 68.5084Z" fill="#FF9A2F"/>
<path d="M69.2763 58.8849H69.079C68.9651 52.8544 64.05 48 58 48C51.95 48 47.033 52.8544 46.921 58.8849H46.7237C43.0098 58.8849 40 61.8983 40 65.6165C40 69.3348 43.0098 72.3481 46.7237 72.3481H51.6616L51.4452 72.1334C50.1832 70.8795 50.1756 68.8294 51.4281 67.5659C52.3315 66.6558 53.6466 66.3974 54.7833 66.7926V62.0826C54.7833 60.3023 56.2313 58.8526 58.0095 58.8526C59.7877 58.8526 61.2356 60.3023 61.2356 62.0826V66.7926C62.3743 66.3955 63.6913 66.6558 64.5946 67.5697C65.8452 68.837 65.8338 70.8852 64.5681 72.1372L64.3555 72.3462H69.2763C72.9902 72.3462 76 69.3329 76 65.6146C76 61.9002 72.9902 58.8849 69.2763 58.8849Z" fill="#2871FF"/>
</svg>
