<svg width="80" height="80" viewBox="0 0 80 80" fill="none" xmlns="http://www.w3.org/2000/svg">
<path fill-rule="evenodd" clip-rule="evenodd" d="M51.5433 7.60254L66.4362 22.4949V49H62.5169V25.2185H48.8004V11.502H15.488V66.3689H48V70.308H13.5284C13.271 70.308 13.0161 70.2573 12.7783 70.1588C12.5405 70.0603 12.3245 69.9159 12.1425 69.7339C11.9605 69.5518 11.8162 69.3358 11.7177 69.0979C11.6193 68.8601 11.5687 68.6052 11.5687 68.3478V9.56219C11.5687 9.04246 11.7752 8.54401 12.1427 8.17651C12.5102 7.809 13.0086 7.60254 13.5284 7.60254H51.5433Z" fill="#E1E3E5"/>
<path fill-rule="evenodd" clip-rule="evenodd" d="M8 35H71V54.3644C68.9186 51.234 65.4065 49.1369 61.3972 49.0065V40.876H59.6492V44.847L59.7442 46.614C58.8322 45.873 58.0532 45.417 56.8372 45.417C54.4812 45.417 52.3722 47.507 52.3722 50.851C52.3722 51.4495 52.4229 52.0031 52.5201 52.5093C50.3454 54.6813 49 57.6835 49 61C49 61.3368 49.0139 61.6703 49.0411 62H8V35ZM59.6492 49.0752C57.6259 49.3018 55.7547 50.0316 54.1636 51.1365C54.16 51.0368 54.1582 50.9353 54.1582 50.832C54.1582 48.476 55.4882 46.88 57.1412 46.88C57.9962 46.88 58.7942 47.184 59.6492 47.963V49.0752ZM19.439 56L16.494 42.073H18.299L19.762 49.654C19.9188 50.4799 20.0699 51.3059 20.2215 52.135L20.2216 52.1353C20.3455 52.8129 20.4698 53.4925 20.598 54.176H20.674C20.978 52.656 21.32 51.155 21.662 49.654L23.581 42.073H25.196L27.134 49.654C27.3215 50.4665 27.4976 51.2905 27.6748 52.1196L27.6748 52.1199C27.8208 52.8029 27.9675 53.4895 28.122 54.176H28.236C28.3692 53.3564 28.5079 52.5424 28.6462 51.7309L28.6462 51.7306L28.6462 51.7305C28.7644 51.0371 28.8822 50.3455 28.996 49.654L30.497 42.073H32.169L29.3 56H27.172L25.063 47.602C24.8849 46.8073 24.7265 46.0621 24.5666 45.3092C24.5047 45.0181 24.4426 44.7257 24.379 44.429H24.303C24.1903 45.0026 24.0611 45.5596 23.9302 46.1239L23.9302 46.1239C23.8182 46.6064 23.7051 47.0941 23.6 47.602L21.529 56H19.439ZM38.4377 56.247C35.9107 56.247 33.6687 54.271 33.6687 50.851C33.6687 47.412 35.9107 45.417 38.4377 45.417C40.9647 45.417 43.2067 47.412 43.2067 50.851C43.2067 54.271 40.9647 56.247 38.4377 56.247ZM38.4377 54.803C40.2237 54.803 41.4397 53.226 41.4397 50.851C41.4397 48.476 40.2237 46.88 38.4377 46.88C36.6517 46.88 35.4547 48.476 35.4547 50.851C35.4547 53.226 36.6517 54.803 38.4377 54.803ZM45.9511 56V45.683H47.3761L47.5471 47.564H47.5851C48.3071 46.253 49.3711 45.417 50.5111 45.417C50.9671 45.417 51.2901 45.474 51.6131 45.645L51.2901 47.146C50.9481 47.032 50.7201 46.975 50.2831 46.975C49.4281 46.975 48.3831 47.621 47.6991 49.369V56H45.9511Z" fill="#C1C4CB"/>
<g clip-path="url(#clip0_22907_77480)">
<path d="M71.58 50.425C71.5775 50.425 71.5767 50.4229 71.5754 50.4221C65.685 44.5271 56.1325 44.5263 50.24 50.4179C44.4467 56.4117 44.6108 65.9688 50.6058 71.7612C56.4558 77.4125 65.7308 77.4133 71.5808 71.7612C77.4738 65.8704 77.4725 56.3171 71.58 50.425ZM67.4471 67.6292C67.2087 67.8675 66.8875 68.0045 66.5505 68.0115C66.2134 68.0185 65.8868 67.895 65.6388 67.6667L60.9038 62.9383L56.1783 67.6667C55.9306 67.8964 55.6036 68.0211 55.2658 68.0148C54.9281 68.0084 54.6059 67.8714 54.367 67.6325C54.1282 67.3937 53.9912 67.0715 53.9848 66.7338C53.9784 66.396 54.1032 66.0689 54.3329 65.8212L59.065 61.0933L54.3333 56.3654C54.1039 56.1178 53.9793 55.7909 53.9857 55.4534C53.9921 55.1159 54.129 54.7939 54.3677 54.5552C54.6064 54.3165 54.9283 54.1795 55.2658 54.173C55.6033 54.1665 55.9302 54.291 56.1779 54.5204L60.9038 59.2483L65.6354 54.515C65.8829 54.2841 66.2105 54.1583 66.5489 54.1642C66.8874 54.1701 67.2104 54.3072 67.4497 54.5466C67.689 54.7859 67.8261 55.1089 67.8319 55.4474C67.8377 55.7859 67.7118 56.1134 67.4808 56.3608L62.7517 61.0917L67.4863 65.8196C67.7143 66.0679 67.8375 66.3947 67.83 66.7318C67.8226 67.0688 67.6851 67.39 67.4463 67.6279L67.4471 67.6287V67.6292Z" fill="#FF5633"/>
</g>
<defs>
<clipPath id="clip0_22907_77480">
<rect width="30" height="30" fill="white" transform="translate(46 46)"/>
</clipPath>
</defs>
</svg>
