<svg width="80" height="80" viewBox="0 0 80 80" fill="none" xmlns="http://www.w3.org/2000/svg">
  <path fill-rule="evenodd" clip-rule="evenodd"
    d="M51.5433 7.60254L66.4362 22.4949V49H62.5169V25.2185H48.8005V11.502H15.4881V66.3689H48V70.308H13.5284C13.271 70.308 13.0161 70.2573 12.7784 70.1588C12.5406 70.0603 12.3245 69.9159 12.1425 69.7339C11.9606 69.5518 11.8162 69.3358 11.7178 69.0979C11.6193 68.8601 11.5687 68.6052 11.5688 68.3478V9.56219C11.5688 9.04246 11.7752 8.54401 12.1427 8.17651C12.5102 7.809 13.0087 7.60254 13.5284 7.60254H51.5433Z"
    fill="#E1E3E5" />
  <path fill-rule="evenodd" clip-rule="evenodd"
    d="M7.65002 35.0156H70.355V52.2734C67.8917 49.6434 64.3878 48 60.5 48C59.05 48 57.6534 48.2286 56.3443 48.6517V42.874H54.8356V49.2422C54.1373 49.5655 53.4713 49.9466 52.8437 50.3795C52.8179 49.4348 52.4876 48.5197 51.8964 47.7734C51.5702 47.417 51.169 47.1373 50.7218 46.9543C50.2745 46.7713 49.7923 46.6897 49.3098 46.7152C48.7792 46.7052 48.253 46.8124 47.7686 47.0291C47.2842 47.2459 46.8536 47.5669 46.5075 47.9692C45.7335 48.8568 45.3272 50.0061 45.3712 51.1829C45.3029 52.3523 45.6734 53.5051 46.4102 54.4158C46.7586 54.8073 47.1878 55.1187 47.6681 55.3285C47.8965 55.4282 48.1338 55.5038 48.3763 55.5546C47.495 57.3484 47 59.3664 47 61.5C47 61.8191 47.0111 62.1355 47.0328 62.4491H7.65002V35.0156ZM49.0213 54.3908C49.6679 53.349 50.4524 52.4017 51.3493 51.5745H46.8408C46.8151 52.3424 47.0812 53.0915 47.5855 53.6711C47.8421 53.9251 48.1491 54.1225 48.4866 54.2508C48.6598 54.3166 48.8391 54.3635 49.0213 54.3908ZM28.225 55.4151H21.8565V43.5599H27.9703V44.9316H23.3261V48.7332H27.5589V50.0856H23.3261V54.0044H28.225V55.4151ZM36.69 46.9501L33.8487 51.2219L36.651 55.4151H34.9069L33.3004 52.7306L32.928 52.0645C32.8098 52.2933 32.6783 52.5161 32.5364 52.7306L30.8903 55.4344H29.2051L32.0854 51.2802L29.2051 46.9495H30.9491L32.5364 49.7908L32.889 50.4569L35.0835 46.9495H36.69V46.9501ZM43.9407 55.0428C43.2257 55.4506 42.4123 55.654 41.5894 55.6307C41.0414 55.6526 40.4949 55.5593 39.9852 55.3567C39.4755 55.1542 39.014 54.8469 38.6304 54.4548C37.8675 53.6243 37.4657 52.5247 37.5134 51.3979C37.4606 50.1645 37.8973 48.9602 38.7283 48.0473C39.1464 47.6183 39.6507 47.2829 40.208 47.0633C40.7653 46.8437 41.3629 46.7449 41.9612 46.7735C42.6374 46.7585 43.3079 46.8992 43.9209 47.1849V48.6743C43.357 48.2459 42.6694 48.012 41.9612 48.0077C41.5672 47.996 41.1753 48.0707 40.8132 48.2264C40.451 48.3821 40.1273 48.6152 39.8646 48.9092C39.2895 49.5553 38.9812 50.3957 39.0022 51.2604C38.9531 52.0943 39.2267 52.9151 39.7662 53.5528C40.019 53.817 40.3233 54.0265 40.6605 54.1681C40.9976 54.3098 41.3602 54.3806 41.7258 54.3762C42.4726 54.3663 43.1955 54.1114 43.7834 53.6507L43.9407 55.0428ZM51.3475 50.3788C51.3871 49.7131 51.1775 49.0565 50.7596 48.5368C50.568 48.3298 50.334 48.1667 50.0735 48.0584C49.813 47.9502 49.5323 47.8995 49.2504 47.9098C48.9603 47.9077 48.673 47.9659 48.4066 48.0806C48.1401 48.1954 47.9005 48.3642 47.7027 48.5764C47.2485 49.0546 46.9599 49.6659 46.8793 50.3205L51.3475 50.3788Z"
    fill="#C1C4CB" />
  <g clip-path="url(#clip0_20732_3320)">
    <path
      d="M71.58 50.425C71.5775 50.425 71.5767 50.4229 71.5754 50.4221C65.685 44.5271 56.1325 44.5263 50.24 50.4179C44.4467 56.4117 44.6108 65.9688 50.6058 71.7612C56.4558 77.4125 65.7308 77.4133 71.5808 71.7612C77.4738 65.8704 77.4725 56.3171 71.58 50.425ZM67.4471 67.6292C67.2087 67.8675 66.8875 68.0045 66.5505 68.0115C66.2134 68.0185 65.8868 67.895 65.6388 67.6667L60.9038 62.9383L56.1783 67.6667C55.9306 67.8964 55.6036 68.0211 55.2658 68.0148C54.9281 68.0084 54.6059 67.8714 54.367 67.6325C54.1282 67.3937 53.9912 67.0715 53.9848 66.7338C53.9784 66.396 54.1032 66.0689 54.3329 65.8212L59.065 61.0933L54.3333 56.3654C54.1039 56.1178 53.9793 55.7909 53.9857 55.4534C53.9921 55.1159 54.129 54.7939 54.3677 54.5552C54.6064 54.3165 54.9283 54.1795 55.2658 54.173C55.6033 54.1665 55.9302 54.291 56.1779 54.5204L60.9038 59.2483L65.6354 54.515C65.8829 54.2841 66.2105 54.1583 66.5489 54.1642C66.8874 54.1701 67.2104 54.3072 67.4497 54.5466C67.689 54.7859 67.8261 55.1089 67.8319 55.4474C67.8377 55.7859 67.7118 56.1134 67.4808 56.3608L62.7517 61.0917L67.4863 65.8196C67.7143 66.0679 67.8375 66.3947 67.83 66.7318C67.8226 67.0688 67.6851 67.39 67.4463 67.6279L67.4471 67.6287V67.6292Z"
      fill="#FF5633" />
  </g>
  <defs>
    <clipPath id="clip0_20732_3320">
      <rect width="30" height="30" fill="white" transform="translate(46 46)" />
    </clipPath>
  </defs>
</svg>