<svg width="80" height="80" viewBox="0 0 80 80" fill="none" xmlns="http://www.w3.org/2000/svg">
  <path fill-rule="evenodd" clip-rule="evenodd"
    d="M51.5433 7.60254L66.4362 22.4949V55H62.5169V25.2185H48.8005V11.502H15.4881V66.3689H45V70.308H13.5284C13.271 70.308 13.0161 70.2573 12.7784 70.1588C12.5406 70.0603 12.3245 69.9159 12.1425 69.7339C11.9606 69.5518 11.8162 69.3358 11.7178 69.0979C11.6193 68.8601 11.5687 68.6052 11.5688 68.3478V9.56219C11.5688 9.04246 11.7752 8.54401 12.1427 8.17651C12.5102 7.809 13.0087 7.60254 13.5284 7.60254H51.5433Z"
    fill="#E1E3E5" />
  <path fill-rule="evenodd" clip-rule="evenodd"
    d="M7.64999 35.0156H70.355V62.4491H69.7587C67.6765 58.046 63.1939 55 58 55C57.4391 55 56.8865 55.0355 56.3443 55.1044V42.874H54.8356V55.3878C51.0282 56.3401 47.886 58.9712 46.2413 62.4491H7.64999V35.0156ZM28.225 55.4151H21.8565V43.5599H27.9703V44.9316H23.3261V48.7332H27.5589V50.0856H23.3261V54.0044H28.225V55.4151ZM36.69 46.9501L33.8487 51.2219L36.651 55.4151H34.9069L33.3004 52.7306L32.928 52.0645C32.8098 52.2933 32.6783 52.5161 32.5364 52.7306L30.8903 55.4344H29.2051L32.0854 51.2802L29.2051 46.9495H30.9491L32.5364 49.7908L32.889 50.4569L35.0835 46.9495H36.69V46.9501ZM43.9407 55.0428C43.2256 55.4506 42.4122 55.654 41.5894 55.6307C41.0414 55.6526 40.4949 55.5593 39.9852 55.3567C39.4755 55.1542 39.0139 54.8469 38.6304 54.4548C37.8675 53.6243 37.4657 52.5247 37.5134 51.3979C37.4606 50.1645 37.8972 48.9602 38.7283 48.0473C39.1463 47.6183 39.6507 47.2829 40.208 47.0633C40.7653 46.8437 41.3629 46.7449 41.9612 46.7735C42.6373 46.7585 43.3079 46.8992 43.9209 47.1849V48.6743C43.357 48.2459 42.6694 48.012 41.9612 48.0077C41.5672 47.996 41.1753 48.0707 40.8131 48.2264C40.451 48.3821 40.1272 48.6152 39.8646 48.9092C39.2895 49.5553 38.9812 50.3957 39.0022 51.2604C38.9531 52.0943 39.2267 52.9151 39.7662 53.5528C40.0189 53.817 40.3233 54.0265 40.6604 54.1681C40.9975 54.3098 41.3602 54.3806 41.7258 54.3762C42.4726 54.3663 43.1955 54.1114 43.7834 53.6507L43.9407 55.0428ZM52.8562 51.5745H46.8408C46.8151 52.3424 47.0812 53.0915 47.5855 53.6711C47.8421 53.9251 48.149 54.1225 48.4865 54.2508C48.824 54.3791 49.1846 54.4352 49.5452 54.4158C50.4907 54.4175 51.4092 54.0999 52.1516 53.5143V54.847C51.2706 55.4091 50.2364 55.683 49.1926 55.6307C48.6686 55.6413 48.1485 55.5382 47.6681 55.3285C47.1878 55.1187 46.7586 54.8073 46.4102 54.4158C45.6734 53.5051 45.3029 52.3523 45.3712 51.1829C45.3271 50.0061 45.7335 48.8568 46.5075 47.9692C46.8536 47.5669 47.2841 47.2459 47.7685 47.0291C48.2529 46.8124 48.7792 46.7052 49.3098 46.7152C49.7923 46.6897 50.2745 46.7713 50.7217 46.9543C51.169 47.1373 51.5701 47.417 51.8964 47.7734C52.5691 48.6225 52.904 49.6903 52.8369 50.7715L52.8562 51.5745ZM51.3475 50.3788C51.3871 49.7131 51.1775 49.0565 50.7596 48.5368C50.568 48.3298 50.3339 48.1667 50.0735 48.0584C49.813 47.9502 49.5322 47.8995 49.2504 47.9098C48.9603 47.9077 48.6729 47.9659 48.4065 48.0806C48.1401 48.1954 47.9004 48.3642 47.7027 48.5764C47.2485 49.0546 46.9599 49.6659 46.8793 50.3205L51.3475 50.3788Z"
    fill="#C1C4CB" />
  <path
    d="M63.6496 68.5084C62.9133 67.7617 61.712 67.756 60.9662 68.4932L59.9072 69.542V62.0865C59.9072 61.0377 59.0571 60.1865 58.0095 60.1865C56.962 60.1865 56.1118 61.0377 56.1118 62.0865V69.5458L55.0547 68.4951C54.3108 67.756 53.1096 67.7598 52.3713 68.5046C51.6331 69.2494 51.6369 70.4521 52.3808 71.1912L56.6621 75.449C57.0322 75.8176 57.5161 76 58 76C58.482 76 58.9641 75.8176 59.3341 75.4509L63.6344 71.1931C64.3802 70.4578 64.3859 69.2532 63.6496 68.5084Z"
    fill="#FF9A2F" />
  <path
    d="M69.2763 58.8849H69.079C68.9651 52.8544 64.05 48 58 48C51.95 48 47.033 52.8544 46.921 58.8849H46.7237C43.0098 58.8849 40 61.8983 40 65.6165C40 69.3348 43.0098 72.3481 46.7237 72.3481H51.6616L51.4452 72.1334C50.1832 70.8795 50.1756 68.8294 51.4281 67.5659C52.3315 66.6558 53.6466 66.3974 54.7833 66.7926V62.0826C54.7833 60.3023 56.2313 58.8526 58.0095 58.8526C59.7877 58.8526 61.2356 60.3023 61.2356 62.0826V66.7926C62.3743 66.3955 63.6913 66.6558 64.5946 67.5697C65.8452 68.837 65.8338 70.8852 64.5681 72.1372L64.3555 72.3462H69.2763C72.9902 72.3462 76 69.3329 76 65.6146C76 61.9002 72.9902 58.8849 69.2763 58.8849Z"
    fill="#2871FF" />
</svg>