<svg width="24" height="24" viewBox="0 0 24 24" fill="none" xmlns="http://www.w3.org/2000/svg">
<path fill-rule="evenodd" clip-rule="evenodd" d="M5 2H3C2.44772 2 2 2.44772 2 3V5H3.2V3.2H5V2ZM2 19V21C2 21.5523 2.44772 22 3 22H5V20.8H3.2V19H2ZM2 17H3.2V13H2V17ZM2 11H3.2V7H2V11ZM7 2V3.2H11V2H7ZM13 2V3.2H17V2H13ZM19 2V3.2H20.8V5H22V3C22 2.44772 21.5523 2 21 2H19ZM22 7H20.8V11H22V7ZM11 22V20.8H7V22H11Z" fill="black"/>
<path d="M12.5295 8.00458C10.6249 8.09762 9.06695 9.68124 9.00239 11.5858C8.98368 12.1067 9.07487 12.6257 9.27001 13.1091C9.46516 13.5925 9.7599 14.0293 10.135 14.3913C10.5234 14.7663 11.1737 14.5717 11.3123 14.0495C11.3463 13.9299 11.3475 13.8034 11.316 13.6832C11.2844 13.563 11.2212 13.4534 11.1329 13.3659C10.9062 13.1493 10.7266 12.8883 10.6054 12.5992C10.4841 12.31 10.4239 11.9989 10.4284 11.6854C10.4445 10.5101 11.3978 9.50655 12.5722 9.43534C13.067 9.40499 13.5583 9.53602 13.9722 9.80874C14.3862 10.0815 14.7005 10.4811 14.8679 10.9478C14.9514 11.1813 15.1422 11.3617 15.3872 11.4025L15.448 11.412C15.9768 11.5003 16.3974 10.9867 16.2198 10.4806C15.9534 9.72556 15.4502 9.07668 14.7853 8.63055C14.1204 8.18441 13.3292 7.96487 12.5295 8.00458Z" fill="black"/>
<path d="M20.5807 15.4393L13.0899 11.0663C12.9689 10.9946 12.83 10.9589 12.6894 10.9632C12.5489 10.9676 12.4125 11.0119 12.2962 11.091C12.179 11.1681 12.0863 11.2771 12.0288 11.405C11.9713 11.533 11.9514 11.6746 11.9715 11.8135L13.1544 20.4066C13.1739 20.546 13.2322 20.6772 13.3228 20.785C13.4133 20.8928 13.5324 20.9729 13.6664 21.0161C13.8004 21.0593 13.9439 21.0639 14.0804 21.0293C14.2168 20.9947 14.3408 20.9224 14.438 20.8205L16.5011 18.6578L18.717 21.9712C18.8267 22.1183 18.9887 22.2177 19.1695 22.2488C19.3504 22.28 19.5363 22.2405 19.6888 22.1385C19.8414 22.0365 19.9489 21.8798 19.9893 21.7008C20.0296 21.5218 19.9997 21.3342 19.9057 21.1766L17.6898 17.866L20.4754 16.7836C20.6062 16.7321 20.7199 16.6449 20.8035 16.5318C20.8871 16.4188 20.9373 16.2846 20.9482 16.1444C20.9592 16.0042 20.9306 15.8638 20.8656 15.7391C20.8006 15.6145 20.7019 15.5106 20.5807 15.4393Z" fill="black"/>
</svg>
