<svg width="20" height="20" viewBox="0 0 20 20" fill="none" xmlns="http://www.w3.org/2000/svg">
<rect x="3" y="16.75" width="14" height="2" rx="1" fill="white"/>
<path fill-rule="evenodd" clip-rule="evenodd" d="M2.2 1.25C1.53726 1.25 1 1.78726 1 2.45V14.05C1 14.7127 1.53726 15.25 2.2 15.25H17.8C18.4627 15.25 19 14.7127 19 14.05V2.45C19 1.78726 18.4627 1.25 17.8 1.25H2.2ZM16.6201 4.08196C16.7419 4.15791 16.8286 4.27914 16.8611 4.419C16.8812 4.5056 16.8795 4.59581 16.8562 4.68161L16.1041 7.48036C16.0793 7.57287 16.0303 7.65713 15.9622 7.72453C15.8941 7.79193 15.8094 7.84006 15.7166 7.86401C15.6239 7.88795 15.5264 7.88686 15.4342 7.86084C15.342 7.83482 15.2584 7.7848 15.1918 7.71589L14.4895 6.98872L10.7942 10.2851C10.6929 10.3754 10.5614 10.4244 10.4258 10.4224C10.2901 10.4204 10.1601 10.3675 10.0616 10.2742L8.38254 8.68454L5.10786 12.1184C5.14251 12.224 5.1658 12.3344 5.1658 12.4519C5.16577 12.6756 5.09647 12.8938 4.96744 13.0765C4.8384 13.2592 4.65595 13.3975 4.44517 13.4723C4.23438 13.5471 4.00559 13.5548 3.79023 13.4944C3.57488 13.4339 3.38353 13.3083 3.24247 13.1347C3.10142 12.9611 3.01758 12.7481 3.00247 12.5249C2.98737 12.3018 3.04174 12.0794 3.15812 11.8884C3.2745 11.6974 3.44717 11.5471 3.65241 11.4581C3.85766 11.3692 4.0854 11.346 4.30435 11.3918L7.97159 7.54641C8.07045 7.44277 8.20636 7.38253 8.34955 7.37888C8.49274 7.37522 8.63154 7.42846 8.73557 7.52692L10.4449 9.14585L13.7369 6.20903L13.1208 5.57175C13.0542 5.50282 13.0071 5.41745 12.9843 5.32437C12.9615 5.23128 12.9638 5.13382 12.991 5.04193C13.0182 4.95004 13.0693 4.86701 13.1391 4.80133C13.2089 4.73564 13.2949 4.68966 13.3882 4.66807L16.2114 4.014C16.3512 3.98156 16.4982 4.00601 16.6201 4.08196Z" fill="white"/>
</svg>
