<svg width="20" height="20" viewBox="0 0 20 20" fill="none" xmlns="http://www.w3.org/2000/svg">
  <path
    d="M9.3661 19.5C7.59289 19.4852 5.83156 19.1869 4.13978 18.6149C2.76035 18.0962 2.00098 17.4181 2.00098 16.7072V13.9156C2.00098 15.126 4.2114 16.1907 7.49514 16.5699C7.72489 17.6696 8.30967 18.6457 9.14535 19.3247C9.21617 19.3857 9.28985 19.4428 9.3661 19.4958V19.5ZM15.3508 18.5789C14.9846 18.4386 14.6632 18.1886 14.4244 17.8584C14.1856 17.5281 14.0393 17.1313 14.0028 16.7146C13.9559 16.2612 13.8875 15.8106 13.7977 15.3647C13.705 14.8999 13.4717 14.4814 13.1344 14.1746C12.7971 13.8678 12.3748 13.6902 11.9336 13.6694C11.51 13.6065 11.0803 13.7229 10.7348 13.9942C10.3893 14.2654 10.1551 14.6704 10.0813 15.1239C10.0283 15.3634 10.02 15.6118 10.0569 15.8548C10.0938 16.0978 10.175 16.3304 10.2961 16.5393C10.4171 16.7482 10.5754 16.9291 10.7619 17.0716C10.9483 17.2142 11.1592 17.3154 11.3823 17.3695C11.6734 17.4483 11.9786 17.4442 12.2679 17.3577C12.5572 17.2713 12.8207 17.1054 13.0325 16.8762C13.1914 16.7252 13.2944 16.7189 13.4367 16.89C13.5974 17.0722 13.7678 17.2443 13.9469 17.4054C14.0656 17.5195 14.045 17.6061 13.937 17.7223C13.433 18.2712 12.7629 18.6071 12.0483 18.6692C11.3337 18.7312 10.6222 18.5152 10.0431 18.0603C9.72831 17.8038 9.46396 17.4825 9.26533 17.1152C9.06671 16.7479 8.93774 16.3418 8.88591 15.9204C8.83408 15.4991 8.86042 15.0708 8.96339 14.6605C9.06636 14.2502 9.24392 13.8659 9.48579 13.53C9.77085 13.1508 10.1344 12.8487 10.5474 12.6478C10.9603 12.447 11.4112 12.353 11.864 12.3734C12.524 12.3629 13.1698 12.58 13.707 12.9929C14.2442 13.4059 14.6445 13.9931 14.8495 14.6687C15.0229 15.1958 15.1266 15.7466 15.1575 16.3048C15.1687 16.5196 15.2208 16.7295 15.3106 16.9217C15.3983 17.1115 15.5491 17.2588 15.733 17.3346C15.9169 17.4103 16.1205 17.4088 16.3035 17.3304C16.4741 17.271 16.6185 17.1459 16.709 16.9791C16.7995 16.8124 16.8297 16.6156 16.794 16.4263C16.782 16.3258 16.7512 16.229 16.7036 16.1416C16.656 16.0542 16.5926 15.9781 16.517 15.9177C16.4414 15.8574 16.3553 15.8141 16.2639 15.7904C16.1724 15.7667 16.0774 15.7631 15.9846 15.7799C15.6608 15.8263 15.5461 15.6996 15.4941 15.3975C15.4595 15.2344 15.4105 15.0752 15.3479 14.9222C15.2498 14.7014 15.3263 14.6053 15.5343 14.5493C15.8203 14.468 16.1198 14.4573 16.4102 14.5182C16.7006 14.579 16.9744 14.7097 17.2113 14.9006C17.4481 15.0915 17.6418 15.3376 17.7779 15.6205C17.9139 15.9033 17.9887 16.2156 17.9968 16.534C18.012 16.817 17.9724 17.1002 17.8807 17.3658C17.7889 17.6314 17.6468 17.8736 17.4636 18.0771C17.2803 18.2805 17.0598 18.4408 16.8161 18.5477C16.5723 18.6547 16.3105 18.7059 16.0474 18.6983C15.8081 18.7003 15.5701 18.6599 15.343 18.5789H15.3508ZM7.38428 15.4102C4.16529 15.0215 2.00491 13.9589 2.00491 12.7695V9.98099C2.00491 10.6147 2.63968 11.24 3.78266 11.7333C5.21477 12.2875 6.71431 12.6138 8.23391 12.7019C7.69694 13.4891 7.40101 14.4368 7.38722 15.4133L7.38428 15.4102ZM16.0258 12.9058C15.9031 12.9052 15.7805 12.914 15.6589 12.9322C15.4773 12.6474 15.2699 12.3827 15.0398 12.1421C16.9196 11.614 17.9968 10.8175 17.9968 9.96937V12.7642C17.9906 13.0015 17.9143 13.2306 17.779 13.4181C17.2466 13.0801 16.64 12.9015 16.0219 12.9005L16.0258 12.9058ZM4.11525 10.7109C2.75447 10.1954 2.00491 9.52468 2.00491 8.81804V5.67356C2.00491 7.1576 5.42894 8.81804 10.0019 8.81804C14.5748 8.81804 17.9959 7.15866 17.9959 5.67145V8.81804C17.9959 9.83628 16.4114 10.7753 13.8644 11.2675C13.2516 10.9538 12.5808 10.7935 11.9022 10.7985H11.8463C10.9375 10.7895 10.0464 11.0695 9.28467 11.6034C7.52847 11.5812 5.78505 11.2786 4.11133 10.7056L4.11525 10.7109ZM2.00491 4.0427C2.00491 2.09178 5.59083 0.5 10.0019 0.5C14.4129 0.5 17.9959 2.09284 17.9959 4.0427C17.9959 5.99255 14.4099 7.58539 10.0019 7.58539C5.59377 7.58539 2 5.98727 2 4.03741L2.00491 4.0427Z"
    fill="white" />
</svg>