<svg width="24" height="24" viewBox="0 0 24 24" fill="none" xmlns="http://www.w3.org/2000/svg">
<path d="M8 2V6" stroke="#242526" stroke-width="1.2" stroke-linecap="round" stroke-linejoin="round"/>
<path d="M16 2V6" stroke="#242526" stroke-width="1.2" stroke-linecap="round" stroke-linejoin="round"/>
<rect x="2.6" y="4.6" width="18.8" height="16.8" rx="1.4" stroke="#242526" stroke-width="1.2"/>
<rect x="3" y="9" width="18" height="1.2" fill="#242526"/>
<path d="M11.4832 15.37C11.1165 15.15 10.8598 14.92 10.7132 14.68C10.5665 14.44 10.4932 14.1333 10.4932 13.76C10.4932 12.9667 10.8498 12.4367 11.5632 12.17C11.8632 12.0567 12.5032 12 13.4832 12C14.2165 12 14.7265 12.01 15.0132 12.03C15.3065 12.05 15.5465 12.0967 15.7332 12.17C16.1065 12.3167 16.3865 12.5733 16.5732 12.94C16.7198 13.22 16.7932 13.52 16.7932 13.84C16.7932 14.56 16.4498 15.07 15.7632 15.37C16.0698 15.5433 16.2865 15.7067 16.4132 15.86C16.6465 16.1467 16.7632 16.4967 16.7632 16.91C16.7632 17.4033 16.5732 17.8433 16.1932 18.23C16.0065 18.4233 15.7398 18.5567 15.3932 18.63C15.0465 18.7033 14.5165 18.74 13.8032 18.74C13.3365 18.74 12.8965 18.73 12.4832 18.71C11.8698 18.69 11.3998 18.53 11.0732 18.23C10.6798 17.8633 10.4832 17.4333 10.4832 16.94C10.4832 16.54 10.5998 16.1933 10.8332 15.9C10.9598 15.7333 11.1765 15.5567 11.4832 15.37ZM13.6332 13.11C13.0532 13.11 12.6798 13.14 12.5132 13.2C12.2065 13.3067 12.0532 13.5567 12.0532 13.95C12.0532 14.3767 12.2198 14.6367 12.5532 14.73C12.6398 14.7567 13.0032 14.7767 13.6432 14.79C14.1498 14.7767 14.4498 14.7667 14.5432 14.76C14.6432 14.7533 14.7332 14.7367 14.8132 14.71C15.0932 14.5967 15.2332 14.3533 15.2332 13.98C15.2332 13.5467 15.0465 13.28 14.6732 13.18C14.5132 13.1333 14.1665 13.11 13.6332 13.11ZM13.6232 15.89C13.0432 15.89 12.6698 15.9233 12.5032 15.99C12.2032 16.1033 12.0532 16.36 12.0532 16.76C12.0532 17.2 12.2165 17.4667 12.5432 17.56C12.6298 17.5867 12.9898 17.6067 13.6232 17.62C14.1232 17.6133 14.4232 17.6067 14.5232 17.6C14.6232 17.5867 14.7098 17.5633 14.7832 17.53C15.0565 17.4233 15.1932 17.1733 15.1932 16.78C15.1932 16.34 15.0132 16.0667 14.6532 15.96C14.4932 15.9133 14.1498 15.89 13.6232 15.89Z" fill="#242526"/>
<path d="M9.42 18.7003H8V12.0303H9.42V18.7003Z" fill="#242526"/>
</svg>
