<svg width="20" height="20" viewBox="0 0 20 20" xmlns="http://www.w3.org/2000/svg">
  <g clip-path="url(#clip0_1725_6386)">
    <path
      d="M14.1665 4.99935H18.3332V6.66602H16.6665V17.4993C16.6665 17.7204 16.5787 17.9323 16.4224 18.0886C16.2661 18.2449 16.0542 18.3327 15.8332 18.3327H4.1665C3.94549 18.3327 3.73353 18.2449 3.57725 18.0886C3.42097 17.9323 3.33317 17.7204 3.33317 17.4993V6.66602H1.6665V4.99935H5.83317V2.49935C5.83317 2.27834 5.92097 2.06637 6.07725 1.91009C6.23353 1.75381 6.44549 1.66602 6.6665 1.66602H13.3332C13.5542 1.66602 13.7661 1.75381 13.9224 1.91009C14.0787 2.06637 14.1665 2.27834 14.1665 2.49935V4.99935ZM14.9998 6.66602H4.99984V16.666H14.9998V6.66602ZM7.49984 9.16602H9.1665V14.166H7.49984V9.16602ZM10.8332 9.16602H12.4998V14.166H10.8332V9.16602ZM7.49984 3.33268V4.99935H12.4998V3.33268H7.49984Z" />
  </g>
  <defs>
    <clipPath id="clip0_1725_6386">
      <rect width="20" height="20" />
    </clipPath>
  </defs>
</svg>