<svg width="16" height="16" viewBox="0 0 16 16" fill="none" xmlns="http://www.w3.org/2000/svg">
<g clip-path="url(#clip0_5206_17689)">
<path d="M4.66659 3.33317V1.33317C4.66659 1.15636 4.73682 0.98679 4.86185 0.861766C4.98687 0.736742 5.15644 0.666504 5.33325 0.666504H10.6666C10.8434 0.666504 11.013 0.736742 11.138 0.861766C11.263 0.98679 11.3333 1.15636 11.3333 1.33317V3.33317H13.9999C14.1767 3.33317 14.3463 3.40341 14.4713 3.52843C14.5963 3.65346 14.6666 3.82303 14.6666 3.99984V13.3332C14.6666 13.51 14.5963 13.6796 14.4713 13.8046C14.3463 13.9296 14.1767 13.9998 13.9999 13.9998H1.99992C1.82311 13.9998 1.65354 13.9296 1.52851 13.8046C1.40349 13.6796 1.33325 13.51 1.33325 13.3332V3.99984C1.33325 3.82303 1.40349 3.65346 1.52851 3.52843C1.65354 3.40341 1.82311 3.33317 1.99992 3.33317H4.66659ZM2.66659 10.6665V12.6665H13.3333V10.6665H2.66659ZM2.66659 9.33317H13.3333V4.6665H2.66659V9.33317ZM5.99992 1.99984V3.33317H9.99992V1.99984H5.99992ZM7.33325 7.33317H8.66659V8.6665H7.33325V7.33317Z" fill="#6C7380"/>
</g>
<defs>
<clipPath id="clip0_5206_17689">
<rect width="16" height="16" fill="white"/>
</clipPath>
</defs>
</svg>
