<svg width="20" height="20" viewBox="0 0 20 20" fill="none" xmlns="http://www.w3.org/2000/svg">
<path fill-rule="evenodd" clip-rule="evenodd" d="M17.6568 1.25H2.34426C1.74 1.25 1.25 1.7225 1.25 2.30515V5.38824C1.25 5.97088 1.74103 6.44338 2.34426 6.44338H17.6557C18.26 6.44338 18.75 5.97088 18.75 5.38824V2.30515C18.75 1.72353 18.26 1.25 17.6568 1.25ZM3.85 3C3.38056 3 3 3.38056 3 3.85C3 4.31944 3.38056 4.7 3.85 4.7H10.15C10.6194 4.7 11 4.31944 11 3.85C11 3.38056 10.6194 3 10.15 3H3.85Z" fill="white"/>
<path fill-rule="evenodd" clip-rule="evenodd" d="M17.6568 7.40382H2.34529C1.74103 7.40382 1.25103 7.87632 1.25103 8.45897V11.5421C1.25103 12.1247 1.74103 12.5962 2.34426 12.5962H17.6557C18.26 12.5962 18.75 12.1247 18.75 11.5421V8.45897C18.75 7.87735 18.261 7.40382 17.6568 7.40382ZM3 9.9501C3 9.48066 3.38056 9.1001 3.85 9.1001H10.15C10.6194 9.1001 11 9.48066 11 9.9501C11 10.4195 10.6194 10.8001 10.15 10.8001H3.85C3.38056 10.8001 3 10.4195 3 9.9501Z" fill="white"/>
<path fill-rule="evenodd" clip-rule="evenodd" d="M17.6568 13.5576H2.34426V13.5566C1.74 13.5566 1.25 14.0291 1.25 14.6118V17.6949C1.25 18.2775 1.74103 18.75 2.34426 18.75H17.6557C18.26 18.75 18.75 18.2765 18.75 17.6959V14.6118C18.75 14.0301 18.261 13.5576 17.6568 13.5576ZM3 16.1498C3 15.6804 3.38056 15.2998 3.85 15.2998C4.31944 15.2998 4.7 15.6804 4.7 16.1498C4.7 16.6192 4.31944 16.9998 3.85 16.9998C3.38056 16.9998 3 16.6192 3 16.1498ZM6 16.1498C6 15.6804 6.38056 15.2998 6.85 15.2998H10.15C10.6194 15.2998 11 15.6804 11 16.1498C11 16.6192 10.6194 16.9998 10.15 16.9998H6.85C6.38056 16.9998 6 16.6192 6 16.1498Z" fill="white"/>
</svg>
