<svg xmlns="http://www.w3.org/2000/svg" width="24" height="24" viewBox="0 0 24 24" fill="none">
  <path fill-rule="evenodd" clip-rule="evenodd"
    d="M3.19517 7.7248V3.1248H20.8V7.7248H3.19517ZM1.99517 2.9248C1.99517 2.37252 2.44288 1.9248 2.99517 1.9248H21C21.5523 1.9248 22 2.37252 22 2.9248V7.99976V8.9248V13.2013H20.8V13.1997H9.59771L9.59771 21.9998H9.57568H8.39771H3.19512H1.99512V20.7998V17.3588V16.1588V7.99976H1.99517V2.9248ZM20.8 11.9997V8.9248H15.7977V11.9997H20.8ZM8.39771 17.3588L8.39771 20.7998H3.19512L3.19512 17.3588H8.39771ZM3.19512 16.1588H8.39771V13.1997H3.19512L3.19512 16.1588ZM14.5977 8.9248V11.9997H9.59771V8.9248H14.5977ZM8.39771 8.9248V11.9997H3.19512L3.19512 8.9248H8.39771Z"
    fill="black" />
  <path fill-rule="evenodd" clip-rule="evenodd"
    d="M15.7775 14.376C16.1089 14.376 16.3775 14.6446 16.3775 14.976L16.3775 20.2532L18.2271 18.9581C18.4986 18.7681 18.8727 18.834 19.0628 19.1055C19.2529 19.3769 19.1869 19.7511 18.9154 19.9411L16.1303 21.8913C16.0206 21.9681 15.8941 22.0031 15.7698 21.9996C15.6454 22.0031 15.5189 21.9681 15.4092 21.8913L12.6241 19.9411C12.3526 19.7511 12.2867 19.3769 12.4767 19.1055C12.6668 18.834 13.0409 18.7681 13.3124 18.9581L15.1775 20.2642L15.1775 14.976C15.1775 14.6446 15.4462 14.376 15.7775 14.376Z"
    fill="black" />
</svg>