<svg width="16" height="16" viewBox="0 0 16 16" fill="none" xmlns="http://www.w3.org/2000/svg">
<g clip-path="url(#clip0_8015_18606)">
<path d="M8 0C10.1217 0 12.1566 0.842855 13.6569 2.34315C15.1571 3.84344 16 5.87827 16 8C16 10.1217 15.1571 12.1566 13.6569 13.6569C12.1566 15.1571 10.1217 16 8 16C5.87827 16 3.84344 15.1571 2.34315 13.6569C0.842855 12.1566 0 10.1217 0 8C0 5.87827 0.842855 3.84344 2.34315 2.34315C3.84344 0.842855 5.87827 0 8 0ZM2.043 6.398C1.969 6.472 1.969 6.472 2.043 6.544C1.846 6.863 1.423 6.902 1.12 6.71C0.947261 7.63232 0.961668 8.57995 1.16237 9.49659C1.36306 10.4132 1.74596 11.2802 2.2883 12.0459C2.83064 12.8117 3.52136 13.4606 4.31943 13.9542C5.1175 14.4477 6.00663 14.7758 6.934 14.919L6.928 14.914L6.808 14.854C7.033 14.782 7.331 14.782 7.553 14.782C7.479 14.344 7.479 13.981 7.479 13.542C7.479 13.542 5.767 12.304 5.767 11.574C5.767 10.844 5.99 10.481 5.767 10.481C5.394 10.481 4.947 10.773 4.873 10.481C4.724 10.043 4.426 9.679 3.979 9.534C2.954 9.534 2.807 8.43 2.789 7.292L2.788 6.982C2.788 6.616 2.341 6.616 2.043 6.398ZM8.423 1.013L8.509 1.036C9.643 1.382 9.676 2.526 8.745 2.386C8.745 2.749 8.745 3.186 8.671 3.624C8.596 4.354 7.702 4.136 7.479 4.5C7.257 4.865 7.926 5.229 8.671 5.083C8.894 5.083 8.671 4.863 8.821 4.791C9.118 4.719 9.49 4.719 9.788 4.791C9.48461 5.44669 9.13611 6.08054 8.745 6.688C8.595 6.906 8.745 7.344 8.745 7.635C8.745 9.824 7.702 7.125 7.553 7.198C7.404 7.344 6.735 7.052 6.437 7.052C6.139 7.052 6.287 7.635 5.99 7.635C5.394 7.635 5.543 7.489 5.543 7.707C5.543 7.999 5.616 8.583 5.616 9.458C5.616 9.75 6.212 9.386 6.584 9.386C7.031 9.386 7.329 9.75 7.627 9.896C8.147 10.116 8.669 10.845 9.041 10.916C9.413 10.991 9.115 11.573 9.561 11.5C9.784 11.428 10.082 11.574 10.231 11.792C10.455 12.084 10.306 12.45 10.008 12.668C9.562 13.105 9.413 13.615 9.19 14.636C9.312 14.596 9.456 14.698 9.575 14.821C10.6958 14.5616 11.7355 14.0304 12.6024 13.2742C13.4693 12.5181 14.1368 11.5601 14.546 10.485C13.98 11.086 13.326 11.132 13.52 10.623C13.296 10.186 12.998 9.82 12.626 9.456C11.955 8.873 11.359 7.778 13.445 6.246C13.122 5.424 13.922 4.656 14.43 5.232C13.9177 4.04155 13.0849 3.01671 12.0245 2.27162C10.9641 1.52654 9.71763 1.09047 8.424 1.012L8.423 1.013Z" fill="#666666"/>
</g>
<defs>
<clipPath id="clip0_8015_18606">
<rect width="16" height="16" fill="white"/>
</clipPath>
</defs>
</svg>
