<svg width="16" height="16" viewBox="0 0 16 16" fill="none" xmlns="http://www.w3.org/2000/svg">
  <g clip-path="url(#clip0_299_11893)">
    <path fill-rule="evenodd" clip-rule="evenodd"
      d="M7.99996 14.3327C11.4978 14.3327 14.3333 11.4972 14.3333 7.99935C14.3333 4.50155 11.4978 1.66602 7.99996 1.66602C4.50216 1.66602 1.66663 4.50155 1.66663 7.99935C1.66663 11.4972 4.50216 14.3327 7.99996 14.3327ZM7.99996 15.3327C12.05 15.3327 15.3333 12.0494 15.3333 7.99935C15.3333 3.94926 12.05 0.666016 7.99996 0.666016C3.94987 0.666016 0.666626 3.94926 0.666626 7.99935C0.666626 12.0494 3.94987 15.3327 7.99996 15.3327Z"
      fill="#D94941" />
    <path fill-rule="evenodd" clip-rule="evenodd"
      d="M5.5 6.33333C5.5 5.8731 5.8731 5.5 6.33333 5.5H9.66667C10.1269 5.5 10.5 5.8731 10.5 6.33333V9.66667C10.5 10.1269 10.1269 10.5 9.66667 10.5H6.33333C5.8731 10.5 5.5 10.1269 5.5 9.66667V6.33333Z"
      fill="#D94941" />
  </g>
  <defs>
    <clipPath id="clip0_299_11893">
      <rect width="16" height="16" fill="white" />
    </clipPath>
  </defs>
</svg>