<svg width="20" height="20" viewBox="0 0 20 20" fill="none" xmlns="http://www.w3.org/2000/svg">
<path d="M15.0259 13.8488L18.5951 17.4171L17.4159 18.5963L13.8476 15.0271C12.5199 16.0915 10.8684 16.6704 9.16675 16.668C5.02675 16.668 1.66675 13.308 1.66675 9.16797C1.66675 5.02797 5.02675 1.66797 9.16675 1.66797C13.3067 1.66797 16.6667 5.02797 16.6667 9.16797C16.6692 10.8696 16.0903 12.5211 15.0259 13.8488ZM13.3542 13.2305C14.4118 12.1429 15.0025 10.685 15.0001 9.16797C15.0001 5.94464 12.3892 3.33464 9.16675 3.33464C5.94341 3.33464 3.33341 5.94464 3.33341 9.16797C3.33341 12.3905 5.94341 15.0013 9.16675 15.0013C10.6838 15.0037 12.1417 14.4131 13.2292 13.3555L13.3542 13.2305ZM5.83342 8.33464H12.5001V10.0013H5.83342V8.33464Z" fill="#6C7380"/>
<path d="M9.99951 12.6667L9.99951 6L8.33284 6L8.33284 12.6667L9.99951 12.6667Z" fill="#6C7380"/>
</svg>
