<svg width="20" height="20" viewBox="0 0 20 20" fill="none" xmlns="http://www.w3.org/2000/svg">
<path fill-rule="evenodd" clip-rule="evenodd" d="M18 7V18.0771C18 18.5876 17.5786 19 17.059 19H2.941C2.69143 19 2.45208 18.9028 2.27561 18.7297C2.09914 18.5566 2 18.3219 2 18.0771V7H18ZM7.647 1V1.92293H12.352V1H14.235V1.92293H17.058C17.5786 1.92293 17.999 2.33628 17.999 2.84585V5.61561H2V2.84683C2 2.33628 2.42045 1.92391 2.941 1.92391H5.764V1.00098L7.647 1ZM6 10C6 9.44771 6.44772 9 7 9H13C13.5523 9 14 9.44771 14 10C14 10.5523 13.5523 11 13 11H7C6.44772 11 6 10.5523 6 10ZM7 13C6.44772 13 6 13.4477 6 14C6 14.5523 6.44772 15 7 15H13C13.5523 15 14 14.5523 14 14C14 13.4477 13.5523 13 13 13H7Z" fill="white"/>
</svg>
