<svg width="20" height="20" viewBox="0 0 20 20" fill="none" xmlns="http://www.w3.org/2000/svg">
  <path fill-rule="evenodd" clip-rule="evenodd"
    d="M2.5 0.5C1.67157 0.5 1 1.17157 1 2V18C1 18.8284 1.67157 19.5 2.5 19.5H10.1694C8.54367 18.2182 7.5 16.231 7.5 14C7.5 10.134 10.634 7 14.5 7C15.3808 7 16.2236 7.16268 17 7.45963V2C17 1.17157 16.3284 0.5 15.5 0.5H2.5ZM3 3.8C3 3.35817 3.35817 3 3.8 3H12.2C12.6418 3 13 3.35817 13 3.8C13 4.24183 12.6418 4.6 12.2 4.6H3.8C3.35817 4.6 3 4.24183 3 3.8ZM3.8 7C3.35817 7 3 7.35817 3 7.8C3 8.24183 3.35817 8.6 3.8 8.6H7.2C7.64183 8.6 8 8.24183 8 7.8C8 7.35817 7.64183 7 7.2 7H3.8Z"
    fill="white" />
  <path fill-rule="evenodd" clip-rule="evenodd"
    d="M20 14C20 17.0376 17.5376 19.5 14.5 19.5C11.4624 19.5 9 17.0376 9 14C9 10.9624 11.4624 8.5 14.5 8.5C17.5376 8.5 20 10.9624 20 14ZM15.3 16.9001C15.3 17.3419 14.9418 17.7001 14.5 17.7001C14.0582 17.7001 13.7 17.3419 13.7 16.9001C13.7 16.4583 14.0582 16.1001 14.5 16.1001C14.9418 16.1001 15.3 16.4583 15.3 16.9001ZM14.5 10.1001C14.0582 10.1001 13.7 10.4583 13.7 10.9001V14.3001C13.7 14.7419 14.0582 15.1001 14.5 15.1001C14.9418 15.1001 15.3 14.7419 15.3 14.3001V10.9001C15.3 10.4583 14.9418 10.1001 14.5 10.1001Z"
    fill="white" />
</svg>