<svg width="13" height="13" viewBox="0 0 13 13" fill="none" xmlns="http://www.w3.org/2000/svg">
  <path
    d="M6.50022 0C2.9105 0 0.000488281 2.91001 0.000488281 6.49973C0.000488281 10.0894 2.9105 12.9995 6.50022 12.9995C10.0899 12.9995 12.9999 10.0894 12.9999 6.49973C12.9999 2.91001 10.0899 0 6.50022 0ZM8.25896 10.1476C7.8767 10.2797 7.57633 10.3816 7.3477 10.4538C7.12223 10.526 6.85754 10.562 6.55717 10.562C6.09658 10.562 5.73706 10.4598 5.48243 10.2614C5.22431 10.0572 5.09692 9.80499 5.09692 9.49243C5.09692 9.37226 5.10666 9.25203 5.12609 9.12592C5.14599 8.99983 5.17841 8.85546 5.21782 8.69914L5.69449 7.19079C5.73706 7.04682 5.71294 6.91472 5.74258 6.78229C5.77199 6.65619 5.78491 6.53602 5.78491 6.43406C5.78491 6.23541 5.80311 6.1033 5.71472 6.03107C5.62306 5.95299 5.45684 5.97542 5.20514 5.97542C5.08067 5.97542 4.95335 5.99329 4.82612 6.02335C4.69548 6.05951 4.5845 6.03107 4.49284 6.06722L4.62056 5.59844C4.93067 5.48421 5.23104 5.38818 5.51557 5.31001C5.79986 5.22599 6.07065 5.18993 6.32235 5.18993C6.78287 5.18993 7.13604 5.28621 7.38408 5.48453C7.63229 5.68285 7.90675 5.94105 7.90675 6.25361C7.90675 6.31983 7.89659 6.43406 7.88033 6.60224C7.86416 6.76441 7.83135 6.91472 7.78553 7.05275L7.15839 8.55486C7.12223 8.67502 7.08656 8.81338 7.05699 8.9697C7.02416 9.12001 7.008 9.24017 7.008 9.31826C7.008 9.51658 7.06024 9.65461 7.15839 9.72684C7.25971 9.79867 7.43284 9.83473 7.67763 9.83473C7.79203 9.83473 7.92292 9.81686 8.06964 9.78111C8.21646 9.74503 8.32102 9.71489 8.38634 9.68475L8.25896 10.1476ZM8.17422 4.05404C7.95535 4.24043 7.68779 4.33045 7.37736 4.33045C7.06715 4.33045 6.79921 4.24043 6.57367 4.05404C6.35154 3.8736 6.24056 3.65147 6.24056 3.38693C6.24056 3.12833 6.35154 2.90587 6.57367 2.71982C6.79921 2.53376 7.06716 2.43741 7.37736 2.43741C7.68739 2.43741 7.95535 2.53336 8.17422 2.71982C8.39635 2.90621 8.50758 3.12873 8.50758 3.38693C8.50758 3.65146 8.39635 3.8736 8.17422 4.05404Z"
    fill="#6C7380" />
</svg>