<svg width="24" height="24" viewBox="0 0 24 24" fill="none" xmlns="http://www.w3.org/2000/svg">
<path d="M17.5222 14.0898L13.6818 17.9776C12.7727 18.8977 12.7727 20.3897 13.6818 21.3099C14.5908 22.23 16.0645 22.23 16.9735 21.3099L21.5455 16.6816C22.1515 16.0682 22.1515 15.0736 21.5455 14.4601C20.9395 13.8466 19.957 13.8466 19.351 14.4601L14.779 19.0883C14.476 19.3951 14.476 19.8924 14.779 20.1991C15.082 20.5058 15.5733 20.5058 15.8763 20.1991L19.7167 16.3114" stroke="#242526" stroke-linecap="round" stroke-linejoin="round"/>
<rect x="7" y="5" width="10" height="2" rx="0.5" fill="#242526"/>
<rect x="7" y="9" width="6" height="2" rx="0.5" fill="#242526"/>
<path d="M5 3.2H19C19.4418 3.2 19.8 3.55817 19.8 4V11.4C19.8 11.7314 20.0686 12 20.4 12C20.7314 12 21 11.7314 21 11.4V4C21 2.89543 20.1046 2 19 2H5C3.89543 2 3 2.89543 3 4V20C3 21.1046 3.89543 22 5 22H10.4C10.7314 22 11 21.7314 11 21.4C11 21.0686 10.7314 20.8 10.4 20.8H5C4.55817 20.8 4.2 20.4418 4.2 20V4C4.2 3.55817 4.55817 3.2 5 3.2Z" fill="#242526"/>
</svg>
