<svg width="24" height="24" viewBox="0 0 24 24" fill="none" xmlns="http://www.w3.org/2000/svg">
  <path
    d="M9.70002 21.6H3.08889C2.48751 21.6 2 21.1257 2 20.5405V3.05946C2 2.47434 2.48751 2 3.08889 2H20.5111C21.1125 2 21.6 2.47434 21.6 3.05946V8.20668"
    stroke="#242526" stroke-width="1.2" stroke-linecap="round" stroke-linejoin="round" />
  <path d="M14.5 20.25L19.75 13L22 14.75L16.5 22.25H14.5V20.25Z" fill="#242526" />
  <mask id="path-3-outside-1_16704_37897" maskUnits="userSpaceOnUse" x="2.5" y="11.6504" width="10" height="9"
    fill="black">
    <rect fill="white" x="2.5" y="11.6504" width="10" height="9" />
    <path
      d="M6.11528 15.156C6.30965 15.0831 6.47973 15.0466 6.62551 15.0466C6.79559 15.0223 6.91707 15.0466 6.98996 15.1195C7.06285 15.1924 7.0507 15.2653 6.95351 15.3382C6.88062 15.4111 6.60121 15.5083 6.11528 15.6298V16.5044C6.57692 16.6016 6.85633 16.711 6.95351 16.8324C7.0507 16.9539 7.075 17.1118 7.0264 17.3062C6.97781 17.4763 6.88062 17.5127 6.73484 17.4156C6.61336 17.2941 6.40684 17.0511 6.11528 16.6867C6.11528 17.4399 6.10313 18.108 6.07884 18.6911C6.05454 19.2499 6.00595 19.7359 5.93306 20.1489C5.86017 20.562 5.73869 20.6106 5.56861 20.2947C5.42283 20.0031 5.38638 19.7116 5.45927 19.42C5.55646 19.1285 5.6172 18.7762 5.6415 18.3631C5.69009 17.9501 5.72654 17.2819 5.75083 16.3587C5.50787 16.7717 5.19201 17.1969 4.80327 17.6342C4.41452 18.0473 4.06222 18.351 3.74637 18.5453C3.43051 18.7397 3.41836 18.679 3.70992 18.3631C4.00148 18.0473 4.31734 17.6464 4.65749 17.1604C5.02194 16.6745 5.3135 16.2129 5.53216 15.7755C5.21631 15.8241 4.97334 15.8484 4.80327 15.8484C4.65749 15.8484 4.48741 15.8241 4.29304 15.7755C4.09867 15.7026 4.13511 15.6419 4.40237 15.5933C4.66964 15.5204 5.11912 15.3989 5.75083 15.2289C5.75083 14.7672 5.73869 14.3177 5.71439 13.8804C5.71439 13.4188 5.6415 13.0908 5.49572 12.8964C5.34994 12.6777 5.38638 12.6048 5.60505 12.6777C5.84802 12.7263 6.05454 12.7992 6.22462 12.8964C6.39469 12.9936 6.41899 13.1394 6.29751 13.3337C6.20032 13.5038 6.13958 14.1112 6.11528 15.156ZM9.1402 15.0831C9.35887 15.3018 9.39532 15.4718 9.24954 15.5933C9.10376 15.6905 8.97013 15.812 8.84865 15.9578C8.75146 16.0792 8.59353 16.2493 8.37486 16.468C8.18049 16.6867 8.19264 16.796 8.41131 16.796H9.28598C9.72332 16.2129 9.91769 15.812 9.8691 15.5933C9.82051 15.3746 9.8934 15.3382 10.0878 15.484C10.3064 15.6055 10.4522 15.7269 10.5251 15.8484C10.598 15.9456 10.5858 16.0428 10.4887 16.14C10.3915 16.2129 10.185 16.4437 9.8691 16.8324C9.57754 17.1969 9.28598 17.5249 8.99442 17.8164C8.72716 18.108 8.36271 18.436 7.90108 18.8005C7.46374 19.1406 7.075 19.3714 6.73484 19.4929C6.41899 19.5901 6.43114 19.5172 6.77129 19.2742C7.13574 19.007 7.53663 18.6668 7.97397 18.2538C8.41131 17.8164 8.77576 17.4034 9.06731 17.0147C8.36271 17.1361 7.90108 17.2576 7.68241 17.3791C7.48804 17.4763 7.39085 17.4034 7.39085 17.1604C7.39085 16.8932 7.47589 16.7352 7.64597 16.6867C7.81604 16.6138 8.02256 16.4072 8.26553 16.0671C8.53279 15.7269 8.66642 15.4354 8.66642 15.1924C8.18049 15.2896 7.87678 15.3382 7.7553 15.3382C7.63382 15.3139 7.48804 15.2532 7.31796 15.156C7.17218 15.0345 7.20863 14.9737 7.4273 14.9737C7.67026 14.9495 8.01041 14.9009 8.44775 14.828C8.90939 14.7551 9.33458 14.6822 9.72332 14.6093C10.1121 14.5121 10.4644 14.4149 10.7802 14.3177C11.1204 14.2206 11.4119 14.257 11.6549 14.4271C11.9222 14.5972 11.8857 14.7065 11.5456 14.7551C11.2054 14.7794 10.8167 14.828 10.3793 14.9009C9.96629 14.9495 9.55325 15.0102 9.1402 15.0831ZM9.97844 18.764C10.683 18.9098 11.1447 19.092 11.3633 19.3107C11.582 19.5294 11.667 19.7602 11.6185 20.0031C11.5699 20.2704 11.3998 20.2583 11.1082 19.9667C10.8167 19.6994 10.4158 19.335 9.90555 18.8733C9.61399 19.1892 9.27383 19.4808 8.88509 19.748C8.52064 19.991 8.14404 20.1611 7.7553 20.2583C7.36655 20.3797 7.33011 20.3433 7.64597 20.1489C7.96182 19.9788 8.31412 19.7359 8.70287 19.42C9.09161 19.0799 9.46821 18.6668 9.83266 18.1809C10.1971 17.6707 10.3672 17.3062 10.3429 17.0876C10.3429 16.8689 10.4279 16.8203 10.598 16.9418C10.7681 17.039 10.9017 17.1483 10.9989 17.2698C11.1204 17.367 11.1325 17.452 11.0353 17.5249C10.9381 17.5978 10.8288 17.7193 10.7073 17.8893C10.6101 18.0351 10.3672 18.3267 9.97844 18.764ZM8.92154 13.4066C8.65427 13.0422 8.61783 12.8721 8.8122 12.8964C9.00657 12.8964 9.21309 12.9328 9.43176 13.0057C9.65043 13.0786 9.79621 13.2001 9.8691 13.3702C9.94199 13.516 9.94199 13.686 9.8691 13.8804C9.79621 14.0505 9.66258 14.0748 9.46821 13.9533C9.29813 13.8075 9.11591 13.6253 8.92154 13.4066Z" />
  </mask>
  <path
    d="M6.11528 15.156C6.30965 15.0831 6.47973 15.0466 6.62551 15.0466C6.79559 15.0223 6.91707 15.0466 6.98996 15.1195C7.06285 15.1924 7.0507 15.2653 6.95351 15.3382C6.88062 15.4111 6.60121 15.5083 6.11528 15.6298V16.5044C6.57692 16.6016 6.85633 16.711 6.95351 16.8324C7.0507 16.9539 7.075 17.1118 7.0264 17.3062C6.97781 17.4763 6.88062 17.5127 6.73484 17.4156C6.61336 17.2941 6.40684 17.0511 6.11528 16.6867C6.11528 17.4399 6.10313 18.108 6.07884 18.6911C6.05454 19.2499 6.00595 19.7359 5.93306 20.1489C5.86017 20.562 5.73869 20.6106 5.56861 20.2947C5.42283 20.0031 5.38638 19.7116 5.45927 19.42C5.55646 19.1285 5.6172 18.7762 5.6415 18.3631C5.69009 17.9501 5.72654 17.2819 5.75083 16.3587C5.50787 16.7717 5.19201 17.1969 4.80327 17.6342C4.41452 18.0473 4.06222 18.351 3.74637 18.5453C3.43051 18.7397 3.41836 18.679 3.70992 18.3631C4.00148 18.0473 4.31734 17.6464 4.65749 17.1604C5.02194 16.6745 5.3135 16.2129 5.53216 15.7755C5.21631 15.8241 4.97334 15.8484 4.80327 15.8484C4.65749 15.8484 4.48741 15.8241 4.29304 15.7755C4.09867 15.7026 4.13511 15.6419 4.40237 15.5933C4.66964 15.5204 5.11912 15.3989 5.75083 15.2289C5.75083 14.7672 5.73869 14.3177 5.71439 13.8804C5.71439 13.4188 5.6415 13.0908 5.49572 12.8964C5.34994 12.6777 5.38638 12.6048 5.60505 12.6777C5.84802 12.7263 6.05454 12.7992 6.22462 12.8964C6.39469 12.9936 6.41899 13.1394 6.29751 13.3337C6.20032 13.5038 6.13958 14.1112 6.11528 15.156ZM9.1402 15.0831C9.35887 15.3018 9.39532 15.4718 9.24954 15.5933C9.10376 15.6905 8.97013 15.812 8.84865 15.9578C8.75146 16.0792 8.59353 16.2493 8.37486 16.468C8.18049 16.6867 8.19264 16.796 8.41131 16.796H9.28598C9.72332 16.2129 9.91769 15.812 9.8691 15.5933C9.82051 15.3746 9.8934 15.3382 10.0878 15.484C10.3064 15.6055 10.4522 15.7269 10.5251 15.8484C10.598 15.9456 10.5858 16.0428 10.4887 16.14C10.3915 16.2129 10.185 16.4437 9.8691 16.8324C9.57754 17.1969 9.28598 17.5249 8.99442 17.8164C8.72716 18.108 8.36271 18.436 7.90108 18.8005C7.46374 19.1406 7.075 19.3714 6.73484 19.4929C6.41899 19.5901 6.43114 19.5172 6.77129 19.2742C7.13574 19.007 7.53663 18.6668 7.97397 18.2538C8.41131 17.8164 8.77576 17.4034 9.06731 17.0147C8.36271 17.1361 7.90108 17.2576 7.68241 17.3791C7.48804 17.4763 7.39085 17.4034 7.39085 17.1604C7.39085 16.8932 7.47589 16.7352 7.64597 16.6867C7.81604 16.6138 8.02256 16.4072 8.26553 16.0671C8.53279 15.7269 8.66642 15.4354 8.66642 15.1924C8.18049 15.2896 7.87678 15.3382 7.7553 15.3382C7.63382 15.3139 7.48804 15.2532 7.31796 15.156C7.17218 15.0345 7.20863 14.9737 7.4273 14.9737C7.67026 14.9495 8.01041 14.9009 8.44775 14.828C8.90939 14.7551 9.33458 14.6822 9.72332 14.6093C10.1121 14.5121 10.4644 14.4149 10.7802 14.3177C11.1204 14.2206 11.4119 14.257 11.6549 14.4271C11.9222 14.5972 11.8857 14.7065 11.5456 14.7551C11.2054 14.7794 10.8167 14.828 10.3793 14.9009C9.96629 14.9495 9.55325 15.0102 9.1402 15.0831ZM9.97844 18.764C10.683 18.9098 11.1447 19.092 11.3633 19.3107C11.582 19.5294 11.667 19.7602 11.6185 20.0031C11.5699 20.2704 11.3998 20.2583 11.1082 19.9667C10.8167 19.6994 10.4158 19.335 9.90555 18.8733C9.61399 19.1892 9.27383 19.4808 8.88509 19.748C8.52064 19.991 8.14404 20.1611 7.7553 20.2583C7.36655 20.3797 7.33011 20.3433 7.64597 20.1489C7.96182 19.9788 8.31412 19.7359 8.70287 19.42C9.09161 19.0799 9.46821 18.6668 9.83266 18.1809C10.1971 17.6707 10.3672 17.3062 10.3429 17.0876C10.3429 16.8689 10.4279 16.8203 10.598 16.9418C10.7681 17.039 10.9017 17.1483 10.9989 17.2698C11.1204 17.367 11.1325 17.452 11.0353 17.5249C10.9381 17.5978 10.8288 17.7193 10.7073 17.8893C10.6101 18.0351 10.3672 18.3267 9.97844 18.764ZM8.92154 13.4066C8.65427 13.0422 8.61783 12.8721 8.8122 12.8964C9.00657 12.8964 9.21309 12.9328 9.43176 13.0057C9.65043 13.0786 9.79621 13.2001 9.8691 13.3702C9.94199 13.516 9.94199 13.686 9.8691 13.8804C9.79621 14.0505 9.66258 14.0748 9.46821 13.9533C9.29813 13.8075 9.11591 13.6253 8.92154 13.4066Z"
    fill="black" />
  <path
    d="M6.11528 15.156C6.30965 15.0831 6.47973 15.0466 6.62551 15.0466C6.79559 15.0223 6.91707 15.0466 6.98996 15.1195C7.06285 15.1924 7.0507 15.2653 6.95351 15.3382C6.88062 15.4111 6.60121 15.5083 6.11528 15.6298V16.5044C6.57692 16.6016 6.85633 16.711 6.95351 16.8324C7.0507 16.9539 7.075 17.1118 7.0264 17.3062C6.97781 17.4763 6.88062 17.5127 6.73484 17.4156C6.61336 17.2941 6.40684 17.0511 6.11528 16.6867C6.11528 17.4399 6.10313 18.108 6.07884 18.6911C6.05454 19.2499 6.00595 19.7359 5.93306 20.1489C5.86017 20.562 5.73869 20.6106 5.56861 20.2947C5.42283 20.0031 5.38638 19.7116 5.45927 19.42C5.55646 19.1285 5.6172 18.7762 5.6415 18.3631C5.69009 17.9501 5.72654 17.2819 5.75083 16.3587C5.50787 16.7717 5.19201 17.1969 4.80327 17.6342C4.41452 18.0473 4.06222 18.351 3.74637 18.5453C3.43051 18.7397 3.41836 18.679 3.70992 18.3631C4.00148 18.0473 4.31734 17.6464 4.65749 17.1604C5.02194 16.6745 5.3135 16.2129 5.53216 15.7755C5.21631 15.8241 4.97334 15.8484 4.80327 15.8484C4.65749 15.8484 4.48741 15.8241 4.29304 15.7755C4.09867 15.7026 4.13511 15.6419 4.40237 15.5933C4.66964 15.5204 5.11912 15.3989 5.75083 15.2289C5.75083 14.7672 5.73869 14.3177 5.71439 13.8804C5.71439 13.4188 5.6415 13.0908 5.49572 12.8964C5.34994 12.6777 5.38638 12.6048 5.60505 12.6777C5.84802 12.7263 6.05454 12.7992 6.22462 12.8964C6.39469 12.9936 6.41899 13.1394 6.29751 13.3337C6.20032 13.5038 6.13958 14.1112 6.11528 15.156ZM9.1402 15.0831C9.35887 15.3018 9.39532 15.4718 9.24954 15.5933C9.10376 15.6905 8.97013 15.812 8.84865 15.9578C8.75146 16.0792 8.59353 16.2493 8.37486 16.468C8.18049 16.6867 8.19264 16.796 8.41131 16.796H9.28598C9.72332 16.2129 9.91769 15.812 9.8691 15.5933C9.82051 15.3746 9.8934 15.3382 10.0878 15.484C10.3064 15.6055 10.4522 15.7269 10.5251 15.8484C10.598 15.9456 10.5858 16.0428 10.4887 16.14C10.3915 16.2129 10.185 16.4437 9.8691 16.8324C9.57754 17.1969 9.28598 17.5249 8.99442 17.8164C8.72716 18.108 8.36271 18.436 7.90108 18.8005C7.46374 19.1406 7.075 19.3714 6.73484 19.4929C6.41899 19.5901 6.43114 19.5172 6.77129 19.2742C7.13574 19.007 7.53663 18.6668 7.97397 18.2538C8.41131 17.8164 8.77576 17.4034 9.06731 17.0147C8.36271 17.1361 7.90108 17.2576 7.68241 17.3791C7.48804 17.4763 7.39085 17.4034 7.39085 17.1604C7.39085 16.8932 7.47589 16.7352 7.64597 16.6867C7.81604 16.6138 8.02256 16.4072 8.26553 16.0671C8.53279 15.7269 8.66642 15.4354 8.66642 15.1924C8.18049 15.2896 7.87678 15.3382 7.7553 15.3382C7.63382 15.3139 7.48804 15.2532 7.31796 15.156C7.17218 15.0345 7.20863 14.9737 7.4273 14.9737C7.67026 14.9495 8.01041 14.9009 8.44775 14.828C8.90939 14.7551 9.33458 14.6822 9.72332 14.6093C10.1121 14.5121 10.4644 14.4149 10.7802 14.3177C11.1204 14.2206 11.4119 14.257 11.6549 14.4271C11.9222 14.5972 11.8857 14.7065 11.5456 14.7551C11.2054 14.7794 10.8167 14.828 10.3793 14.9009C9.96629 14.9495 9.55325 15.0102 9.1402 15.0831ZM9.97844 18.764C10.683 18.9098 11.1447 19.092 11.3633 19.3107C11.582 19.5294 11.667 19.7602 11.6185 20.0031C11.5699 20.2704 11.3998 20.2583 11.1082 19.9667C10.8167 19.6994 10.4158 19.335 9.90555 18.8733C9.61399 19.1892 9.27383 19.4808 8.88509 19.748C8.52064 19.991 8.14404 20.1611 7.7553 20.2583C7.36655 20.3797 7.33011 20.3433 7.64597 20.1489C7.96182 19.9788 8.31412 19.7359 8.70287 19.42C9.09161 19.0799 9.46821 18.6668 9.83266 18.1809C10.1971 17.6707 10.3672 17.3062 10.3429 17.0876C10.3429 16.8689 10.4279 16.8203 10.598 16.9418C10.7681 17.039 10.9017 17.1483 10.9989 17.2698C11.1204 17.367 11.1325 17.452 11.0353 17.5249C10.9381 17.5978 10.8288 17.7193 10.7073 17.8893C10.6101 18.0351 10.3672 18.3267 9.97844 18.764ZM8.92154 13.4066C8.65427 13.0422 8.61783 12.8721 8.8122 12.8964C9.00657 12.8964 9.21309 12.9328 9.43176 13.0057C9.65043 13.0786 9.79621 13.2001 9.8691 13.3702C9.94199 13.516 9.94199 13.686 9.8691 13.8804C9.79621 14.0505 9.66258 14.0748 9.46821 13.9533C9.29813 13.8075 9.11591 13.6253 8.92154 13.4066Z"
    stroke="black" stroke-width="0.2" mask="url(#path-3-outside-1_16704_37897)" />
  <mask id="path-4-outside-2_16704_37897" maskUnits="userSpaceOnUse" x="3.43311" y="2.5" width="9" height="10"
    fill="black">
    <rect fill="white" x="3.43311" y="2.5" width="9" height="10" />
    <path
      d="M6.8678 8.85077C7.23225 8.82647 7.56025 8.79002 7.85181 8.74143C8.16766 8.66854 8.39848 8.6078 8.54426 8.55921C8.69004 8.48632 8.82367 8.47417 8.94516 8.52276C9.09093 8.57136 9.23671 8.65639 9.38249 8.77788C9.55257 8.89936 9.56472 9.00869 9.41894 9.10588C9.29746 9.17877 9.17597 9.3124 9.05449 9.50677C8.93301 9.67685 8.77508 9.89552 8.58071 10.1628C9.26101 10.5515 9.75909 10.8188 10.0749 10.9646C10.4151 11.0861 10.6824 11.1589 10.8767 11.1832C11.0711 11.2318 11.3627 11.2804 11.7514 11.329C12.1402 11.4019 12.1037 11.4748 11.6421 11.5477C11.2047 11.6206 10.8403 11.6692 10.5487 11.6935C10.2815 11.7421 10.0628 11.7178 9.89272 11.6206C9.72264 11.5477 9.51612 11.4262 9.27316 11.2561C9.03019 11.0861 8.67789 10.8309 8.21626 10.4908C7.51166 11.0739 6.78276 11.3898 6.02957 11.4384C5.27637 11.4869 5.17919 11.4384 5.73801 11.2926C6.29683 11.1468 6.75846 10.9646 7.12291 10.7459C7.48736 10.5272 7.74248 10.345 7.88825 10.1992C7.20795 9.6404 6.72202 9.37314 6.43046 9.39744C5.92023 9.90767 5.39786 10.2843 4.86333 10.5272C4.32881 10.7702 4.29236 10.7337 4.754 10.4179C5.21563 10.0777 5.61653 9.689 5.95668 9.25166C6.32113 8.81432 6.55194 8.44987 6.64913 8.15831C6.60054 7.81816 6.5155 7.41727 6.39402 6.95563C6.29683 6.494 6.19964 6.20244 6.10246 6.08096C6.02957 5.95947 6.05386 5.88659 6.17535 5.86229C6.32113 5.83799 6.45476 5.83799 6.57624 5.86229C6.69772 5.88659 7.03787 5.85014 7.5967 5.75295C8.15552 5.65577 8.50782 5.55858 8.6536 5.4614C8.82367 5.36421 8.99375 5.35206 9.16382 5.42495C9.3582 5.49784 9.51612 5.58288 9.63761 5.68006C9.78339 5.77725 9.79553 5.87444 9.67405 5.97162C9.57687 6.06881 9.47968 6.34822 9.38249 6.80985C9.3096 7.27149 9.21242 7.62379 9.09093 7.86676C8.99375 8.08542 8.90871 8.17046 8.83582 8.12187C8.76293 8.07328 8.69004 7.97609 8.61715 7.83031C7.81536 7.9032 7.25654 7.95179 6.94069 7.97609C6.94069 8.07328 6.91639 8.15831 6.8678 8.2312C7.11076 8.37698 7.1958 8.48632 7.12291 8.55921C7.05002 8.6321 6.96498 8.72928 6.8678 8.85077ZM6.94069 7.72098C7.86396 7.62379 8.45922 7.56305 8.72649 7.53875C8.79938 7.24719 8.84797 6.90704 8.87227 6.5183C8.89656 6.10525 8.83582 5.88659 8.69004 5.86229C8.54426 5.83799 7.91255 5.91088 6.79491 6.08096L6.8678 6.73696C7.25654 6.68837 7.58455 6.62763 7.85181 6.55474C8.14337 6.48185 8.33774 6.50615 8.43493 6.62763C8.55641 6.72482 8.42278 6.80985 8.03403 6.88274C7.64529 6.95563 7.26869 6.99208 6.90424 6.99208L6.94069 7.72098ZM6.5398 4.95117C6.90424 4.95117 7.51166 4.84183 8.36204 4.62316C9.21242 4.40449 9.73479 4.33161 9.92917 4.40449C10.1235 4.47738 10.1721 4.56242 10.0749 4.65961C9.97776 4.7325 9.52827 4.84183 8.72649 4.98761C7.949 5.1091 7.42662 5.16984 7.15936 5.16984C6.91639 5.16984 6.66128 5.15769 6.39402 5.13339C6.07816 5.52214 5.72586 5.8137 5.33712 6.00807C4.97267 6.20244 4.96052 6.12955 5.30067 5.7894C5.66512 5.44925 5.98097 5.07265 6.24824 4.65961C6.5155 4.22227 6.62483 3.90642 6.57624 3.71204C6.55194 3.51767 6.62483 3.45693 6.79491 3.52982C6.98928 3.60271 7.15936 3.69989 7.30514 3.82138C7.47521 3.91856 7.48736 4.01575 7.34158 4.11294C7.2201 4.18583 6.95284 4.46524 6.5398 4.95117ZM6.57624 9.21521C6.91639 9.26381 7.17151 9.3367 7.34158 9.43388C7.53595 9.53107 7.81536 9.689 8.17981 9.90767C8.277 9.81048 8.37419 9.67685 8.47137 9.50677C8.56856 9.3124 8.6293 9.16662 8.6536 9.06943C8.67789 8.97225 8.64145 8.91151 8.54426 8.88721C8.47137 8.86291 8.07048 8.92366 7.34158 9.06943C7.17151 9.14232 6.97713 9.11803 6.75846 8.99655L6.57624 9.21521Z" />
  </mask>
  <path
    d="M6.8678 8.85077C7.23225 8.82647 7.56025 8.79002 7.85181 8.74143C8.16766 8.66854 8.39848 8.6078 8.54426 8.55921C8.69004 8.48632 8.82367 8.47417 8.94516 8.52276C9.09093 8.57136 9.23671 8.65639 9.38249 8.77788C9.55257 8.89936 9.56472 9.00869 9.41894 9.10588C9.29746 9.17877 9.17597 9.3124 9.05449 9.50677C8.93301 9.67685 8.77508 9.89552 8.58071 10.1628C9.26101 10.5515 9.75909 10.8188 10.0749 10.9646C10.4151 11.0861 10.6824 11.1589 10.8767 11.1832C11.0711 11.2318 11.3627 11.2804 11.7514 11.329C12.1402 11.4019 12.1037 11.4748 11.6421 11.5477C11.2047 11.6206 10.8403 11.6692 10.5487 11.6935C10.2815 11.7421 10.0628 11.7178 9.89272 11.6206C9.72264 11.5477 9.51612 11.4262 9.27316 11.2561C9.03019 11.0861 8.67789 10.8309 8.21626 10.4908C7.51166 11.0739 6.78276 11.3898 6.02957 11.4384C5.27637 11.4869 5.17919 11.4384 5.73801 11.2926C6.29683 11.1468 6.75846 10.9646 7.12291 10.7459C7.48736 10.5272 7.74248 10.345 7.88825 10.1992C7.20795 9.6404 6.72202 9.37314 6.43046 9.39744C5.92023 9.90767 5.39786 10.2843 4.86333 10.5272C4.32881 10.7702 4.29236 10.7337 4.754 10.4179C5.21563 10.0777 5.61653 9.689 5.95668 9.25166C6.32113 8.81432 6.55194 8.44987 6.64913 8.15831C6.60054 7.81816 6.5155 7.41727 6.39402 6.95563C6.29683 6.494 6.19964 6.20244 6.10246 6.08096C6.02957 5.95947 6.05386 5.88659 6.17535 5.86229C6.32113 5.83799 6.45476 5.83799 6.57624 5.86229C6.69772 5.88659 7.03787 5.85014 7.5967 5.75295C8.15552 5.65577 8.50782 5.55858 8.6536 5.4614C8.82367 5.36421 8.99375 5.35206 9.16382 5.42495C9.3582 5.49784 9.51612 5.58288 9.63761 5.68006C9.78339 5.77725 9.79553 5.87444 9.67405 5.97162C9.57687 6.06881 9.47968 6.34822 9.38249 6.80985C9.3096 7.27149 9.21242 7.62379 9.09093 7.86676C8.99375 8.08542 8.90871 8.17046 8.83582 8.12187C8.76293 8.07328 8.69004 7.97609 8.61715 7.83031C7.81536 7.9032 7.25654 7.95179 6.94069 7.97609C6.94069 8.07328 6.91639 8.15831 6.8678 8.2312C7.11076 8.37698 7.1958 8.48632 7.12291 8.55921C7.05002 8.6321 6.96498 8.72928 6.8678 8.85077ZM6.94069 7.72098C7.86396 7.62379 8.45922 7.56305 8.72649 7.53875C8.79938 7.24719 8.84797 6.90704 8.87227 6.5183C8.89656 6.10525 8.83582 5.88659 8.69004 5.86229C8.54426 5.83799 7.91255 5.91088 6.79491 6.08096L6.8678 6.73696C7.25654 6.68837 7.58455 6.62763 7.85181 6.55474C8.14337 6.48185 8.33774 6.50615 8.43493 6.62763C8.55641 6.72482 8.42278 6.80985 8.03403 6.88274C7.64529 6.95563 7.26869 6.99208 6.90424 6.99208L6.94069 7.72098ZM6.5398 4.95117C6.90424 4.95117 7.51166 4.84183 8.36204 4.62316C9.21242 4.40449 9.73479 4.33161 9.92917 4.40449C10.1235 4.47738 10.1721 4.56242 10.0749 4.65961C9.97776 4.7325 9.52827 4.84183 8.72649 4.98761C7.949 5.1091 7.42662 5.16984 7.15936 5.16984C6.91639 5.16984 6.66128 5.15769 6.39402 5.13339C6.07816 5.52214 5.72586 5.8137 5.33712 6.00807C4.97267 6.20244 4.96052 6.12955 5.30067 5.7894C5.66512 5.44925 5.98097 5.07265 6.24824 4.65961C6.5155 4.22227 6.62483 3.90642 6.57624 3.71204C6.55194 3.51767 6.62483 3.45693 6.79491 3.52982C6.98928 3.60271 7.15936 3.69989 7.30514 3.82138C7.47521 3.91856 7.48736 4.01575 7.34158 4.11294C7.2201 4.18583 6.95284 4.46524 6.5398 4.95117ZM6.57624 9.21521C6.91639 9.26381 7.17151 9.3367 7.34158 9.43388C7.53595 9.53107 7.81536 9.689 8.17981 9.90767C8.277 9.81048 8.37419 9.67685 8.47137 9.50677C8.56856 9.3124 8.6293 9.16662 8.6536 9.06943C8.67789 8.97225 8.64145 8.91151 8.54426 8.88721C8.47137 8.86291 8.07048 8.92366 7.34158 9.06943C7.17151 9.14232 6.97713 9.11803 6.75846 8.99655L6.57624 9.21521Z"
    fill="black" />
  <path
    d="M6.8678 8.85077C7.23225 8.82647 7.56025 8.79002 7.85181 8.74143C8.16766 8.66854 8.39848 8.6078 8.54426 8.55921C8.69004 8.48632 8.82367 8.47417 8.94516 8.52276C9.09093 8.57136 9.23671 8.65639 9.38249 8.77788C9.55257 8.89936 9.56472 9.00869 9.41894 9.10588C9.29746 9.17877 9.17597 9.3124 9.05449 9.50677C8.93301 9.67685 8.77508 9.89552 8.58071 10.1628C9.26101 10.5515 9.75909 10.8188 10.0749 10.9646C10.4151 11.0861 10.6824 11.1589 10.8767 11.1832C11.0711 11.2318 11.3627 11.2804 11.7514 11.329C12.1402 11.4019 12.1037 11.4748 11.6421 11.5477C11.2047 11.6206 10.8403 11.6692 10.5487 11.6935C10.2815 11.7421 10.0628 11.7178 9.89272 11.6206C9.72264 11.5477 9.51612 11.4262 9.27316 11.2561C9.03019 11.0861 8.67789 10.8309 8.21626 10.4908C7.51166 11.0739 6.78276 11.3898 6.02957 11.4384C5.27637 11.4869 5.17919 11.4384 5.73801 11.2926C6.29683 11.1468 6.75846 10.9646 7.12291 10.7459C7.48736 10.5272 7.74248 10.345 7.88825 10.1992C7.20795 9.6404 6.72202 9.37314 6.43046 9.39744C5.92023 9.90767 5.39786 10.2843 4.86333 10.5272C4.32881 10.7702 4.29236 10.7337 4.754 10.4179C5.21563 10.0777 5.61653 9.689 5.95668 9.25166C6.32113 8.81432 6.55194 8.44987 6.64913 8.15831C6.60054 7.81816 6.5155 7.41727 6.39402 6.95563C6.29683 6.494 6.19964 6.20244 6.10246 6.08096C6.02957 5.95947 6.05386 5.88659 6.17535 5.86229C6.32113 5.83799 6.45476 5.83799 6.57624 5.86229C6.69772 5.88659 7.03787 5.85014 7.5967 5.75295C8.15552 5.65577 8.50782 5.55858 8.6536 5.4614C8.82367 5.36421 8.99375 5.35206 9.16382 5.42495C9.3582 5.49784 9.51612 5.58288 9.63761 5.68006C9.78339 5.77725 9.79553 5.87444 9.67405 5.97162C9.57687 6.06881 9.47968 6.34822 9.38249 6.80985C9.3096 7.27149 9.21242 7.62379 9.09093 7.86676C8.99375 8.08542 8.90871 8.17046 8.83582 8.12187C8.76293 8.07328 8.69004 7.97609 8.61715 7.83031C7.81536 7.9032 7.25654 7.95179 6.94069 7.97609C6.94069 8.07328 6.91639 8.15831 6.8678 8.2312C7.11076 8.37698 7.1958 8.48632 7.12291 8.55921C7.05002 8.6321 6.96498 8.72928 6.8678 8.85077ZM6.94069 7.72098C7.86396 7.62379 8.45922 7.56305 8.72649 7.53875C8.79938 7.24719 8.84797 6.90704 8.87227 6.5183C8.89656 6.10525 8.83582 5.88659 8.69004 5.86229C8.54426 5.83799 7.91255 5.91088 6.79491 6.08096L6.8678 6.73696C7.25654 6.68837 7.58455 6.62763 7.85181 6.55474C8.14337 6.48185 8.33774 6.50615 8.43493 6.62763C8.55641 6.72482 8.42278 6.80985 8.03403 6.88274C7.64529 6.95563 7.26869 6.99208 6.90424 6.99208L6.94069 7.72098ZM6.5398 4.95117C6.90424 4.95117 7.51166 4.84183 8.36204 4.62316C9.21242 4.40449 9.73479 4.33161 9.92917 4.40449C10.1235 4.47738 10.1721 4.56242 10.0749 4.65961C9.97776 4.7325 9.52827 4.84183 8.72649 4.98761C7.949 5.1091 7.42662 5.16984 7.15936 5.16984C6.91639 5.16984 6.66128 5.15769 6.39402 5.13339C6.07816 5.52214 5.72586 5.8137 5.33712 6.00807C4.97267 6.20244 4.96052 6.12955 5.30067 5.7894C5.66512 5.44925 5.98097 5.07265 6.24824 4.65961C6.5155 4.22227 6.62483 3.90642 6.57624 3.71204C6.55194 3.51767 6.62483 3.45693 6.79491 3.52982C6.98928 3.60271 7.15936 3.69989 7.30514 3.82138C7.47521 3.91856 7.48736 4.01575 7.34158 4.11294C7.2201 4.18583 6.95284 4.46524 6.5398 4.95117ZM6.57624 9.21521C6.91639 9.26381 7.17151 9.3367 7.34158 9.43388C7.53595 9.53107 7.81536 9.689 8.17981 9.90767C8.277 9.81048 8.37419 9.67685 8.47137 9.50677C8.56856 9.3124 8.6293 9.16662 8.6536 9.06943C8.67789 8.97225 8.64145 8.91151 8.54426 8.88721C8.47137 8.86291 8.07048 8.92366 7.34158 9.06943C7.17151 9.14232 6.97713 9.11803 6.75846 8.99655L6.57624 9.21521Z"
    stroke="black" stroke-width="0.2" mask="url(#path-4-outside-2_16704_37897)" />
</svg>