<svg width="24" height="24" viewBox="0 0 24 24" fill="none" xmlns="http://www.w3.org/2000/svg">
  <path
    d="M9.70002 21.6H3.08889C2.48751 21.6 2 21.1257 2 20.5405V3.05946C2 2.47434 2.48751 2 3.08889 2H20.5111C21.1125 2 21.6 2.47434 21.6 3.05946V8.20668"
    stroke="#242526" stroke-width="1.2" stroke-linecap="round" stroke-linejoin="round" />
  <path d="M14.5 20.25L19.75 13L22 14.75L16.5 22.25H14.5V20.25Z" fill="#242526" />
  <mask id="path-3-outside-1_16704_37891" maskUnits="userSpaceOnUse" x="4" y="11.5" width="10" height="9" fill="black">
    <rect fill="white" x="4" y="11.5" width="10" height="9" />
    <path
      d="M7.91 12.5C8.29 12.5 8.58 12.57 8.78 12.71C8.98 12.85 9.08 13.0267 9.08 13.24C9.08 13.4467 8.99333 13.55 8.82 13.55C8.64667 13.55 8.41333 13.41 8.12 13.13C7.82667 12.8433 7.68 12.6667 7.68 12.6C7.68 12.5333 7.75667 12.5 7.91 12.5ZM10.98 13.51C11.1467 13.51 11.33 13.56 11.53 13.66C11.73 13.7533 11.83 13.8467 11.83 13.94C11.83 14.0933 11.5933 14.17 11.12 14.17L10.39 14.15C9.55 14.15 8.34667 14.32 6.78 14.66C6.50667 14.72 6.28333 14.75 6.11 14.75C5.94333 14.75 5.79 14.7133 5.65 14.64C5.51 14.5667 5.44 14.5067 5.44 14.46C5.44 14.4133 5.56667 14.38 5.82 14.36C6.51333 14.3067 7.11667 14.24 7.63 14.16C8.15 14.0733 9.02333 13.8967 10.25 13.63C10.6033 13.55 10.8467 13.51 10.98 13.51ZM9.24 14.93C9.44667 14.93 9.70667 14.97 10.02 15.05C10.34 15.1233 10.5767 15.2433 10.73 15.41C10.89 15.57 10.97 15.7267 10.97 15.88C10.97 15.9667 10.9467 16.0367 10.9 16.09C10.86 16.1433 10.7967 16.17 10.71 16.17C10.63 16.17 10.5333 16.1267 10.42 16.04C9.98667 15.7067 9.59 15.4167 9.23 15.17C9.13 15.0967 9.08 15.04 9.08 15C9.08 14.9533 9.13333 14.93 9.24 14.93ZM7.88 15.54C7.88 15.58 7.86333 15.6133 7.83 15.64C7.60333 15.7933 7.46333 15.9 7.41 15.96C7.10333 16.2533 6.77333 16.5 6.42 16.7C6.07333 16.8933 5.85667 16.99 5.77 16.99C5.74333 16.99 5.73 16.9767 5.73 16.95C5.73 16.9167 5.77667 16.86 5.87 16.78C6.21667 16.4933 6.50333 16.2067 6.73 15.92C6.95667 15.6267 7.07333 15.4233 7.08 15.31C7.08667 15.1167 7.13667 15.02 7.23 15.02C7.32333 15.02 7.45333 15.0833 7.62 15.21C7.79333 15.33 7.88 15.44 7.88 15.54ZM8.86 18.11C9.34 18.51 9.79667 18.8233 10.23 19.05C10.67 19.2767 11.0933 19.4467 11.5 19.56C11.9133 19.6733 12.4133 19.7833 13 19.89C13.22 19.93 13.33 19.99 13.33 20.07C13.33 20.11 13.2933 20.14 13.22 20.16C13.1533 20.1867 12.8667 20.23 12.36 20.29C11.8533 20.3567 11.4767 20.39 11.23 20.39C10.9833 20.39 10.79 20.34 10.65 20.24C10.5167 20.1467 10.3033 19.9667 10.01 19.7C9.71667 19.44 9.26 19.0167 8.64 18.43C8.36667 18.7633 8.03333 19.0533 7.64 19.3C7.24667 19.54 6.79333 19.7267 6.28 19.86C5.77333 19.9933 5.4 20.06 5.16 20.06C5.05333 20.06 5 20.0333 5 19.98C5 19.9267 5.07667 19.88 5.23 19.84C5.89 19.6733 6.49 19.4367 7.03 19.13C7.57667 18.8233 8 18.48 8.3 18.1C7.66667 17.5 7.22333 17.1467 6.97 17.04C6.87 16.9933 6.82 16.9433 6.82 16.89C6.82 16.8367 6.88333 16.81 7.01 16.81C7.14333 16.81 7.30333 16.8667 7.49 16.98C7.68333 17.0867 8.02 17.3567 8.5 17.79C8.78 17.3033 8.92 16.77 8.92 16.19C8.92 16.0367 8.96333 15.96 9.05 15.96C9.13667 15.96 9.27 16.03 9.45 16.17C9.63 16.31 9.72 16.4167 9.72 16.49C9.72 16.5633 9.69333 16.6267 9.64 16.68C9.58667 16.7333 9.53 16.8133 9.47 16.92C9.41 17.02 9.31333 17.2167 9.18 17.51C9.04667 17.7967 8.94 17.9967 8.86 18.11Z" />
  </mask>
  <path
    d="M7.91 12.5C8.29 12.5 8.58 12.57 8.78 12.71C8.98 12.85 9.08 13.0267 9.08 13.24C9.08 13.4467 8.99333 13.55 8.82 13.55C8.64667 13.55 8.41333 13.41 8.12 13.13C7.82667 12.8433 7.68 12.6667 7.68 12.6C7.68 12.5333 7.75667 12.5 7.91 12.5ZM10.98 13.51C11.1467 13.51 11.33 13.56 11.53 13.66C11.73 13.7533 11.83 13.8467 11.83 13.94C11.83 14.0933 11.5933 14.17 11.12 14.17L10.39 14.15C9.55 14.15 8.34667 14.32 6.78 14.66C6.50667 14.72 6.28333 14.75 6.11 14.75C5.94333 14.75 5.79 14.7133 5.65 14.64C5.51 14.5667 5.44 14.5067 5.44 14.46C5.44 14.4133 5.56667 14.38 5.82 14.36C6.51333 14.3067 7.11667 14.24 7.63 14.16C8.15 14.0733 9.02333 13.8967 10.25 13.63C10.6033 13.55 10.8467 13.51 10.98 13.51ZM9.24 14.93C9.44667 14.93 9.70667 14.97 10.02 15.05C10.34 15.1233 10.5767 15.2433 10.73 15.41C10.89 15.57 10.97 15.7267 10.97 15.88C10.97 15.9667 10.9467 16.0367 10.9 16.09C10.86 16.1433 10.7967 16.17 10.71 16.17C10.63 16.17 10.5333 16.1267 10.42 16.04C9.98667 15.7067 9.59 15.4167 9.23 15.17C9.13 15.0967 9.08 15.04 9.08 15C9.08 14.9533 9.13333 14.93 9.24 14.93ZM7.88 15.54C7.88 15.58 7.86333 15.6133 7.83 15.64C7.60333 15.7933 7.46333 15.9 7.41 15.96C7.10333 16.2533 6.77333 16.5 6.42 16.7C6.07333 16.8933 5.85667 16.99 5.77 16.99C5.74333 16.99 5.73 16.9767 5.73 16.95C5.73 16.9167 5.77667 16.86 5.87 16.78C6.21667 16.4933 6.50333 16.2067 6.73 15.92C6.95667 15.6267 7.07333 15.4233 7.08 15.31C7.08667 15.1167 7.13667 15.02 7.23 15.02C7.32333 15.02 7.45333 15.0833 7.62 15.21C7.79333 15.33 7.88 15.44 7.88 15.54ZM8.86 18.11C9.34 18.51 9.79667 18.8233 10.23 19.05C10.67 19.2767 11.0933 19.4467 11.5 19.56C11.9133 19.6733 12.4133 19.7833 13 19.89C13.22 19.93 13.33 19.99 13.33 20.07C13.33 20.11 13.2933 20.14 13.22 20.16C13.1533 20.1867 12.8667 20.23 12.36 20.29C11.8533 20.3567 11.4767 20.39 11.23 20.39C10.9833 20.39 10.79 20.34 10.65 20.24C10.5167 20.1467 10.3033 19.9667 10.01 19.7C9.71667 19.44 9.26 19.0167 8.64 18.43C8.36667 18.7633 8.03333 19.0533 7.64 19.3C7.24667 19.54 6.79333 19.7267 6.28 19.86C5.77333 19.9933 5.4 20.06 5.16 20.06C5.05333 20.06 5 20.0333 5 19.98C5 19.9267 5.07667 19.88 5.23 19.84C5.89 19.6733 6.49 19.4367 7.03 19.13C7.57667 18.8233 8 18.48 8.3 18.1C7.66667 17.5 7.22333 17.1467 6.97 17.04C6.87 16.9933 6.82 16.9433 6.82 16.89C6.82 16.8367 6.88333 16.81 7.01 16.81C7.14333 16.81 7.30333 16.8667 7.49 16.98C7.68333 17.0867 8.02 17.3567 8.5 17.79C8.78 17.3033 8.92 16.77 8.92 16.19C8.92 16.0367 8.96333 15.96 9.05 15.96C9.13667 15.96 9.27 16.03 9.45 16.17C9.63 16.31 9.72 16.4167 9.72 16.49C9.72 16.5633 9.69333 16.6267 9.64 16.68C9.58667 16.7333 9.53 16.8133 9.47 16.92C9.41 17.02 9.31333 17.2167 9.18 17.51C9.04667 17.7967 8.94 17.9967 8.86 18.11Z"
    fill="black" />
  <path
    d="M7.91 12.5C8.29 12.5 8.58 12.57 8.78 12.71C8.98 12.85 9.08 13.0267 9.08 13.24C9.08 13.4467 8.99333 13.55 8.82 13.55C8.64667 13.55 8.41333 13.41 8.12 13.13C7.82667 12.8433 7.68 12.6667 7.68 12.6C7.68 12.5333 7.75667 12.5 7.91 12.5ZM10.98 13.51C11.1467 13.51 11.33 13.56 11.53 13.66C11.73 13.7533 11.83 13.8467 11.83 13.94C11.83 14.0933 11.5933 14.17 11.12 14.17L10.39 14.15C9.55 14.15 8.34667 14.32 6.78 14.66C6.50667 14.72 6.28333 14.75 6.11 14.75C5.94333 14.75 5.79 14.7133 5.65 14.64C5.51 14.5667 5.44 14.5067 5.44 14.46C5.44 14.4133 5.56667 14.38 5.82 14.36C6.51333 14.3067 7.11667 14.24 7.63 14.16C8.15 14.0733 9.02333 13.8967 10.25 13.63C10.6033 13.55 10.8467 13.51 10.98 13.51ZM9.24 14.93C9.44667 14.93 9.70667 14.97 10.02 15.05C10.34 15.1233 10.5767 15.2433 10.73 15.41C10.89 15.57 10.97 15.7267 10.97 15.88C10.97 15.9667 10.9467 16.0367 10.9 16.09C10.86 16.1433 10.7967 16.17 10.71 16.17C10.63 16.17 10.5333 16.1267 10.42 16.04C9.98667 15.7067 9.59 15.4167 9.23 15.17C9.13 15.0967 9.08 15.04 9.08 15C9.08 14.9533 9.13333 14.93 9.24 14.93ZM7.88 15.54C7.88 15.58 7.86333 15.6133 7.83 15.64C7.60333 15.7933 7.46333 15.9 7.41 15.96C7.10333 16.2533 6.77333 16.5 6.42 16.7C6.07333 16.8933 5.85667 16.99 5.77 16.99C5.74333 16.99 5.73 16.9767 5.73 16.95C5.73 16.9167 5.77667 16.86 5.87 16.78C6.21667 16.4933 6.50333 16.2067 6.73 15.92C6.95667 15.6267 7.07333 15.4233 7.08 15.31C7.08667 15.1167 7.13667 15.02 7.23 15.02C7.32333 15.02 7.45333 15.0833 7.62 15.21C7.79333 15.33 7.88 15.44 7.88 15.54ZM8.86 18.11C9.34 18.51 9.79667 18.8233 10.23 19.05C10.67 19.2767 11.0933 19.4467 11.5 19.56C11.9133 19.6733 12.4133 19.7833 13 19.89C13.22 19.93 13.33 19.99 13.33 20.07C13.33 20.11 13.2933 20.14 13.22 20.16C13.1533 20.1867 12.8667 20.23 12.36 20.29C11.8533 20.3567 11.4767 20.39 11.23 20.39C10.9833 20.39 10.79 20.34 10.65 20.24C10.5167 20.1467 10.3033 19.9667 10.01 19.7C9.71667 19.44 9.26 19.0167 8.64 18.43C8.36667 18.7633 8.03333 19.0533 7.64 19.3C7.24667 19.54 6.79333 19.7267 6.28 19.86C5.77333 19.9933 5.4 20.06 5.16 20.06C5.05333 20.06 5 20.0333 5 19.98C5 19.9267 5.07667 19.88 5.23 19.84C5.89 19.6733 6.49 19.4367 7.03 19.13C7.57667 18.8233 8 18.48 8.3 18.1C7.66667 17.5 7.22333 17.1467 6.97 17.04C6.87 16.9933 6.82 16.9433 6.82 16.89C6.82 16.8367 6.88333 16.81 7.01 16.81C7.14333 16.81 7.30333 16.8667 7.49 16.98C7.68333 17.0867 8.02 17.3567 8.5 17.79C8.78 17.3033 8.92 16.77 8.92 16.19C8.92 16.0367 8.96333 15.96 9.05 15.96C9.13667 15.96 9.27 16.03 9.45 16.17C9.63 16.31 9.72 16.4167 9.72 16.49C9.72 16.5633 9.69333 16.6267 9.64 16.68C9.58667 16.7333 9.53 16.8133 9.47 16.92C9.41 17.02 9.31333 17.2167 9.18 17.51C9.04667 17.7967 8.94 17.9967 8.86 18.11Z"
    stroke="black" stroke-width="0.2" mask="url(#path-3-outside-1_16704_37891)" />
  <mask id="path-4-outside-2_16704_37891" maskUnits="userSpaceOnUse" x="3" y="2.5" width="11" height="10" fill="black">
    <rect fill="white" x="3" y="2.5" width="11" height="10" />
    <path
      d="M6.75 5.97C7.06333 5.87 7.26667 5.82 7.36 5.82C7.46 5.82 7.56333 5.83667 7.67 5.87C7.78333 5.89667 7.84 5.94333 7.84 6.01C7.84 6.07667 7.76667 6.15 7.62 6.23C7.48 6.30333 7.18333 6.4 6.73 6.52L6.68 7.6C7.19333 7.2 7.47 7 7.51 7C7.55667 7 7.59 7.01 7.61 7.03C7.63 7.05 7.64 7.07 7.64 7.09C7.64 7.13667 7.57667 7.22667 7.45 7.36C7.32333 7.48667 7.06 7.73 6.66 8.09C6.66 8.36333 6.65667 8.81 6.65 9.43C6.65 10.0433 6.64333 10.4333 6.63 10.6C6.62333 10.7667 6.59667 10.92 6.55 11.06C6.51 11.2067 6.45 11.35 6.37 11.49C6.29667 11.63 6.24 11.7133 6.2 11.74C6.16667 11.7733 6.12333 11.79 6.07 11.79C6.01667 11.79 5.97 11.7467 5.93 11.66C5.69667 11.2 5.50333 10.8667 5.35 10.66C5.31667 10.6133 5.3 10.5733 5.3 10.54C5.3 10.5 5.32333 10.48 5.37 10.48C5.41667 10.48 5.50667 10.5033 5.64 10.55C5.77333 10.5967 5.87333 10.62 5.94 10.62C6.01333 10.62 6.05667 10.59 6.07 10.53C6.09 10.47 6.11667 10.27 6.15 9.93C6.19 9.59 6.22667 9.1 6.26 8.46C5.58667 9.05333 5.16333 9.43667 4.99 9.61C4.82333 9.78333 4.69667 9.87 4.61 9.87C4.53 9.87 4.40667 9.81667 4.24 9.71C4.08 9.59667 4 9.5 4 9.42C4 9.33333 4.12 9.26667 4.36 9.22C4.54667 9.18667 5.18667 8.75 6.28 7.91C6.30667 7.35667 6.32333 6.93 6.33 6.63C5.78333 6.77667 5.44 6.85 5.3 6.85C5.16667 6.85 5.04333 6.82333 4.93 6.77C4.82333 6.71667 4.77 6.66333 4.77 6.61C4.77 6.55667 4.81667 6.52 4.91 6.5C5.18333 6.46 5.66 6.33333 6.34 6.12C6.34667 5.84 6.35 5.59333 6.35 5.38C6.35 4.53333 6.27667 4.02 6.13 3.84C6.05 3.73333 6.01 3.65 6.01 3.59C6.01 3.53 6.06 3.5 6.16 3.5C6.26667 3.5 6.43667 3.54333 6.67 3.63C6.90333 3.71667 7.02 3.83333 7.02 3.98C7.02 4.05333 6.99 4.16 6.93 4.3C6.87 4.43333 6.81 4.99 6.75 5.97ZM8.77 4.47C9.05667 4.46333 9.40667 4.41667 9.82 4.33C10.24 4.24333 10.5133 4.17667 10.64 4.13C10.7733 4.07667 10.8633 4.05 10.91 4.05C11.03 4.05 11.21 4.11667 11.45 4.25C11.6967 4.37667 11.82 4.48333 11.82 4.57C11.82 4.62333 11.7833 4.68 11.71 4.74C11.6433 4.8 11.5667 4.90667 11.48 5.06C11.3933 5.20667 11.3333 5.34 11.3 5.46C11.2667 5.57333 11.18 5.80333 11.04 6.15C10.9 6.49667 10.8 6.69667 10.74 6.75C10.68 6.80333 10.63 6.83 10.59 6.83C10.5567 6.83 10.5333 6.82 10.52 6.8C10.5067 6.78 10.47 6.76 10.41 6.74C10.3567 6.72 10.3167 6.71 10.29 6.71C10.2633 6.71 10.1 6.73 9.8 6.77C9.50667 6.81 9.3 6.85 9.18 6.89C9.15333 7.01667 9.10333 7.08 9.03 7.08C8.96333 7.08 8.90667 7.02667 8.86 6.92C8.82 6.81333 8.77 6.55667 8.71 6.15C8.65 5.74333 8.59333 5.45 8.54 5.27C8.48667 5.09 8.41333 4.93333 8.32 4.8C8.22667 4.66667 8.18 4.57 8.18 4.51C8.18 4.44333 8.23333 4.41 8.34 4.41C8.44667 4.41 8.59 4.43 8.77 4.47ZM9.16 6.61C9.8 6.49 10.1667 6.43 10.26 6.43L10.37 6.44C10.4167 6.44 10.4967 6.22333 10.61 5.79C10.7233 5.35 10.78 5.05333 10.78 4.9C10.78 4.74 10.7533 4.64 10.7 4.6C10.6533 4.55333 10.57 4.53 10.45 4.53C10.3833 4.53 10.1233 4.56667 9.67 4.64C9.21667 4.70667 8.98 4.73 8.96 4.71C8.96667 4.83 8.99667 5.11333 9.05 5.56C9.57 5.38667 9.87333 5.3 9.96 5.3C10.0467 5.3 10.13 5.31667 10.21 5.35C10.29 5.38333 10.33 5.42333 10.33 5.47C10.33 5.51667 10.2933 5.56 10.22 5.6C10.1533 5.64 10 5.68667 9.76 5.74C9.52667 5.79333 9.29667 5.81 9.07 5.79L9.16 6.61ZM10.03 10.12C10.37 10.32 10.7233 10.4733 11.09 10.58C11.4633 10.68 12.23 10.8133 13.39 10.98C13.5233 11 13.59 11.0433 13.59 11.11C13.59 11.13 13.5767 11.15 13.55 11.17C13.5233 11.19 13.3933 11.2233 13.16 11.27C12.9267 11.3233 12.6333 11.3767 12.28 11.43C11.9333 11.49 11.6867 11.52 11.54 11.52C11.3933 11.52 11.27 11.4967 11.17 11.45C11.0767 11.4033 10.7533 11.1733 10.2 10.76L8.39 9.41C8.14333 9.93667 7.84 10.3367 7.48 10.61C7.12667 10.8833 6.90667 11.02 6.82 11.02C6.78667 11.02 6.77 11 6.77 10.96C6.77 10.92 6.82 10.8467 6.92 10.74C7.27333 10.3733 7.55333 9.98 7.76 9.56C7.97333 9.14 8.06667 8.84667 8.04 8.68C8.03333 8.63333 8.03 8.59333 8.03 8.56C8.03 8.44667 8.06667 8.39 8.14 8.39C8.22 8.39 8.33667 8.42 8.49 8.48C8.65 8.53333 8.73 8.59 8.73 8.65C8.73 8.71 8.70333 8.78667 8.65 8.88C8.59667 8.96667 8.55 9.05667 8.51 9.15C8.65 9.27667 9.02667 9.52 9.64 9.88C9.65333 9.46 9.66 9.13333 9.66 8.9C9.66 8.26 9.59667 7.91333 9.47 7.86C9.02333 7.92667 8.67667 7.98667 8.43 8.04C8.18333 8.09333 8 8.12 7.88 8.12C7.76667 8.12 7.65 8.1 7.53 8.06C7.41667 8.01333 7.36 7.97 7.36 7.93C7.36 7.87 7.46667 7.83333 7.68 7.82C7.9 7.8 8.41 7.71667 9.21 7.57C10.0167 7.42333 10.5667 7.31333 10.86 7.24C11.1533 7.16667 11.4033 7.13 11.61 7.13C11.8233 7.13 11.99 7.16 12.11 7.22C12.2367 7.27333 12.3 7.33333 12.3 7.4C12.3 7.46 12.25 7.51333 12.15 7.56C12.05 7.6 11.91 7.62 11.73 7.62C11.35 7.63333 10.7567 7.69333 9.95 7.8C10.0967 7.94667 10.17 8.08333 10.17 8.21C10.17 8.26333 10.16 8.31667 10.14 8.37C10.12 8.42333 10.1 8.57 10.08 8.81C10.24 8.79667 10.4633 8.74 10.75 8.64C10.8233 8.61333 10.9233 8.6 11.05 8.6C11.1767 8.6 11.2867 8.62667 11.38 8.68C11.4733 8.73333 11.52 8.78333 11.52 8.83C11.52 8.91 11.37 8.98333 11.07 9.05C10.7767 9.11 10.57 9.14 10.45 9.14C10.3367 9.14 10.21 9.12 10.07 9.08L10.03 10.12Z" />
  </mask>
  <path
    d="M6.75 5.97C7.06333 5.87 7.26667 5.82 7.36 5.82C7.46 5.82 7.56333 5.83667 7.67 5.87C7.78333 5.89667 7.84 5.94333 7.84 6.01C7.84 6.07667 7.76667 6.15 7.62 6.23C7.48 6.30333 7.18333 6.4 6.73 6.52L6.68 7.6C7.19333 7.2 7.47 7 7.51 7C7.55667 7 7.59 7.01 7.61 7.03C7.63 7.05 7.64 7.07 7.64 7.09C7.64 7.13667 7.57667 7.22667 7.45 7.36C7.32333 7.48667 7.06 7.73 6.66 8.09C6.66 8.36333 6.65667 8.81 6.65 9.43C6.65 10.0433 6.64333 10.4333 6.63 10.6C6.62333 10.7667 6.59667 10.92 6.55 11.06C6.51 11.2067 6.45 11.35 6.37 11.49C6.29667 11.63 6.24 11.7133 6.2 11.74C6.16667 11.7733 6.12333 11.79 6.07 11.79C6.01667 11.79 5.97 11.7467 5.93 11.66C5.69667 11.2 5.50333 10.8667 5.35 10.66C5.31667 10.6133 5.3 10.5733 5.3 10.54C5.3 10.5 5.32333 10.48 5.37 10.48C5.41667 10.48 5.50667 10.5033 5.64 10.55C5.77333 10.5967 5.87333 10.62 5.94 10.62C6.01333 10.62 6.05667 10.59 6.07 10.53C6.09 10.47 6.11667 10.27 6.15 9.93C6.19 9.59 6.22667 9.1 6.26 8.46C5.58667 9.05333 5.16333 9.43667 4.99 9.61C4.82333 9.78333 4.69667 9.87 4.61 9.87C4.53 9.87 4.40667 9.81667 4.24 9.71C4.08 9.59667 4 9.5 4 9.42C4 9.33333 4.12 9.26667 4.36 9.22C4.54667 9.18667 5.18667 8.75 6.28 7.91C6.30667 7.35667 6.32333 6.93 6.33 6.63C5.78333 6.77667 5.44 6.85 5.3 6.85C5.16667 6.85 5.04333 6.82333 4.93 6.77C4.82333 6.71667 4.77 6.66333 4.77 6.61C4.77 6.55667 4.81667 6.52 4.91 6.5C5.18333 6.46 5.66 6.33333 6.34 6.12C6.34667 5.84 6.35 5.59333 6.35 5.38C6.35 4.53333 6.27667 4.02 6.13 3.84C6.05 3.73333 6.01 3.65 6.01 3.59C6.01 3.53 6.06 3.5 6.16 3.5C6.26667 3.5 6.43667 3.54333 6.67 3.63C6.90333 3.71667 7.02 3.83333 7.02 3.98C7.02 4.05333 6.99 4.16 6.93 4.3C6.87 4.43333 6.81 4.99 6.75 5.97ZM8.77 4.47C9.05667 4.46333 9.40667 4.41667 9.82 4.33C10.24 4.24333 10.5133 4.17667 10.64 4.13C10.7733 4.07667 10.8633 4.05 10.91 4.05C11.03 4.05 11.21 4.11667 11.45 4.25C11.6967 4.37667 11.82 4.48333 11.82 4.57C11.82 4.62333 11.7833 4.68 11.71 4.74C11.6433 4.8 11.5667 4.90667 11.48 5.06C11.3933 5.20667 11.3333 5.34 11.3 5.46C11.2667 5.57333 11.18 5.80333 11.04 6.15C10.9 6.49667 10.8 6.69667 10.74 6.75C10.68 6.80333 10.63 6.83 10.59 6.83C10.5567 6.83 10.5333 6.82 10.52 6.8C10.5067 6.78 10.47 6.76 10.41 6.74C10.3567 6.72 10.3167 6.71 10.29 6.71C10.2633 6.71 10.1 6.73 9.8 6.77C9.50667 6.81 9.3 6.85 9.18 6.89C9.15333 7.01667 9.10333 7.08 9.03 7.08C8.96333 7.08 8.90667 7.02667 8.86 6.92C8.82 6.81333 8.77 6.55667 8.71 6.15C8.65 5.74333 8.59333 5.45 8.54 5.27C8.48667 5.09 8.41333 4.93333 8.32 4.8C8.22667 4.66667 8.18 4.57 8.18 4.51C8.18 4.44333 8.23333 4.41 8.34 4.41C8.44667 4.41 8.59 4.43 8.77 4.47ZM9.16 6.61C9.8 6.49 10.1667 6.43 10.26 6.43L10.37 6.44C10.4167 6.44 10.4967 6.22333 10.61 5.79C10.7233 5.35 10.78 5.05333 10.78 4.9C10.78 4.74 10.7533 4.64 10.7 4.6C10.6533 4.55333 10.57 4.53 10.45 4.53C10.3833 4.53 10.1233 4.56667 9.67 4.64C9.21667 4.70667 8.98 4.73 8.96 4.71C8.96667 4.83 8.99667 5.11333 9.05 5.56C9.57 5.38667 9.87333 5.3 9.96 5.3C10.0467 5.3 10.13 5.31667 10.21 5.35C10.29 5.38333 10.33 5.42333 10.33 5.47C10.33 5.51667 10.2933 5.56 10.22 5.6C10.1533 5.64 10 5.68667 9.76 5.74C9.52667 5.79333 9.29667 5.81 9.07 5.79L9.16 6.61ZM10.03 10.12C10.37 10.32 10.7233 10.4733 11.09 10.58C11.4633 10.68 12.23 10.8133 13.39 10.98C13.5233 11 13.59 11.0433 13.59 11.11C13.59 11.13 13.5767 11.15 13.55 11.17C13.5233 11.19 13.3933 11.2233 13.16 11.27C12.9267 11.3233 12.6333 11.3767 12.28 11.43C11.9333 11.49 11.6867 11.52 11.54 11.52C11.3933 11.52 11.27 11.4967 11.17 11.45C11.0767 11.4033 10.7533 11.1733 10.2 10.76L8.39 9.41C8.14333 9.93667 7.84 10.3367 7.48 10.61C7.12667 10.8833 6.90667 11.02 6.82 11.02C6.78667 11.02 6.77 11 6.77 10.96C6.77 10.92 6.82 10.8467 6.92 10.74C7.27333 10.3733 7.55333 9.98 7.76 9.56C7.97333 9.14 8.06667 8.84667 8.04 8.68C8.03333 8.63333 8.03 8.59333 8.03 8.56C8.03 8.44667 8.06667 8.39 8.14 8.39C8.22 8.39 8.33667 8.42 8.49 8.48C8.65 8.53333 8.73 8.59 8.73 8.65C8.73 8.71 8.70333 8.78667 8.65 8.88C8.59667 8.96667 8.55 9.05667 8.51 9.15C8.65 9.27667 9.02667 9.52 9.64 9.88C9.65333 9.46 9.66 9.13333 9.66 8.9C9.66 8.26 9.59667 7.91333 9.47 7.86C9.02333 7.92667 8.67667 7.98667 8.43 8.04C8.18333 8.09333 8 8.12 7.88 8.12C7.76667 8.12 7.65 8.1 7.53 8.06C7.41667 8.01333 7.36 7.97 7.36 7.93C7.36 7.87 7.46667 7.83333 7.68 7.82C7.9 7.8 8.41 7.71667 9.21 7.57C10.0167 7.42333 10.5667 7.31333 10.86 7.24C11.1533 7.16667 11.4033 7.13 11.61 7.13C11.8233 7.13 11.99 7.16 12.11 7.22C12.2367 7.27333 12.3 7.33333 12.3 7.4C12.3 7.46 12.25 7.51333 12.15 7.56C12.05 7.6 11.91 7.62 11.73 7.62C11.35 7.63333 10.7567 7.69333 9.95 7.8C10.0967 7.94667 10.17 8.08333 10.17 8.21C10.17 8.26333 10.16 8.31667 10.14 8.37C10.12 8.42333 10.1 8.57 10.08 8.81C10.24 8.79667 10.4633 8.74 10.75 8.64C10.8233 8.61333 10.9233 8.6 11.05 8.6C11.1767 8.6 11.2867 8.62667 11.38 8.68C11.4733 8.73333 11.52 8.78333 11.52 8.83C11.52 8.91 11.37 8.98333 11.07 9.05C10.7767 9.11 10.57 9.14 10.45 9.14C10.3367 9.14 10.21 9.12 10.07 9.08L10.03 10.12Z"
    fill="black" />
  <path
    d="M6.75 5.97C7.06333 5.87 7.26667 5.82 7.36 5.82C7.46 5.82 7.56333 5.83667 7.67 5.87C7.78333 5.89667 7.84 5.94333 7.84 6.01C7.84 6.07667 7.76667 6.15 7.62 6.23C7.48 6.30333 7.18333 6.4 6.73 6.52L6.68 7.6C7.19333 7.2 7.47 7 7.51 7C7.55667 7 7.59 7.01 7.61 7.03C7.63 7.05 7.64 7.07 7.64 7.09C7.64 7.13667 7.57667 7.22667 7.45 7.36C7.32333 7.48667 7.06 7.73 6.66 8.09C6.66 8.36333 6.65667 8.81 6.65 9.43C6.65 10.0433 6.64333 10.4333 6.63 10.6C6.62333 10.7667 6.59667 10.92 6.55 11.06C6.51 11.2067 6.45 11.35 6.37 11.49C6.29667 11.63 6.24 11.7133 6.2 11.74C6.16667 11.7733 6.12333 11.79 6.07 11.79C6.01667 11.79 5.97 11.7467 5.93 11.66C5.69667 11.2 5.50333 10.8667 5.35 10.66C5.31667 10.6133 5.3 10.5733 5.3 10.54C5.3 10.5 5.32333 10.48 5.37 10.48C5.41667 10.48 5.50667 10.5033 5.64 10.55C5.77333 10.5967 5.87333 10.62 5.94 10.62C6.01333 10.62 6.05667 10.59 6.07 10.53C6.09 10.47 6.11667 10.27 6.15 9.93C6.19 9.59 6.22667 9.1 6.26 8.46C5.58667 9.05333 5.16333 9.43667 4.99 9.61C4.82333 9.78333 4.69667 9.87 4.61 9.87C4.53 9.87 4.40667 9.81667 4.24 9.71C4.08 9.59667 4 9.5 4 9.42C4 9.33333 4.12 9.26667 4.36 9.22C4.54667 9.18667 5.18667 8.75 6.28 7.91C6.30667 7.35667 6.32333 6.93 6.33 6.63C5.78333 6.77667 5.44 6.85 5.3 6.85C5.16667 6.85 5.04333 6.82333 4.93 6.77C4.82333 6.71667 4.77 6.66333 4.77 6.61C4.77 6.55667 4.81667 6.52 4.91 6.5C5.18333 6.46 5.66 6.33333 6.34 6.12C6.34667 5.84 6.35 5.59333 6.35 5.38C6.35 4.53333 6.27667 4.02 6.13 3.84C6.05 3.73333 6.01 3.65 6.01 3.59C6.01 3.53 6.06 3.5 6.16 3.5C6.26667 3.5 6.43667 3.54333 6.67 3.63C6.90333 3.71667 7.02 3.83333 7.02 3.98C7.02 4.05333 6.99 4.16 6.93 4.3C6.87 4.43333 6.81 4.99 6.75 5.97ZM8.77 4.47C9.05667 4.46333 9.40667 4.41667 9.82 4.33C10.24 4.24333 10.5133 4.17667 10.64 4.13C10.7733 4.07667 10.8633 4.05 10.91 4.05C11.03 4.05 11.21 4.11667 11.45 4.25C11.6967 4.37667 11.82 4.48333 11.82 4.57C11.82 4.62333 11.7833 4.68 11.71 4.74C11.6433 4.8 11.5667 4.90667 11.48 5.06C11.3933 5.20667 11.3333 5.34 11.3 5.46C11.2667 5.57333 11.18 5.80333 11.04 6.15C10.9 6.49667 10.8 6.69667 10.74 6.75C10.68 6.80333 10.63 6.83 10.59 6.83C10.5567 6.83 10.5333 6.82 10.52 6.8C10.5067 6.78 10.47 6.76 10.41 6.74C10.3567 6.72 10.3167 6.71 10.29 6.71C10.2633 6.71 10.1 6.73 9.8 6.77C9.50667 6.81 9.3 6.85 9.18 6.89C9.15333 7.01667 9.10333 7.08 9.03 7.08C8.96333 7.08 8.90667 7.02667 8.86 6.92C8.82 6.81333 8.77 6.55667 8.71 6.15C8.65 5.74333 8.59333 5.45 8.54 5.27C8.48667 5.09 8.41333 4.93333 8.32 4.8C8.22667 4.66667 8.18 4.57 8.18 4.51C8.18 4.44333 8.23333 4.41 8.34 4.41C8.44667 4.41 8.59 4.43 8.77 4.47ZM9.16 6.61C9.8 6.49 10.1667 6.43 10.26 6.43L10.37 6.44C10.4167 6.44 10.4967 6.22333 10.61 5.79C10.7233 5.35 10.78 5.05333 10.78 4.9C10.78 4.74 10.7533 4.64 10.7 4.6C10.6533 4.55333 10.57 4.53 10.45 4.53C10.3833 4.53 10.1233 4.56667 9.67 4.64C9.21667 4.70667 8.98 4.73 8.96 4.71C8.96667 4.83 8.99667 5.11333 9.05 5.56C9.57 5.38667 9.87333 5.3 9.96 5.3C10.0467 5.3 10.13 5.31667 10.21 5.35C10.29 5.38333 10.33 5.42333 10.33 5.47C10.33 5.51667 10.2933 5.56 10.22 5.6C10.1533 5.64 10 5.68667 9.76 5.74C9.52667 5.79333 9.29667 5.81 9.07 5.79L9.16 6.61ZM10.03 10.12C10.37 10.32 10.7233 10.4733 11.09 10.58C11.4633 10.68 12.23 10.8133 13.39 10.98C13.5233 11 13.59 11.0433 13.59 11.11C13.59 11.13 13.5767 11.15 13.55 11.17C13.5233 11.19 13.3933 11.2233 13.16 11.27C12.9267 11.3233 12.6333 11.3767 12.28 11.43C11.9333 11.49 11.6867 11.52 11.54 11.52C11.3933 11.52 11.27 11.4967 11.17 11.45C11.0767 11.4033 10.7533 11.1733 10.2 10.76L8.39 9.41C8.14333 9.93667 7.84 10.3367 7.48 10.61C7.12667 10.8833 6.90667 11.02 6.82 11.02C6.78667 11.02 6.77 11 6.77 10.96C6.77 10.92 6.82 10.8467 6.92 10.74C7.27333 10.3733 7.55333 9.98 7.76 9.56C7.97333 9.14 8.06667 8.84667 8.04 8.68C8.03333 8.63333 8.03 8.59333 8.03 8.56C8.03 8.44667 8.06667 8.39 8.14 8.39C8.22 8.39 8.33667 8.42 8.49 8.48C8.65 8.53333 8.73 8.59 8.73 8.65C8.73 8.71 8.70333 8.78667 8.65 8.88C8.59667 8.96667 8.55 9.05667 8.51 9.15C8.65 9.27667 9.02667 9.52 9.64 9.88C9.65333 9.46 9.66 9.13333 9.66 8.9C9.66 8.26 9.59667 7.91333 9.47 7.86C9.02333 7.92667 8.67667 7.98667 8.43 8.04C8.18333 8.09333 8 8.12 7.88 8.12C7.76667 8.12 7.65 8.1 7.53 8.06C7.41667 8.01333 7.36 7.97 7.36 7.93C7.36 7.87 7.46667 7.83333 7.68 7.82C7.9 7.8 8.41 7.71667 9.21 7.57C10.0167 7.42333 10.5667 7.31333 10.86 7.24C11.1533 7.16667 11.4033 7.13 11.61 7.13C11.8233 7.13 11.99 7.16 12.11 7.22C12.2367 7.27333 12.3 7.33333 12.3 7.4C12.3 7.46 12.25 7.51333 12.15 7.56C12.05 7.6 11.91 7.62 11.73 7.62C11.35 7.63333 10.7567 7.69333 9.95 7.8C10.0967 7.94667 10.17 8.08333 10.17 8.21C10.17 8.26333 10.16 8.31667 10.14 8.37C10.12 8.42333 10.1 8.57 10.08 8.81C10.24 8.79667 10.4633 8.74 10.75 8.64C10.8233 8.61333 10.9233 8.6 11.05 8.6C11.1767 8.6 11.2867 8.62667 11.38 8.68C11.4733 8.73333 11.52 8.78333 11.52 8.83C11.52 8.91 11.37 8.98333 11.07 9.05C10.7767 9.11 10.57 9.14 10.45 9.14C10.3367 9.14 10.21 9.12 10.07 9.08L10.03 10.12Z"
    stroke="black" stroke-width="0.2" mask="url(#path-4-outside-2_16704_37891)" />
</svg>