<svg width="40" height="40" viewBox="0 0 40 40" fill="none" xmlns="http://www.w3.org/2000/svg">
<g clip-path="url(#clip0_8196_23176)">
<circle cx="20" cy="20" r="20" fill="white"/>
<path d="M28.625 29.0002C28.625 26.0403 27.1339 23.4287 24.8616 21.8752C23.4287 22.8525 21.7345 23.3752 20 23.3752C18.2655 23.3752 16.5713 22.8525 15.1384 21.8752C12.8661 23.4287 11.375 26.0403 11.375 29.0002C11.375 29.2986 11.4935 29.5848 11.7045 29.7957C11.9155 30.0067 12.2016 30.1252 12.5 30.1252H27.5C27.7984 30.1252 28.0845 30.0067 28.2955 29.7957C28.5065 29.5848 28.625 29.2986 28.625 29.0002Z" fill="white"/>
<path d="M28.625 29.0002C28.625 26.0403 27.1339 23.4287 24.8616 21.8752C23.4299 22.855 21.7349 23.378 20 23.3752C18.1965 23.3752 16.625 22.6487 16.25 22.4392C14.2648 24.0212 12.5 26.3736 12.5 29.0002C12.5 29.2986 12.6185 29.5848 12.8295 29.7957C13.0405 30.0067 13.3266 30.1252 13.625 30.1252H27.5C27.7984 30.1252 28.0845 30.0067 28.2955 29.7957C28.5065 29.5848 28.625 29.2986 28.625 29.0002Z" fill="#5991FF"/>
<path d="M14.75 15.1252C14.75 16.5176 15.3031 17.853 16.2877 18.8376C17.2723 19.8221 18.6076 20.3752 20 20.3752C21.3924 20.3752 22.7277 19.8221 23.7123 18.8376C24.6969 17.853 25.25 16.5176 25.25 15.1252C25.25 13.7329 24.6969 12.3975 23.7123 11.4129C22.7277 10.4284 21.3924 9.87524 20 9.87524C18.6076 9.87524 17.2723 10.4284 16.2877 11.4129C15.3031 12.3975 14.75 13.7329 14.75 15.1252Z" fill="white"/>
<path d="M15.875 15.6877C15.875 16.9309 16.3689 18.1232 17.2479 19.0023C18.127 19.8814 19.3193 20.3752 20.5625 20.3752C21.8057 20.3752 22.998 19.8814 23.8771 19.0023C24.7561 18.1232 25.25 16.9309 25.25 15.6877C25.25 14.4445 24.7561 13.2523 23.8771 12.3732C22.998 11.4941 21.8057 11.0002 20.5625 11.0002C19.3193 11.0002 18.127 11.4941 17.2479 12.3732C16.3689 13.2523 15.875 14.4445 15.875 15.6877Z" fill="#D9E5FF"/>
<path d="M27.5 30.5001H12.5C12.1023 30.4997 11.721 30.3415 11.4398 30.0603C11.1586 29.7791 11.0004 29.3978 11 29.0001C11.0001 27.5349 11.3578 26.0919 12.0421 24.7963C12.7264 23.5006 13.7166 22.3916 14.9267 21.5655C14.9891 21.5229 15.0628 21.5001 15.1384 21.5001C15.2139 21.5001 15.2877 21.5229 15.35 21.5655C16.7206 22.5002 18.341 23.0002 20 23.0002C21.659 23.0002 23.2794 22.5002 24.65 21.5655C24.7123 21.5229 24.7861 21.5001 24.8616 21.5001C24.9372 21.5001 25.0109 21.5229 25.0733 21.5655C26.2834 22.3916 27.2736 23.5006 27.9579 24.7963C28.6422 26.0919 28.9999 27.5349 29 29.0001C28.9996 29.3978 28.8414 29.7791 28.5602 30.0603C28.279 30.3415 27.8977 30.4997 27.5 30.5001ZM15.1449 22.3294C14.0934 23.095 13.2377 24.0984 12.6477 25.2577C12.0577 26.417 11.7501 27.6994 11.75 29.0001C11.75 29.1991 11.829 29.3898 11.9697 29.5305C12.1103 29.6711 12.3011 29.7501 12.5 29.7501H27.5C27.6989 29.7501 27.8897 29.6711 28.0303 29.5305C28.171 29.3898 28.25 29.1991 28.25 29.0001C28.2499 27.6994 27.9423 26.417 27.3523 25.2577C26.7623 24.0984 25.9066 23.095 24.8551 22.3294C23.4057 23.2571 21.7209 23.7501 20 23.7501C18.2791 23.7501 16.5943 23.2571 15.1449 22.3294ZM20 20.7501C18.8875 20.7502 17.7999 20.4203 16.8748 19.8022C15.9497 19.1841 15.2287 18.3056 14.803 17.2778C14.3772 16.2499 14.2658 15.1189 14.4829 14.0277C14.6999 12.9365 15.2357 11.9342 16.0224 11.1476C17.0773 10.0926 18.5081 9.5 20 9.5C21.4919 9.5 22.9227 10.0926 23.9776 11.1476C25.0325 12.2025 25.6251 13.6333 25.6251 15.1251C25.6251 16.617 25.0325 18.0478 23.9776 19.1027C23.4564 19.6267 22.8366 20.0421 22.1538 20.3249C21.4711 20.6076 20.739 20.7522 20 20.7501ZM20 10.2501C17.312 10.2501 15.125 12.4371 15.125 15.1251C15.125 17.8132 17.312 20.0001 20 20.0001C22.688 20.0001 24.875 17.8132 24.875 15.1251C24.875 12.4371 22.688 10.2501 20 10.2501Z" fill="#333333"/>
<path d="M21.5 28.2502H18.5C18.3011 28.2502 18.1103 28.1712 17.9697 28.0306C17.829 27.8899 17.75 27.6992 17.75 27.5002C17.75 27.3013 17.829 27.1106 17.9697 26.9699C18.1103 26.8293 18.3011 26.7502 18.5 26.7502H21.5C21.6989 26.7502 21.8897 26.8293 22.0303 26.9699C22.171 27.1106 22.25 27.3013 22.25 27.5002C22.25 27.6992 22.171 27.8899 22.0303 28.0306C21.8897 28.1712 21.6989 28.2502 21.5 28.2502Z" fill="#333333"/>
</g>
<defs>
<clipPath id="clip0_8196_23176">
<rect width="40" height="40" fill="white"/>
</clipPath>
</defs>
</svg>
