<svg width="24" height="24" viewBox="0 0 24 24" fill="none" xmlns="http://www.w3.org/2000/svg">
<path fill-rule="evenodd" clip-rule="evenodd" d="M12.9999 2.77991L19.5141 6.54594C20.1248 6.88522 20.532 7.56379 20.498 8.31021L20.4641 15.7744C20.4641 16.4869 20.057 17.1315 19.4463 17.5047L12.9999 21.2708C12.6945 21.4404 12.3213 21.5422 11.9821 21.5422C11.6428 21.5422 11.2696 21.4404 10.9642 21.2708L4.51785 17.5387C3.87321 17.1655 3.5 16.4869 3.5 15.7744V8.31021C3.5 7.56379 3.90714 6.91915 4.51785 6.54594L10.9642 2.77991C11.6088 2.4067 12.3892 2.4067 12.9999 2.77991ZM6.82573 8.06267C6.41792 7.83217 5.90046 7.97591 5.66995 8.38372C5.43945 8.79154 5.58319 9.309 5.991 9.5395L11.1341 12.4465V18.4949C11.1341 18.9633 11.5138 19.3431 11.9823 19.3431C12.4507 19.3431 12.8305 18.9633 12.8305 18.4949V12.4465L17.9736 9.5395C18.3814 9.309 18.5251 8.79154 18.2946 8.38372C18.0641 7.97591 17.5467 7.83217 17.1388 8.06267L11.9823 10.9772L6.82573 8.06267Z" fill="#5991FF"/>
</svg>
