<svg width="24" height="24" viewBox="0 0 24 24" fill="none" xmlns="http://www.w3.org/2000/svg">
<path fill-rule="evenodd" clip-rule="evenodd" d="M3 12.0374C3 10.216 4.36749 8.65935 6.18021 8.41579L6.60424 8.36284L6.72085 7.94985C7.39929 5.62018 9.57244 4 12 4C14.4276 4 16.6007 5.62018 17.2792 7.94985L17.3958 8.36284L17.8198 8.41579C19.6325 8.64876 21 10.2054 21 12.0374C21 14.0494 19.3569 15.6907 17.3428 15.6907H6.64664C4.63251 15.6907 3 14.0494 3 12.0374ZM12.3457 8.45395C12.5663 8.46107 12.7681 8.5797 12.8817 8.76894L14.2234 11.0052H17.8918C18.2505 11.0052 18.5412 11.2959 18.5412 11.6546C18.5412 12.0133 18.2505 12.3041 17.8918 12.3041H13.8557C13.6275 12.3041 13.4161 12.1844 13.2987 11.9888L12.2861 10.301L9.84348 13.8333C9.70905 14.0277 9.4796 14.1338 9.24441 14.1102C9.00922 14.0865 8.80542 13.937 8.71231 13.7198L7.90678 11.8402H6.15464C5.79594 11.8402 5.50515 11.5494 5.50515 11.1907C5.50515 10.832 5.79594 10.5412 6.15464 10.5412H8.33505C8.59486 10.5412 8.82968 10.6961 8.93202 10.9349L9.44338 12.128L11.7905 8.7337C11.916 8.55218 12.1251 8.44682 12.3457 8.45395ZM19.3297 16.8041H4.66995C4.26001 16.8041 3.92769 17.1365 3.92769 17.5464V19.5876C3.92769 19.9976 4.26001 20.3299 4.66995 20.3299H19.3297C19.7397 20.3299 20.072 19.9976 20.072 19.5876V17.5464C20.072 17.1365 19.7397 16.8041 19.3297 16.8041ZM5.96892 17.9175H7.45346V19.4021H5.96892V17.9175ZM9.86583 17.9175H8.38129V19.4021H9.86583V17.9175ZM12.4638 17.9175H18.0308V19.4021H12.4638V17.9175Z" fill="#5991FF"/>
</svg>
