<svg width="24" height="24" viewBox="0 0 24 24" fill="none" xmlns="http://www.w3.org/2000/svg">
<path fill-rule="evenodd" clip-rule="evenodd" d="M8.924 3.30334L6.39078 5.83657C6.04308 6.18426 5.69538 6.18426 5.34769 5.83657C5.00051 5.48904 5.00068 5.14152 5.34821 4.79399L7.88143 2.26077C8.22903 1.91318 8.57663 1.91308 8.92422 2.26047L8.92407 2.26032C9.2717 2.608 9.27168 2.95567 8.924 3.30334ZM9.32438 10.2759L7.3706 8.32209C7.08723 8.03926 6.90253 7.67266 6.84387 7.27663C6.78521 6.88059 6.85571 6.47619 7.04492 6.12336C7.1313 5.96176 7.24104 5.81379 7.3706 5.6842L8.90396 4.15084C9.14291 3.91234 9.44201 3.74304 9.76947 3.66091C10.0969 3.57878 10.4405 3.58691 10.7637 3.68442C11.057 3.77417 11.3239 3.9343 11.5411 4.15084L18.2891 10.8981C18.5491 11.1595 18.7264 11.4916 18.799 11.853C18.8595 12.1536 18.8443 12.4646 18.7548 12.7579C18.6664 13.0516 18.5063 13.3187 18.2891 13.5352L16.7557 15.0686C16.5386 15.2852 16.2717 15.4454 15.9784 15.535C15.6846 15.6233 15.3737 15.6385 15.0728 15.5792C14.7722 15.5187 14.4909 15.3857 14.2534 15.1917C14.2062 15.1529 14.161 15.1118 14.1178 15.0686H14.1171L12.1502 13.1017C12.0764 13.1395 12.0003 13.1731 11.9221 13.2022C11.6918 13.2884 11.448 13.3328 11.2022 13.3333C10.9153 13.3338 10.6313 13.2761 10.3673 13.1639C10.2169 13.0996 10.0745 13.018 9.94291 12.9207C9.60552 13.1761 9.30629 13.4783 9.05428 13.8182C8.61233 14.4155 8.32937 15.1153 8.23197 15.8519C8.15452 16.4296 8.19282 17.017 8.34462 17.5798C8.49642 18.1426 8.7587 18.6696 9.11618 19.1301C9.77074 19.9736 10.7095 20.5504 11.7577 20.7533H19.5409V21.9964H3V20.7541H8.73154C7.92597 20.0363 7.33674 19.1079 7.03018 18.0734C6.80682 17.3196 6.73958 16.5282 6.83258 15.7475C6.92557 14.9668 7.17684 14.2133 7.57102 13.533C7.9714 12.8375 8.51247 12.2332 9.15965 11.7587C9.06632 11.4007 9.06988 11.0244 9.16997 10.6682C9.20838 10.5322 9.26019 10.4008 9.32438 10.2759ZM20.7392 13.9765L17.2129 17.5028C16.8653 17.8504 16.5177 17.8505 16.1701 17.503C15.8227 17.1554 15.8227 16.8078 16.1704 16.4602L19.6967 12.9339C20.0443 12.5863 20.3919 12.5862 20.7395 12.9336C21.0869 13.2813 21.0868 13.6289 20.7392 13.9765ZM10.2825 6.94188L11.5851 8.24445C11.8456 8.50496 12.1061 8.50496 12.3666 8.24445C12.6271 7.98393 12.6271 7.72342 12.3666 7.46291L11.0641 6.16035C10.8035 5.89984 10.543 5.89984 10.2825 6.16035C10.022 6.42086 10.022 6.68137 10.2825 6.94188Z" fill="#5991FF"/>
</svg>
