<svg width="24" height="24" viewBox="0 0 24 24" fill="none" xmlns="http://www.w3.org/2000/svg">
<path fill-rule="evenodd" clip-rule="evenodd" d="M14.8361 2.81148H14.8176C13.9365 2.81148 13.0984 2.45902 12.4549 1.85451C12.2193 1.63525 11.9037 1.5 11.5574 1.5C11.2111 1.5 10.8955 1.63525 10.6598 1.85451C10.0164 2.45902 9.18033 2.81148 8.29713 2.81148H8.27869C6.46721 2.81148 5 4.27869 5 6.09016V16.2541C5 18.2459 6.61475 19.8607 8.60656 19.8607H9.59016C9.95287 19.8607 10.2459 20.1537 10.2459 20.5164V20.8443C10.2459 21.0246 10.3934 21.1721 10.5738 21.1721H10.7377C10.8279 21.1721 10.9016 21.2459 10.9016 21.3361V22.3197C10.9016 22.4098 10.9754 22.4836 11.0656 22.4836H12.0492C12.1393 22.4836 12.2131 22.4098 12.2131 22.3197V21.3361C12.2131 21.2459 12.2869 21.1721 12.377 21.1721H12.541C12.7213 21.1721 12.8689 21.0246 12.8689 20.8443V20.5164C12.8689 20.157 13.1565 19.866 13.5146 19.8607C13.0543 19.2257 12.7837 18.4442 12.7837 17.585C12.7837 16.9881 12.9932 16.3642 13.2518 15.8021C13.5171 15.2254 13.871 14.636 14.2353 14.0883C14.7534 13.3095 15.3418 12.5461 15.7561 12.0087L15.7561 12.0086C15.9139 11.8039 16.0465 11.6319 16.1403 11.5044C16.2953 11.2935 16.5415 11.1689 16.8033 11.1689C17.0651 11.1689 17.3112 11.2935 17.4663 11.5044C17.56 11.6319 17.6927 11.804 17.8505 12.0087L17.8507 12.009L17.8518 12.0104C17.9333 12.1162 18.0216 12.2307 18.1148 12.3524V6.09016C18.1148 4.27869 16.6475 2.81148 14.8361 2.81148ZM11.5574 2.15574C11.9201 2.15574 12.2131 2.44877 12.2131 2.81148C12.2131 3.17418 11.9201 3.46721 11.5574 3.46721C11.1947 3.46721 10.9016 3.17418 10.9016 2.81148C10.9016 2.44877 11.1947 2.15574 11.5574 2.15574ZM10.1173 6.84869H6.82578V8.08302H10.1173V6.84869ZM6.82578 8.90588H10.1173V10.1402H6.82578V8.90588ZM10.1173 10.9631H6.82578V12.1974H10.1173V10.9631ZM16.382 12.545L16.382 12.545L16.3819 12.545C15.3914 13.8298 13.6066 16.1446 13.6066 17.5849C13.6066 19.3226 15.0153 20.6802 16.8033 20.6802C18.5371 20.6802 20 19.2683 20 17.5849C20 16.1446 18.2152 13.8298 17.2246 12.545C17.0574 12.3282 16.9128 12.1407 16.8033 11.9917C16.6937 12.1407 16.5492 12.3282 16.382 12.545ZM15.0546 17.5463C15.0546 17.319 14.8704 17.1348 14.6432 17.1348C14.416 17.1348 14.2318 17.319 14.2318 17.5463C14.2318 18.548 15.0699 19.8092 16.4947 19.8092C16.7219 19.8092 16.9061 19.625 16.9061 19.3978C16.9061 19.1705 16.7219 18.9863 16.4947 18.9863C15.6154 18.9863 15.0546 18.1903 15.0546 17.5463Z" fill="#5991FF"/>
</svg>
