<svg width="24" height="24" viewBox="0 0 24 24" fill="none" xmlns="http://www.w3.org/2000/svg">
<path fill-rule="evenodd" clip-rule="evenodd" d="M11.9455 2.5L3.6001 4.93551V9.92784C3.6001 15.1789 6.96083 19.8405 11.9428 21.5C16.9234 19.8405 20.283 15.1799 20.283 9.93016V4.93551L11.9455 2.5ZM7.30745 11.384C7.30745 9.03689 9.2102 7.13414 11.5573 7.13414C13.9045 7.13414 15.8072 9.03689 15.8072 11.384C15.8072 12.2956 15.5203 13.14 15.0318 13.8321L16.3634 15.1637C16.6468 15.4471 16.6468 15.9065 16.3634 16.1899C16.08 16.4733 15.6206 16.4733 15.3373 16.1899L14.0056 14.8583C13.3135 15.3469 12.469 15.6339 11.5573 15.6339C9.2102 15.6339 7.30745 13.7312 7.30745 11.384ZM11.5573 8.58532C10.0117 8.58532 8.75863 9.83836 8.75863 11.384C8.75863 12.9297 10.0117 14.1827 11.5573 14.1827C13.103 14.1827 14.3561 12.9297 14.3561 11.384C14.3561 9.83836 13.103 8.58532 11.5573 8.58532Z" fill="#5991FF"/>
</svg>
