<svg width="24" height="24" viewBox="0 0 24 24" fill="none" xmlns="http://www.w3.org/2000/svg">
<path d="M3 21.4945V20.4367H11.5054V19.8223C10.6278 19.6958 9.82492 19.2582 9.24346 18.5894C8.662 17.9207 8.34069 17.0653 8.33818 16.1795V7.75866H7.80317V7.32637H6.68719C6.43723 7.327 6.19769 7.42647 6.02094 7.60302C5.84419 7.77957 5.74462 8.01885 5.74399 8.26854V11.479C6.17211 11.6064 6.54776 11.8682 6.81529 12.2256C7.08282 12.5829 7.228 13.0169 7.22933 13.4631V17.7923C7.22848 18.2459 7.0787 18.6867 6.80295 19.0471C6.5272 19.4075 6.14072 19.6676 5.70277 19.7875V20.4161H4.65654V19.7986C4.20901 19.6855 3.81187 19.4269 3.52773 19.0635C3.24358 18.7001 3.08859 18.2526 3.08719 17.7915V13.4655C3.08851 13.0346 3.22395 12.6149 3.47475 12.2643C3.72554 11.9138 4.07927 11.6499 4.48692 11.5091V8.27012C4.48692 7.9817 4.54379 7.69611 4.65429 7.42964C4.76478 7.16318 4.92673 6.92107 5.1309 6.71712C5.33507 6.51318 5.57745 6.3514 5.8442 6.24103C6.11096 6.13066 6.39687 6.07385 6.6856 6.07385H7.80159V5.64631H8.37543C8.51021 4.72658 8.9885 3.8919 9.71418 3.31003C10.4399 2.72815 11.3591 2.44223 12.2872 2.50972C13.2153 2.5772 14.0835 2.9931 14.7171 3.67382C15.3508 4.35454 15.703 5.24962 15.703 6.17915V14.6214H16.2602V15.1495H17.2906V10.1742C17.2906 9.68289 17.486 9.21166 17.8338 8.86421C18.1817 8.51677 18.6534 8.32158 19.1453 8.32158C19.6372 8.32158 20.109 8.51677 20.4568 8.86421C20.8046 9.21166 21 9.68289 21 10.1742V18.0615C20.9978 18.5043 20.8379 18.9318 20.5489 19.2675C20.2598 19.6032 19.8606 19.8251 19.4227 19.8936V20.4415H20.9501V21.5L3 21.4945ZM18.9139 20.4367V19.8936C18.4682 19.8337 18.0594 19.6147 17.7629 19.277C17.4664 18.9394 17.3023 18.5059 17.3009 18.0567V16.1795H16.2705V16.7187H15.6737C15.5551 17.5002 15.1887 18.223 14.6285 18.7812C14.0683 19.3393 13.3438 19.7034 12.5612 19.8199V20.4375L18.9139 20.4367Z" fill="#5991FF"/>
</svg>
