<svg width="24" height="24" viewBox="0 0 24 24" fill="none" xmlns="http://www.w3.org/2000/svg">
<path fill-rule="evenodd" clip-rule="evenodd" d="M14.1281 8.48875V5.57679H14.9365C15.2348 5.57679 15.5209 5.45686 15.7319 5.24337C15.9429 5.02989 16.0614 4.74034 16.0614 4.43842C16.0614 4.13651 15.9429 3.84696 15.7319 3.63347C15.5209 3.41998 15.2348 3.30005 14.9365 3.30005H5.58486C5.28652 3.30005 5.0004 3.41998 4.78945 3.63347C4.57849 3.84696 4.45997 4.13651 4.45997 4.43842C4.45997 4.74034 4.57849 5.02989 4.78945 5.24337C5.0004 5.45686 5.28652 5.57679 5.58486 5.57679H6.39404V8.48875C6.39404 8.64054 6.35879 8.7908 6.29205 8.92665L2.26343 17.0789C1.44376 18.7387 2.63614 20.6914 4.46972 20.6914H13.8201C12.9626 19.7851 12.4348 18.5997 12.4348 17.319C12.4348 15.6537 13.9225 13.2803 15.3926 11.2786L14.2308 8.92665C14.1634 8.79074 14.1282 8.64081 14.1281 8.48875ZM7 11.126C6.63981 11.126 6.34782 11.418 6.34782 11.7782C6.34782 12.1384 6.63981 12.4304 7 12.4304H10.4783C10.8384 12.4304 11.1304 12.1384 11.1304 11.7782C11.1304 11.418 10.8384 11.126 10.4783 11.126H7ZM5.0435 15.2567C5.0435 14.8965 5.33549 14.6045 5.69568 14.6045H9.17394C9.53412 14.6045 9.82611 14.8965 9.82611 15.2567C9.82611 15.6169 9.53412 15.9089 9.17394 15.9089H5.69568C5.33549 15.9089 5.0435 15.6169 5.0435 15.2567ZM17.8696 9.82194C18.0111 10.0084 18.1979 10.2429 18.414 10.5142C19.6939 12.1215 22 15.0174 22 16.8192C22 18.9931 20.1798 20.6915 17.8696 20.6915C15.6293 20.6915 13.7391 18.9252 13.7391 16.8192C13.7391 15.0174 16.0453 12.1215 17.3252 10.5142C17.5412 10.2429 17.728 10.0083 17.8696 9.82194ZM20.5954 16.3435C20.2999 16.3435 20.0603 16.583 20.0603 16.8786C20.0603 17.7162 19.331 18.7515 18.1874 18.7515C17.8918 18.7515 17.6523 18.9911 17.6523 19.2866C17.6523 19.5821 17.8918 19.8217 18.1874 19.8217C20.0404 19.8217 21.1305 18.1815 21.1305 16.8786C21.1305 16.583 20.8909 16.3435 20.5954 16.3435Z" fill="#5991FF"/>
</svg>
