<svg width="24" height="24" viewBox="0 0 24 24" fill="none" xmlns="http://www.w3.org/2000/svg">
<path fill-rule="evenodd" clip-rule="evenodd" d="M17.6228 4H6.37725L3 8.40942V19.4286H21V8.40942L17.6228 4ZM4.60045 8.62754C4.66851 8.42337 4.85958 8.28566 5.07479 8.28566H18.9255C19.1407 8.28566 19.3317 8.42337 19.3998 8.62754L19.495 8.91326C19.603 9.23702 19.362 9.57137 19.0207 9.57137H4.97955C4.63827 9.57137 4.39729 9.23702 4.50521 8.91326L4.60045 8.62754ZM15.0712 12.5714C14.7951 12.5714 14.5712 12.7953 14.5712 13.0714V13.5714C14.5712 13.8476 14.7951 14.0714 15.0712 14.0714H19.2141C19.4902 14.0714 19.7141 13.8476 19.7141 13.5714V13.0714C19.7141 12.7953 19.4902 12.5714 19.2141 12.5714H15.0712ZM12.4287 16.0715C12.4287 15.7953 12.6525 15.5715 12.9287 15.5715H19.2144C19.4905 15.5715 19.7144 15.7953 19.7144 16.0715V16.3572C19.7144 16.6333 19.4905 16.8572 19.2144 16.8572H12.9287C12.6525 16.8572 12.4287 16.6333 12.4287 16.3572V16.0715ZM12.6428 5.28562H11.3571L11.1428 8.28562H12.8571L12.6428 5.28562Z" fill="#5991FF"/>
</svg>
