<svg width="20" height="20" viewBox="0 0 20 20" fill="none" xmlns="http://www.w3.org/2000/svg">
<path d="M16.9397 1.25C17.4198 1.25 17.8803 1.44073 18.2198 1.78024C18.5593 2.11974 18.75 2.58021 18.75 3.06035V16.9397C18.75 17.4198 18.5593 17.8803 18.2198 18.2198C17.8803 18.5593 17.4198 18.75 16.9397 18.75H3.06034C2.58021 18.75 2.11974 18.5593 1.78024 18.2198C1.44073 17.8803 1.25 17.4198 1.25 16.9397V3.06035C1.25 2.58021 1.44073 2.11974 1.78024 1.78024C2.11974 1.44073 2.58021 1.25 3.06034 1.25H16.9397ZM5.47414 3.96552C5.31409 3.96552 5.1606 4.0291 5.04744 4.14226C4.93427 4.25543 4.87069 4.40892 4.87069 4.56897V6.4481C4.16767 6.61375 3.66379 7.0606 3.66379 7.58621C3.66379 8.11181 4.16767 8.55866 4.87069 8.72431V15.431C4.87067 15.5103 4.88627 15.5888 4.91659 15.662C4.94691 15.7352 4.99135 15.8018 5.04739 15.8578C5.10343 15.9139 5.16996 15.9583 5.24318 15.9887C5.3164 16.019 5.39488 16.0346 5.47414 16.0346C5.55339 16.0346 5.63187 16.019 5.7051 15.9887C5.77832 15.9583 5.84485 15.9139 5.90089 15.8578C5.95692 15.8018 6.00137 15.7352 6.03169 15.662C6.06201 15.5888 6.0776 15.5103 6.07759 15.431V8.72431C6.7806 8.55866 7.28448 8.11181 7.28448 7.58621C7.28448 7.06091 6.7806 6.61375 6.07759 6.4481V4.56897C6.07759 4.48972 6.06198 4.41125 6.03165 4.33804C6.00133 4.26482 5.95688 4.1983 5.90084 4.14226C5.84481 4.08623 5.77828 4.04178 5.70507 4.01145C5.63185 3.98113 5.55338 3.96552 5.47414 3.96552ZM10 3.96552C9.92075 3.96552 9.84228 3.98113 9.76907 4.01145C9.69586 4.04178 9.62933 4.08623 9.5733 4.14226C9.51726 4.1983 9.47281 4.26482 9.44249 4.33804C9.41216 4.41125 9.39655 4.48972 9.39655 4.56897V11.2757C8.69353 11.4413 8.18966 11.8882 8.18966 12.4138C8.18966 12.9394 8.69353 13.3862 9.39655 13.5519V15.431C9.39655 15.5911 9.46013 15.7446 9.5733 15.8577C9.68647 15.9709 9.83996 16.0345 10 16.0345C10.16 16.0345 10.3135 15.9709 10.4267 15.8577C10.5399 15.7446 10.6034 15.5911 10.6034 15.431V13.5519C11.3065 13.3862 11.8103 12.9394 11.8103 12.4138C11.8103 11.8885 11.3065 11.4413 10.6034 11.2757V4.56897C10.6034 4.48972 10.5878 4.41125 10.5575 4.33804C10.5272 4.26482 10.4827 4.1983 10.4267 4.14226C10.3707 4.08623 10.3041 4.04178 10.2309 4.01145C10.1577 3.98113 10.0792 3.96552 10 3.96552ZM14.5259 3.96552C14.4466 3.96552 14.3681 3.98113 14.2949 4.01145C14.2217 4.04178 14.1552 4.08623 14.0992 4.14226C14.0431 4.1983 13.9987 4.26482 13.9683 4.33804C13.938 4.41125 13.9224 4.48972 13.9224 4.56897V6.4481C13.2194 6.61375 12.7155 7.0606 12.7155 7.58621C12.7155 8.11181 13.2194 8.55866 13.9224 8.72431V15.431C13.9224 15.5103 13.938 15.5888 13.9683 15.662C13.9986 15.7352 14.0431 15.8018 14.0991 15.8578C14.1552 15.9139 14.2217 15.9583 14.2949 15.9887C14.3681 16.019 14.4466 16.0346 14.5259 16.0346C14.6051 16.0346 14.6836 16.019 14.7568 15.9887C14.83 15.9583 14.8966 15.9139 14.9526 15.8578C15.0086 15.8018 15.0531 15.7352 15.0834 15.662C15.1137 15.5888 15.1293 15.5103 15.1293 15.431V8.72431C15.8323 8.55866 16.3362 8.11181 16.3362 7.58621C16.3362 7.06091 15.8323 6.61375 15.1293 6.4481V4.56897C15.1293 4.40892 15.0657 4.25543 14.9526 4.14226C14.8394 4.0291 14.6859 3.96552 14.5259 3.96552Z" fill="white"/>
</svg>
