<svg width="40" height="40" viewBox="0 0 40 40" fill="none" xmlns="http://www.w3.org/2000/svg">
<g clip-path="url(#clip0_183_17746)">
<path d="M21.4471 20L27.9388 13.5059C28.1282 13.3132 28.2343 13.0537 28.2343 12.7835C28.2343 12.5133 28.1282 12.2539 27.9388 12.0612C27.746 11.8711 27.4861 11.7645 27.2153 11.7645C26.9445 11.7645 26.6846 11.8711 26.4918 12.0612L20 18.5553L13.5059 12.0612C13.3132 11.8718 13.0537 11.7657 12.7835 11.7657C12.5133 11.7657 12.2539 11.8718 12.0612 12.0612C11.8711 12.254 11.7645 12.5139 11.7645 12.7847C11.7645 13.0555 11.8711 13.3154 12.0612 13.5082L18.5553 20L12.0612 26.4941C11.8718 26.6868 11.7657 26.9463 11.7657 27.2165C11.7657 27.4867 11.8718 27.7461 12.0612 27.9388C12.254 28.1289 12.5139 28.2355 12.7847 28.2355C13.0555 28.2355 13.3154 28.1289 13.5082 27.9388L20 21.4447L26.4941 27.9388C26.6868 28.1282 26.9463 28.2343 27.2165 28.2343C27.4867 28.2343 27.7461 28.1282 27.9388 27.9388C28.1289 27.746 28.2355 27.4861 28.2355 27.2153C28.2355 26.9445 28.1289 26.6846 27.9388 26.4918L21.4447 20H21.4471ZM20 40C14.6957 40 9.60859 37.8929 5.85786 34.1421C2.10714 30.3914 0 25.3043 0 20C0 14.6957 2.10714 9.60859 5.85786 5.85786C9.60859 2.10714 14.6957 0 20 0C25.3043 0 30.3914 2.10714 34.1421 5.85786C37.8929 9.60859 40 14.6957 40 20C40 25.3043 37.8929 30.3914 34.1421 34.1421C30.3914 37.8929 25.3043 40 20 40Z" fill="#FF5633"/>
</g>
<defs>
<clipPath id="clip0_183_17746">
<rect width="40" height="40" fill="white"/>
</clipPath>
</defs>
</svg>
