<svg width="40" height="40" viewBox="0 0 40 40" fill="none" xmlns="http://www.w3.org/2000/svg">
<path d="M20.0001 38.3333C9.87508 38.3333 1.66675 30.125 1.66675 20C1.66675 9.87496 9.87508 1.66663 20.0001 1.66663C30.1251 1.66663 38.3334 9.87496 38.3334 20C38.3334 30.125 30.1251 38.3333 20.0001 38.3333ZM18.0301 25.595L12.1334 19.7C11.8965 19.4792 11.583 19.359 11.2592 19.3647C10.9354 19.3704 10.6264 19.5016 10.3974 19.7306C10.1684 19.9596 10.0372 20.2686 10.0315 20.5924C10.0257 20.9163 10.1459 21.2297 10.3667 21.4666L17.1917 28.2933C17.1962 28.2978 17.2006 28.3022 17.2051 28.3066L17.2151 28.315C17.3493 28.4492 17.5124 28.551 17.6919 28.6128C17.8714 28.6746 18.0627 28.6947 18.2511 28.6716C18.4395 28.6484 18.6202 28.5827 18.7794 28.4793C18.9387 28.3759 19.0723 28.2377 19.1701 28.075L32.3517 13.2466C32.5719 12.9986 32.6845 12.6734 32.6648 12.3424C32.6451 12.0114 32.4947 11.7018 32.2467 11.4816C31.9988 11.2615 31.6735 11.1489 31.3425 11.1686C31.0115 11.1883 30.7019 11.3386 30.4817 11.5866L18.0301 25.595Z" fill="#59BF78"/>
</svg>
