<svg xmlns="http://www.w3.org/2000/svg" width="16" height="16" viewBox="0 0 16 16" fill="none">
  <path d="M14 5.5L8.5 4L0.5 12.5L1.5 14.5L3.5 15.5L14 5.5Z" fill="#2D70FF" />
  <path
    d="M16 5.89517L15.2494 5.14099L10.8083 0.67904L10.1324 0L9.30849 0.8278L9.98465 1.50684L0.918379 10.6153C0.330076 11.2088 0 12.0106 0 12.8463C0 13.6819 0.330076 14.4838 0.918379 15.0772C1.20951 15.3697 1.55554 15.6018 1.9366 15.7601C2.31766 15.9185 2.72625 16 3.1389 16C3.55155 16 3.96014 15.9185 4.3412 15.7601C4.72227 15.6018 5.06829 15.3697 5.35942 15.0772L14.4257 5.96869L15.1764 6.72297L16 5.89517ZM13.6014 5.14089L4.53517 14.2494C4.35202 14.4333 4.13436 14.5792 3.89469 14.6788C3.65501 14.7783 3.39804 14.8296 3.13852 14.8296C2.87899 14.8296 2.62202 14.7783 2.38235 14.6788C2.14268 14.5792 1.92502 14.4333 1.74187 14.2494C1.37191 13.8762 1.16435 13.3719 1.16435 12.8463C1.16435 12.3208 1.37191 11.8165 1.74187 11.4432L10.8081 2.33464L11.6479 3.17834L13.6014 5.14089Z"
    fill="#2D70FF" />
</svg>