<svg width="20" height="20" viewBox="0 0 20 20" fill="none" xmlns="http://www.w3.org/2000/svg">
<g clip-path="url(#clip0_65_508)">
<path d="M3.5 2.5C3.5 1.39543 4.39543 0.5 5.5 0.5H10.5C11.6046 0.5 12.5 1.39543 12.5 2.5C12.5 3.60457 11.6046 4.5 10.5 4.5H5.5C4.39543 4.5 3.5 3.60457 3.5 2.5Z" fill="white"/>
<path fill-rule="evenodd" clip-rule="evenodd" d="M14.2135 7.45151C13.709 7.22688 13.1179 7.45378 12.8933 7.95832C12.6686 8.46286 12.8955 9.05397 13.4001 9.2786L13.489 9.31822L10.6731 16.2879C10.5562 16.5774 10.4974 16.887 10.5001 17.1992C10.5028 17.5114 10.567 17.8199 10.689 18.1073C10.811 18.3947 10.9883 18.6552 11.211 18.874C11.4337 19.0928 11.6973 19.2656 11.9867 19.3826C12.2762 19.4995 12.5858 19.5583 12.898 19.5556C13.2101 19.5529 13.5187 19.4887 13.8061 19.3667C14.0934 19.2447 14.354 19.0673 14.5728 18.8447C14.7916 18.622 14.9644 18.3584 15.0814 18.069L17.8351 11.2532L17.9678 11.3123C18.4723 11.5369 19.0634 11.31 19.2881 10.8055C19.5127 10.3009 19.2858 9.70983 18.7813 9.4852L14.2135 7.45151Z" fill="white"/>
<path fill-rule="evenodd" clip-rule="evenodd" d="M2.5 2.5H2.3385C1.11283 2.5 0.5 3.15114 0.5 4.45341V17.5466C0.5 18.8489 1.11283 19.5 2.3385 19.5H10.1557C9.9197 19.2234 9.72689 18.912 9.58436 18.5762C9.40081 18.1437 9.30422 17.6794 9.30012 17.2097C9.29602 16.7399 9.38449 16.2739 9.56047 15.8384L12.0465 9.68531C11.5842 9.06779 11.461 8.22498 11.797 7.47024C12.2912 6.36026 13.5916 5.86106 14.7016 6.35526L15.5 6.71073V4.45341C15.5 3.15114 14.8872 2.5 13.6615 2.5H13.5C13.5 4.15685 12.1569 5.5 10.5 5.5H5.5C3.84315 5.5 2.5 4.15685 2.5 2.5ZM3.5 2.5C3.5 3.60457 4.39543 4.5 5.5 4.5H10.5C11.6046 4.5 12.5 3.60457 12.5 2.5H3.5ZM2 9.7C2 9.3134 2.3134 9 2.7 9H8.3C8.6866 9 9 9.3134 9 9.7C9 10.0866 8.6866 10.4 8.3 10.4H2.7C2.3134 10.4 2 10.0866 2 9.7ZM2.7 12C2.3134 12 2 12.3134 2 12.7C2 13.0866 2.3134 13.4 2.7 13.4H6.3C6.6866 13.4 7 13.0866 7 12.7C7 12.3134 6.6866 12 6.3 12H2.7Z" fill="white"/>
</g>
<defs>
<clipPath id="clip0_65_508">
<rect width="20" height="20" fill="white"/>
</clipPath>
</defs>
</svg>
