<svg width="20" height="20" viewBox="0 0 20 20" fill="none" xmlns="http://www.w3.org/2000/svg">
<rect x="2" y="17" width="16" height="2" rx="1" fill="white"/>
<path fill-rule="evenodd" clip-rule="evenodd" d="M8.84169 13.6976C8.46883 13.6976 8.11912 13.5536 7.85555 13.29L4.61041 10.0448C4.34888 9.78304 4.20198 9.42811 4.20198 9.05806C4.20198 8.68801 4.34888 8.33309 4.61041 8.07128L11.2485 1.43313C11.5105 1.17231 11.8651 1.02588 12.2347 1.02588C12.6043 1.02588 12.9589 1.17231 13.2208 1.43313L16.466 4.67828C16.7272 4.94025 16.8739 5.29511 16.8739 5.66506C16.8739 6.03501 16.7272 6.38987 16.466 6.65185L14.9359 8.18192C15.0844 8.49873 15.1674 8.8521 15.1674 9.22448C15.1674 10.5822 14.0617 11.6879 12.704 11.6879C12.3409 11.6875 11.9861 11.6071 11.6632 11.4565L9.82783 13.2887C9.69858 13.4185 9.54487 13.5213 9.3756 13.5913C9.20632 13.6613 9.02485 13.6969 8.84169 13.6963V13.6976ZM12.8493 10.3998C13.5672 10.3998 14.1493 9.81777 14.1493 9.0998C14.1493 8.38183 13.5672 7.7998 12.8493 7.7998C12.1313 7.7998 11.5493 8.38183 11.5493 9.0998C11.5493 9.81777 12.1313 10.3998 12.8493 10.3998Z" fill="white"/>
<path d="M3.43257 9.40576L8.34702 14.608L7.14137 15.747C6.7399 16.1262 6.10699 16.1082 5.72773 15.7067L2.18671 11.9583C1.80745 11.5569 1.82546 10.924 2.22693 10.5447L3.43257 9.40576Z" fill="white"/>
<path fill-rule="evenodd" clip-rule="evenodd" d="M14.5168 9.81201C14.3732 10.4907 13.7707 11 13.0493 11C12.7962 11 12.5578 10.9374 12.3487 10.8267C12.365 11.125 12.4845 11.4096 12.6884 11.6308L12.6948 11.6378L12.7015 11.6447C13.4812 12.4384 13.8002 13.21 13.7732 13.9433L13.7732 13.9448C13.7427 14.8365 13.1723 15.8945 11.9331 16.9842C11.7355 17.1569 11.5952 17.3859 11.5312 17.6406C11.5015 17.7587 11.4889 17.8797 11.4931 18H14.5732C15.6786 16.7671 16.3029 15.4394 16.3533 14.0371C16.408 12.518 15.7515 11.0654 14.5407 9.83517L14.5338 9.82814L14.5267 9.82134C14.5234 9.81821 14.5201 9.8151 14.5168 9.81201Z" fill="white"/>
</svg>
