<svg width="20" height="20" viewBox="0 0 20 20" fill="none" xmlns="http://www.w3.org/2000/svg">
<path d="M4.00029 3H6.00017V7.274L1.09717 17.57C1.02457 17.7224 0.991743 17.8908 1.00176 18.0593C1.01178 18.2279 1.06432 18.3912 1.15447 18.5339C1.24462 18.6767 1.36946 18.7943 1.51734 18.8758C1.66522 18.9573 1.83132 19 2.00017 19H12.8669L9.46436 17.6581L9.66022 11.7704L14.692 10L15.4053 10.2248L14.0002 7.274V3H16.0003V1H4.00029V3Z" fill="white"/>
<path fill-rule="evenodd" clip-rule="evenodd" d="M14.7189 11.2417L11.0319 12.539L14.72 13.6659L18.6521 12.4809L14.7189 11.2417ZM14.4773 14.102L10.8321 12.9327L10.6921 17.1406L14.4788 18.6339C14.4778 18.625 14.4773 18.6159 14.4773 18.6068V14.102ZM14.9605 14.1022V18.6068C14.9605 18.6405 14.9535 18.6735 14.9402 18.7037L18.7456 17.285V12.9057L14.9605 14.1022Z" fill="white"/>
</svg>
