<svg width="20" height="20" viewBox="0 0 20 20" fill="none" xmlns="http://www.w3.org/2000/svg">
<path fill-rule="evenodd" clip-rule="evenodd" d="M1.05688 2.72347V17.0057C1.05688 18.2245 1.82183 19 3.05731 19H17.0565C18.2842 19 19.0569 18.2245 19.0569 17.0057V2.72347C19.0556 1.50337 18.5478 1 17.3213 1H15.7837V2.84484C16.2748 3.13102 16.6026 3.64973 16.6026 4.25147C16.6026 5.14707 15.866 5.87913 14.966 5.87913C14.0661 5.87913 13.3294 5.14834 13.3294 4.25147C13.3294 3.64973 13.656 3.13102 14.1471 2.84484V1H5.96539V2.84484C6.45521 3.13102 6.78305 3.64973 6.78305 4.25147C6.78305 5.14707 6.04639 5.87913 5.14645 5.87913C4.24651 5.87913 3.50985 5.14834 3.50985 4.25147C3.50985 3.64973 3.8364 3.13102 4.32751 2.84484V1H2.79762C1.56471 1 1.05688 1.50337 1.05688 2.72347ZM3 10.75C3 10.3358 3.33579 10 3.75 10H12.25C12.6642 10 13 10.3358 13 10.75C13 11.1642 12.6642 11.5 12.25 11.5H3.75C3.33579 11.5 3 11.1642 3 10.75ZM3.75 14C3.33579 14 3 14.3358 3 14.75C3 15.1642 3.33579 15.5 3.75 15.5H9.25C9.66421 15.5 10 15.1642 10 14.75C10 14.3358 9.66421 14 9.25 14H3.75Z" fill="white"/>
</svg>
