<svg width="20" height="20" viewBox="0 0 20 20" fill="none" xmlns="http://www.w3.org/2000/svg">
<path fill-rule="evenodd" clip-rule="evenodd" d="M6.28782 3.55358L5.52465 1.25H3.04072C2.73288 1.25 2.43765 1.37292 2.21997 1.59171C2.00229 1.8105 1.88 2.10725 1.88 2.41667V17.5833C1.88 17.8928 2.00229 18.1895 2.21997 18.4083C2.43765 18.6271 2.73288 18.75 3.04072 18.75H16.9693C17.2771 18.75 17.5724 18.6271 17.79 18.4083C18.0077 18.1895 18.13 17.8928 18.13 17.5833V2.41667C18.13 2.10725 18.0077 1.8105 17.79 1.59171C17.5724 1.37292 17.2771 1.25 16.9693 1.25H14.4854L13.7222 3.55358C13.6066 3.90208 13.3848 4.20518 13.0882 4.41991C12.7917 4.63464 12.4354 4.75013 12.0699 4.75H7.94009C7.5746 4.75013 7.21834 4.63464 6.92179 4.41991C6.62523 4.20518 6.40343 3.90208 6.28782 3.55358ZM13.2626 1.25H6.74746L7.38875 3.18433C7.42729 3.30063 7.5013 3.40177 7.60027 3.4734C7.69924 3.54502 7.81814 3.58349 7.94009 3.58333H12.0699C12.1918 3.58336 12.3105 3.54484 12.4094 3.47323C12.5082 3.40161 12.5822 3.30054 12.6207 3.18433L13.2626 1.25ZM5.7 9.39974C5.3134 9.39974 5 9.08634 5 8.69975C5 8.31315 5.3134 7.99974 5.7 7.99974H14.3C14.6866 7.99974 15 8.31315 15 8.69975C15 9.08634 14.6866 9.39974 14.3 9.39974H5.7ZM5 15.0998C5 15.4864 5.3134 15.7998 5.7 15.7998H12.3C12.6866 15.7998 13 15.4864 13 15.0998C13 14.7132 12.6866 14.3998 12.3 14.3998H5.7C5.3134 14.3998 5 14.7132 5 15.0998ZM5.7 12.7997C5.3134 12.7997 5 12.4863 5 12.0997C5 11.7131 5.3134 11.3997 5.7 11.3997H9.3C9.6866 11.3997 10 11.7131 10 12.0997C10 12.4863 9.6866 12.7997 9.3 12.7997H5.7Z" fill="white"/>
</svg>
