<svg width="20" height="20" viewBox="0 0 20 20" fill="none" xmlns="http://www.w3.org/2000/svg">
<path fill-rule="evenodd" clip-rule="evenodd" d="M12.7886 3.83582C12.7886 2.22886 11.5597 1 9.95274 1C8.34577 1 7.11692 2.22886 7.11692 3.83582V4.02488C7.21144 5.1592 7.96766 6.10448 9.00746 6.48259V7.64249L6.84345 8.89188C6.53405 9.07051 6.34345 9.40064 6.34345 9.75791V11.9853L4.84826 12.8159C4.47015 12.5323 3.90299 12.3433 3.33582 12.3433C1.72886 12.3433 0.5 13.5721 0.5 15.1791C0.5 16.7861 1.72886 18.0149 3.33582 18.0149C4.94279 18.0149 6.17164 16.7861 6.17164 15.1791V14.99C6.17164 14.8955 6.14801 14.7774 6.12438 14.6592C6.10075 14.541 6.07711 14.4229 6.07711 14.3284L6.96641 13.7624L9.5 15.2252C9.8094 15.4038 10.1906 15.4038 10.5 15.2252L13.0088 13.7768L13.9229 14.2338C13.9229 14.3756 13.8993 14.5174 13.8756 14.6592C13.852 14.801 13.8284 14.9428 13.8284 15.0846C13.8284 16.6915 15.0572 17.9204 16.6642 17.9204C18.2711 17.9204 19.5 16.6915 19.5 15.0846C19.5 13.4776 18.2711 12.2488 16.6642 12.2488H16.4751C15.908 12.3433 15.4353 12.4378 15.0572 12.7214L13.6566 11.9432V9.75791C13.6566 9.40064 13.466 9.07051 13.1566 8.89188L10.898 7.58791V6.48259C12.0323 6.10448 12.7886 5.06468 12.7886 3.83582ZM2.39055 15.1791C2.39055 14.6119 2.76866 14.2338 3.33582 14.2338C3.90299 14.2338 4.28109 14.6119 4.28109 15.1791C4.28109 15.7463 3.90299 16.1244 3.33582 16.1244C2.76866 16.1244 2.39055 15.7463 2.39055 15.1791ZM15.6244 15.1791C15.6244 14.6119 16.0025 14.2338 16.5697 14.2338C17.1368 14.2338 17.5149 14.6119 17.5149 15.1791C17.5149 15.7463 17.1368 16.1244 16.5697 16.1244C16.0025 16.1244 15.6244 15.7463 15.6244 15.1791ZM9.00746 3.83582C9.00746 3.26866 9.38557 2.89055 9.95274 2.89055C10.5199 2.89055 10.898 3.26866 10.898 3.83582C10.898 4.40299 10.5199 4.78109 9.95274 4.78109C9.38557 4.78109 9.00746 4.40299 9.00746 3.83582Z" fill="white"/>
</svg>
