<svg width="20" height="20" viewBox="0 0 20 20" fill="none" xmlns="http://www.w3.org/2000/svg">
<path d="M16.9912 18.75H2.92084C1.95353 18.75 1.25 18 1.25 17.1667V8.5C1.25 8.16666 1.51381 7.91667 1.86558 7.91667H18.1344C18.4862 7.91667 18.75 8.16666 18.75 8.5V17.1667C18.75 18.0834 17.9585 18.75 16.9912 18.75ZM7.05402 16.3333C7.31785 16.3333 7.49374 16.1667 7.49374 15.9167V12.5833C7.49374 12.3333 7.31782 12.1667 7.05402 12.1667H4.23995C3.97614 12.1667 3.80026 12.3333 3.80026 12.5833V15.9167C3.80026 16.1667 3.97614 16.3333 4.23995 16.3333L7.05402 16.3333ZM9.25251 1.25V6.58334H1.86558C1.51381 6.58334 1.25 6.25 1.42588 5.91667L3.0088 1.91668C3.18468 1.50002 3.62437 1.25 4.06407 1.25H9.25251ZM18.3983 5.91669C18.4862 6.25 18.3103 6.58334 17.9585 6.58334H10.6596V1.25H15.7601C16.1998 1.25 16.6395 1.50002 16.8154 1.91668L18.3983 5.91669Z" fill="white"/>
</svg>
