<svg width="24" height="24" viewBox="0 0 24 24" fill="none" xmlns="http://www.w3.org/2000/svg">
<path fill-rule="evenodd" clip-rule="evenodd" d="M12.0001 1C8.13408 1 5.00008 4.13401 5.00008 8C5.00008 11.3527 4.28301 13.4346 3.62218 14.6461C3.29039 15.2544 2.9673 15.6535 2.74288 15.8904C2.6304 16.0091 2.54202 16.0878 2.4888 16.1322C2.46218 16.1544 2.44432 16.168 2.43663 16.1737L2.43377 16.1758C2.07528 16.4221 1.91664 16.8725 2.04299 17.2898C2.17068 17.7115 2.55941 18 3.00008 18H21.0001C21.4407 18 21.8295 17.7115 21.9572 17.2898C22.0835 16.8725 21.9249 16.4221 21.5664 16.1758L21.5635 16.1737C21.5558 16.168 21.538 16.1544 21.5114 16.1322C21.4581 16.0878 21.3698 16.0091 21.2573 15.8904C21.0329 15.6535 20.7098 15.2544 20.378 14.6461C19.7171 13.4346 19.0001 11.3527 19.0001 8C19.0001 4.13401 15.8661 1 12.0001 1ZM18.6222 15.6039C18.6983 15.7434 18.7747 15.8753 18.8508 16H5.1494C5.22549 15.8753 5.30188 15.7434 5.37797 15.6039C6.21715 14.0654 7.00008 11.6473 7.00008 8C7.00008 5.23858 9.23865 3 12.0001 3C14.7615 3 17.0001 5.23858 17.0001 8C17.0001 11.6473 17.783 14.0654 18.6222 15.6039ZM11.1352 20.4983C10.8581 20.0205 10.2461 19.8579 9.76841 20.135C9.29069 20.4122 9.12806 21.0241 9.40518 21.5018C9.94188 22.427 10.9306 22.9965 12.0002 22.9965C13.0698 22.9965 14.0585 22.427 14.5952 21.5018C14.8723 21.0241 14.7097 20.4122 14.232 20.135C13.7542 19.8579 13.1423 20.0205 12.8652 20.4983C12.6863 20.8067 12.3567 20.9965 12.0002 20.9965C11.6437 20.9965 11.3141 20.8067 11.1352 20.4983Z" fill="#6C7380"/>
</svg>
