<svg width="24" height="21" viewBox="0 0 24 21" fill="none" xmlns="http://www.w3.org/2000/svg">
<path d="M22.8329 19.7868L22.833 19.7866C23.013 19.4541 23.105 19.0782 23.0998 18.6971C23.0946 18.316 22.9923 17.943 22.8031 17.6159L22.8031 17.6159L13.7793 2.04442C13.595 1.72636 13.3345 1.46278 13.0228 1.27961C12.7111 1.09643 12.3588 1.00001 12.0002 1.00001C11.6416 1.00001 11.2893 1.09643 10.9776 1.27961C10.6659 1.46278 10.4054 1.72636 10.2212 2.04442L1.19742 17.6158C1.19742 17.6158 1.19742 17.6158 1.19742 17.6158C1.00792 17.9427 0.905455 18.3158 0.900212 18.697C0.894969 19.0782 0.987132 19.4541 1.16754 19.7865C1.34795 20.1189 1.61029 20.396 1.9281 20.5891C2.24596 20.7822 2.60773 20.8841 2.9764 20.8842H21.0241H21.0242C21.3928 20.8839 21.7544 20.7818 22.0722 20.5888C22.3899 20.3958 22.6523 20.1189 22.8329 19.7868ZM21.4035 18.4857L21.4035 18.4857C21.4446 18.5566 21.467 18.6378 21.4682 18.7211C21.4693 18.8044 21.4491 18.8864 21.41 18.9585C21.3709 19.0306 21.3143 19.0901 21.2465 19.1313C21.1787 19.1724 21.102 19.1939 21.0241 19.1939H2.97645C2.89856 19.1939 2.82182 19.1724 2.75405 19.1312C2.68625 19.09 2.62969 19.0306 2.59055 18.9585C2.55141 18.8864 2.53125 18.8044 2.5324 18.7211C2.53354 18.6378 2.55594 18.5566 2.59702 18.4857L2.5105 18.4355L2.59702 18.4857L11.6209 2.91424L11.6209 2.91423C11.6608 2.84531 11.7169 2.78876 11.7834 2.7497C11.8498 2.71066 11.9245 2.69031 12.0003 2.69031C12.0761 2.69031 12.1508 2.71066 12.2172 2.7497C12.2837 2.78876 12.3398 2.84531 12.3797 2.91423L12.3797 2.91424L21.4035 18.4857ZM12.8778 13.7301V13.7301C12.8778 12.9103 12.9241 11.9104 12.9707 10.9072L12.9707 10.9055C13.0172 9.90439 13.0638 8.90008 13.0638 8.07505C13.0638 7.77562 12.9408 7.53639 12.7433 7.37388C12.5477 7.21305 12.2848 7.13159 12.007 7.13159C11.7169 7.13159 11.4503 7.21252 11.2541 7.37386C11.0558 7.53697 10.937 7.77656 10.937 8.07505C10.937 8.90002 10.9835 9.90428 11.03 10.9054L11.0301 10.9072C11.0766 11.9104 11.123 12.9102 11.123 13.7301C11.123 13.977 11.2286 14.16 11.3988 14.2773C11.5641 14.3913 11.7825 14.4385 12.0071 14.4385C12.1825 14.4385 12.3947 14.3896 12.5662 14.2791C12.7407 14.1666 12.8777 13.9858 12.8778 13.7301ZM11.2245 17.1793C11.4349 17.3981 11.7211 17.5218 12.0204 17.5218C12.6257 17.5218 13.1302 16.9739 13.1303 16.3572C13.1303 15.7258 12.6249 15.1925 12.0204 15.1925C11.7211 15.1925 11.4349 15.3162 11.2245 15.535C11.0143 15.7537 10.8968 16.0495 10.8968 16.3572C10.8968 16.6648 11.0143 16.9606 11.2245 17.1793Z" fill="#6C7380" stroke="#6C7380" stroke-width="0.2"/>
</svg>
