<svg width="16" height="17" viewBox="0 0 16 17" fill="none" xmlns="http://www.w3.org/2000/svg">
  <path fill-rule="evenodd" clip-rule="evenodd"
    d="M6.33317 3.83333C6.33317 4.5697 5.7362 5.16667 4.99984 5.16667C4.26347 5.16667 3.6665 4.5697 3.6665 3.83333C3.6665 3.09695 4.26347 2.5 4.99984 2.5C5.7362 2.5 6.33317 3.09695 6.33317 3.83333ZM4.99984 9.83333C5.7362 9.83333 6.33317 9.23637 6.33317 8.5C6.33317 7.76363 5.7362 7.16667 4.99984 7.16667C4.26347 7.16667 3.6665 7.76363 3.6665 8.5C3.6665 9.23637 4.26347 9.83333 4.99984 9.83333ZM4.99984 14.5C5.7362 14.5 6.33317 13.903 6.33317 13.1667C6.33317 12.4303 5.7362 11.8333 4.99984 11.8333C4.26347 11.8333 3.6665 12.4303 3.6665 13.1667C3.6665 13.903 4.26347 14.5 4.99984 14.5Z"
    fill="#6C7380" />
  <path fill-rule="evenodd" clip-rule="evenodd"
    d="M12.3332 3.83333C12.3332 4.5697 11.7362 5.16667 10.9998 5.16667C10.2635 5.16667 9.6665 4.5697 9.6665 3.83333C9.6665 3.09695 10.2635 2.5 10.9998 2.5C11.7362 2.5 12.3332 3.09695 12.3332 3.83333ZM10.9998 9.83333C11.7362 9.83333 12.3332 9.23637 12.3332 8.5C12.3332 7.76363 11.7362 7.16667 10.9998 7.16667C10.2635 7.16667 9.6665 7.76363 9.6665 8.5C9.6665 9.23637 10.2635 9.83333 10.9998 9.83333ZM10.9998 14.5C11.7362 14.5 12.3332 13.903 12.3332 13.1667C12.3332 12.4303 11.7362 11.8333 10.9998 11.8333C10.2635 11.8333 9.6665 12.4303 9.6665 13.1667C9.6665 13.903 10.2635 14.5 10.9998 14.5Z"
    fill="#6C7380" />
</svg>