<svg width="100" height="100" viewBox="0 0 100 100" fill="none" xmlns="http://www.w3.org/2000/svg">
<path opacity="0.1" d="M10 87.5C10 88.8261 14.2143 90.0979 21.7157 91.0355C29.2172 91.9732 39.3913 92.5 50 92.5C60.6087 92.5 70.7828 91.9732 78.2843 91.0355C85.7857 90.0979 90 88.8261 90 87.5C90 86.1739 85.7857 84.9021 78.2843 83.9645C70.7828 83.0268 60.6087 82.5 50 82.5C39.3913 82.5 29.2172 83.0268 21.7157 83.9645C14.2143 84.9021 10 86.1739 10 87.5Z" fill="#6C7380"/>
<path opacity="0.5" d="M11.3999 36.8C11.3999 37.65 12.0499 38.3 12.8999 38.3C13.7499 38.3 14.3999 37.65 14.3999 36.8C14.3999 35.95 13.7499 35.3 12.8999 35.3C12.0999 35.3 11.3999 36 11.3999 36.8ZM90.4999 81.25C88.5999 81.75 88.1999 82.15 87.7499 84C87.2499 82.1 86.8499 81.7 84.9999 81.25C86.8499 80.75 87.2999 80.35 87.7499 78.5C88.1999 80.35 88.5999 80.8 90.4999 81.25ZM19.7499 31.55C17.2999 32.2 16.7999 32.7 16.1499 35.15C15.4999 32.7 14.9999 32.2 12.5499 31.55C14.9999 30.9 15.4999 30.35 16.1499 27.95C16.7499 30.4 17.2999 30.9 19.7499 31.55ZM79.7499 22.95C78.2499 23.35 77.9499 23.65 77.5499 25.15C77.1499 23.65 76.8499 23.35 75.3499 22.95C76.8499 22.55 77.1499 22.25 77.5499 20.75C77.8999 22.25 78.2499 22.55 79.7499 22.95ZM86.1999 15.25C82.2999 16.25 81.4999 17.1 80.4499 21C79.4499 17.1 78.5999 16.3 74.6999 15.25C78.5999 14.25 79.3999 13.4 80.4499 9.5C81.4499 13.35 82.2999 14.2 86.1999 15.25Z" fill="#6C7380"/>
<path opacity="0.5" d="M83.9998 53.9V53.8C83.9998 53.7 83.9498 53.65 83.9498 53.55V53.5L73.1998 25.45C71.6498 20.7 67.2498 17.5 62.2498 17.5H37.7998C32.7998 17.5 28.3998 20.7 26.8498 25.45L16.0998 53.5V53.55C16.0498 53.65 16.0498 53.7 16.0498 53.8V74C16.0498 80.35 21.1998 85.5 27.5498 85.5H72.5498C78.8998 85.5 84.0498 80.35 84.0498 74V54C83.9998 53.95 83.9998 53.95 83.9998 53.9ZM29.6498 26.5C29.6498 26.5 29.6498 26.45 29.6998 26.45C30.7998 22.85 34.0998 20.5 37.7998 20.5H62.1998C65.8998 20.5 69.1998 22.85 70.3498 26.4C70.3498 26.4 70.3498 26.45 70.3998 26.45L80.3498 52.45H57.4998C56.6498 52.45 55.9998 53.1 55.9998 53.95C55.9998 57.25 53.2998 59.95 49.9998 59.95C46.6998 59.95 43.9998 57.25 43.9998 53.95C43.9998 53.1 43.3498 52.45 42.4998 52.45H19.6998L29.6498 26.5ZM80.9998 74C80.9998 78.7 77.1998 82.5 72.4998 82.5H27.4998C22.7998 82.5 18.9998 78.7 18.9998 74V55.5H41.1498C41.8498 59.75 45.5498 63 49.9998 63C54.4498 63 58.1498 59.75 58.8498 55.5H80.9998V74Z" fill="#6C7380"/>
<path opacity="0.2" d="M50 56.5C48.6 56.5 47.5 55.4 47.5 54V49H24.75L32.95 27.6L33 27.5C33.7 25.4 35.6 24 37.8 24H62.2C64.4 24 66.3 25.4 67 27.5L67.05 27.6L75.25 49H52.5V54C52.5 55.4 51.4 56.5 50 56.5Z" fill="#6C7380"/>
</svg>
