<svg width="100" height="100" viewBox="0 0 100 100" fill="none" xmlns="http://www.w3.org/2000/svg">
<path opacity="0.2" d="M55.9961 38V24H34.9961C32.2461 24 29.9961 26.25 29.9961 29V74C29.9961 76.75 32.2461 79 34.9961 79H64.9961C67.7461 79 69.9961 76.75 69.9961 74V38H55.9961ZM60.2461 47.9L49.0961 61.5L46.9961 59.5L44.8961 61.55V57.45L57.8961 49.1L43.4961 56.1L39.7461 52.6V52.15L60.2461 47.45V47.9Z" fill="#6C7380"/>
<path opacity="0.1" d="M9.99609 87.5C9.99609 88.8261 14.2104 90.0979 21.7118 91.0355C29.2133 91.9732 39.3874 92.5 49.9961 92.5C60.6048 92.5 70.7789 91.9732 78.2804 91.0355C85.7818 90.0979 89.9961 88.8261 89.9961 87.5C89.9961 86.1739 85.7818 84.9021 78.2804 83.9645C70.7789 83.0268 60.6048 82.5 49.9961 82.5C39.3874 82.5 29.2133 83.0268 21.7118 83.9645C14.2104 84.9021 9.99609 86.1739 9.99609 87.5Z" fill="#6C7380"/>
<path opacity="0.5" d="M9.39453 51.3C9.39453 52.15 10.0445 52.8 10.8945 52.8C11.7445 52.8 12.3945 52.15 12.3945 51.3C12.3945 50.45 11.7445 49.8 10.8945 49.8C10.0945 49.8 9.39453 50.5 9.39453 51.3ZM14.3945 80.3C14.3945 81.15 15.0445 81.8 15.8945 81.8C16.7445 81.8 17.3945 81.15 17.3945 80.3C17.3945 79.45 16.7445 78.8 15.8945 78.8C15.0945 78.8 14.3945 79.5 14.3945 80.3ZM90.4945 82.8C88.9945 83.2 88.6445 83.5 88.2445 85.05C87.8445 83.55 87.5445 83.2 85.9945 82.8C87.4945 82.4 87.8445 82.05 88.2445 80.55C88.6445 82.05 88.9445 82.4 90.4945 82.8ZM19.4945 45.65C16.4445 46.45 15.7945 47.1 14.9945 50.15C14.1945 47.1 13.5445 46.45 10.4945 45.65C13.5445 44.85 14.1945 44.2 14.9945 41.15C15.7945 44.2 16.4445 44.85 19.4945 45.65ZM80.2445 20.95C78.7445 21.35 78.4445 21.65 78.0445 23.15C77.6445 21.65 77.3445 21.35 75.8445 20.95C77.3445 20.55 77.6445 20.25 78.0445 18.75C78.3945 20.25 78.7445 20.55 80.2445 20.95ZM76.4945 32.95C76.4945 32.85 76.4945 32.75 76.4445 32.7V32.65C76.4445 32.6 76.3945 32.5 76.3945 32.45C76.3945 32.4 76.3945 32.4 76.3445 32.35C76.2945 32.3 76.2945 32.25 76.2445 32.2L76.1945 32.15C76.1445 32.1 76.0945 32 76.0445 31.95L62.0445 17.95C61.9945 17.9 61.9445 17.85 61.8445 17.8L61.7945 17.75C61.7445 17.7 61.6945 17.7 61.6445 17.65C61.5945 17.65 61.5945 17.65 61.5445 17.6C61.4945 17.55 61.3945 17.55 61.3445 17.55H61.2945C61.1945 17.55 61.0945 17.5 61.0445 17.5H34.9945C28.6445 17.5 23.4945 22.65 23.4945 29V74C23.4945 80.35 28.6445 85.5 34.9945 85.5H64.9945C71.3445 85.5 76.4945 80.35 76.4945 74V32.95C76.4945 33 76.4945 33 76.4945 32.95ZM62.4945 22.6L71.3945 31.5H62.4945V22.6ZM64.9945 82.5H34.9945C30.2945 82.5 26.4945 78.7 26.4945 74V29C26.4945 24.3 30.2945 20.5 34.9945 20.5H59.4945V33C59.4945 33.85 60.1445 34.5 60.9945 34.5H73.4945V74C73.4945 78.7 69.6945 82.5 64.9945 82.5Z" fill="#6C7380"/>
</svg>
