<svg width="100" height="100" viewBox="0 0 100 100" fill="none" xmlns="http://www.w3.org/2000/svg">
  <path opacity="0.1"
    d="M10 87.5C10 88.8261 14.2143 90.0979 21.7157 91.0355C29.2172 91.9732 39.3913 92.5 50 92.5C60.6087 92.5 70.7828 91.9732 78.2843 91.0355C85.7857 90.0979 90 88.8261 90 87.5C90 86.1739 85.7857 84.9021 78.2843 83.9645C70.7828 83.0268 60.6087 82.5 50 82.5C39.3913 82.5 29.2172 83.0268 21.7157 83.9645C14.2143 84.9021 10 86.1739 10 87.5Z"
    fill="#6C7380" />
  <path opacity="0.5"
    d="M11.4 36.8C11.4 37.65 12.05 38.3 12.9 38.3C13.75 38.3 14.4 37.65 14.4 36.8C14.4 35.95 13.75 35.3 12.9 35.3C12.1 35.3 11.4 36 11.4 36.8ZM90.5 81.25C88.6 81.75 88.2 82.15 87.75 84C87.25 82.1 86.85 81.7 85 81.25C86.85 80.75 87.3 80.35 87.75 78.5C88.2 80.35 88.6 80.8 90.5 81.25ZM19.75 31.55C17.3 32.2 16.8 32.7 16.15 35.15C15.5 32.7 15 32.2 12.55 31.55C15 30.9 15.5 30.35 16.15 27.95C16.75 30.4 17.3 30.9 19.75 31.55ZM79.75 22.95C78.25 23.35 77.95 23.65 77.55 25.15C77.15 23.65 76.85 23.35 75.35 22.95C76.85 22.55 77.15 22.25 77.55 20.75C77.9 22.25 78.25 22.55 79.75 22.95ZM86.2 15.25C82.3 16.25 81.5 17.1 80.45 21C79.45 17.1 78.6 16.3 74.7 15.25C78.6 14.25 79.4 13.4 80.45 9.5C81.45 13.35 82.3 14.2 86.2 15.25Z"
    fill="#6C7380" />
  <path opacity="0.5"
    d="M84 53.9V53.8C84 53.7 83.95 53.65 83.95 53.55V53.5L73.2 25.45C71.65 20.7 67.25 17.5 62.25 17.5H37.8C32.8 17.5 28.4 20.7 26.85 25.45L16.1 53.5V53.55C16.05 53.65 16.05 53.7 16.05 53.8V74C16.05 80.35 21.2 85.5 27.55 85.5H72.55C78.9 85.5 84.05 80.35 84.05 74V54C84 53.95 84 53.95 84 53.9ZM29.65 26.5C29.65 26.5 29.65 26.45 29.7 26.45C30.8 22.85 34.1 20.5 37.8 20.5H62.2C65.9 20.5 69.2 22.85 70.35 26.4C70.35 26.4 70.35 26.45 70.4 26.45L80.35 52.45H57.5C56.65 52.45 56 53.1 56 53.95C56 57.25 53.3 59.95 50 59.95C46.7 59.95 44 57.25 44 53.95C44 53.1 43.35 52.45 42.5 52.45H19.7L29.65 26.5ZM81 74C81 78.7 77.2 82.5 72.5 82.5H27.5C22.8 82.5 19 78.7 19 74V55.5H41.15C41.85 59.75 45.55 63 50 63C54.45 63 58.15 59.75 58.85 55.5H81V74Z"
    fill="#6C7380" />
  <path opacity="0.2"
    d="M50 56.5C48.6 56.5 47.5 55.4 47.5 54V49H24.75L32.95 27.6L33 27.5C33.7 25.4 35.6 24 37.8 24H62.2C64.4 24 66.3 25.4 67 27.5L67.05 27.6L75.25 49H52.5V54C52.5 55.4 51.4 56.5 50 56.5Z"
    fill="#6C7380" />
</svg>