<svg width="50" height="51" viewBox="0 0 50 51" fill="none" xmlns="http://www.w3.org/2000/svg">
<path opacity="0.2" d="M32.25 16.5H13.75C12.375 16.5 11.25 17.625 11.25 19V33.5C11.25 34.875 12.375 36 13.75 36H16.25V37.2L17.5 36H32.25C33.625 36 34.75 34.875 34.75 33.5V19C34.75 17.625 33.625 16.5 32.25 16.5ZM28.125 22.55L22.55 29.35L21.5 28.325L20.45 29.35V27.3L26.95 23.125L19.75 26.625L17.875 24.875V24.65L28.125 22.3V22.55Z" fill="#6C7380"/>
<path opacity="0.1" d="M5 44.25C5 44.913 7.10714 45.5489 10.8579 46.0178C14.6086 46.4866 19.6957 46.75 25 46.75C30.3043 46.75 35.3914 46.4866 39.1421 46.0178C42.8929 45.5489 45 44.913 45 44.25C45 43.587 42.8929 42.9511 39.1421 42.4822C35.3914 42.0134 30.3043 41.75 25 41.75C19.6957 41.75 14.6086 42.0134 10.8579 42.4822C7.10714 42.9511 5 43.587 5 44.25Z" fill="#6C7380"/>
<path opacity="0.5" d="M41.2496 34.5001C40.8246 34.5001 40.4996 34.1751 40.4996 33.7501V15.0001C40.4996 12.6501 38.5996 10.7501 36.2496 10.7501H13.7496C13.3246 10.7501 12.9996 10.4251 12.9996 10.0001C12.9996 9.5751 13.3246 9.2501 13.7496 9.2501H36.2496C39.4246 9.2501 41.9996 11.8251 41.9996 15.0001V33.7501C41.9996 34.1751 41.6746 34.5001 41.2496 34.5001ZM42.1996 9.4001C42.1996 9.8251 42.5246 10.1501 42.9496 10.1501C43.3746 10.1501 43.6996 9.8251 43.6996 9.4001C43.6996 8.9751 43.3746 8.6501 42.9496 8.6501C42.5246 8.6501 42.1996 9.0001 42.1996 9.4001ZM45.2496 41.0251C44.2246 41.3001 44.0246 41.5001 43.7496 42.5251C43.4746 41.5001 43.2746 41.3001 42.2496 41.0251C43.2496 40.7501 43.4746 40.5251 43.7496 39.5251C43.9996 40.5251 44.2246 40.7501 45.2496 41.0251ZM43.1246 7.0251C41.8996 7.3501 41.6496 7.6001 41.3246 8.8251C40.9996 7.6001 40.7496 7.3501 39.5246 7.0251C40.7496 6.7001 40.9996 6.4251 41.3246 5.2251C41.6246 6.4501 41.8996 6.7001 43.1246 7.0251ZM7.12461 14.9751C6.37461 15.1751 6.22461 15.3251 6.02461 16.0751C5.82461 15.3251 5.67461 15.1751 4.92461 14.9751C5.67461 14.7751 5.82461 14.6251 6.02461 13.8751C6.19961 14.6251 6.37461 14.7751 7.12461 14.9751ZM10.3496 11.1251C8.39961 11.6251 7.99961 12.0501 7.47461 14.0001C6.97461 12.0501 6.54961 11.6501 4.59961 11.1251C6.54961 10.6251 6.94961 10.2001 7.47461 8.2501C7.97461 10.1751 8.39961 10.6001 10.3496 11.1251Z" fill="#6C7380"/>
<path opacity="0.5" d="M13.75 43.75C13.65 43.75 13.55 43.725 13.45 43.7C13.175 43.575 13 43.3 13 43V39.2C10.175 38.825 8 36.425 8 33.5V19C8 15.825 10.575 13.25 13.75 13.25H32.25C35.425 13.25 38 15.825 38 19V33.5C38 36.675 35.425 39.25 32.25 39.25H18.8L14.275 43.55C14.125 43.675 13.95 43.75 13.75 43.75ZM13.75 14.75C11.4 14.75 9.5 16.65 9.5 19V33.5C9.5 35.85 11.4 37.75 13.75 37.75C14.175 37.75 14.5 38.075 14.5 38.5V41.25L17.975 37.95C18.125 37.825 18.3 37.75 18.5 37.75H32.25C34.6 37.75 36.5 35.85 36.5 33.5V19C36.5 16.65 34.6 14.75 32.25 14.75H13.75Z" fill="#6C7380"/>
</svg>
