<svg width="24" height="24" viewBox="0 0 24 24" fill="none" xmlns="http://www.w3.org/2000/svg">
<mask id="path-1-inside-1_172_11275" fill="white">
<rect x="2" y="2" width="20" height="20" rx="1"/>
</mask>
<rect x="2" y="2" width="20" height="20" rx="1" stroke="#242526" stroke-width="2.4" mask="url(#path-1-inside-1_172_11275)"/>
<path d="M15.8188 7.70691L15.8191 7.70685L16.8848 7.50585C16.9339 7.50011 16.9773 7.48141 17.0078 7.44471C17.0382 7.40813 17.05 7.36054 17.05 7.30872V7.13423C17.05 7.08389 17.0398 7.03685 17.011 7.00179C16.9806 6.96487 16.9369 6.95 16.8896 6.95H13.4049C13.3565 6.95 13.311 6.96192 13.2778 6.99457C13.2445 7.02736 13.2322 7.07263 13.2322 7.12081V7.2953C13.2322 7.34325 13.2432 7.38729 13.2686 7.42425C13.294 7.46132 13.3309 7.4871 13.3755 7.50335L13.3753 7.50398L13.3834 7.50551L14.4509 7.70685L14.4512 7.70691C14.5434 7.72372 14.5919 7.75521 14.6137 7.79112L14.6136 7.79121L14.6161 7.79461C14.6389 7.82586 14.6555 7.88809 14.6555 7.99329V14.2544L10.0543 7.08039L10.0396 7.05738H10.0278C10.0264 7.05613 10.0247 7.0547 10.0229 7.05307C10.0216 7.05195 10.0202 7.05076 10.0188 7.04951C10.0081 7.04001 9.99352 7.02716 9.97716 7.01434C9.94276 6.98738 9.88777 6.95 9.82821 6.95H7.1227C7.07429 6.95 7.02875 6.96192 6.9956 6.99457C6.96229 7.02736 6.95 7.07263 6.95 7.12081V7.2953C6.95 7.34325 6.96103 7.38729 6.98637 7.42425C7.01178 7.46132 7.04874 7.4871 7.0933 7.50335L7.09308 7.50397L7.10106 7.50549L8.15627 7.70683L8.15627 7.70684L8.15735 7.70702C8.2583 7.72402 8.31701 7.75639 8.34673 7.7954L8.34657 7.79552L8.3496 7.79883C8.38701 7.83976 8.41012 7.90598 8.41012 8.00671V15.9799C8.41012 16.0835 8.38988 16.1437 8.36187 16.1743L8.36165 16.1741L8.35841 16.1785C8.33737 16.2073 8.28818 16.2356 8.19349 16.2528L8.19329 16.2529L7.1153 16.4539C7.06615 16.4596 7.02273 16.4783 6.99222 16.515C6.96182 16.5516 6.95 16.5992 6.95 16.651V16.8255C6.95 16.8758 6.96015 16.9229 6.989 16.9579C7.01937 16.9949 7.06306 17.0097 7.11043 17.0097H10.6074C10.6558 17.0097 10.7013 16.9978 10.7345 16.9652C10.7678 16.9324 10.7801 16.8871 10.7801 16.8389V16.6644C10.7801 16.6165 10.769 16.5724 10.7437 16.5355C10.7183 16.4984 10.6813 16.4726 10.6368 16.4564L10.637 16.4557L10.6289 16.4542L9.56141 16.2529L9.56112 16.2528C9.46818 16.2359 9.41908 16.2084 9.39739 16.1801C9.3724 16.1379 9.35675 16.0688 9.35675 15.9664V9.10384L14.2731 16.9184C14.3228 17.0048 14.4004 17.05 14.5 17.05H15.4294C15.4779 17.05 15.5234 17.0381 15.5566 17.0054C15.5899 16.9726 15.6021 16.9274 15.6021 16.8792V7.97987C15.6021 7.87706 15.618 7.81528 15.64 7.78337C15.6706 7.7513 15.727 7.72365 15.8188 7.70691Z" fill="#242526" stroke="#242526" stroke-width="0.1"/>
</svg>
