<svg xmlns="http://www.w3.org/2000/svg" width="41" height="40" viewBox="0 0 41 40" fill="none">
  <circle cx="20.5" cy="20" r="18" fill="#DBF9EF" />
  <path
    d="M20.5 6C12.77 6 6.5 12.27 6.5 20C6.5 27.73 12.77 34 20.5 34C28.23 34 34.5 27.73 34.5 20C34.5 12.27 28.23 6 20.5 6ZM14.495 21.47C13.68 21.47 13.025 20.81 13.025 20C13.025 19.19 13.685 18.53 14.495 18.53C15.31 18.53 15.965 19.19 15.965 20C15.965 20.81 15.31 21.47 14.495 21.47ZM20.5 21.47C19.685 21.47 19.03 20.81 19.03 20C19.03 19.19 19.69 18.53 20.5 18.53C21.315 18.53 21.97 19.19 21.97 20C21.97 20.81 21.315 21.47 20.5 21.47ZM26.505 21.47C25.69 21.47 25.035 20.81 25.035 20C25.035 19.19 25.695 18.53 26.505 18.53C27.315 18.53 27.975 19.185 27.975 20C27.975 20.815 27.315 21.47 26.505 21.47Z"
    fill="#59BF78" />
</svg>