<svg xmlns="http://www.w3.org/2000/svg" width="40" height="40" viewBox="0 0 40 40" fill="none">
  <path
    d="M20 2C24.7739 2 29.3523 3.89642 32.7279 7.27208C36.1036 10.6477 38 15.2261 38 20C38 24.7739 36.1036 29.3523 32.7279 32.7279C29.3523 36.1036 24.7739 38 20 38C15.2261 38 10.6477 36.1036 7.27208 32.7279C3.89642 29.3523 2 24.7739 2 20C2 15.2261 3.89642 10.6477 7.27208 7.27208C10.6477 3.89642 15.2261 2 20 2Z"
    fill="#D4F6FA" />
  <path opacity="0.9"
    d="M20 6C23.713 6 27.274 7.475 29.8995 10.1005C32.525 12.726 34 16.287 34 20C34 23.713 32.525 27.274 29.8995 29.8995C27.274 32.525 23.713 34 20 34C16.287 34 12.726 32.525 10.1005 29.8995C7.475 27.274 6 23.713 6 20C6 16.287 7.475 12.726 10.1005 10.1005C12.726 7.475 16.287 6 20 6Z"
    fill="#3EE8F7" />
  <path
    d="M29.3154 15.5L18.6684 26.3L18.3534 26.597L18.0384 26.3L11.4414 19.622L13.5924 17.444L18.3534 22.259L27.2004 13.295L29.3154 15.5Z"
    fill="white" />
</svg>