<svg width="16" height="16" viewBox="0 0 16 16" fill="none" xmlns="http://www.w3.org/2000/svg">
<path d="M12.6221 11.6889C11.2888 12.6222 9.68878 13.1556 7.99989 13.1556C6.35545 13.1556 4.75545 12.6667 3.37767 11.6889C0.755447 9.86667 0.444336 7.82223 0.444336 7.82223C0.444336 7.82223 0.755447 5.77778 3.37767 3.95556C4.711 3.02223 6.311 2.48889 7.99989 2.48889C9.64434 2.48889 11.2443 2.97778 12.6221 3.95556C15.111 5.73334 15.5554 7.82223 15.5554 7.82223C15.0221 9.6 13.911 10.7556 12.6221 11.6889ZM7.99989 3.37778C5.19989 3.37778 2.88878 5.06667 1.33322 7.82223C2.39989 10.4 5.19989 12.2667 7.99989 12.2667C10.7999 12.2667 13.5999 10.4 14.6666 7.82223C13.5999 5.24445 10.7999 3.37778 7.99989 3.37778ZM7.99989 10.7111C6.44434 10.7111 5.15545 9.33334 5.15545 7.82223C5.15545 6.31111 6.44434 4.93334 7.99989 4.93334C9.55545 4.93334 10.7999 6.31111 10.7999 7.82223C10.7999 9.33334 9.55545 10.7111 7.99989 10.7111ZM7.99989 5.86667C7.02211 5.86667 6.08878 6.84445 6.08878 7.82223C6.08878 8.75556 7.02211 9.77778 7.99989 9.77778C8.97767 9.77778 9.86656 8.8 9.911 7.82223C9.95545 6.84445 8.97767 5.86667 7.99989 5.86667Z" fill="#0D376A"/>
</svg>
