<svg width="20" height="20" viewBox="0 0 20 20" fill="none" xmlns="http://www.w3.org/2000/svg">
<path fill-rule="evenodd" clip-rule="evenodd" d="M2.02871 5.42866C1.39378 5.7814 1 6.45064 1 7.17697V17.0002C1 18.1047 1.89543 19.0002 3 19.0002H13.5999C13.552 18.8817 13.5155 18.7554 13.4921 18.622H11.7292C10.6972 18.622 9.8 17.8011 9.8 16.7138V15.2819C9.8 14.1958 10.6966 13.3737 11.7292 13.3737H13.4893C13.7253 11.9563 15.4386 11.3408 16.5659 12.1949L19 14.0407V7.17697C19 6.45064 18.6062 5.7814 17.9713 5.42866L10.9713 1.53977C10.3672 1.20419 9.63276 1.20419 9.02871 1.53977L2.02871 5.42866ZM3 8.7C3 8.3134 3.3134 8 3.7 8H6.3C6.6866 8 7 8.3134 7 8.7C7 9.0866 6.6866 9.4 6.3 9.4H3.7C3.3134 9.4 3 9.0866 3 8.7ZM3.7 11C3.3134 11 3 11.3134 3 11.7C3 12.0866 3.3134 12.4 3.7 12.4H6.3C6.6866 12.4 7 12.0866 7 11.7C7 11.3134 6.6866 11 6.3 11H3.7Z" fill="white"/>
<path d="M14.662 13.7095V14.5735H11.7292C11.3264 14.5735 11 14.8908 11 15.2817V16.7136C11 17.105 11.3264 17.4218 11.7292 17.4218H14.662V18.2697C14.662 18.8617 15.3665 19.1934 15.8451 18.8265L18.8317 16.5301C18.9185 16.4635 18.9884 16.3786 19.0364 16.2819C19.0844 16.1851 19.1091 16.0791 19.1086 15.9718C19.1082 15.8644 19.0827 15.7586 19.034 15.6622C18.9852 15.5659 18.9146 15.4815 18.8274 15.4155L15.8413 13.1512C15.3626 12.7885 14.662 13.1192 14.662 13.7095Z" fill="white"/>
</svg>
