<svg width="22" height="22" viewBox="0 0 22 22" fill="none" xmlns="http://www.w3.org/2000/svg">
<rect x="0.5" y="0.5" width="21" height="20.9984" rx="3.5" stroke="#2871FF"/>
<path d="M9.72719 8.45363C10.308 8.45363 10.8556 8.5783 11.3732 8.82608C11.7615 9.00914 12.1118 9.25849 12.4274 9.57255C12.7415 9.88661 12.9909 10.2385 13.1739 10.6252C12.9246 10.8745 12.6247 10.9976 12.2744 10.9976C12.1513 10.9976 12.0282 10.9787 11.9019 10.9424C11.6904 10.5984 11.4001 10.3096 11.056 10.0965C10.6488 9.84873 10.2054 9.72406 9.72877 9.72406C9.39736 9.72406 9.07541 9.78718 8.76451 9.91344C8.45361 10.0397 8.17427 10.2259 7.92965 10.4705L6.02006 12.3801C5.77545 12.6247 5.58922 12.9041 5.46297 13.215C5.33829 13.5211 5.27359 13.8478 5.27359 14.1792C5.27359 14.5107 5.33671 14.8326 5.46297 15.1435C5.58922 15.456 5.77387 15.7337 6.02006 15.9784C6.26626 16.2246 6.54402 16.4092 6.85492 16.5355C7.16108 16.6601 7.48934 16.7248 7.82076 16.7248C8.15218 16.7248 8.47412 16.6617 8.78502 16.5355C9.09592 16.4092 9.37526 16.223 9.61988 15.9784L10.9566 14.6416C11.3811 14.7569 11.8199 14.8152 12.2744 14.8152C12.347 14.8152 12.4495 14.8121 12.5821 14.8058C12.5316 14.861 12.4811 14.9162 12.429 14.9699L10.5194 16.8795C10.1517 17.2472 9.73508 17.525 9.26794 17.7144C8.8087 17.9022 8.31631 17.9984 7.81918 17.9984C7.32206 17.9984 6.83756 17.9037 6.37042 17.7128C5.9017 17.5218 5.48506 17.2441 5.11893 16.8795C4.75121 16.5118 4.47345 16.0951 4.28407 15.6296C4.09627 15.1703 4 14.6779 4 14.1808C4 13.6837 4.09627 13.1913 4.28407 12.7321C4.47345 12.2665 4.75121 11.8499 5.11893 11.4821L7.02852 9.57255C7.06481 9.53625 7.12005 9.48575 7.19265 9.41789C7.54774 9.10226 7.94386 8.86395 8.38101 8.69982C8.81817 8.53727 9.26637 8.4552 9.72719 8.45363ZM14.1824 4.00002C14.6795 4.00002 15.1719 4.09629 15.6311 4.28409C16.0967 4.47189 16.5133 4.75123 16.8826 5.11894C17.2503 5.48666 17.5297 5.9033 17.7175 6.36886C17.9053 6.82968 18.0016 7.3205 18 7.81762C18 8.31475 17.9037 8.79767 17.7143 9.26639C17.5234 9.7351 17.2456 10.1517 16.8811 10.5163L14.9715 12.4259C14.9352 12.4638 14.8799 12.5143 14.8073 12.5806C14.4538 12.8962 14.0577 13.1345 13.619 13.2986C13.1881 13.4612 12.732 13.5448 12.2712 13.5448C11.692 13.5448 11.1428 13.4201 10.6252 13.1724C10.2369 12.9893 9.88659 12.7399 9.57095 12.4259C9.2569 12.1118 9.00755 11.7599 8.82448 11.3732C9.07225 11.1239 9.3721 11.0008 9.72404 11.0008C9.84713 11.0008 9.97181 11.0197 10.0965 11.056C10.308 11.4001 10.5968 11.6889 10.9408 11.9019C11.3496 12.1497 11.7914 12.2744 12.2681 12.2744C12.5995 12.2744 12.9214 12.2113 13.2323 12.085C13.5448 11.9588 13.8226 11.7725 14.0672 11.5279L15.9768 9.61832C16.223 9.3737 16.4076 9.09436 16.5339 8.78346C16.6585 8.4773 16.7232 8.15062 16.7232 7.8192C16.7232 7.48778 16.6601 7.16584 16.5339 6.85494C16.4076 6.54246 16.2214 6.2647 15.9768 6.02008C15.7306 5.77389 15.4528 5.58924 15.1419 5.46299C14.8357 5.33831 14.5075 5.27361 14.1776 5.27361C13.8462 5.27361 13.5243 5.33673 13.2134 5.46299C12.9009 5.58924 12.6231 5.77546 12.3785 6.02008L11.0402 7.3568C10.6157 7.24159 10.177 7.1832 9.72246 7.1832C9.64986 7.1832 9.54728 7.18635 9.41471 7.19267C9.46522 7.13743 9.51572 7.08219 9.56938 7.02854L11.479 5.11894C11.8435 4.75439 12.2602 4.47663 12.7289 4.28567C13.2008 4.09471 13.6837 3.99844 14.1824 4.00002Z" fill="#2871FF"/>
</svg>
