<svg width="24" height="24" viewBox="0 0 24 24" fill="none" xmlns="http://www.w3.org/2000/svg">
<path fill-rule="evenodd" clip-rule="evenodd" d="M3.2 19.1636H20.8V7.92727H17.813C17.2446 7.92727 16.7139 7.6432 16.3986 7.17026L15.0851 5.2H8.91495L7.60144 7.17026C7.28615 7.6432 6.75535 7.92727 6.18695 7.92727H3.2V19.1636ZM2 19.8636C2 20.1398 2.22386 20.3636 2.5 20.3636H21.5C21.7761 20.3636 22 20.1398 22 19.8636V7.22727C22 6.95113 21.7761 6.72727 21.5 6.72727H17.813C17.6459 6.72727 17.4898 6.64372 17.397 6.50462L15.8757 4.22265C15.783 4.08355 15.6269 4 15.4597 4H8.54032C8.37314 4 8.21703 4.08355 8.12429 4.22265L6.60298 6.50462C6.51025 6.64372 6.35413 6.72727 6.18695 6.72727H2.5C2.22386 6.72727 2 6.95113 2 7.22727V19.8636Z" fill="#333333"/>
<path fill-rule="evenodd" clip-rule="evenodd" d="M7.75 13C7.75 10.6527 9.65274 8.75 12 8.75C14.3473 8.75 16.25 10.6527 16.25 13C16.25 15.3473 14.3473 17.25 12 17.25C9.65274 17.25 7.75 15.3473 7.75 13ZM12 10.25C10.4812 10.25 9.25 11.4812 9.25 13C9.25 14.5188 10.4812 15.75 12 15.75C13.5188 15.75 14.75 14.5188 14.75 13C14.75 11.4812 13.5188 10.25 12 10.25Z" fill="#333333"/>
</svg>
