<svg xmlns="http://www.w3.org/2000/svg" width="16" height="16" viewBox="0 0 16 16" fill="none">
  <path
    d="M1.00641 7.97125C1.00641 8.89628 1.18861 9.81225 1.5426 10.6669C1.8966 11.5215 2.41545 12.298 3.06955 12.9521C3.72364 13.6062 4.50017 14.1251 5.35479 14.4791C6.2094 14.833 7.12538 15.0152 8.05041 15.0152C8.97544 15.0152 9.89141 14.833 10.746 14.4791C11.6006 14.1251 12.3772 13.6062 13.0313 12.9521C13.6854 12.298 14.2042 11.5215 14.5582 10.6669C14.9122 9.81225 15.0944 8.89628 15.0944 7.97125C15.0944 6.10306 14.3523 4.31139 13.0313 2.99039C11.7103 1.66938 9.91859 0.927246 8.05041 0.927246C6.18222 0.927246 4.39055 1.66938 3.06955 2.99039C1.74854 4.31139 1.00641 6.10306 1.00641 7.97125Z"
    fill="#FFF1DC" />
  <path
    d="M12.32 4.22083H3.7808C3.5392 4.22083 3.3432 4.41683 3.3432 4.65843C3.3432 4.90003 3.5392 5.09603 3.7808 5.09603H4.1V9.67843C4.1 10.2824 4.5896 10.772 5.1936 10.772H6.3528L5.1056 11.9728C5.0642 12.0126 5.03105 12.0602 5.00804 12.1128C4.98503 12.1655 4.97261 12.2221 4.97149 12.2795C4.97038 12.337 4.98059 12.394 5.00154 12.4475C5.02249 12.501 5.05377 12.5498 5.0936 12.5912C5.13442 12.6336 5.18337 12.6674 5.23752 12.6905C5.29168 12.7136 5.34993 12.7255 5.4088 12.7256C5.5184 12.7256 5.6272 12.6848 5.712 12.6032L7.6136 10.772H8.5832L10.432 12.5992C10.5147 12.6807 10.6262 12.726 10.7423 12.7254C10.8583 12.7248 10.9694 12.6783 11.0512 12.596C11.1326 12.5134 11.178 12.4018 11.1774 12.2858C11.1768 12.1697 11.1303 12.0586 11.048 11.9768L9.8288 10.772H10.844C11.448 10.772 11.9376 10.2824 11.9376 9.67843V5.09603H12.32C12.5616 5.09603 12.7576 4.90003 12.7576 4.65843C12.7576 4.41683 12.5624 4.22083 12.32 4.22083ZM8.624 6.60563C8.624 6.84723 8.428 7.04323 8.1864 7.04323H5.888C5.6464 7.04323 5.4504 6.84723 5.4504 6.60563C5.4504 6.36403 5.6464 6.16803 5.888 6.16803H8.1864C8.428 6.16803 8.624 6.36403 8.624 6.60563ZM10.1016 8.99043H5.888C5.6464 8.99043 5.4504 8.79443 5.4504 8.55283C5.4504 8.31123 5.6464 8.11523 5.888 8.11523H10.1016C10.3432 8.11523 10.5392 8.31123 10.5392 8.55283C10.5392 8.79443 10.3432 8.99043 10.1016 8.99043Z"
    fill="#FF5E3D" />
  <path
    d="M3.3432 4.65843C3.3432 4.90003 3.5392 5.09603 3.7808 5.09603H4.1V9.67843C4.1 10.2824 4.5896 10.772 5.1936 10.772H6.3528L5.1872 11.8944C5.1984 11.8944 5.2096 11.8952 5.2208 11.8952C5.688 11.8952 6.1448 11.8496 6.5864 11.7624L7.6144 10.772H8.584L8.7576 10.9432C10.2568 10.0712 11.4048 8.66163 11.9376 6.97843V5.09603H12.26C12.2624 5.01443 12.2648 4.93283 12.2648 4.85043C12.2648 4.63843 12.2552 4.42803 12.2368 4.22083H3.7808C3.5392 4.22083 3.3432 4.41683 3.3432 4.65843ZM5.888 6.16803H8.1864C8.428 6.16803 8.624 6.36403 8.624 6.60563C8.624 6.84723 8.428 7.04323 8.1864 7.04323H5.888C5.6464 7.04323 5.4504 6.84723 5.4504 6.60563C5.4504 6.36403 5.6464 6.16803 5.888 6.16803ZM5.888 8.11523H10.1016C10.3432 8.11523 10.5392 8.31123 10.5392 8.55283C10.5392 8.79443 10.3432 8.99043 10.1016 8.99043H5.888C5.6464 8.99043 5.4504 8.79443 5.4504 8.55283C5.4504 8.31123 5.6464 8.11523 5.888 8.11523Z"
    fill="#FF7C61" />
  <path
    d="M3.3432 4.65843C3.3432 4.90003 3.5392 5.09603 3.7808 5.09603H4.1V9.34643C4.6656 9.28163 5.212 9.15043 5.7288 8.96003C5.64678 8.92809 5.57632 8.87212 5.52665 8.79947C5.47697 8.72681 5.4504 8.64084 5.4504 8.55283C5.4504 8.31123 5.6464 8.11523 5.888 8.11523H7.34C8.66 7.18723 9.6472 5.81763 10.0864 4.22083H3.7808C3.5392 4.22083 3.3432 4.41683 3.3432 4.65843ZM5.888 6.16803H8.1864C8.428 6.16803 8.624 6.36403 8.624 6.60563C8.624 6.84723 8.428 7.04323 8.1864 7.04323H5.888C5.6464 7.04323 5.4504 6.84723 5.4504 6.60563C5.4504 6.36403 5.6464 6.16803 5.888 6.16803Z"
    fill="#FF947D" />
  <path
    d="M3.3432 4.65843C3.3432 4.90003 3.5392 5.09603 3.7808 5.09603H4.1V6.41363C5.2688 5.95363 6.284 5.19043 7.0504 4.22083H3.7808C3.5392 4.22083 3.3432 4.41683 3.3432 4.65843Z"
    fill="#FFAC9A" />
</svg>