<svg xmlns="http://www.w3.org/2000/svg" width="16" height="16" viewBox="0 0 16 16" fill="none">
  <g clip-path="url(#clip0_3156_16181)">
    <path
      d="M0.952026 7.98004C0.952026 8.90507 1.13422 9.82104 1.48822 10.6757C1.84221 11.5303 2.36107 12.3068 3.01517 12.9609C3.66926 13.615 4.44579 14.1338 5.3004 14.4878C6.15502 14.8418 7.07099 15.024 7.99603 15.024C8.92106 15.024 9.83703 14.8418 10.6916 14.4878C11.5463 14.1338 12.3228 13.615 12.9769 12.9609C13.631 12.3068 14.1498 11.5303 14.5038 10.6757C14.8578 9.82104 15.04 8.90507 15.04 7.98004C15.04 6.11185 14.2979 4.32018 12.9769 2.99918C11.6559 1.67817 9.86421 0.936035 7.99603 0.936035C6.12784 0.936035 4.33617 1.67817 3.01517 2.99918C1.69416 4.32018 0.952026 6.11185 0.952026 7.98004Z"
      fill="#E3FFEC" />
    <path
      d="M12.7912 11.9721L11.3928 10.5233C12.0088 9.72166 12.376 8.71846 12.376 7.62886C12.376 5.00246 10.2472 2.87366 7.6208 2.87366C4.9944 2.87366 2.8656 5.00246 2.8656 7.62886C2.8656 10.2553 4.9944 12.3841 7.6208 12.3841C8.7536 12.3841 9.7928 11.9865 10.6096 11.3249L11.9848 12.7505C12.037 12.8047 12.0996 12.8478 12.1689 12.8772C12.2382 12.9067 12.3127 12.9218 12.388 12.9217C12.528 12.9217 12.668 12.8697 12.7768 12.7649C12.9992 12.5489 13.0056 12.1945 12.7912 11.9721ZM7.6496 10.7233H7.6312C5.7912 10.7233 4.8928 9.32326 4.6744 8.58086C4.6387 8.45865 4.65293 8.32727 4.71397 8.21554C4.77501 8.10381 4.87788 8.02085 5 7.98486C5.2536 7.91046 5.5192 8.05526 5.5952 8.30806C5.6152 8.37286 6.0624 9.76326 7.6312 9.76326H7.6472C7.9112 9.76326 8.1256 9.97686 8.1272 10.2409C8.1288 10.5057 7.9144 10.7217 7.6496 10.7233Z"
      fill="#59BF78" />
    <path
      d="M11.6792 5.6136C11.6792 5.4472 11.6712 5.2824 11.6592 5.1184C10.82 3.7704 9.3256 2.8728 7.6208 2.8728C4.9944 2.8728 2.8656 5.0016 2.8656 7.628C2.8656 9.7992 4.3208 11.6288 6.3096 12.1984C9.3736 11.5728 11.6792 8.8624 11.6792 5.6136ZM4.9992 7.9856C5.2528 7.9112 5.5184 8.056 5.5944 8.3088C5.6144 8.3736 6.0616 9.764 7.6304 9.764H7.6464C7.9104 9.764 8.1248 9.9776 8.1264 10.2416C8.128 10.5064 7.9136 10.7224 7.6488 10.724H7.6304C5.7904 10.724 4.892 9.324 4.6736 8.5816C4.5992 8.3272 4.7448 8.06 4.9992 7.9856Z"
      fill="#72E394" />
    <path
      d="M7.6208 2.87354C4.9944 2.87354 2.8656 5.00234 2.8656 7.62874C2.86474 8.43741 3.07103 9.23282 3.4648 9.93914C4.0816 9.90794 4.6752 9.79194 5.2368 9.60554C4.94 9.24474 4.7576 8.86474 4.6736 8.58154C4.63791 8.45933 4.65214 8.32795 4.71318 8.21622C4.77422 8.10449 4.87708 8.02153 4.9992 7.98554C5.2528 7.91114 5.5184 8.05594 5.5944 8.30874C5.6056 8.34554 5.7576 8.81594 6.1776 9.21194C8.2976 8.12634 9.764 5.94954 9.836 3.42154C9.15343 3.06071 8.39288 2.87257 7.6208 2.87354Z"
      fill="#95EFB0" />
    <path
      d="M2.87122 7.41286C5.22562 6.89766 7.11842 5.15046 7.83762 2.87926C7.76562 2.87606 7.69362 2.87366 7.62082 2.87366C5.06722 2.87366 2.98402 4.88646 2.87122 7.41286Z"
      fill="#BFFFD2" />
  </g>
  <defs>
    <clipPath id="clip0_3156_16181">
      <rect width="16" height="16" fill="white" />
    </clipPath>
  </defs>
</svg>