<svg xmlns="http://www.w3.org/2000/svg" width="16" height="16" viewBox="0 0 16 16" fill="none">
  <path
    d="M0.848022 8.12237C0.848022 9.99055 1.59016 11.7822 2.91116 13.1032C4.23217 14.4242 6.02384 15.1664 7.89202 15.1664C9.76021 15.1664 11.5519 14.4242 12.8729 13.1032C14.1939 11.7822 14.936 9.99055 14.936 8.12237C14.936 6.25418 14.1939 4.46252 12.8729 3.14151C11.5519 1.8205 9.76021 1.07837 7.89202 1.07837C6.02384 1.07837 4.23217 1.8205 2.91116 3.14151C1.59016 4.46252 0.848022 6.25418 0.848022 8.12237Z"
    fill="#FFF4D3" />
  <path d="M10.5912 5.59759H11.944L9.948 3.37439V4.98959C9.948 5.32479 10.2368 5.59759 10.5912 5.59759Z"
    fill="#FFD96C" />
  <path
    d="M10.5912 6.63764C9.66319 6.63764 8.90879 5.89844 8.90879 4.98964V3.18164H5.79439C4.80159 3.18164 3.99359 3.98964 3.99359 4.98244V11.1664C3.99359 12.1592 4.80159 12.9672 5.79439 12.9672H10.4592C11.452 12.9672 12.26 12.1592 12.26 11.1664V6.63764H10.5912ZM6.23839 5.70564H8.13519C8.2731 5.70564 8.40537 5.76043 8.50289 5.85794C8.60041 5.95546 8.65519 6.08773 8.65519 6.22564C8.65519 6.36355 8.60041 6.49582 8.50289 6.59334C8.40537 6.69085 8.2731 6.74564 8.13519 6.74564H6.23839C6.10048 6.74564 5.96821 6.69085 5.8707 6.59334C5.77318 6.49582 5.71839 6.36355 5.71839 6.22564C5.71839 6.08773 5.77318 5.95546 5.8707 5.85794C5.96821 5.76043 6.10048 5.70564 6.23839 5.70564ZM9.98239 10.7352H6.23839C6.10048 10.7352 5.96821 10.6805 5.8707 10.5829C5.77318 10.4854 5.71839 10.3532 5.71839 10.2152C5.71839 10.0773 5.77318 9.94506 5.8707 9.84754C5.96821 9.75003 6.10048 9.69524 6.23839 9.69524H9.98239C10.1203 9.69524 10.2526 9.75003 10.3501 9.84754C10.4476 9.94506 10.5024 10.0773 10.5024 10.2152C10.5024 10.3532 10.4476 10.4854 10.3501 10.5829C10.2526 10.6805 10.1203 10.7352 9.98239 10.7352ZM9.98239 8.74004H6.23839C6.10048 8.74004 5.96821 8.68525 5.8707 8.58774C5.77318 8.49022 5.71839 8.35795 5.71839 8.22004C5.71839 8.08213 5.77318 7.94986 5.8707 7.85234C5.96821 7.75483 6.10048 7.70004 6.23839 7.70004H9.98239C10.1203 7.70004 10.2526 7.75483 10.3501 7.85234C10.4476 7.94986 10.5024 8.08213 10.5024 8.22004C10.5024 8.35795 10.4476 8.49022 10.3501 8.58774C10.2526 8.68525 10.1203 8.74004 9.98239 8.74004Z"
    fill="#FFCE43" />
  <path
    d="M12.2592 6.86244V6.63764H10.5904C9.66239 6.63764 8.90799 5.89844 8.90799 4.98964V3.18164H5.79439C4.80159 3.18164 3.99359 3.98964 3.99359 4.98244V11.1664C3.99359 11.8776 4.40799 12.4928 5.00719 12.7856C5.10559 12.7896 5.20399 12.792 5.30319 12.792C8.81439 12.792 11.7256 10.2232 12.2592 6.86244ZM6.23839 5.70564H8.13519C8.2731 5.70564 8.40537 5.76043 8.50289 5.85794C8.60041 5.95546 8.65519 6.08773 8.65519 6.22564C8.65519 6.36355 8.60041 6.49582 8.50289 6.59334C8.40537 6.69085 8.2731 6.74564 8.13519 6.74564H6.23839C6.10048 6.74564 5.96821 6.69085 5.8707 6.59334C5.77318 6.49582 5.71839 6.36355 5.71839 6.22564C5.71839 6.08773 5.77318 5.95546 5.8707 5.85794C5.96821 5.76043 6.10048 5.70564 6.23839 5.70564ZM6.23839 7.70004H9.98239C10.0507 7.70004 10.1183 7.71349 10.1814 7.73962C10.2445 7.76576 10.3018 7.80406 10.3501 7.85234C10.3984 7.90063 10.4367 7.95796 10.4628 8.02104C10.4889 8.08413 10.5024 8.15175 10.5024 8.22004C10.5024 8.28833 10.4889 8.35595 10.4628 8.41904C10.4367 8.48213 10.3984 8.53945 10.3501 8.58774C10.3018 8.63602 10.2445 8.67432 10.1814 8.70046C10.1183 8.72659 10.0507 8.74004 9.98239 8.74004H6.23839C6.10048 8.74004 5.96821 8.68525 5.8707 8.58774C5.77318 8.49022 5.71839 8.35795 5.71839 8.22004C5.71839 8.08213 5.77318 7.94986 5.8707 7.85234C5.96821 7.75483 6.10048 7.70004 6.23839 7.70004ZM6.23839 10.7352C6.10048 10.7352 5.96821 10.6805 5.8707 10.5829C5.77318 10.4854 5.71839 10.3532 5.71839 10.2152C5.71839 10.0773 5.77318 9.94506 5.8707 9.84754C5.96821 9.75003 6.10048 9.69524 6.23839 9.69524H9.98239C10.1203 9.69524 10.2526 9.75003 10.3501 9.84754C10.4476 9.94506 10.5024 10.0773 10.5024 10.2152C10.5024 10.3532 10.4476 10.4854 10.3501 10.5829C10.2526 10.6805 10.1203 10.7352 9.98239 10.7352H6.23839Z"
    fill="#FFD96C" />
  <path
    d="M5.89199 9.82804C5.98031 9.74867 6.09338 9.70232 6.21199 9.69684C6.77919 9.44724 7.30799 9.12404 7.78479 8.74084H6.23839C6.10048 8.74084 5.96821 8.68605 5.8707 8.58854C5.77318 8.49102 5.71839 8.35875 5.71839 8.22084C5.71839 8.08293 5.77318 7.95066 5.8707 7.85315C5.96821 7.75563 6.10048 7.70084 6.23839 7.70084H8.83359C9.16661 7.29329 9.45292 6.84973 9.68719 6.37844C9.21919 6.08564 8.90799 5.57364 8.90799 4.99044V3.18164H5.79439C4.80159 3.18164 3.99359 3.98964 3.99359 4.98244V10.2632C4.64352 10.207 5.28245 10.0605 5.89199 9.82804ZM6.23839 5.70564H8.13519C8.2731 5.70564 8.40537 5.76043 8.50289 5.85794C8.60041 5.95546 8.65519 6.08773 8.65519 6.22564C8.65519 6.36355 8.60041 6.49582 8.50289 6.59334C8.40537 6.69086 8.2731 6.74564 8.13519 6.74564H6.23839C6.10048 6.74564 5.96821 6.69086 5.8707 6.59334C5.77318 6.49582 5.71839 6.36355 5.71839 6.22564C5.71839 6.08773 5.77318 5.95546 5.8707 5.85794C5.96821 5.76043 6.10048 5.70564 6.23839 5.70564ZM9.94799 3.37444V4.98964C9.94799 5.13524 10.0024 5.26884 10.0928 5.37364C10.2448 4.89284 10.3464 4.38884 10.392 3.86964L9.94799 3.37444Z"
    fill="#FFE18D" />
  <path
    d="M5.76399 6.43844C5.73439 6.37364 5.71759 6.30164 5.71759 6.22484C5.71759 6.08693 5.77238 5.95466 5.8699 5.85714C5.96741 5.75963 6.09968 5.70484 6.23759 5.70484H6.61359C7.32273 4.98815 7.86996 4.12775 8.21839 3.18164H5.79439C4.80159 3.18164 3.99359 3.98964 3.99359 4.98244V7.38244C4.62596 7.15434 5.22221 6.83642 5.76399 6.43844Z"
    fill="#FFEAAF" />
</svg>