<svg width="20" height="20" viewBox="0 0 20 20" fill="none" xmlns="http://www.w3.org/2000/svg">
<path fill-rule="evenodd" clip-rule="evenodd" d="M13.25 1.25H13.2317C12.3583 1.25 11.5275 0.914062 10.8897 0.337891C10.6561 0.128906 10.3433 0 10 0C9.65672 0 9.34391 0.128906 9.11031 0.337891C8.4725 0.914062 7.64375 1.25 6.76828 1.25H6.75C4.95437 1.25 3.5 2.64844 3.5 4.375V14.0625C3.5 15.9609 5.10063 17.5 7.075 17.5H8.05C8.40953 17.5 8.7 17.7793 8.7 18.125V18.4375C8.7 18.6094 8.84625 18.75 9.025 18.75H9.1875C9.27688 18.75 9.35 18.8203 9.35 18.9062V19.8438C9.35 19.9297 9.42313 20 9.5125 20H10.4875C10.5769 20 10.65 19.9297 10.65 19.8438V18.9062C10.65 18.8203 10.7231 18.75 10.8125 18.75H10.975C11.1538 18.75 11.3 18.6094 11.3 18.4375V18.125C11.3 17.7793 11.5905 17.5 11.95 17.5H12.925C14.8994 17.5 16.5 15.9609 16.5 14.0625V4.375C16.5 2.64844 15.0456 1.25 13.25 1.25ZM10 0.625C10.3595 0.625 10.65 0.904297 10.65 1.25C10.65 1.5957 10.3595 1.875 10 1.875C9.64047 1.875 9.35 1.5957 9.35 1.25C9.35 0.904297 9.64047 0.625 10 0.625ZM7.64149 11.4108C6.98419 11.3602 6.22399 11.559 5.2684 12.0369C4.97204 12.1852 4.61162 12.0651 4.46338 11.7687C4.31515 11.4723 4.43523 11.1119 4.7316 10.9637C5.77602 10.4413 6.76582 10.1399 7.73351 10.2143C8.72153 10.2903 9.59888 10.7504 10.4243 11.5758C11.7209 12.8724 13.3985 12.3845 14.0391 11.6158C14.2512 11.3612 14.6295 11.3268 14.8841 11.539C15.1387 11.7511 15.1731 12.1295 14.9609 12.384C13.9348 13.6154 11.4416 14.2901 9.57575 12.4243C8.90113 11.7497 8.27848 11.4598 7.64149 11.4108ZM13 4.07812C13 4.03516 13.0352 4 13.0781 4H15.1094C15.1523 4 15.1875 4.03516 15.1875 4.07812V5.17188C15.1875 5.21484 15.1523 5.25 15.1094 5.25H13.0781C13.0352 5.25 13 5.21484 13 5.17188V4.07812ZM13 6.57812C13 6.53516 13.0352 6.5 13.0781 6.5H15.1094C15.1523 6.5 15.1875 6.53516 15.1875 6.57812V7.67188C15.1875 7.71484 15.1523 7.75 15.1094 7.75H13.0781C13.0352 7.75 13 7.71484 13 7.67188V6.57812ZM13 9.07812C13 9.03516 13.0352 9 13.0781 9H15.1094C15.1523 9 15.1875 9.03516 15.1875 9.07812V10.1719C15.1875 10.2148 15.1523 10.25 15.1094 10.25H13.0781C13.0352 10.25 13 10.2148 13 10.1719V9.07812Z" fill="white"/>
</svg>
