<svg width="20" height="20" viewBox="0 0 20 20" fill="none" xmlns="http://www.w3.org/2000/svg">
  <path
    d="M12.5255 9.546C12.5513 9.57053 12.5777 9.59443 12.6047 9.61768C12.5728 9.63428 12.5408 9.6505 12.5086 9.66636C12.482 9.64258 12.4559 9.61818 12.4305 9.59319C12.4623 9.57783 12.494 9.56209 12.5255 9.546ZM6.17438 7.66962C6.1827 7.63552 6.19101 7.60279 6.2002 7.57118C6.74884 7.50962 7.25787 7.25391 7.63319 6.8495C8.02376 6.42868 8.24106 5.8775 8.24189 5.30502V5.30488C8.24189 4.04835 7.20994 3.025 5.94595 3.025C4.68195 3.025 3.65 4.04835 3.65 5.30488L3.65 5.30498C3.65046 5.75745 3.78648 6.19949 4.04068 6.57488C4.27842 6.92596 4.60946 7.20387 4.99616 7.37835C4.7754 8.22963 4.66351 9.1117 4.66351 10C4.66351 10.8883 4.77224 11.7674 4.99291 12.6218C4.20256 12.9804 3.65 13.7749 3.65 14.6951C3.65 15.9517 4.68195 16.975 5.94595 16.975C7.20994 16.975 8.24189 15.9517 8.24189 14.6951C8.24189 13.5222 7.34575 12.5528 6.19656 12.4288C5.98456 11.6367 5.87703 10.8231 5.87703 10C5.87703 9.77494 5.88445 9.55037 5.90198 9.32758C7.02182 10.5519 8.62824 11.2738 10.3378 11.2738C11.5572 11.2738 12.7201 10.9169 13.716 10.2425L6.17438 7.66962ZM4.86351 5.30488C4.86351 4.71354 5.34845 4.2311 5.94595 4.2311C6.54344 4.2311 7.02838 4.71354 7.02838 5.30488C7.02838 5.89621 6.54344 6.37866 5.94595 6.37866C5.34845 6.37866 4.86351 5.89621 4.86351 5.30488ZM5.94595 13.7018C6.54808 13.7018 7.02838 14.1485 7.02838 14.7354C7.02838 15.3222 6.54808 15.7689 5.94595 15.7689C5.33883 15.7689 4.86351 15.3579 4.86351 14.7756C4.86351 14.2236 5.3189 13.7018 5.94595 13.7018ZM14.0541 9.06159C13.4566 9.06159 12.9716 8.57914 12.9716 7.98781C12.9716 7.39647 13.4566 6.91403 14.0541 6.91403C14.6515 6.91403 15.1365 7.39647 15.1365 7.98781C15.1365 8.57914 14.6515 9.06159 14.0541 9.06159Z"
    fill="#6C7380" stroke="#6C7380" stroke-width="0.2" />
</svg>