<svg width="20" height="20" viewBox="0 0 20 20" fill="none" xmlns="http://www.w3.org/2000/svg">
  <path fill-rule="evenodd" clip-rule="evenodd"
    d="M5.40984 11.7163L3.6 12.7605V14.8467L5.40984 15.8908L7.21967 14.8467V12.7605L5.40984 11.7163ZM8.81967 11.8364L5.40984 9.86914L2 11.8364V15.7708L5.40984 17.738L8.81967 15.7708V11.8364Z"
    fill="#6C7380" />
  <path fill-rule="evenodd" clip-rule="evenodd"
    d="M14.5901 11.7163L12.7803 12.7605V14.8467L14.5901 15.8908L16.4 14.8467V12.7605L14.5901 11.7163ZM18 11.8364L14.5901 9.86914L11.1803 11.8364V15.7708L14.5901 17.738L18 15.7708V11.8364Z"
    fill="#6C7380" />
  <path fill-rule="evenodd" clip-rule="evenodd"
    d="M9.86894 3.84718L8.05911 4.89132V6.97754L9.86894 8.02167L11.6788 6.97754V4.89132L9.86894 3.84718ZM13.2788 3.96721L9.86894 2L6.45911 3.96721V7.90164L9.86894 9.86885L13.2788 7.90164V3.96721Z"
    fill="#6C7380" />
</svg>