<svg width="24" height="24" viewBox="0 0 24 24" fill="none" xmlns="http://www.w3.org/2000/svg">
<path d="M14.5255 11.546C14.5513 11.5705 14.5777 11.5944 14.6047 11.6177C14.5728 11.6343 14.5408 11.6505 14.5086 11.6664C14.482 11.6426 14.4559 11.6182 14.4305 11.5932C14.4623 11.5778 14.494 11.5621 14.5255 11.546ZM8.17438 9.66962C8.1827 9.63552 8.19101 9.60279 8.2002 9.57118C8.74884 9.50962 9.25787 9.25391 9.63319 8.8495C10.0238 8.42868 10.2411 7.8775 10.2419 7.30502V7.30488C10.2419 6.04835 9.20994 5.025 7.94595 5.025C6.68195 5.025 5.65 6.04835 5.65 7.30488L5.65 7.30498C5.65046 7.75745 5.78648 8.19949 6.04068 8.57488C6.27842 8.92596 6.60946 9.20387 6.99616 9.37835C6.7754 10.2296 6.66351 11.1117 6.66351 12C6.66351 12.8883 6.77224 13.7674 6.99291 14.6218C6.20256 14.9804 5.65 15.7749 5.65 16.6951C5.65 17.9517 6.68195 18.975 7.94595 18.975C9.20994 18.975 10.2419 17.9517 10.2419 16.6951C10.2419 15.5222 9.34575 14.5528 8.19656 14.4288C7.98456 13.6367 7.87703 12.8231 7.87703 12C7.87703 11.7749 7.88445 11.5504 7.90198 11.3276C9.02182 12.5519 10.6282 13.2738 12.3378 13.2738C13.5572 13.2738 14.7201 12.9169 15.716 12.2425L8.17438 9.66962ZM6.86351 7.30488C6.86351 6.71354 7.34845 6.2311 7.94595 6.2311C8.54344 6.2311 9.02838 6.71354 9.02838 7.30488C9.02838 7.89621 8.54344 8.37866 7.94595 8.37866C7.34845 8.37866 6.86351 7.89621 6.86351 7.30488ZM7.94595 15.7018C8.54808 15.7018 9.02838 16.1485 9.02838 16.7354C9.02838 17.3222 8.54808 17.7689 7.94595 17.7689C7.33883 17.7689 6.86351 17.3579 6.86351 16.7756C6.86351 16.2236 7.3189 15.7018 7.94595 15.7018ZM16.0541 11.0616C15.4566 11.0616 14.9716 10.5791 14.9716 9.98781C14.9716 9.39647 15.4566 8.91403 16.0541 8.91403C16.6515 8.91403 17.1365 9.39647 17.1365 9.98781C17.1365 10.5791 16.6515 11.0616 16.0541 11.0616Z" fill="#6C7380" stroke="#6C7380" stroke-width="0.2"/>
<rect x="2.5" y="2.5" width="19" height="19" rx="2.5" stroke="#6C7380"/>
</svg>
