<svg width="24" height="24" viewBox="0 0 24 24" fill="none" xmlns="http://www.w3.org/2000/svg">
  <path fill-rule="evenodd" clip-rule="evenodd"
    d="M7.98361 13.2702L6.2 14.2992V16.3556L7.98361 17.3846L9.76721 16.3556V14.2992L7.98361 13.2702ZM10.9672 13.6061L7.98361 11.8848L5 13.6061V17.0487L7.98361 18.77L10.9672 17.0487V13.6061Z"
    fill="#6C7380" />
  <path fill-rule="evenodd" clip-rule="evenodd"
    d="M16.0164 13.2702L14.2328 14.2992V16.3556L16.0164 17.3846L17.8 16.3556V14.2992L16.0164 13.2702ZM19 13.6061L16.0164 11.8848L13.0328 13.6061V17.0487L16.0164 18.77L19 17.0487V13.6061Z"
    fill="#6C7380" />
  <path fill-rule="evenodd" clip-rule="evenodd"
    d="M11.8853 6.38538L10.1017 7.41439V9.47086L11.8853 10.4999L13.6689 9.47086V7.41439L11.8853 6.38538ZM14.8689 6.72131L11.8853 5L8.90167 6.72131V10.1639L11.8853 11.8852L14.8689 10.1639V6.72131Z"
    fill="#6C7380" />
  <rect x="2.5" y="2.5" width="19" height="19" rx="2.5" stroke="#6C7380" />
</svg>