<svg width="20" height="20" viewBox="0 0 20 20" fill="none" xmlns="http://www.w3.org/2000/svg">
<path fill-rule="evenodd" clip-rule="evenodd" d="M12.6796 19.246L1.91674 17.7277C1.72703 17.6926 1.55567 17.5888 1.43348 17.4349C1.3113 17.281 1.2463 17.0871 1.25018 16.8881V3.11196C1.24611 2.91328 1.31101 2.71964 1.43314 2.56605C1.55528 2.41246 1.7266 2.30905 1.91615 2.2745L12.6784 0.754367C12.79 0.736791 12.9038 0.772867 12.9871 0.851803C13.0296 0.892574 13.0635 0.94203 13.0864 0.997025C13.1094 1.05202 13.1211 1.11135 13.1206 1.17125V18.8279C13.1211 18.8878 13.1094 18.9471 13.0864 19.0021C13.0635 19.0571 13.0296 19.1066 12.9871 19.1474C12.9462 19.1864 12.8973 19.2155 12.844 19.2326C12.7907 19.2497 12.7347 19.2543 12.6796 19.246ZM13.8989 18.6214V1.37564H17.9733C18.1849 1.38201 18.3856 1.47478 18.5311 1.63361C18.6767 1.79245 18.7553 2.00438 18.7497 2.22296V17.7753C18.7552 17.9937 18.6765 18.2055 18.5309 18.3641C18.3854 18.5227 18.1848 18.6152 17.9733 18.6214H13.8989ZM10.2873 4.95822C10.3656 5.39306 10.0766 5.80902 9.64172 5.88729L4.64172 6.78729C4.20688 6.86556 3.79092 6.5765 3.71265 6.14166C3.63438 5.70682 3.92343 5.29087 4.35827 5.21259L9.35827 4.3126C9.79311 4.23432 10.2091 4.52338 10.2873 4.95822ZM9.64172 9.78719C10.0766 9.70892 10.3656 9.29296 10.2873 8.85812C10.2091 8.42328 9.79311 8.13423 9.35827 8.2125L4.35827 9.1125C3.92343 9.19077 3.63438 9.60673 3.71265 10.0416C3.79092 10.4764 4.20688 10.7655 4.64172 10.6872L9.64172 9.78719Z" fill="white"/>
</svg>
