<svg width="20" height="20" viewBox="0 0 20 20" fill="none" xmlns="http://www.w3.org/2000/svg">
<path fill-rule="evenodd" clip-rule="evenodd" d="M3.625 0.629883H16.375C17.5486 0.629883 18.5 1.67924 18.5 2.97363V17.0361C18.5 18.3306 17.5486 19.3799 16.375 19.3799H3.625C2.45142 19.3799 1.5 18.3306 1.5 17.0361V2.97363C1.5 1.67924 2.45142 0.629883 3.625 0.629883ZM15.5657 4.93451C15.8781 5.24693 15.8781 5.75346 15.5657 6.06588L11.8555 9.77604C11.4173 10.2142 10.7308 10.2822 10.2152 9.93846L8.05323 8.49718L5.51212 10.6148C5.1727 10.8976 4.66825 10.8518 4.38539 10.5123C4.10254 10.1729 4.1484 9.66847 4.48782 9.38562L7.20102 7.12462C7.6433 6.75605 8.27533 6.72229 8.75437 7.04165L10.898 8.47076L14.4343 4.93451C14.7467 4.62209 15.2532 4.62209 15.5657 4.93451ZM5.00001 14.2002C4.55818 14.2002 4.20001 14.5584 4.20001 15.0002C4.20001 15.442 4.55818 15.8002 5.00001 15.8002H15C15.4418 15.8002 15.8 15.442 15.8 15.0002C15.8 14.5584 15.4418 14.2002 15 14.2002H5.00001Z" fill="white"/>
</svg>
