<svg width="20" height="20" viewBox="0 0 20 20" fill="none" xmlns="http://www.w3.org/2000/svg">
<path d="M15.8418 11.8229L15.8486 11.8267L18.4267 13.2713L18.4352 13.2761C18.6259 13.3868 18.7442 13.5848 18.7498 13.7996L18.75 13.8078V16.48L18.7499 16.4895C18.7466 16.7018 18.6333 16.8988 18.4476 17.0121L18.4402 17.0166L18.4333 17.0206L15.8543 18.5055L15.8452 18.5107C15.6466 18.6208 15.4027 18.6203 15.2044 18.509L15.1972 18.5049L12.6193 17.0206L12.6109 17.0157C12.4238 16.9042 12.3084 16.7082 12.3028 16.4961L12.3026 16.4889V13.8156L12.3027 13.8062C12.306 13.5913 12.4221 13.3922 12.6115 13.2796L12.6194 13.275L12.6275 13.2704L15.2049 11.8262C15.4018 11.7159 15.6438 11.7146 15.8418 11.8229ZM10.7675 16.7508C11.1067 16.7508 11.3816 17.0257 11.3816 17.3648C11.3816 17.7039 11.1067 17.9789 10.7675 17.9789H4.32018C3.98106 17.9789 3.70614 17.7039 3.70614 17.3648C3.70614 17.0257 3.98106 16.7508 4.32018 16.7508H10.7675ZM15.5263 14.4098C15.1024 14.4098 14.7588 14.7534 14.7588 15.1773C14.7588 15.6012 15.1024 15.9449 15.5263 15.9449C15.9502 15.9449 16.2939 15.6012 16.2939 15.1773C16.2939 14.7534 15.9502 14.4098 15.5263 14.4098ZM16.0526 1.3999C17.0337 1.3999 17.8289 2.22463 17.8289 3.24201V11.4138C17.8289 11.5833 17.6915 11.7208 17.5219 11.7208C17.4695 11.7208 17.4179 11.7074 17.3721 11.6818L15.9407 10.8814L15.9319 10.8766C15.6804 10.7394 15.3738 10.7392 15.1223 10.8757L15.113 10.8808L11.7993 12.7336L11.7888 12.7395L11.7786 12.7455C11.538 12.8882 11.3894 13.1394 11.3819 13.4114L11.3817 13.4209L11.3816 13.4331V15.2157C11.3816 15.3853 11.2441 15.5227 11.0746 15.5227H3.02631C2.04529 15.5227 1.25 14.698 1.25 13.6806V3.24201C1.25 2.22463 2.04529 1.3999 3.02631 1.3999H16.0526ZM8.06807 6.31527C7.64285 6.0536 7.10202 6.07563 6.69975 6.36971L6.68761 6.37873L4.56579 7.97008L4.55773 7.97622C4.29606 8.1792 4.2426 8.55357 4.43701 8.82163L4.44298 8.82973L4.44912 8.83779C4.6521 9.09946 5.02647 9.15292 5.29453 8.9585L5.30263 8.95253L7.2573 7.48656C7.30562 7.45032 7.36355 7.42914 7.42385 7.42566C7.48415 7.42219 7.54414 7.43658 7.5963 7.46703L7.6024 7.4707L10.7163 9.38691C11.1291 9.64096 11.6524 9.62818 12.0521 9.35544L12.0641 9.34707L14.8039 7.42925L14.8121 7.42336C15.0803 7.22909 15.146 6.85668 14.9605 6.58238L14.9548 6.57409L14.9489 6.56584C14.7546 6.29766 14.3822 6.23196 14.1079 6.41749L14.0996 6.42319L11.5251 8.22534C11.477 8.25899 11.4203 8.27816 11.3617 8.28058C11.3031 8.283 11.245 8.26856 11.1943 8.23899L11.1881 8.2353L8.06807 6.31527Z" fill="white"/>
</svg>
