<svg width="20" height="20" viewBox="0 0 20 20" fill="none" xmlns="http://www.w3.org/2000/svg">
<path d="M16.2852 5.62488C16.2852 4.74908 15.3923 4.74908 15.3923 4.74908H4.66196C4.66196 4.74908 3.76711 4.74908 3.76711 5.62488V8.05289H16.2792L16.2852 5.62488ZM6.73207 1.25193C5.5 1.25193 5.63239 3.05355 5.56676 3.63935C5.55881 3.71282 5.55483 3.79015 5.55483 3.87328H14.4955C14.4955 3.79208 14.4915 3.71282 14.4835 3.63935C14.4199 3.05162 14.5 1.25 13.3182 1.25L6.73207 1.25193ZM18.0729 8.05289L17.5141 7.50576V8.92869H2.53817V7.50383L1.97938 8.05096C1.53195 8.59809 1.08651 8.70829 1.30923 9.80256C1.53195 10.8968 2.53817 17.1086 2.64953 17.8742C2.76089 18.75 3.76711 18.75 3.76711 18.75H16.1738C16.1738 18.75 17.0667 18.75 17.2914 17.8742C17.4028 17.1086 18.409 10.8949 18.6337 9.80256C18.9678 8.70829 18.5203 8.60003 18.0729 8.05289ZM13.6026 12.7586C13.6026 12.7586 13.6026 13.6344 12.7097 13.6344H7.34256C6.4477 13.6344 6.4477 12.7586 6.4477 12.7586V11.507C6.4477 11.2309 6.67156 11.007 6.9477 11.007H7.17863C7.45477 11.007 7.67863 11.2309 7.67863 11.507V12.4299H12.2603V11.507C12.2603 11.2309 12.4842 11.007 12.7603 11.007H13.104C13.3804 11.007 13.6043 11.2312 13.604 11.5076L13.6026 12.7586Z" fill="white"/>
</svg>
