<svg width="20" height="20" viewBox="0 0 20 20" fill="none" xmlns="http://www.w3.org/2000/svg">
  <circle cx="10" cy="10" r="8" fill="#FF9A2F" />
  <path fill-rule="evenodd" clip-rule="evenodd"
    d="M7 12.5C7 13.0523 7.44772 13.5 8 13.5C8.55228 13.5 9 13.0523 9 12.5V7.5C9 6.94772 8.55228 6.5 8 6.5C7.44772 6.5 7 6.94772 7 7.5V12.5ZM11 12.5C11 13.0523 11.4477 13.5 12 13.5C12.5523 13.5 13 13.0523 13 12.5V7.5C13 6.94772 12.5523 6.5 12 6.5C11.4477 6.5 11 6.94772 11 7.5V12.5Z"
    fill="white" />
</svg>