<svg width="20" height="20" viewBox="0 0 20 20" fill="none" xmlns="http://www.w3.org/2000/svg">
<path fill-rule="evenodd" clip-rule="evenodd" d="M14 19.5C16.7614 19.5 19 17.2614 19 14.5C19 11.7386 16.7614 9.5 14 9.5C11.2386 9.5 9 11.7386 9 14.5C9 17.2614 11.2386 19.5 14 19.5ZM17.6515 13.395C17.8698 13.1456 17.8445 12.7666 17.5951 12.5484C17.3457 12.3302 16.9667 12.3554 16.7485 12.6048L13.8785 15.8847C13.7376 16.0458 13.4948 16.0674 13.3276 15.9336L11.5748 14.5314C11.3161 14.3244 10.9385 14.3663 10.7315 14.6251C10.5245 14.8839 10.5664 15.2614 10.8252 15.4684L12.578 16.8707C13.2466 17.4056 14.2178 17.3193 14.7816 16.6749L17.6515 13.395Z" fill="white"/>
<path fill-rule="evenodd" clip-rule="evenodd" d="M2.04 0.5C1.46562 0.5 1 0.965625 1 1.54V18.46C1 19.0344 1.46562 19.5 2.04 19.5H10.3335C8.7972 18.3716 7.8 16.5521 7.8 14.4998C7.8 11.0756 10.5758 8.2998 14 8.2998C15.0883 8.2998 16.111 8.58018 17 9.07264V4.5L13 0.5H2.04ZM2.5 4.7C2.5 4.3134 2.8134 4 3.2 4H8.8C9.1866 4 9.5 4.3134 9.5 4.7C9.5 5.0866 9.1866 5.4 8.8 5.4H3.2C2.8134 5.4 2.5 5.0866 2.5 4.7ZM3.2 7C2.8134 7 2.5 7.3134 2.5 7.7C2.5 8.0866 2.8134 8.4 3.2 8.4H6.3C6.6866 8.4 7 8.0866 7 7.7C7 7.3134 6.6866 7 6.3 7H3.2Z" fill="white"/>
</svg>
