<svg width="20" height="20" viewBox="0 0 20 20" fill="none" xmlns="http://www.w3.org/2000/svg">
<path fill-rule="evenodd" clip-rule="evenodd" d="M11.9642 1.52988L9.99869 0.629883L9.99998 0.631176C9.3211 0.9454 8.71722 1.22342 8.18834 1.46264L6.82541 2.06523L6.11937 2.36264C5.77412 2.5023 5.30343 2.67428 4.7086 2.88118L3.35343 3.34023L2.24006 3.70488V10.5131C2.22455 13.1846 4.6517 16.1665 8.44438 18.5019L8.49869 18.5342L9.99869 19.3799C10.8638 18.8937 11.381 18.5976 11.5491 18.4941L11.9215 18.2562C15.4892 15.9454 17.7573 13.0786 17.7573 10.5131V3.70488C16.6905 3.35833 15.8099 3.0648 15.1181 2.82169L14.2207 2.49583L13.7254 2.30187C13.5444 2.22557 13.3336 2.13635 13.0918 2.03031L11.9642 1.52988ZM9.2895 12.579C8.27727 12.579 7.32561 12.1848 6.60991 11.4691C5.89421 10.7534 5.5 9.80173 5.5 8.7895C5.5 7.77727 5.89421 6.82561 6.60991 6.10991C7.32561 5.39421 8.27727 5 9.2895 5C10.3017 5 11.2534 5.39421 11.9691 6.10991C12.6848 6.82561 13.079 7.77727 13.079 8.7895C13.079 9.58901 12.8331 10.3507 12.377 10.9882L14.3094 12.9206C14.5563 13.1675 14.5563 13.5679 14.3094 13.8148C14.1859 13.9383 14.024 14 13.8622 14C13.7003 14 13.5386 13.9383 13.4151 13.8148L11.4819 11.8816C10.8457 12.3347 10.0864 12.579 9.2895 12.579ZM9.2895 6.26466C7.89737 6.26466 6.76466 7.3972 6.76466 8.7895C6.76466 10.1816 7.8972 11.3143 9.2895 11.3143C10.6818 11.3143 11.8143 10.1818 11.8143 8.7895C11.8143 7.39737 10.6816 6.26466 9.2895 6.26466Z" fill="white"/>
</svg>
