<svg width="20" height="20" viewBox="0 0 20 20" fill="none" xmlns="http://www.w3.org/2000/svg">
<path d="M18.9985 15.0251C18.9985 17.0222 15.9753 18.584 15.1847 18.9583C15.1261 18.9858 15.0622 19.0001 14.9975 19C14.9329 18.9999 14.869 18.9855 14.8104 18.9577C14.0205 18.5813 11 17.0112 11 15.0256V10.4461C11.004 10.3669 11.0366 10.2918 11.0917 10.2352C11.1468 10.1786 11.2206 10.1443 11.2991 10.1389C11.3073 10.1378 12.8573 10.096 13.5568 9.83994C13.9856 9.68277 14.4367 9.34094 14.7178 9.10353C14.7968 9.03666 14.8966 9 14.9998 9C15.1029 9 15.2027 9.03666 15.2817 9.10353C15.5634 9.34094 16.0145 9.68277 16.4427 9.83994C17.1423 10.0971 18.6923 10.1378 18.6999 10.1389C18.7785 10.1441 18.8525 10.1782 18.9078 10.2349C18.963 10.2915 18.9957 10.3667 18.9995 10.4461C19.0006 10.4516 18.9995 13.8803 18.9985 15.0251Z" fill="white"/>
<path fill-rule="evenodd" clip-rule="evenodd" d="M6.28782 3.55358L5.52465 1.25H3.04072C2.73288 1.25 2.43765 1.37292 2.21997 1.59171C2.00229 1.8105 1.88 2.10725 1.88 2.41667V17.5833C1.88 17.8928 2.00229 18.1895 2.21997 18.4083C2.43765 18.6271 2.73288 18.75 3.04072 18.75H12.1407C12.0454 18.6788 11.9504 18.6053 11.8562 18.5294C10.9643 17.811 9.8 16.6087 9.8 15.0254V10.416L9.80149 10.3862C9.81991 10.0166 9.97208 9.66474 10.2319 9.39788C10.4916 9.13117 10.8417 8.96784 11.2155 8.94162L11.2165 8.94156L11.2345 8.94044L11.2487 8.93974L11.2596 8.93931L11.2752 8.93875L11.3227 8.93697C11.3634 8.93538 11.4224 8.93286 11.4955 8.92912C11.6423 8.92159 11.8429 8.90921 12.0617 8.88962C12.5463 8.84626 12.9612 8.77992 13.1443 8.71288C13.2348 8.67962 13.3661 8.61085 13.5256 8.50417C13.6789 8.40162 13.8252 8.2865 13.9431 8.1869C14.2379 7.93765 14.6119 7.7998 14.9998 7.7998C15.3873 7.7998 15.7611 7.93743 16.0557 8.1863C16.1743 8.28627 16.3209 8.40153 16.4744 8.50417C16.6344 8.6112 16.7664 8.68028 16.8568 8.71345C17.039 8.78042 17.4529 8.84679 17.9374 8.89001C18.0036 8.89591 18.0681 8.90116 18.13 8.9058V2.41667C18.13 2.10725 18.0077 1.8105 17.79 1.59171C17.5724 1.37292 17.2771 1.25 16.9693 1.25H14.4854L13.7222 3.55358C13.6066 3.90208 13.3848 4.20518 13.0882 4.41991C12.7917 4.63464 12.4354 4.75013 12.0699 4.75H7.94009C7.5746 4.75013 7.21834 4.63464 6.92179 4.41991C6.62523 4.20518 6.40343 3.90208 6.28782 3.55358ZM18.13 10.1089C17.6135 10.073 16.8697 9.99672 16.4427 9.83974C16.0145 9.68257 15.5634 9.34074 15.2817 9.10333C15.2027 9.03646 15.1029 8.9998 14.9998 8.9998C14.8966 8.9998 14.7968 9.03646 14.7178 9.10333C14.4367 9.34074 13.9856 9.68257 13.5568 9.83974C12.8963 10.0816 11.4776 10.1323 11.3145 10.1381L11.2991 10.1387C11.2206 10.1441 11.1468 10.1784 11.0917 10.235C11.0366 10.2916 11.0039 10.3667 11 10.4459V15.0254C11 16.751 13.2813 18.1628 14.3972 18.75H15.6015C16.2738 18.398 17.3661 17.7492 18.13 16.9108V10.1089ZM13.2626 1.25H6.74746L7.38875 3.18433C7.42729 3.30063 7.5013 3.40177 7.60027 3.4734C7.69924 3.54502 7.81814 3.58349 7.94009 3.58333H12.0699C12.1918 3.58336 12.3105 3.54484 12.4094 3.47323C12.5082 3.40161 12.5822 3.30054 12.6207 3.18433L13.2626 1.25ZM4.7 8.4C4.3134 8.4 4 8.0866 4 7.7C4 7.3134 4.3134 7 4.7 7H8.3C8.6866 7 9 7.3134 9 7.7C9 8.0866 8.6866 8.4 8.3 8.4H4.7ZM4 10.7002C4 11.0868 4.3134 11.4002 4.7 11.4002H8.3C8.6866 11.4002 9 11.0868 9 10.7002C9 10.3136 8.6866 10.0002 8.3 10.0002H4.7C4.3134 10.0002 4 10.3136 4 10.7002Z" fill="white"/>
</svg>
