<svg width="20" height="20" viewBox="0 0 20 20" fill="none" xmlns="http://www.w3.org/2000/svg">
<path d="M5 2.5C5 1.39543 5.89543 0.5 7 0.5H13C14.1046 0.5 15 1.39543 15 2.5C15 3.60457 14.1046 4.5 13 4.5H7C5.89543 4.5 5 3.60457 5 2.5Z" fill="white"/>
<path fill-rule="evenodd" clip-rule="evenodd" d="M2.5 2.5H3.8C3.80011 4.26722 5.23276 5.6998 7 5.6998H13C14.7672 5.6998 16.1999 4.26722 16.2 2.5H17.5C18.0523 2.5 18.5 2.94772 18.5 3.5V18.5C18.5 19.0523 18.0523 19.5 17.5 19.5H2.5C1.94772 19.5 1.5 19.0523 1.5 18.5V3.5C1.5 2.94772 1.94772 2.5 2.5 2.5ZM15 2.5H5C5.00011 3.60448 5.8955 4.4998 7 4.4998H13C14.1045 4.4998 14.9999 3.60448 15 2.5ZM12.7335 10.7413C12.9301 11.0463 13.0771 11.3863 13.163 11.75H14V13.25H13.163C13.082 13.5929 12.9467 13.9148 12.7667 14.2061L13.591 15.0304L12.5303 16.091L11.706 15.2668C11.4147 15.4468 11.0928 15.582 10.75 15.663V16.5H9.25V15.663C8.88634 15.5771 8.54629 15.4301 8.24127 15.2335L7.38372 16.091L6.32306 15.0304L7.2009 14.1525C7.03698 13.8755 6.91303 13.572 6.83697 13.25H6V11.75H6.83697C6.91795 11.4072 7.05324 11.0853 7.23325 10.794L6.46967 10.0304L7.53033 8.96973L8.2939 9.7333C8.58523 9.55326 8.90712 9.41796 9.25 9.33697V8.5H10.75V9.33697C11.072 9.41303 11.3755 9.53698 11.6525 9.7009L12.3837 8.96973L13.4444 10.0304L12.7335 10.7413ZM8.25 12.5C8.25 11.5335 9.0335 10.75 10 10.75C10.9665 10.75 11.75 11.5335 11.75 12.5C11.75 13.4665 10.9665 14.25 10 14.25C9.0335 14.25 8.25 13.4665 8.25 12.5Z" fill="white"/>
</svg>
