<svg width="20" height="20" viewBox="0 0 20 20" fill="none" xmlns="http://www.w3.org/2000/svg">
<g clip-path="url(#clip0_23249_5407)">
<rect x="0.635" y="1.26" width="18.73" height="17.48" stroke="#923DFF" stroke-width="0.02"/>
<rect x="1.26" y="0.635" width="17.48" height="18.73" stroke="#923DFF" stroke-width="0.02"/>
<rect x="0.635" y="0.635" width="18.73" height="18.73" rx="9.365" stroke="#FF5C28" stroke-width="0.02"/>
<rect x="1.26" y="1.26" width="17.48" height="17.48" stroke="#FD8863" stroke-width="0.02"/>
<path fill-rule="evenodd" clip-rule="evenodd" d="M2 3.5L5 0.5H16.6C17.3732 0.5 18 1.1268 18 1.9V11.1689C17.2646 10.7435 16.4107 10.5 15.5 10.5C12.7386 10.5 10.5 12.7386 10.5 15.5C10.5 17.1356 11.2853 18.5878 12.4995 19.5H3.4C2.6268 19.5 2 18.8732 2 18.1V3.5ZM5.81074 6.3875H11.0281C11.335 6.3875 11.5908 6.6275 11.5908 6.9375C11.5908 7.2375 11.3453 7.4875 11.0281 7.4875H4.58312C4.31714 7.4875 4.08184 7.2875 4.04092 7.0275C3.95908 6.8275 4 6.5875 4.16368 6.4275L6.49616 4.1575C6.72123 3.9475 7.06905 3.9475 7.28389 4.1575C7.50895 4.3675 7.50895 4.7175 7.29412 4.9375L5.81074 6.3875ZM12.6752 6.9375C12.6752 6.6375 12.9207 6.3875 13.2379 6.3875H15.4373C15.7442 6.3875 16 6.6275 16 6.9375C16 7.2375 15.7545 7.4875 15.4373 7.4875H13.2379C12.9309 7.4875 12.6752 7.2475 12.6752 6.9375Z" fill="white"/>
<path fill-rule="evenodd" clip-rule="evenodd" d="M12.61 15.4701C12.61 16.9901 13.84 18.2301 15.37 18.2301C16.89 18.2301 18.13 16.9901 18.13 15.4701C18.13 13.9501 16.9 12.7101 15.37 12.7101C13.85 12.7101 12.61 13.9501 12.61 15.4701ZM11.5 15.4701C11.5 13.3301 13.24 11.6001 15.37 11.6001C17.5 11.6001 19.24 13.3301 19.24 15.4701C19.24 17.6101 17.51 19.3401 15.37 19.3401C13.23 19.3401 11.5 17.6101 11.5 15.4701ZM13.71 15.4701C13.71 14.5501 14.45 13.8101 15.37 13.8101C16.28 13.8101 17.03 14.5501 17.03 15.4701C17.03 16.3901 16.29 17.1301 15.37 17.1301C14.45 17.1301 13.71 16.3901 13.71 15.4701Z" fill="white"/>
</g>
<defs>
<clipPath id="clip0_23249_5407">
<rect width="20" height="20" fill="white"/>
</clipPath>
</defs>
</svg>
