<svg width="20" height="20" viewBox="0 0 20 20" fill="none" xmlns="http://www.w3.org/2000/svg">
<path d="M16.439 12.0803L16.4459 12.0841L19.024 13.5287L19.0324 13.5335C19.2232 13.6442 19.3414 13.8422 19.3471 14.057L19.3473 14.0653V16.7375L19.3472 16.747C19.3439 16.9592 19.2305 17.1563 19.0449 17.2696L19.0375 17.274L19.0306 17.2781L16.4516 18.7629L16.4425 18.7681C16.2439 18.8782 16 18.8778 15.8016 18.7664L15.7945 18.7623L13.2166 17.2781L13.2082 17.2732C13.0211 17.1617 12.9057 16.9657 12.9 16.7535L12.8999 16.7464V14.0731L12.9 14.0636C12.9033 13.8488 13.0194 13.6496 13.2087 13.5371L13.2166 13.5324L13.2248 13.5278L15.8021 12.0836C15.9991 11.9733 16.241 11.9721 16.439 12.0803ZM16.1236 14.6672C15.6997 14.6672 15.356 15.0109 15.356 15.4348C15.356 15.8586 15.6997 16.2023 16.1236 16.2023C16.5475 16.2023 16.8911 15.8586 16.8911 15.4348C16.8911 15.0109 16.5475 14.6672 16.1236 14.6672Z" fill="white"/>
<path fill-rule="evenodd" clip-rule="evenodd" d="M11.421 3.68424V0.500022L2.60526 0.5C1.71054 0.552651 1 1.28949 1 2.18423V17.8947C1.02631 18.7895 1.76317 19.5 2.68421 19.5H14.2698L12.5093 18.4863L12.4915 18.4759C11.9004 18.1236 11.5192 17.4923 11.5006 16.7907L11.5003 16.78L11.5 16.7596V14.0617L11.5002 14.042C11.5112 13.3311 11.895 12.6895 12.4934 12.3338L12.4998 12.33L12.5173 12.3197L12.5405 12.3066L15.1179 10.8624C15.4559 10.673 15.8349 10.5861 16.2105 10.6019V5.36844H13.0263C12.1316 5.31579 11.421 4.57896 11.421 3.68424ZM3.52632 7.00002H9.13158C9.26315 7.00002 9.36839 7.07897 9.36839 7.23686V8.36845C9.36852 8.39959 9.36248 8.43044 9.35062 8.45923C9.33876 8.48802 9.32132 8.51418 9.2993 8.53619C9.27728 8.55821 9.25113 8.57565 9.22234 8.5875C9.19355 8.59936 9.16269 8.60539 9.13156 8.60527H3.52632C3.49519 8.6054 3.46433 8.59936 3.43554 8.58751C3.40674 8.57565 3.38058 8.55822 3.35856 8.5362C3.33654 8.51418 3.3191 8.48803 3.30724 8.45924C3.29538 8.43045 3.28934 8.39959 3.28947 8.36845V7.23686C3.28934 7.20572 3.29538 7.17486 3.30724 7.14607C3.31909 7.11727 3.33654 7.09111 3.35856 7.0691C3.38058 7.04708 3.40674 7.02964 3.43553 7.01778C3.46433 7.00593 3.49518 6.99989 3.52632 7.00002ZM3.52632 3.55264H9.13158C9.16271 3.55251 9.19355 3.55857 9.22234 3.57043C9.25113 3.58228 9.27728 3.59972 9.2993 3.62173C9.32132 3.64375 9.33876 3.66991 9.35062 3.6987C9.36248 3.72748 9.36852 3.75834 9.36839 3.78947V4.92107C9.36852 4.95221 9.36248 4.98306 9.35062 5.01186C9.33877 5.04065 9.32133 5.06681 9.29931 5.08882C9.27729 5.11084 9.25113 5.12828 9.22234 5.14014C9.19355 5.15199 9.16269 5.15803 9.13156 5.1579H3.52632C3.49518 5.15804 3.46433 5.152 3.43553 5.14014C3.40674 5.12829 3.38058 5.11085 3.35856 5.08883C3.33654 5.06681 3.31909 5.04065 3.30724 5.01186C3.29538 4.98307 3.28934 4.95221 3.28947 4.92107V3.78949C3.28934 3.75835 3.29537 3.72749 3.30723 3.6987C3.31909 3.6699 3.33653 3.64374 3.35855 3.62172C3.38057 3.5997 3.40673 3.58226 3.43553 3.5704C3.46432 3.55855 3.49518 3.55251 3.52632 3.55264Z" fill="white"/>
<path d="M16.2632 4.07896L12.6579 0.5V3.23684C12.6579 3.71055 13.0263 4.07896 13.5 4.07896H16.2632Z" fill="white"/>
</svg>
