<svg width="20" height="20" viewBox="0 0 20 20" fill="none" xmlns="http://www.w3.org/2000/svg">
  <path
    d="M6.17188 13.125H7.34375C7.42969 13.125 7.5 13.0547 7.5 12.9688V7.03125C7.5 6.94531 7.42969 6.875 7.34375 6.875H6.17188C6.08594 6.875 6.01562 6.94531 6.01562 7.03125V12.9688C6.01562 13.0547 6.08594 13.125 6.17188 13.125ZM10 12.1484C10.4316 12.1484 10.7812 11.7988 10.7812 11.3867C10.7812 10.9355 10.4316 10.5859 10 10.5859C9.56836 10.5859 9.21875 10.9355 9.21875 11.3867C9.21875 11.7988 9.56836 12.1484 10 12.1484ZM10 9.41406C10.4316 9.41406 10.7812 9.06445 10.7812 8.65234C10.7812 8.20117 10.4316 7.85156 10 7.85156C9.56836 7.85156 9.21875 8.20117 9.21875 8.65234C9.21875 9.06445 9.56836 9.41406 10 9.41406Z"
    fill="#6C7380" />
  <path
    d="M17.1875 2.1875H2.8125C2.4668 2.1875 2.1875 2.4668 2.1875 2.8125V17.1875C2.1875 17.5332 2.4668 17.8125 2.8125 17.8125H17.1875C17.5332 17.8125 17.8125 17.5332 17.8125 17.1875V2.8125C17.8125 2.4668 17.5332 2.1875 17.1875 2.1875ZM16.4062 16.4062H3.59375V3.59375H16.4062V16.4062Z"
    fill="#6C7380" />
  <path
    d="M12.6562 13.125H13.8281C13.9141 13.125 13.9844 13.0547 13.9844 12.9688V7.03125C13.9844 6.94531 13.9141 6.875 13.8281 6.875H12.6562C12.5703 6.875 12.5 6.94531 12.5 7.03125V12.9688C12.5 13.0547 12.5703 13.125 12.6562 13.125Z"
    fill="#6C7380" />
</svg>