<svg width="24" height="24" viewBox="0 0 24 24" fill="none" xmlns="http://www.w3.org/2000/svg">
  <rect x="2" y="2" width="19.6" height="19.6" rx="1.2" stroke="#242526" stroke-width="1.2" />
  <circle cx="6" cy="14" r="1.5" fill="#242526" />
  <circle cx="10" cy="14" r="1.5" fill="#242526" />
  <rect x="4.5" y="17.5" width="15" height="2" rx="1" fill="#242526" />
  <rect x="12.5" y="13" width="7" height="2" rx="1" fill="#242526" />
  <mask id="path-6-outside-1_16719_23959" maskUnits="userSpaceOnUse" x="10.6951" y="3.44922" width="9" height="9"
    fill="black">
    <rect fill="white" x="10.6951" y="3.44922" width="9" height="9" />
    <path
      d="M14.0442 6.69985C14.2188 6.63437 14.3716 6.60164 14.5025 6.60164C14.6553 6.57981 14.7644 6.60164 14.8299 6.66711C14.8954 6.73258 14.8845 6.79806 14.7972 6.86353C14.7317 6.929 14.4807 7.0163 14.0442 7.12542V7.91109C14.4589 7.99839 14.7099 8.0966 14.7972 8.20572C14.8845 8.31484 14.9063 8.4567 14.8626 8.6313C14.819 8.78407 14.7317 8.8168 14.6008 8.7295C14.4916 8.62038 14.3061 8.40214 14.0442 8.07478C14.0442 8.75133 14.0333 9.3515 14.0115 9.87528C13.9897 10.3772 13.946 10.8137 13.8806 11.1847C13.8151 11.5557 13.706 11.5994 13.5532 11.3157C13.4222 11.0538 13.3895 10.7919 13.455 10.53C13.5423 10.2681 13.5968 9.95166 13.6187 9.58065C13.6623 9.20964 13.695 8.60947 13.7169 7.78015C13.4986 8.15116 13.2149 8.53309 12.8657 8.92592C12.5165 9.29694 12.2001 9.56974 11.9164 9.74433C11.6327 9.91893 11.6217 9.86437 11.8836 9.58065C12.1455 9.29694 12.4292 8.93684 12.7348 8.50035C13.0621 8.06386 13.324 7.6492 13.5205 7.25637C13.2367 7.30001 13.0185 7.32184 12.8657 7.32184C12.7348 7.32184 12.582 7.30001 12.4074 7.25637C12.2328 7.19089 12.2656 7.13633 12.5056 7.09268C12.7457 7.02721 13.1494 6.91809 13.7169 6.76532C13.7169 6.35066 13.706 5.94691 13.6841 5.55407C13.6841 5.13941 13.6187 4.84478 13.4877 4.67019C13.3568 4.47377 13.3895 4.4083 13.5859 4.47377C13.8042 4.51742 13.9897 4.58289 14.1424 4.67019C14.2952 4.75749 14.317 4.88843 14.2079 5.06303C14.1206 5.2158 14.0661 5.7614 14.0442 6.69985ZM16.7614 6.63437C16.9578 6.83079 16.9905 6.98356 16.8596 7.09268C16.7286 7.17998 16.6086 7.2891 16.4995 7.42005C16.4122 7.52917 16.2703 7.68194 16.0739 7.87836C15.8993 8.07478 15.9102 8.17299 16.1066 8.17299H16.8923C17.2851 7.6492 17.4597 7.2891 17.4161 7.09268C17.3724 6.89627 17.4379 6.86353 17.6125 6.99447C17.8089 7.1036 17.9399 7.21272 18.0053 7.32184C18.0708 7.40914 18.0599 7.49643 17.9726 7.58373C17.8853 7.6492 17.6998 7.85653 17.4161 8.20572C17.1542 8.53309 16.8923 8.82771 16.6304 9.08961C16.3903 9.3515 16.063 9.64612 15.6483 9.97349C15.2555 10.279 14.9063 10.4864 14.6008 10.5955C14.317 10.6828 14.3279 10.6173 14.6335 10.3991C14.9609 10.159 15.321 9.85345 15.7138 9.48244C16.1066 9.08961 16.434 8.71859 16.6959 8.3694C16.063 8.47853 15.6483 8.58765 15.4519 8.69677C15.2773 8.78407 15.19 8.71859 15.19 8.50035C15.19 8.26028 15.2664 8.11842 15.4192 8.07478C15.5719 8.0093 15.7574 7.8238 15.9757 7.51826C16.2157 7.21272 16.3358 6.95083 16.3358 6.73258C15.8993 6.81988 15.6265 6.86353 15.5174 6.86353C15.4083 6.8417 15.2773 6.78714 15.1245 6.69985C14.9936 6.59073 15.0263 6.53616 15.2227 6.53616C15.441 6.51434 15.7465 6.47069 16.1394 6.40522C16.554 6.33975 16.9359 6.27427 17.2851 6.2088C17.6343 6.1215 17.9508 6.03421 18.2345 5.94691C18.54 5.85961 18.8019 5.89235 19.0202 6.04512C19.2602 6.19789 19.2275 6.2961 18.922 6.33975C18.6164 6.36157 18.2672 6.40522 17.8744 6.47069C17.5034 6.51434 17.1324 6.5689 16.7614 6.63437ZM17.5143 9.94075C18.1472 10.0717 18.5619 10.2354 18.7583 10.4318C18.9547 10.6282 19.0311 10.8355 18.9874 11.0538C18.9438 11.2939 18.791 11.2829 18.5291 11.0211C18.2672 10.781 17.9071 10.4536 17.4488 10.039C17.1869 10.3227 16.8814 10.5846 16.5322 10.8246C16.2048 11.0429 15.8666 11.1956 15.5174 11.2829C15.1682 11.3921 15.1354 11.3593 15.4192 11.1847C15.7029 11.032 16.0193 10.8137 16.3685 10.53C16.7177 10.2245 17.056 9.85345 17.3833 9.41697C17.7107 8.95866 17.8635 8.6313 17.8417 8.43488C17.8417 8.23846 17.918 8.19481 18.0708 8.30393C18.2236 8.39123 18.3436 8.48944 18.4309 8.59856C18.54 8.68586 18.5509 8.76224 18.4636 8.82771C18.3764 8.89319 18.2781 9.00231 18.169 9.15508C18.0817 9.28602 17.8635 9.54791 17.5143 9.94075ZM16.5649 5.1285C16.3249 4.80114 16.2921 4.64837 16.4667 4.67019C16.6413 4.67019 16.8268 4.70293 17.0232 4.7684C17.2197 4.83387 17.3506 4.94299 17.4161 5.09576C17.4816 5.22671 17.4816 5.37948 17.4161 5.55407C17.3506 5.70684 17.2306 5.72867 17.056 5.61955C16.9032 5.4886 16.7395 5.32492 16.5649 5.1285Z" />
  </mask>
  <path
    d="M14.0442 6.69985C14.2188 6.63437 14.3716 6.60164 14.5025 6.60164C14.6553 6.57981 14.7644 6.60164 14.8299 6.66711C14.8954 6.73258 14.8845 6.79806 14.7972 6.86353C14.7317 6.929 14.4807 7.0163 14.0442 7.12542V7.91109C14.4589 7.99839 14.7099 8.0966 14.7972 8.20572C14.8845 8.31484 14.9063 8.4567 14.8626 8.6313C14.819 8.78407 14.7317 8.8168 14.6008 8.7295C14.4916 8.62038 14.3061 8.40214 14.0442 8.07478C14.0442 8.75133 14.0333 9.3515 14.0115 9.87528C13.9897 10.3772 13.946 10.8137 13.8806 11.1847C13.8151 11.5557 13.706 11.5994 13.5532 11.3157C13.4222 11.0538 13.3895 10.7919 13.455 10.53C13.5423 10.2681 13.5968 9.95166 13.6187 9.58065C13.6623 9.20964 13.695 8.60947 13.7169 7.78015C13.4986 8.15116 13.2149 8.53309 12.8657 8.92592C12.5165 9.29694 12.2001 9.56974 11.9164 9.74433C11.6327 9.91893 11.6217 9.86437 11.8836 9.58065C12.1455 9.29694 12.4292 8.93684 12.7348 8.50035C13.0621 8.06386 13.324 7.6492 13.5205 7.25637C13.2367 7.30001 13.0185 7.32184 12.8657 7.32184C12.7348 7.32184 12.582 7.30001 12.4074 7.25637C12.2328 7.19089 12.2656 7.13633 12.5056 7.09268C12.7457 7.02721 13.1494 6.91809 13.7169 6.76532C13.7169 6.35066 13.706 5.94691 13.6841 5.55407C13.6841 5.13941 13.6187 4.84478 13.4877 4.67019C13.3568 4.47377 13.3895 4.4083 13.5859 4.47377C13.8042 4.51742 13.9897 4.58289 14.1424 4.67019C14.2952 4.75749 14.317 4.88843 14.2079 5.06303C14.1206 5.2158 14.0661 5.7614 14.0442 6.69985ZM16.7614 6.63437C16.9578 6.83079 16.9905 6.98356 16.8596 7.09268C16.7286 7.17998 16.6086 7.2891 16.4995 7.42005C16.4122 7.52917 16.2703 7.68194 16.0739 7.87836C15.8993 8.07478 15.9102 8.17299 16.1066 8.17299H16.8923C17.2851 7.6492 17.4597 7.2891 17.4161 7.09268C17.3724 6.89627 17.4379 6.86353 17.6125 6.99447C17.8089 7.1036 17.9399 7.21272 18.0053 7.32184C18.0708 7.40914 18.0599 7.49643 17.9726 7.58373C17.8853 7.6492 17.6998 7.85653 17.4161 8.20572C17.1542 8.53309 16.8923 8.82771 16.6304 9.08961C16.3903 9.3515 16.063 9.64612 15.6483 9.97349C15.2555 10.279 14.9063 10.4864 14.6008 10.5955C14.317 10.6828 14.3279 10.6173 14.6335 10.3991C14.9609 10.159 15.321 9.85345 15.7138 9.48244C16.1066 9.08961 16.434 8.71859 16.6959 8.3694C16.063 8.47853 15.6483 8.58765 15.4519 8.69677C15.2773 8.78407 15.19 8.71859 15.19 8.50035C15.19 8.26028 15.2664 8.11842 15.4192 8.07478C15.5719 8.0093 15.7574 7.8238 15.9757 7.51826C16.2157 7.21272 16.3358 6.95083 16.3358 6.73258C15.8993 6.81988 15.6265 6.86353 15.5174 6.86353C15.4083 6.8417 15.2773 6.78714 15.1245 6.69985C14.9936 6.59073 15.0263 6.53616 15.2227 6.53616C15.441 6.51434 15.7465 6.47069 16.1394 6.40522C16.554 6.33975 16.9359 6.27427 17.2851 6.2088C17.6343 6.1215 17.9508 6.03421 18.2345 5.94691C18.54 5.85961 18.8019 5.89235 19.0202 6.04512C19.2602 6.19789 19.2275 6.2961 18.922 6.33975C18.6164 6.36157 18.2672 6.40522 17.8744 6.47069C17.5034 6.51434 17.1324 6.5689 16.7614 6.63437ZM17.5143 9.94075C18.1472 10.0717 18.5619 10.2354 18.7583 10.4318C18.9547 10.6282 19.0311 10.8355 18.9874 11.0538C18.9438 11.2939 18.791 11.2829 18.5291 11.0211C18.2672 10.781 17.9071 10.4536 17.4488 10.039C17.1869 10.3227 16.8814 10.5846 16.5322 10.8246C16.2048 11.0429 15.8666 11.1956 15.5174 11.2829C15.1682 11.3921 15.1354 11.3593 15.4192 11.1847C15.7029 11.032 16.0193 10.8137 16.3685 10.53C16.7177 10.2245 17.056 9.85345 17.3833 9.41697C17.7107 8.95866 17.8635 8.6313 17.8417 8.43488C17.8417 8.23846 17.918 8.19481 18.0708 8.30393C18.2236 8.39123 18.3436 8.48944 18.4309 8.59856C18.54 8.68586 18.5509 8.76224 18.4636 8.82771C18.3764 8.89319 18.2781 9.00231 18.169 9.15508C18.0817 9.28602 17.8635 9.54791 17.5143 9.94075ZM16.5649 5.1285C16.3249 4.80114 16.2921 4.64837 16.4667 4.67019C16.6413 4.67019 16.8268 4.70293 17.0232 4.7684C17.2197 4.83387 17.3506 4.94299 17.4161 5.09576C17.4816 5.22671 17.4816 5.37948 17.4161 5.55407C17.3506 5.70684 17.2306 5.72867 17.056 5.61955C16.9032 5.4886 16.7395 5.32492 16.5649 5.1285Z"
    fill="black" />
  <path
    d="M14.0442 6.69985C14.2188 6.63437 14.3716 6.60164 14.5025 6.60164C14.6553 6.57981 14.7644 6.60164 14.8299 6.66711C14.8954 6.73258 14.8845 6.79806 14.7972 6.86353C14.7317 6.929 14.4807 7.0163 14.0442 7.12542V7.91109C14.4589 7.99839 14.7099 8.0966 14.7972 8.20572C14.8845 8.31484 14.9063 8.4567 14.8626 8.6313C14.819 8.78407 14.7317 8.8168 14.6008 8.7295C14.4916 8.62038 14.3061 8.40214 14.0442 8.07478C14.0442 8.75133 14.0333 9.3515 14.0115 9.87528C13.9897 10.3772 13.946 10.8137 13.8806 11.1847C13.8151 11.5557 13.706 11.5994 13.5532 11.3157C13.4222 11.0538 13.3895 10.7919 13.455 10.53C13.5423 10.2681 13.5968 9.95166 13.6187 9.58065C13.6623 9.20964 13.695 8.60947 13.7169 7.78015C13.4986 8.15116 13.2149 8.53309 12.8657 8.92592C12.5165 9.29694 12.2001 9.56974 11.9164 9.74433C11.6327 9.91893 11.6217 9.86437 11.8836 9.58065C12.1455 9.29694 12.4292 8.93684 12.7348 8.50035C13.0621 8.06386 13.324 7.6492 13.5205 7.25637C13.2367 7.30001 13.0185 7.32184 12.8657 7.32184C12.7348 7.32184 12.582 7.30001 12.4074 7.25637C12.2328 7.19089 12.2656 7.13633 12.5056 7.09268C12.7457 7.02721 13.1494 6.91809 13.7169 6.76532C13.7169 6.35066 13.706 5.94691 13.6841 5.55407C13.6841 5.13941 13.6187 4.84478 13.4877 4.67019C13.3568 4.47377 13.3895 4.4083 13.5859 4.47377C13.8042 4.51742 13.9897 4.58289 14.1424 4.67019C14.2952 4.75749 14.317 4.88843 14.2079 5.06303C14.1206 5.2158 14.0661 5.7614 14.0442 6.69985ZM16.7614 6.63437C16.9578 6.83079 16.9905 6.98356 16.8596 7.09268C16.7286 7.17998 16.6086 7.2891 16.4995 7.42005C16.4122 7.52917 16.2703 7.68194 16.0739 7.87836C15.8993 8.07478 15.9102 8.17299 16.1066 8.17299H16.8923C17.2851 7.6492 17.4597 7.2891 17.4161 7.09268C17.3724 6.89627 17.4379 6.86353 17.6125 6.99447C17.8089 7.1036 17.9399 7.21272 18.0053 7.32184C18.0708 7.40914 18.0599 7.49643 17.9726 7.58373C17.8853 7.6492 17.6998 7.85653 17.4161 8.20572C17.1542 8.53309 16.8923 8.82771 16.6304 9.08961C16.3903 9.3515 16.063 9.64612 15.6483 9.97349C15.2555 10.279 14.9063 10.4864 14.6008 10.5955C14.317 10.6828 14.3279 10.6173 14.6335 10.3991C14.9609 10.159 15.321 9.85345 15.7138 9.48244C16.1066 9.08961 16.434 8.71859 16.6959 8.3694C16.063 8.47853 15.6483 8.58765 15.4519 8.69677C15.2773 8.78407 15.19 8.71859 15.19 8.50035C15.19 8.26028 15.2664 8.11842 15.4192 8.07478C15.5719 8.0093 15.7574 7.8238 15.9757 7.51826C16.2157 7.21272 16.3358 6.95083 16.3358 6.73258C15.8993 6.81988 15.6265 6.86353 15.5174 6.86353C15.4083 6.8417 15.2773 6.78714 15.1245 6.69985C14.9936 6.59073 15.0263 6.53616 15.2227 6.53616C15.441 6.51434 15.7465 6.47069 16.1394 6.40522C16.554 6.33975 16.9359 6.27427 17.2851 6.2088C17.6343 6.1215 17.9508 6.03421 18.2345 5.94691C18.54 5.85961 18.8019 5.89235 19.0202 6.04512C19.2602 6.19789 19.2275 6.2961 18.922 6.33975C18.6164 6.36157 18.2672 6.40522 17.8744 6.47069C17.5034 6.51434 17.1324 6.5689 16.7614 6.63437ZM17.5143 9.94075C18.1472 10.0717 18.5619 10.2354 18.7583 10.4318C18.9547 10.6282 19.0311 10.8355 18.9874 11.0538C18.9438 11.2939 18.791 11.2829 18.5291 11.0211C18.2672 10.781 17.9071 10.4536 17.4488 10.039C17.1869 10.3227 16.8814 10.5846 16.5322 10.8246C16.2048 11.0429 15.8666 11.1956 15.5174 11.2829C15.1682 11.3921 15.1354 11.3593 15.4192 11.1847C15.7029 11.032 16.0193 10.8137 16.3685 10.53C16.7177 10.2245 17.056 9.85345 17.3833 9.41697C17.7107 8.95866 17.8635 8.6313 17.8417 8.43488C17.8417 8.23846 17.918 8.19481 18.0708 8.30393C18.2236 8.39123 18.3436 8.48944 18.4309 8.59856C18.54 8.68586 18.5509 8.76224 18.4636 8.82771C18.3764 8.89319 18.2781 9.00231 18.169 9.15508C18.0817 9.28602 17.8635 9.54791 17.5143 9.94075ZM16.5649 5.1285C16.3249 4.80114 16.2921 4.64837 16.4667 4.67019C16.6413 4.67019 16.8268 4.70293 17.0232 4.7684C17.2197 4.83387 17.3506 4.94299 17.4161 5.09576C17.4816 5.22671 17.4816 5.37948 17.4161 5.55407C17.3506 5.70684 17.2306 5.72867 17.056 5.61955C16.9032 5.4886 16.7395 5.32492 16.5649 5.1285Z"
    stroke="black" stroke-width="0.179649" mask="url(#path-6-outside-1_16719_23959)" />
  <mask id="path-7-outside-2_16719_23959" maskUnits="userSpaceOnUse" x="3" y="3" width="8" height="9" fill="black">
    <rect fill="white" x="3" y="3" width="8" height="9" />
    <path
      d="M6.18695 8.8063C6.51432 8.78448 6.80894 8.75174 7.07084 8.70809C7.35455 8.64262 7.56188 8.58806 7.69283 8.54441C7.82377 8.47894 7.94381 8.46802 8.05293 8.51167C8.18387 8.55532 8.31482 8.63171 8.44577 8.74083C8.59854 8.84995 8.60945 8.94816 8.4785 9.03546C8.36938 9.10093 8.26026 9.22096 8.15114 9.39556C8.04202 9.54833 7.90016 9.74474 7.72556 9.98481C8.33664 10.334 8.78404 10.5741 9.06776 10.705C9.3733 10.8141 9.61336 10.8796 9.78796 10.9014C9.96255 10.9451 10.2244 10.9887 10.5736 11.0324C10.9228 11.0979 10.8901 11.1633 10.4754 11.2288C10.0826 11.2943 9.75522 11.3379 9.49333 11.3597C9.25326 11.4034 9.05684 11.3816 8.90407 11.2943C8.7513 11.2288 8.5658 11.1197 8.34756 10.9669C8.12931 10.8141 7.81286 10.585 7.3982 10.2794C6.7653 10.8032 6.11057 11.0869 5.43401 11.1306C4.75746 11.1742 4.67016 11.1306 5.17212 10.9996C5.67408 10.8687 6.08874 10.705 6.41611 10.5086C6.74347 10.3122 6.97263 10.1485 7.10357 10.0175C6.49249 9.51559 6.05601 9.27552 5.79412 9.29735C5.33581 9.75566 4.86658 10.0939 4.38645 10.3122C3.90632 10.5304 3.87358 10.4977 4.28824 10.214C4.7029 9.90843 5.063 9.55924 5.36854 9.1664C5.69591 8.77356 5.90324 8.4462 5.99053 8.18431C5.94689 7.87877 5.8705 7.51867 5.76138 7.10401C5.67408 6.68935 5.58678 6.42745 5.49949 6.31833C5.43401 6.20921 5.45584 6.14374 5.56496 6.12191C5.69591 6.10009 5.81594 6.10009 5.92506 6.12191C6.03418 6.14374 6.33972 6.111 6.84168 6.02371C7.34364 5.93641 7.66009 5.84911 7.79104 5.76181C7.94381 5.67452 8.09658 5.66361 8.24935 5.72908C8.42394 5.79455 8.5658 5.87094 8.67492 5.95823C8.80587 6.04553 8.81678 6.13283 8.70766 6.22012C8.62036 6.30742 8.53306 6.5584 8.44577 6.97306C8.38029 7.38772 8.29299 7.70417 8.18387 7.92242C8.09658 8.11884 8.02019 8.19522 7.95472 8.15157C7.88925 8.10792 7.82377 8.02063 7.7583 7.88968C7.0381 7.95515 6.53614 7.9988 6.25242 8.02063C6.25242 8.10792 6.2306 8.18431 6.18695 8.24978C6.40519 8.38073 6.48158 8.47894 6.41611 8.54441C6.35063 8.60988 6.27425 8.69718 6.18695 8.8063ZM6.25242 7.79147C7.08175 7.70417 7.61644 7.64961 7.85651 7.62779C7.92198 7.3659 7.96563 7.06036 7.98746 6.71117C8.00928 6.34016 7.95472 6.14374 7.82377 6.12191C7.69283 6.10009 7.1254 6.16556 6.12148 6.31833L6.18695 6.90759C6.53614 6.86394 6.83077 6.80938 7.07084 6.74391C7.33273 6.67843 7.50732 6.70026 7.59462 6.80938C7.70374 6.89668 7.58371 6.97306 7.23452 7.03853C6.88533 7.10401 6.54705 7.13674 6.21969 7.13674L6.25242 7.79147ZM5.89232 5.3035C6.21969 5.3035 6.7653 5.2053 7.52915 5.00888C8.29299 4.81246 8.76222 4.74699 8.93681 4.81246C9.11141 4.87793 9.15505 4.95432 9.06776 5.04161C8.98046 5.10709 8.57671 5.2053 7.85651 5.33624C7.15813 5.44536 6.68891 5.49992 6.44884 5.49992C6.2306 5.49992 6.00145 5.48901 5.76138 5.46719C5.47766 5.81638 5.16121 6.07827 4.81202 6.25286C4.48466 6.42745 4.47375 6.36198 4.77929 6.05644C5.10665 5.7509 5.39037 5.41263 5.63043 5.04161C5.8705 4.64878 5.96871 4.36506 5.92506 4.19047C5.90324 4.01587 5.96871 3.96131 6.12148 4.02678C6.29607 4.09226 6.44884 4.17955 6.57979 4.28868C6.73256 4.37597 6.74347 4.46327 6.61253 4.55057C6.5034 4.61604 6.26334 4.86702 5.89232 5.3035ZM5.92506 9.13366C6.2306 9.17731 6.45976 9.24279 6.61253 9.33008C6.78712 9.41738 7.0381 9.55924 7.36546 9.75566C7.45276 9.66836 7.54006 9.54833 7.62735 9.39556C7.71465 9.22096 7.76921 9.09002 7.79104 9.00272C7.81286 8.91542 7.78012 8.86086 7.69283 8.83904C7.62735 8.81721 7.26725 8.87177 6.61253 9.00272C6.45976 9.06819 6.28516 9.04637 6.08874 8.93725L5.92506 9.13366Z" />
  </mask>
  <path
    d="M6.18695 8.8063C6.51432 8.78448 6.80894 8.75174 7.07084 8.70809C7.35455 8.64262 7.56188 8.58806 7.69283 8.54441C7.82377 8.47894 7.94381 8.46802 8.05293 8.51167C8.18387 8.55532 8.31482 8.63171 8.44577 8.74083C8.59854 8.84995 8.60945 8.94816 8.4785 9.03546C8.36938 9.10093 8.26026 9.22096 8.15114 9.39556C8.04202 9.54833 7.90016 9.74474 7.72556 9.98481C8.33664 10.334 8.78404 10.5741 9.06776 10.705C9.3733 10.8141 9.61336 10.8796 9.78796 10.9014C9.96255 10.9451 10.2244 10.9887 10.5736 11.0324C10.9228 11.0979 10.8901 11.1633 10.4754 11.2288C10.0826 11.2943 9.75522 11.3379 9.49333 11.3597C9.25326 11.4034 9.05684 11.3816 8.90407 11.2943C8.7513 11.2288 8.5658 11.1197 8.34756 10.9669C8.12931 10.8141 7.81286 10.585 7.3982 10.2794C6.7653 10.8032 6.11057 11.0869 5.43401 11.1306C4.75746 11.1742 4.67016 11.1306 5.17212 10.9996C5.67408 10.8687 6.08874 10.705 6.41611 10.5086C6.74347 10.3122 6.97263 10.1485 7.10357 10.0175C6.49249 9.51559 6.05601 9.27552 5.79412 9.29735C5.33581 9.75566 4.86658 10.0939 4.38645 10.3122C3.90632 10.5304 3.87358 10.4977 4.28824 10.214C4.7029 9.90843 5.063 9.55924 5.36854 9.1664C5.69591 8.77356 5.90324 8.4462 5.99053 8.18431C5.94689 7.87877 5.8705 7.51867 5.76138 7.10401C5.67408 6.68935 5.58678 6.42745 5.49949 6.31833C5.43401 6.20921 5.45584 6.14374 5.56496 6.12191C5.69591 6.10009 5.81594 6.10009 5.92506 6.12191C6.03418 6.14374 6.33972 6.111 6.84168 6.02371C7.34364 5.93641 7.66009 5.84911 7.79104 5.76181C7.94381 5.67452 8.09658 5.66361 8.24935 5.72908C8.42394 5.79455 8.5658 5.87094 8.67492 5.95823C8.80587 6.04553 8.81678 6.13283 8.70766 6.22012C8.62036 6.30742 8.53306 6.5584 8.44577 6.97306C8.38029 7.38772 8.29299 7.70417 8.18387 7.92242C8.09658 8.11884 8.02019 8.19522 7.95472 8.15157C7.88925 8.10792 7.82377 8.02063 7.7583 7.88968C7.0381 7.95515 6.53614 7.9988 6.25242 8.02063C6.25242 8.10792 6.2306 8.18431 6.18695 8.24978C6.40519 8.38073 6.48158 8.47894 6.41611 8.54441C6.35063 8.60988 6.27425 8.69718 6.18695 8.8063ZM6.25242 7.79147C7.08175 7.70417 7.61644 7.64961 7.85651 7.62779C7.92198 7.3659 7.96563 7.06036 7.98746 6.71117C8.00928 6.34016 7.95472 6.14374 7.82377 6.12191C7.69283 6.10009 7.1254 6.16556 6.12148 6.31833L6.18695 6.90759C6.53614 6.86394 6.83077 6.80938 7.07084 6.74391C7.33273 6.67843 7.50732 6.70026 7.59462 6.80938C7.70374 6.89668 7.58371 6.97306 7.23452 7.03853C6.88533 7.10401 6.54705 7.13674 6.21969 7.13674L6.25242 7.79147ZM5.89232 5.3035C6.21969 5.3035 6.7653 5.2053 7.52915 5.00888C8.29299 4.81246 8.76222 4.74699 8.93681 4.81246C9.11141 4.87793 9.15505 4.95432 9.06776 5.04161C8.98046 5.10709 8.57671 5.2053 7.85651 5.33624C7.15813 5.44536 6.68891 5.49992 6.44884 5.49992C6.2306 5.49992 6.00145 5.48901 5.76138 5.46719C5.47766 5.81638 5.16121 6.07827 4.81202 6.25286C4.48466 6.42745 4.47375 6.36198 4.77929 6.05644C5.10665 5.7509 5.39037 5.41263 5.63043 5.04161C5.8705 4.64878 5.96871 4.36506 5.92506 4.19047C5.90324 4.01587 5.96871 3.96131 6.12148 4.02678C6.29607 4.09226 6.44884 4.17955 6.57979 4.28868C6.73256 4.37597 6.74347 4.46327 6.61253 4.55057C6.5034 4.61604 6.26334 4.86702 5.89232 5.3035ZM5.92506 9.13366C6.2306 9.17731 6.45976 9.24279 6.61253 9.33008C6.78712 9.41738 7.0381 9.55924 7.36546 9.75566C7.45276 9.66836 7.54006 9.54833 7.62735 9.39556C7.71465 9.22096 7.76921 9.09002 7.79104 9.00272C7.81286 8.91542 7.78012 8.86086 7.69283 8.83904C7.62735 8.81721 7.26725 8.87177 6.61253 9.00272C6.45976 9.06819 6.28516 9.04637 6.08874 8.93725L5.92506 9.13366Z"
    fill="black" />
  <path
    d="M6.18695 8.8063C6.51432 8.78448 6.80894 8.75174 7.07084 8.70809C7.35455 8.64262 7.56188 8.58806 7.69283 8.54441C7.82377 8.47894 7.94381 8.46802 8.05293 8.51167C8.18387 8.55532 8.31482 8.63171 8.44577 8.74083C8.59854 8.84995 8.60945 8.94816 8.4785 9.03546C8.36938 9.10093 8.26026 9.22096 8.15114 9.39556C8.04202 9.54833 7.90016 9.74474 7.72556 9.98481C8.33664 10.334 8.78404 10.5741 9.06776 10.705C9.3733 10.8141 9.61336 10.8796 9.78796 10.9014C9.96255 10.9451 10.2244 10.9887 10.5736 11.0324C10.9228 11.0979 10.8901 11.1633 10.4754 11.2288C10.0826 11.2943 9.75522 11.3379 9.49333 11.3597C9.25326 11.4034 9.05684 11.3816 8.90407 11.2943C8.7513 11.2288 8.5658 11.1197 8.34756 10.9669C8.12931 10.8141 7.81286 10.585 7.3982 10.2794C6.7653 10.8032 6.11057 11.0869 5.43401 11.1306C4.75746 11.1742 4.67016 11.1306 5.17212 10.9996C5.67408 10.8687 6.08874 10.705 6.41611 10.5086C6.74347 10.3122 6.97263 10.1485 7.10357 10.0175C6.49249 9.51559 6.05601 9.27552 5.79412 9.29735C5.33581 9.75566 4.86658 10.0939 4.38645 10.3122C3.90632 10.5304 3.87358 10.4977 4.28824 10.214C4.7029 9.90843 5.063 9.55924 5.36854 9.1664C5.69591 8.77356 5.90324 8.4462 5.99053 8.18431C5.94689 7.87877 5.8705 7.51867 5.76138 7.10401C5.67408 6.68935 5.58678 6.42745 5.49949 6.31833C5.43401 6.20921 5.45584 6.14374 5.56496 6.12191C5.69591 6.10009 5.81594 6.10009 5.92506 6.12191C6.03418 6.14374 6.33972 6.111 6.84168 6.02371C7.34364 5.93641 7.66009 5.84911 7.79104 5.76181C7.94381 5.67452 8.09658 5.66361 8.24935 5.72908C8.42394 5.79455 8.5658 5.87094 8.67492 5.95823C8.80587 6.04553 8.81678 6.13283 8.70766 6.22012C8.62036 6.30742 8.53306 6.5584 8.44577 6.97306C8.38029 7.38772 8.29299 7.70417 8.18387 7.92242C8.09658 8.11884 8.02019 8.19522 7.95472 8.15157C7.88925 8.10792 7.82377 8.02063 7.7583 7.88968C7.0381 7.95515 6.53614 7.9988 6.25242 8.02063C6.25242 8.10792 6.2306 8.18431 6.18695 8.24978C6.40519 8.38073 6.48158 8.47894 6.41611 8.54441C6.35063 8.60988 6.27425 8.69718 6.18695 8.8063ZM6.25242 7.79147C7.08175 7.70417 7.61644 7.64961 7.85651 7.62779C7.92198 7.3659 7.96563 7.06036 7.98746 6.71117C8.00928 6.34016 7.95472 6.14374 7.82377 6.12191C7.69283 6.10009 7.1254 6.16556 6.12148 6.31833L6.18695 6.90759C6.53614 6.86394 6.83077 6.80938 7.07084 6.74391C7.33273 6.67843 7.50732 6.70026 7.59462 6.80938C7.70374 6.89668 7.58371 6.97306 7.23452 7.03853C6.88533 7.10401 6.54705 7.13674 6.21969 7.13674L6.25242 7.79147ZM5.89232 5.3035C6.21969 5.3035 6.7653 5.2053 7.52915 5.00888C8.29299 4.81246 8.76222 4.74699 8.93681 4.81246C9.11141 4.87793 9.15505 4.95432 9.06776 5.04161C8.98046 5.10709 8.57671 5.2053 7.85651 5.33624C7.15813 5.44536 6.68891 5.49992 6.44884 5.49992C6.2306 5.49992 6.00145 5.48901 5.76138 5.46719C5.47766 5.81638 5.16121 6.07827 4.81202 6.25286C4.48466 6.42745 4.47375 6.36198 4.77929 6.05644C5.10665 5.7509 5.39037 5.41263 5.63043 5.04161C5.8705 4.64878 5.96871 4.36506 5.92506 4.19047C5.90324 4.01587 5.96871 3.96131 6.12148 4.02678C6.29607 4.09226 6.44884 4.17955 6.57979 4.28868C6.73256 4.37597 6.74347 4.46327 6.61253 4.55057C6.5034 4.61604 6.26334 4.86702 5.89232 5.3035ZM5.92506 9.13366C6.2306 9.17731 6.45976 9.24279 6.61253 9.33008C6.78712 9.41738 7.0381 9.55924 7.36546 9.75566C7.45276 9.66836 7.54006 9.54833 7.62735 9.39556C7.71465 9.22096 7.76921 9.09002 7.79104 9.00272C7.81286 8.91542 7.78012 8.86086 7.69283 8.83904C7.62735 8.81721 7.26725 8.87177 6.61253 9.00272C6.45976 9.06819 6.28516 9.04637 6.08874 8.93725L5.92506 9.13366Z"
    stroke="black" stroke-width="0.179649" mask="url(#path-7-outside-2_16719_23959)" />
</svg>