<svg width="24" height="24" viewBox="0 0 24 24" fill="none" xmlns="http://www.w3.org/2000/svg">
<path d="M9.70002 21.6H3.08889C2.48751 21.6 2 21.1257 2 20.5405V3.05946C2 2.47434 2.48751 2 3.08889 2H20.5111C21.1125 2 21.6 2.47434 21.6 3.05946V8.20668" stroke="#242526" stroke-width="1.2" stroke-linecap="round" stroke-linejoin="round"/>
<path d="M14 20.25L19.25 13L21.5 14.75L16 22.25H14V20.25Z" fill="#242526"/>
<path d="M8.82509 10.465L13.1315 10.2756C13.4853 10.2756 13.7185 10.3545 13.8311 10.5124C13.9437 10.6624 14 10.7768 14 10.8558C14 10.9347 13.9839 10.9939 13.9517 11.0334C13.9196 11.0649 13.7869 11.8543 13.5537 13.4015C13.7306 13.6462 13.8191 13.8278 13.8191 13.9462C13.8191 14.0725 13.7587 14.1475 13.6381 14.1712C13.5175 14.2027 11.9131 14.2501 8.82509 14.3132L8.84922 14.5501C8.84922 14.85 8.72457 15 8.47527 15C8.43506 15 8.35464 14.9763 8.23402 14.929C7.87213 14.8184 7.69119 14.6369 7.69119 14.3843C7.71532 14.1475 7.72738 13.962 7.72738 13.8278C7.72738 13.7015 7.68717 13.2555 7.60675 12.4898C7.53438 11.7241 7.49015 11.2899 7.47406 11.1873C6.5573 11.6057 5.81745 11.8977 5.25452 12.0635C4.69964 12.2214 4.34982 12.3003 4.20507 12.3003C4.06836 12.3003 4 12.2293 4 12.0872C4 11.9451 4.14475 11.8188 4.43426 11.7083C6.09087 11.0294 7.54644 10.2519 8.80096 9.37567L8.84922 9.34015C8.46321 8.98493 8.12545 8.7047 7.83595 8.49946C7.68315 8.38105 7.60675 8.26265 7.60675 8.14424C7.60675 8.02583 7.66707 7.90743 7.7877 7.78902C7.90832 7.67061 8.02493 7.61141 8.13751 7.61141C8.35464 7.61141 8.88138 7.97847 9.71773 8.71259C10.6506 7.99426 11.3542 7.29566 11.8287 6.61679L8.68034 6.81808C7.80378 7.58378 6.81866 8.27449 5.72497 8.8902C5.54805 8.99282 5.38721 9.04413 5.24246 9.04413C5.10575 9.04413 5.03739 8.98098 5.03739 8.85468C5.03739 8.72838 5.154 8.5784 5.38721 8.40474C7.01166 7.25224 8.2501 6.02081 9.10253 4.71044C9.18295 4.59203 9.23522 4.446 9.25935 4.27234C9.29152 4.09078 9.36389 4 9.47648 4C9.54885 4 9.64938 4.03552 9.77805 4.10657C10.156 4.32759 10.345 4.54467 10.345 4.7578C10.345 4.97094 10.1037 5.3301 9.62123 5.83531L12.5042 5.64586C12.6972 5.64586 12.8862 5.72085 13.0712 5.87083C13.2561 6.01292 13.3486 6.15501 13.3486 6.29709C13.3486 6.43918 13.3124 6.5418 13.24 6.60495C13.1757 6.66021 13.1315 6.70362 13.1074 6.7352C11.9574 8.23502 10.53 9.47829 8.82509 10.465ZM8.74065 13.4133L12.5645 13.3068L12.7937 11.211L8.53558 11.3886L8.74065 13.4133Z" fill="#242526"/>
</svg>
