<svg width="20" height="20" viewBox="0 0 20 20" fill="none" xmlns="http://www.w3.org/2000/svg">
<path d="M15.7026 13.7737C16.5874 13.141 17.1146 12.1748 17.1146 11.1146C17.1861 9.92606 16.5248 8.83162 15.4792 8.19889C14.4336 7.60037 13.0932 7.60037 12.0476 8.19889C11.002 8.79742 10.3407 9.91751 10.4122 11.1146C10.4122 12.1833 10.9305 13.1495 11.8242 13.7737C10.0637 14.6202 8.88405 16.3046 8.75 18.2199C8.75 18.5362 8.91086 18.75 9.20576 18.75H18.2942C18.5891 18.75 18.75 18.502 18.75 18.2199C18.6249 16.3046 17.481 14.6458 15.7026 13.7737Z" fill="white"/>
<path fill-rule="evenodd" clip-rule="evenodd" d="M1.25 2.25C1.25 1.69772 1.69772 1.25 2.25 1.25H17.25C17.8023 1.25 18.25 1.69772 18.25 2.25V10.1803C18.0122 8.90917 17.1891 7.8308 16.1005 7.17204L16.088 7.1645L16.0754 7.15726C14.6605 6.34732 12.8663 6.34732 11.4514 7.15726C10.0562 7.9559 9.1265 9.4718 9.21233 11.1499C9.21924 12.0287 9.48238 12.8534 9.95013 13.5524C8.5726 14.677 7.68039 16.3146 7.55292 18.1359L7.54999 18.1777V18.2197C7.54999 18.3826 7.56927 18.5646 7.62139 18.75H2.25C1.69772 18.75 1.25 18.3023 1.25 17.75V2.25ZM2.5 4.85C2.5 4.38056 2.88056 4 3.35 4H8.15C8.61944 4 9 4.38056 9 4.85C9 5.31944 8.61944 5.7 8.15 5.7H3.35C2.88056 5.7 2.5 5.31944 2.5 4.85ZM3.35 7C2.88056 7 2.5 7.38056 2.5 7.85C2.5 8.31944 2.88056 8.7 3.35 8.7H8.15C8.61944 8.7 9 8.31944 9 7.85C9 7.38056 8.61944 7 8.15 7H3.35ZM2.5 10.85C2.5 10.3806 2.88056 10 3.35 10H5.65C6.11944 10 6.5 10.3806 6.5 10.85C6.5 11.3194 6.11944 11.7 5.65 11.7H3.35C2.88056 11.7 2.5 11.3194 2.5 10.85Z" fill="white"/>
</svg>
