<svg width="18" height="18" viewBox="0 0 18 18" fill="none" xmlns="http://www.w3.org/2000/svg">
  <path
    d="M4.98694 11.2006C4.98694 11.6119 5.15032 12.0063 5.44113 12.2971C5.73194 12.5879 6.12637 12.7513 6.53764 12.7513C6.94891 12.7513 7.34334 12.5879 7.63415 12.2971C7.92496 12.0063 8.08834 11.6119 8.08834 11.2006C8.08834 10.7893 7.92496 10.3949 7.63415 10.1041C7.34334 9.81328 6.94891 9.6499 6.53764 9.6499C6.12637 9.6499 5.73194 9.81328 5.44113 10.1041C5.15032 10.3949 4.98694 10.7893 4.98694 11.2006Z"
    fill="#D9E5FF" />
  <path
    d="M14.0391 1.7793H4.28312C2.99252 1.7793 1.94312 2.8287 1.94312 4.1193V13.8753C1.94312 15.1659 2.99252 16.2153 4.28312 16.2153H14.0391C15.3297 16.2153 16.3791 15.1659 16.3791 13.8753V4.1193C16.3791 2.8287 15.3297 1.7793 14.0391 1.7793ZM15.2991 13.8753C15.2991 14.5701 14.7339 15.1353 14.0391 15.1353H4.28312C3.58832 15.1353 3.02312 14.5701 3.02312 13.8753V4.1193C3.02312 3.4245 3.58832 2.8593 4.28312 2.8593H14.0391C14.7339 2.8593 15.2991 3.4245 15.2991 4.1193V13.8753Z"
    fill="#2871FF" />
  <path
    d="M7.7175 4.80066L6.0453 6.57096L5.3442 5.88066C5.24194 5.78035 5.10408 5.72469 4.96085 5.72587C4.81761 5.72705 4.68069 5.78498 4.5801 5.88696C4.47979 5.98921 4.42413 6.12707 4.42531 6.27031C4.42649 6.41354 4.48442 6.55047 4.5864 6.65106L5.6808 7.72836C5.78178 7.82784 5.91794 7.88347 6.0597 7.88316H6.0696C6.2145 7.88046 6.3531 7.81926 6.4521 7.71396L8.5032 5.54226C8.55196 5.49076 8.5901 5.43016 8.61541 5.36391C8.64072 5.29766 8.65272 5.22707 8.65071 5.15617C8.6487 5.08528 8.63273 5.01548 8.60371 4.95077C8.5747 4.88606 8.5332 4.82771 8.4816 4.77906C8.2638 4.57386 7.9218 4.58376 7.7175 4.80066ZM13.392 5.78616H10.3671C10.0692 5.78616 9.8271 6.02826 9.8271 6.32616C9.8271 6.62406 10.0692 6.86616 10.3671 6.86616H13.392C13.6899 6.86616 13.932 6.62406 13.932 6.32616C13.932 6.02826 13.6899 5.78616 13.392 5.78616ZM13.392 10.6606H10.3671C10.0692 10.6606 9.8271 10.9027 9.8271 11.2006C9.8271 11.4985 10.0692 11.7406 10.3671 11.7406H13.392C13.6899 11.7406 13.932 11.4985 13.932 11.2006C13.932 10.9027 13.6899 10.6606 13.392 10.6606ZM6.5376 9.10896C5.3847 9.10896 4.4469 10.0468 4.4469 11.1997C4.4469 12.3526 5.3847 13.2904 6.5376 13.2904C7.6905 13.2904 8.6283 12.3526 8.6283 11.1997C8.6283 10.0477 7.6905 9.10896 6.5376 9.10896ZM6.5376 12.2113C5.9805 12.2113 5.5269 11.7577 5.5269 11.2006C5.5269 10.6435 5.9805 10.1899 6.5376 10.1899C7.0947 10.1899 7.5483 10.6435 7.5483 11.2006C7.5483 11.7577 7.0947 12.2113 6.5376 12.2113Z"
    fill="#2871FF" />
</svg>