<?xml version="1.0" encoding="utf-8"?>
<!-- Generator: Adobe Illustrator 27.4.1, SVG Export Plug-In . SVG Version: 6.00 Build 0)  -->
<svg version="1.1" id="图层_1" xmlns="http://www.w3.org/2000/svg" xmlns:xlink="http://www.w3.org/1999/xlink" x="0px" y="0px"
	 viewBox="0 0 16 16" style="enable-background:new 0 0 16 16;" xml:space="preserve">
<style type="text/css">
	.st0{fill:#6C7380;}
</style>
<g>
	<path class="st0" d="M7.9,14.3H1.7c0,0,0,0,0,0c0.3-3.2,3-5.6,6.2-5.6l0,0c2.3,0,4.1-1.8,4.1-4.1c0-2.3-1.8-4.1-4.1-4.1
		S3.8,2.3,3.8,4.6c0,1.3,0.6,2.5,1.6,3.3c-2.8,0.9-4.7,3.4-5,6.3c0,0.3,0.1,0.7,0.3,0.9c0.2,0.3,0.6,0.4,0.9,0.4h6.2
		c0.3,0,0.6-0.3,0.6-0.6S8.2,14.3,7.9,14.3z M5,4.6C5,3,6.3,1.7,7.9,1.7s2.9,1.3,2.9,2.9c0,1.6-1.3,2.9-2.8,2.9l0,0l-0.1,0
		C6.3,7.4,5,6.1,5,4.6z"/>
	<path class="st0" d="M12.3,12c-0.4,0-0.7,0.3-0.7,0.7c0,0.2,0.1,0.5,0.3,0.6v0.6c0,0.2,0.2,0.3,0.3,0.3s0.3-0.2,0.3-0.3v-0.6
		c0.2-0.1,0.3-0.3,0.3-0.6C13,12.3,12.7,12,12.3,12z"/>
	<path class="st0" d="M15.3,10.8c-0.2-0.2-0.4-0.3-0.6-0.3h-0.3V9.7c0-1.1-0.9-2-2.1-2s-2.1,0.9-2.1,2v0.8H9.9
		c-0.5,0-0.9,0.4-0.9,0.9v3.2c0,0.5,0.4,0.9,0.9,0.9h4.8c0.5,0,0.9-0.4,0.9-0.9v-3.2C15.5,11.1,15.5,10.9,15.3,10.8z M11.4,10.5V9.7
		c0-0.4,0.4-0.8,0.9-0.8c0.5,0,0.9,0.4,0.9,0.8v0.8H11.4z M10.2,14.3v-2.6h4.1v2.6H10.2z"/>
</g>
</svg>
