<svg width="16" height="16" viewBox="0 0 16 16" fill="none" xmlns="http://www.w3.org/2000/svg">
<path d="M2.5 15C3.75419 15 8.39835 14.3375 9.5 14C11.5 13.3873 12 11.5 9 12C6 12.5 10.4 16 14 13" stroke="#6C7380" stroke-linecap="round"/>
<path d="M10.1873 3.31219L12.6873 5.81219" stroke="#6C7380" stroke-width="1.3"/>
<path d="M2.74229 10.3194C2.74731 10.2743 2.76753 10.2322 2.79965 10.2001L11.3586 1.64141C11.4367 1.56331 11.5633 1.56331 11.6414 1.64141L14.1084 4.10827C14.1865 4.18637 14.1865 4.31301 14.1084 4.39111L5.54263 12.9569C5.51471 12.9848 5.47915 13.0038 5.44043 13.0116L2.37482 13.6247L2.74229 10.3194Z" stroke="#6C7380" stroke-width="1.3"/>
<path d="M10.1873 3.31219L12.6873 5.81219" stroke="#6C7380" stroke-width="1.2"/>
<path d="M3.31232 10.4997L5.49981 12.6872" stroke="#6C7380" stroke-width="1.2"/>
</svg>
