<svg width="20" height="20" viewBox="0 0 20 20" fill="none" xmlns="http://www.w3.org/2000/svg">
<path d="M1 4C1 4.39397 1.23279 4.78407 1.68508 5.14805C2.13738 5.51203 2.80031 5.84274 3.63604 6.12132C4.47177 6.3999 5.46392 6.62087 6.55585 6.77164C7.64778 6.9224 8.8181 7 10 7C11.1819 7 12.3522 6.9224 13.4442 6.77164C14.5361 6.62087 15.5282 6.3999 16.364 6.12132C17.1997 5.84274 17.8626 5.51203 18.3149 5.14805C18.7672 4.78407 19 4.39397 19 4C19 3.20435 18.0518 2.44129 16.364 1.87868C14.6761 1.31607 12.3869 1 10 1C7.61305 1 5.32387 1.31607 3.63604 1.87868C1.94821 2.44129 1 3.20435 1 4Z" fill="white"/>
<path fill-rule="evenodd" clip-rule="evenodd" d="M1.47842 6.08229C2.68632 7.24345 6.04474 8.07987 10 8.07987C13.9553 8.07987 17.3137 7.24345 18.5216 6.08229C18.7063 5.90517 19 6.03309 19 6.29386V10.0479C19 11.6765 14.9689 13 10 13C5.03105 13 1 11.6765 1 10.0479V6.29386C0.999884 6.23625 1.01611 6.17987 1.04665 6.13178C1.07719 6.08369 1.12069 6.046 1.17173 6.02343C1.22276 6.00087 1.27907 5.99441 1.33361 6.00488C1.38815 6.01535 1.43852 6.04227 1.47842 6.08229ZM3 10.5C3.55228 10.5 4 10.0523 4 9.5C4 8.94772 3.55228 8.5 3 8.5C2.44772 8.5 2 8.94772 2 9.5C2 10.0523 2.44772 10.5 3 10.5Z" fill="white"/>
<path fill-rule="evenodd" clip-rule="evenodd" d="M1.47842 12.0823C2.68632 13.2434 6.04474 14.0799 10 14.0799C13.9553 14.0799 17.3137 13.2434 18.5216 12.0823C18.7063 11.9052 19 12.0331 19 12.2939V16.0479C19 17.6765 14.9689 19 10 19C5.03105 19 1 17.6765 1 16.0479V12.2939C0.999884 12.2362 1.01611 12.1799 1.04665 12.1318C1.07719 12.0837 1.12069 12.046 1.17173 12.0234C1.22276 12.0009 1.27907 11.9944 1.33361 12.0049C1.38815 12.0153 1.43852 12.0423 1.47842 12.0823ZM3 16.5C3.55228 16.5 4 16.0523 4 15.5C4 14.9477 3.55228 14.5 3 14.5C2.44772 14.5 2 14.9477 2 15.5C2 16.0523 2.44772 16.5 3 16.5Z" fill="white"/>
</svg>
