<svg width="20" height="20" viewBox="0 0 20 20" fill="none" xmlns="http://www.w3.org/2000/svg">
<path fill-rule="evenodd" clip-rule="evenodd" d="M6.9671 0.574428C6.51493 0.257313 5.8913 0.366795 5.57419 0.818964C5.25707 1.27113 5.36656 1.89476 5.81873 2.21188L7.81562 3.61233L2.06079 11.8302C1.70228 12.3422 1.44813 12.9197 1.31284 13.5299C1.17755 14.1401 1.16377 14.771 1.27229 15.3865C1.38081 16.002 1.60951 16.5902 1.94532 17.1173C2.28113 17.6444 2.71748 18.1003 3.22946 18.4588C3.74144 18.8173 4.31901 19.0714 4.92921 19.2067C5.53941 19.342 6.17028 19.3558 6.78581 19.2473C7.40133 19.1388 7.98945 18.9101 8.51659 18.5743C9.04373 18.2384 9.49957 17.8021 9.85808 17.2901L15.6083 9.0775L17.3298 10.2848C17.782 10.602 18.4056 10.4925 18.7227 10.0403C19.0398 9.58813 18.9304 8.96451 18.4782 8.64739L6.9671 0.574428ZM9.68574 4.92389L13.789 7.80159L12.583 9.52407L6 9.8926L9.68574 4.92389Z" fill="white"/>
</svg>
