<svg width="24" height="24" viewBox="0 0 24 24" fill="none" xmlns="http://www.w3.org/2000/svg">
  <rect x="2" y="2" width="19.6" height="19.6" rx="1.2" stroke="#242526" stroke-width="1.2" />
  <circle cx="6" cy="14" r="1.5" fill="#242526" />
  <circle cx="10" cy="14" r="1.5" fill="#242526" />
  <rect x="4.5" y="17.5" width="15" height="2" rx="1" fill="#242526" />
  <rect x="12.5" y="13" width="7" height="2" rx="1" fill="#242526" />
  <mask id="path-6-outside-1_16704_37975" maskUnits="userSpaceOnUse" x="11.8445" y="3" width="9" height="8"
    fill="black">
    <rect fill="white" x="11.8445" y="3" width="9" height="8" />
    <path
      d="M15.3017 4C15.6225 4 15.8674 4.05911 16.0363 4.17732C16.2052 4.29554 16.2896 4.44471 16.2896 4.62485C16.2896 4.79936 16.2164 4.88661 16.0701 4.88661C15.9237 4.88661 15.7267 4.7684 15.479 4.53197C15.2313 4.28991 15.1075 4.14073 15.1075 4.08444C15.1075 4.02815 15.1722 4 15.3017 4ZM17.8939 4.85283C18.0347 4.85283 18.1895 4.89505 18.3584 4.97949C18.5272 5.0583 18.6117 5.13711 18.6117 5.21592C18.6117 5.3454 18.4118 5.41013 18.0122 5.41013L17.3958 5.39324C16.6865 5.39324 15.6704 5.53679 14.3475 5.82388C14.1167 5.87455 13.9281 5.89988 13.7818 5.89988C13.641 5.89988 13.5116 5.86892 13.3933 5.807C13.2751 5.74507 13.216 5.69441 13.216 5.65501C13.216 5.6156 13.323 5.58745 13.5369 5.57057C14.1223 5.52553 14.6318 5.46924 15.0652 5.40169C15.5043 5.32851 16.2417 5.17933 17.2775 4.95416C17.5759 4.88661 17.7814 4.85283 17.8939 4.85283ZM16.4247 6.05187C16.5992 6.05187 16.8187 6.08565 17.0833 6.1532C17.3535 6.21512 17.5534 6.31645 17.6828 6.45718C17.8179 6.59228 17.8855 6.72457 17.8855 6.85404C17.8855 6.92722 17.8658 6.98633 17.8264 7.03136C17.7926 7.0764 17.7391 7.09891 17.666 7.09891C17.5984 7.09891 17.5168 7.06232 17.4211 6.98914C17.0552 6.70768 16.7202 6.46281 16.4163 6.25452C16.3318 6.1926 16.2896 6.14475 16.2896 6.11098C16.2896 6.07157 16.3346 6.05187 16.4247 6.05187ZM15.2763 6.56695C15.2763 6.60072 15.2623 6.62887 15.2341 6.65139C15.0427 6.78086 14.9245 6.87093 14.8795 6.92159C14.6205 7.16928 14.3419 7.37756 14.0435 7.54644C13.7508 7.70969 13.5678 7.79131 13.4947 7.79131C13.4721 7.79131 13.4609 7.78006 13.4609 7.75754C13.4609 7.72939 13.5003 7.68154 13.5791 7.61399C13.8718 7.37193 14.1139 7.12988 14.3053 6.88782C14.4967 6.64013 14.5952 6.46844 14.6008 6.37274C14.6064 6.20949 14.6487 6.12787 14.7275 6.12787C14.8063 6.12787 14.9161 6.18134 15.0568 6.2883C15.2031 6.38963 15.2763 6.48251 15.2763 6.56695ZM16.1038 8.73703C16.5091 9.07479 16.8947 9.33937 17.2606 9.53076C17.6322 9.72216 17.9896 9.8657 18.333 9.9614C18.682 10.0571 19.1042 10.15 19.5996 10.24C19.7854 10.2738 19.8783 10.3245 19.8783 10.392C19.8783 10.4258 19.8473 10.4511 19.7854 10.468C19.7291 10.4906 19.487 10.5271 19.0592 10.5778C18.6314 10.6341 18.3133 10.6622 18.105 10.6622C17.8968 10.6622 17.7335 10.62 17.6153 10.5356C17.5027 10.4568 17.3226 10.3048 17.0749 10.0796C16.8272 9.86007 16.4416 9.50261 15.9181 9.00724C15.6873 9.2887 15.4058 9.53358 15.0737 9.74186C14.7415 9.94451 14.3588 10.1021 13.9253 10.2147C13.4975 10.3273 13.1822 10.3836 12.9796 10.3836C12.8895 10.3836 12.8445 10.3611 12.8445 10.316C12.8445 10.271 12.9092 10.2316 13.0387 10.1978C13.596 10.0571 14.1026 9.85726 14.5586 9.59831C15.0202 9.33937 15.3777 9.04946 15.631 8.72859C15.0962 8.22195 14.7218 7.9236 14.5079 7.83353C14.4235 7.79413 14.3813 7.75191 14.3813 7.70688C14.3813 7.66184 14.4348 7.63932 14.5417 7.63932C14.6543 7.63932 14.7894 7.68717 14.947 7.78287C15.1103 7.87294 15.3945 8.10092 15.7999 8.46683C16.0363 8.05589 16.1545 7.60555 16.1545 7.1158C16.1545 6.98633 16.1911 6.92159 16.2643 6.92159C16.3374 6.92159 16.45 6.9807 16.602 7.09891C16.754 7.21713 16.83 7.3072 16.83 7.36912C16.83 7.43104 16.8075 7.48452 16.7625 7.52955C16.7174 7.57459 16.6696 7.64214 16.6189 7.73221C16.5682 7.81665 16.4866 7.98271 16.374 8.2304C16.2615 8.47246 16.1714 8.64134 16.1038 8.73703Z" />
  </mask>
  <path
    d="M15.3017 4C15.6225 4 15.8674 4.05911 16.0363 4.17732C16.2052 4.29554 16.2896 4.44471 16.2896 4.62485C16.2896 4.79936 16.2164 4.88661 16.0701 4.88661C15.9237 4.88661 15.7267 4.7684 15.479 4.53197C15.2313 4.28991 15.1075 4.14073 15.1075 4.08444C15.1075 4.02815 15.1722 4 15.3017 4ZM17.8939 4.85283C18.0347 4.85283 18.1895 4.89505 18.3584 4.97949C18.5272 5.0583 18.6117 5.13711 18.6117 5.21592C18.6117 5.3454 18.4118 5.41013 18.0122 5.41013L17.3958 5.39324C16.6865 5.39324 15.6704 5.53679 14.3475 5.82388C14.1167 5.87455 13.9281 5.89988 13.7818 5.89988C13.641 5.89988 13.5116 5.86892 13.3933 5.807C13.2751 5.74507 13.216 5.69441 13.216 5.65501C13.216 5.6156 13.323 5.58745 13.5369 5.57057C14.1223 5.52553 14.6318 5.46924 15.0652 5.40169C15.5043 5.32851 16.2417 5.17933 17.2775 4.95416C17.5759 4.88661 17.7814 4.85283 17.8939 4.85283ZM16.4247 6.05187C16.5992 6.05187 16.8187 6.08565 17.0833 6.1532C17.3535 6.21512 17.5534 6.31645 17.6828 6.45718C17.8179 6.59228 17.8855 6.72457 17.8855 6.85404C17.8855 6.92722 17.8658 6.98633 17.8264 7.03136C17.7926 7.0764 17.7391 7.09891 17.666 7.09891C17.5984 7.09891 17.5168 7.06232 17.4211 6.98914C17.0552 6.70768 16.7202 6.46281 16.4163 6.25452C16.3318 6.1926 16.2896 6.14475 16.2896 6.11098C16.2896 6.07157 16.3346 6.05187 16.4247 6.05187ZM15.2763 6.56695C15.2763 6.60072 15.2623 6.62887 15.2341 6.65139C15.0427 6.78086 14.9245 6.87093 14.8795 6.92159C14.6205 7.16928 14.3419 7.37756 14.0435 7.54644C13.7508 7.70969 13.5678 7.79131 13.4947 7.79131C13.4721 7.79131 13.4609 7.78006 13.4609 7.75754C13.4609 7.72939 13.5003 7.68154 13.5791 7.61399C13.8718 7.37193 14.1139 7.12988 14.3053 6.88782C14.4967 6.64013 14.5952 6.46844 14.6008 6.37274C14.6064 6.20949 14.6487 6.12787 14.7275 6.12787C14.8063 6.12787 14.9161 6.18134 15.0568 6.2883C15.2031 6.38963 15.2763 6.48251 15.2763 6.56695ZM16.1038 8.73703C16.5091 9.07479 16.8947 9.33937 17.2606 9.53076C17.6322 9.72216 17.9896 9.8657 18.333 9.9614C18.682 10.0571 19.1042 10.15 19.5996 10.24C19.7854 10.2738 19.8783 10.3245 19.8783 10.392C19.8783 10.4258 19.8473 10.4511 19.7854 10.468C19.7291 10.4906 19.487 10.5271 19.0592 10.5778C18.6314 10.6341 18.3133 10.6622 18.105 10.6622C17.8968 10.6622 17.7335 10.62 17.6153 10.5356C17.5027 10.4568 17.3226 10.3048 17.0749 10.0796C16.8272 9.86007 16.4416 9.50261 15.9181 9.00724C15.6873 9.2887 15.4058 9.53358 15.0737 9.74186C14.7415 9.94451 14.3588 10.1021 13.9253 10.2147C13.4975 10.3273 13.1822 10.3836 12.9796 10.3836C12.8895 10.3836 12.8445 10.3611 12.8445 10.316C12.8445 10.271 12.9092 10.2316 13.0387 10.1978C13.596 10.0571 14.1026 9.85726 14.5586 9.59831C15.0202 9.33937 15.3777 9.04946 15.631 8.72859C15.0962 8.22195 14.7218 7.9236 14.5079 7.83353C14.4235 7.79413 14.3813 7.75191 14.3813 7.70688C14.3813 7.66184 14.4348 7.63932 14.5417 7.63932C14.6543 7.63932 14.7894 7.68717 14.947 7.78287C15.1103 7.87294 15.3945 8.10092 15.7999 8.46683C16.0363 8.05589 16.1545 7.60555 16.1545 7.1158C16.1545 6.98633 16.1911 6.92159 16.2643 6.92159C16.3374 6.92159 16.45 6.9807 16.602 7.09891C16.754 7.21713 16.83 7.3072 16.83 7.36912C16.83 7.43104 16.8075 7.48452 16.7625 7.52955C16.7174 7.57459 16.6696 7.64214 16.6189 7.73221C16.5682 7.81665 16.4866 7.98271 16.374 8.2304C16.2615 8.47246 16.1714 8.64134 16.1038 8.73703Z"
    fill="black" />
  <path
    d="M15.3017 4C15.6225 4 15.8674 4.05911 16.0363 4.17732C16.2052 4.29554 16.2896 4.44471 16.2896 4.62485C16.2896 4.79936 16.2164 4.88661 16.0701 4.88661C15.9237 4.88661 15.7267 4.7684 15.479 4.53197C15.2313 4.28991 15.1075 4.14073 15.1075 4.08444C15.1075 4.02815 15.1722 4 15.3017 4ZM17.8939 4.85283C18.0347 4.85283 18.1895 4.89505 18.3584 4.97949C18.5272 5.0583 18.6117 5.13711 18.6117 5.21592C18.6117 5.3454 18.4118 5.41013 18.0122 5.41013L17.3958 5.39324C16.6865 5.39324 15.6704 5.53679 14.3475 5.82388C14.1167 5.87455 13.9281 5.89988 13.7818 5.89988C13.641 5.89988 13.5116 5.86892 13.3933 5.807C13.2751 5.74507 13.216 5.69441 13.216 5.65501C13.216 5.6156 13.323 5.58745 13.5369 5.57057C14.1223 5.52553 14.6318 5.46924 15.0652 5.40169C15.5043 5.32851 16.2417 5.17933 17.2775 4.95416C17.5759 4.88661 17.7814 4.85283 17.8939 4.85283ZM16.4247 6.05187C16.5992 6.05187 16.8187 6.08565 17.0833 6.1532C17.3535 6.21512 17.5534 6.31645 17.6828 6.45718C17.8179 6.59228 17.8855 6.72457 17.8855 6.85404C17.8855 6.92722 17.8658 6.98633 17.8264 7.03136C17.7926 7.0764 17.7391 7.09891 17.666 7.09891C17.5984 7.09891 17.5168 7.06232 17.4211 6.98914C17.0552 6.70768 16.7202 6.46281 16.4163 6.25452C16.3318 6.1926 16.2896 6.14475 16.2896 6.11098C16.2896 6.07157 16.3346 6.05187 16.4247 6.05187ZM15.2763 6.56695C15.2763 6.60072 15.2623 6.62887 15.2341 6.65139C15.0427 6.78086 14.9245 6.87093 14.8795 6.92159C14.6205 7.16928 14.3419 7.37756 14.0435 7.54644C13.7508 7.70969 13.5678 7.79131 13.4947 7.79131C13.4721 7.79131 13.4609 7.78006 13.4609 7.75754C13.4609 7.72939 13.5003 7.68154 13.5791 7.61399C13.8718 7.37193 14.1139 7.12988 14.3053 6.88782C14.4967 6.64013 14.5952 6.46844 14.6008 6.37274C14.6064 6.20949 14.6487 6.12787 14.7275 6.12787C14.8063 6.12787 14.9161 6.18134 15.0568 6.2883C15.2031 6.38963 15.2763 6.48251 15.2763 6.56695ZM16.1038 8.73703C16.5091 9.07479 16.8947 9.33937 17.2606 9.53076C17.6322 9.72216 17.9896 9.8657 18.333 9.9614C18.682 10.0571 19.1042 10.15 19.5996 10.24C19.7854 10.2738 19.8783 10.3245 19.8783 10.392C19.8783 10.4258 19.8473 10.4511 19.7854 10.468C19.7291 10.4906 19.487 10.5271 19.0592 10.5778C18.6314 10.6341 18.3133 10.6622 18.105 10.6622C17.8968 10.6622 17.7335 10.62 17.6153 10.5356C17.5027 10.4568 17.3226 10.3048 17.0749 10.0796C16.8272 9.86007 16.4416 9.50261 15.9181 9.00724C15.6873 9.2887 15.4058 9.53358 15.0737 9.74186C14.7415 9.94451 14.3588 10.1021 13.9253 10.2147C13.4975 10.3273 13.1822 10.3836 12.9796 10.3836C12.8895 10.3836 12.8445 10.3611 12.8445 10.316C12.8445 10.271 12.9092 10.2316 13.0387 10.1978C13.596 10.0571 14.1026 9.85726 14.5586 9.59831C15.0202 9.33937 15.3777 9.04946 15.631 8.72859C15.0962 8.22195 14.7218 7.9236 14.5079 7.83353C14.4235 7.79413 14.3813 7.75191 14.3813 7.70688C14.3813 7.66184 14.4348 7.63932 14.5417 7.63932C14.6543 7.63932 14.7894 7.68717 14.947 7.78287C15.1103 7.87294 15.3945 8.10092 15.7999 8.46683C16.0363 8.05589 16.1545 7.60555 16.1545 7.1158C16.1545 6.98633 16.1911 6.92159 16.2643 6.92159C16.3374 6.92159 16.45 6.9807 16.602 7.09891C16.754 7.21713 16.83 7.3072 16.83 7.36912C16.83 7.43104 16.8075 7.48452 16.7625 7.52955C16.7174 7.57459 16.6696 7.64214 16.6189 7.73221C16.5682 7.81665 16.4866 7.98271 16.374 8.2304C16.2615 8.47246 16.1714 8.64134 16.1038 8.73703Z"
    stroke="black" stroke-width="0.168878" mask="url(#path-6-outside-1_16704_37975)" />
  <mask id="path-7-outside-2_16704_37975" maskUnits="userSpaceOnUse" x="3" y="3" width="10" height="9" fill="black">
    <rect fill="white" x="3" y="3" width="10" height="9" />
    <path
      d="M6.32208 6.08565C6.58665 6.00121 6.75834 5.95899 6.83715 5.95899C6.92159 5.95899 7.00885 5.97306 7.09891 6.00121C7.19461 6.02372 7.24246 6.06313 7.24246 6.11942C7.24246 6.17571 7.18054 6.23764 7.05669 6.30519C6.93848 6.36711 6.68798 6.44873 6.30519 6.55006L6.26297 7.462C6.69642 7.12425 6.93004 6.95537 6.96381 6.95537C7.00322 6.95537 7.03136 6.96381 7.04825 6.9807C7.06514 6.99759 7.07358 7.01447 7.07358 7.03136C7.07358 7.07077 7.02011 7.14676 6.91315 7.25935C6.80619 7.3663 6.58384 7.57177 6.24608 7.87575C6.24608 8.10655 6.24327 8.48372 6.23764 9.00724C6.23764 9.52513 6.23201 9.85444 6.22075 9.99517C6.21512 10.1359 6.1926 10.2654 6.1532 10.3836C6.11942 10.5074 6.06876 10.6285 6.00121 10.7467C5.93928 10.8649 5.89144 10.9353 5.85766 10.9578C5.82951 10.9859 5.79292 11 5.74789 11C5.70286 11 5.66345 10.9634 5.62967 10.8902C5.43265 10.5018 5.2694 10.2203 5.13993 10.0458C5.11178 10.0064 5.09771 9.97266 5.09771 9.94451C5.09771 9.91074 5.11741 9.89385 5.15682 9.89385C5.19622 9.89385 5.27222 9.91355 5.3848 9.95296C5.49739 9.99236 5.58183 10.0121 5.63812 10.0121C5.70004 10.0121 5.73663 9.98673 5.74789 9.93607C5.76478 9.8854 5.78729 9.71653 5.81544 9.42943C5.84922 9.14234 5.88018 8.72859 5.90832 8.18818C5.33977 8.68918 4.98231 9.01287 4.83595 9.15923C4.69522 9.30559 4.58826 9.37877 4.51508 9.37877C4.44753 9.37877 4.34339 9.33374 4.20265 9.24367C4.06755 9.14797 4 9.06634 4 8.99879C4 8.92561 4.10133 8.86932 4.30398 8.82992C4.4616 8.80177 5.00201 8.43305 5.92521 7.72376C5.94773 7.25653 5.9618 6.89626 5.96743 6.64294C5.50583 6.76679 5.21592 6.82871 5.09771 6.82871C4.98512 6.82871 4.88098 6.80619 4.78528 6.76116C4.69522 6.71612 4.65018 6.67109 4.65018 6.62606C4.65018 6.58102 4.68959 6.55006 4.7684 6.53317C4.9992 6.4994 5.40169 6.39244 5.97587 6.2123C5.9815 5.97587 5.98432 5.76759 5.98432 5.58745C5.98432 4.87254 5.9224 4.43908 5.79855 4.28709C5.731 4.19702 5.69723 4.12666 5.69723 4.07599C5.69723 4.02533 5.73945 4 5.82388 4C5.91395 4 6.0575 4.03659 6.25452 4.10977C6.45155 4.18295 6.55006 4.28146 6.55006 4.40531C6.55006 4.46723 6.52473 4.5573 6.47407 4.67551C6.4234 4.7881 6.37274 5.25814 6.32208 6.08565ZM8.02775 4.81906C8.2698 4.81343 8.56534 4.77402 8.91436 4.70084C9.269 4.62766 9.4998 4.57137 9.60676 4.53197C9.71934 4.48693 9.79534 4.46441 9.83474 4.46441C9.93607 4.46441 10.0881 4.52071 10.2907 4.63329C10.499 4.74025 10.6031 4.83032 10.6031 4.9035C10.6031 4.94853 10.5722 4.99638 10.5103 5.04704C10.454 5.09771 10.3892 5.18778 10.316 5.31725C10.2429 5.44109 10.1922 5.55368 10.1641 5.65501C10.1359 5.7507 10.0627 5.94491 9.94451 6.23764C9.8263 6.53036 9.74186 6.69924 9.6912 6.74427C9.64053 6.7893 9.59831 6.81182 9.56454 6.81182C9.53639 6.81182 9.51669 6.80338 9.50543 6.78649C9.49417 6.7696 9.46321 6.75271 9.41255 6.73583C9.36751 6.71894 9.33374 6.71049 9.31122 6.71049C9.2887 6.71049 9.15078 6.72738 8.89747 6.76116C8.64978 6.79493 8.47527 6.82871 8.37395 6.86248C8.35143 6.96944 8.30921 7.02292 8.24729 7.02292C8.19099 7.02292 8.14314 6.97788 8.10374 6.88782C8.06996 6.79775 8.02774 6.58102 7.97708 6.23764C7.92642 5.89425 7.87857 5.64656 7.83354 5.49457C7.7885 5.34258 7.72658 5.21029 7.64777 5.09771C7.56896 4.98512 7.52955 4.9035 7.52955 4.85283C7.52955 4.79654 7.57459 4.7684 7.66466 4.7684C7.75473 4.7684 7.87575 4.78528 8.02775 4.81906ZM8.35706 6.62606C8.89747 6.52473 9.20708 6.47406 9.28589 6.47406L9.37877 6.48251C9.41818 6.48251 9.48573 6.29956 9.58142 5.93365C9.67712 5.56212 9.72497 5.31162 9.72497 5.18215C9.72497 5.04704 9.70245 4.96261 9.65742 4.92883C9.61801 4.88942 9.54765 4.86972 9.44632 4.86972C9.39003 4.86972 9.17049 4.90068 8.7877 4.9626C8.40491 5.0189 8.20507 5.0386 8.18818 5.02171C8.19381 5.12304 8.21914 5.36228 8.26417 5.73944C8.70326 5.59308 8.95939 5.5199 9.03257 5.5199C9.10575 5.5199 9.17612 5.53398 9.24367 5.56212C9.31122 5.59027 9.34499 5.62404 9.34499 5.66345C9.34499 5.70285 9.31403 5.73944 9.25211 5.77322C9.19582 5.807 9.06635 5.8464 8.86369 5.89144C8.66667 5.93647 8.47246 5.95054 8.28106 5.93365L8.35706 6.62606ZM9.09168 9.58987C9.37877 9.75875 9.67712 9.88822 9.98673 9.97829C10.302 10.0627 10.9493 10.1753 11.9288 10.316C12.0414 10.3329 12.0977 10.3695 12.0977 10.4258C12.0977 10.4427 12.0865 10.4596 12.0639 10.4765C12.0414 10.4934 11.9316 10.5215 11.7346 10.5609C11.5376 10.606 11.2899 10.651 10.9916 10.696C10.6988 10.7467 10.4906 10.772 10.3667 10.772C10.2429 10.772 10.1387 10.7523 10.0543 10.7129C9.97547 10.6735 9.70245 10.4793 9.23522 10.1303L7.70688 8.99035C7.49859 9.43506 7.24246 9.77282 6.93848 10.0036C6.64013 10.2344 6.45436 10.3498 6.38118 10.3498C6.35304 10.3498 6.33896 10.3329 6.33896 10.2992C6.33896 10.2654 6.38118 10.2035 6.46562 10.1134C6.76397 9.80378 7.0004 9.47165 7.17491 9.11701C7.35505 8.76236 7.43386 8.51468 7.41134 8.37394C7.40571 8.33454 7.4029 8.30076 7.4029 8.27262C7.4029 8.17692 7.43386 8.12907 7.49578 8.12907C7.56333 8.12907 7.66184 8.1544 7.79132 8.20507C7.92642 8.2501 7.99397 8.29795 7.99397 8.34861C7.99397 8.39928 7.97145 8.46401 7.92642 8.54282C7.88138 8.616 7.84198 8.692 7.8082 8.77081C7.92642 8.87776 8.24447 9.08323 8.76236 9.38721C8.77362 9.03257 8.77925 8.75673 8.77925 8.55971C8.77925 8.0193 8.72577 7.72658 8.61882 7.68154C8.24166 7.73784 7.94893 7.7885 7.74065 7.83353C7.53237 7.87857 7.37756 7.90109 7.27624 7.90109C7.18054 7.90109 7.08203 7.8842 6.9807 7.85042C6.885 7.81102 6.83715 7.77443 6.83715 7.74065C6.83715 7.68999 6.92722 7.65903 7.10736 7.64777C7.29312 7.63088 7.72376 7.56051 8.39928 7.43667C9.08042 7.31283 9.54483 7.21994 9.79252 7.15802C10.0402 7.0961 10.2513 7.06514 10.4258 7.06514C10.606 7.06514 10.7467 7.09047 10.848 7.14113C10.955 7.18617 11.0084 7.23683 11.0084 7.29312C11.0084 7.34379 10.9662 7.38882 10.8818 7.42823C10.7973 7.462 10.6791 7.47889 10.5271 7.47889C10.2063 7.49015 9.70527 7.54081 9.02413 7.63088C9.14797 7.75472 9.20989 7.87012 9.20989 7.97708C9.20989 8.02211 9.20145 8.06715 9.18456 8.11218C9.16767 8.15722 9.15078 8.28106 9.1339 8.48371C9.269 8.47246 9.45758 8.42461 9.69964 8.34017C9.76156 8.31765 9.846 8.30639 9.95296 8.30639C10.0599 8.30639 10.1528 8.32891 10.2316 8.37394C10.3104 8.41898 10.3498 8.4612 10.3498 8.5006C10.3498 8.56815 10.2232 8.63008 9.96984 8.68637C9.72216 8.73703 9.54765 8.76236 9.44632 8.76236C9.35062 8.76236 9.24367 8.74548 9.12545 8.7117L9.09168 9.58987Z" />
  </mask>
  <path
    d="M6.32208 6.08565C6.58665 6.00121 6.75834 5.95899 6.83715 5.95899C6.92159 5.95899 7.00885 5.97306 7.09891 6.00121C7.19461 6.02372 7.24246 6.06313 7.24246 6.11942C7.24246 6.17571 7.18054 6.23764 7.05669 6.30519C6.93848 6.36711 6.68798 6.44873 6.30519 6.55006L6.26297 7.462C6.69642 7.12425 6.93004 6.95537 6.96381 6.95537C7.00322 6.95537 7.03136 6.96381 7.04825 6.9807C7.06514 6.99759 7.07358 7.01447 7.07358 7.03136C7.07358 7.07077 7.02011 7.14676 6.91315 7.25935C6.80619 7.3663 6.58384 7.57177 6.24608 7.87575C6.24608 8.10655 6.24327 8.48372 6.23764 9.00724C6.23764 9.52513 6.23201 9.85444 6.22075 9.99517C6.21512 10.1359 6.1926 10.2654 6.1532 10.3836C6.11942 10.5074 6.06876 10.6285 6.00121 10.7467C5.93928 10.8649 5.89144 10.9353 5.85766 10.9578C5.82951 10.9859 5.79292 11 5.74789 11C5.70286 11 5.66345 10.9634 5.62967 10.8902C5.43265 10.5018 5.2694 10.2203 5.13993 10.0458C5.11178 10.0064 5.09771 9.97266 5.09771 9.94451C5.09771 9.91074 5.11741 9.89385 5.15682 9.89385C5.19622 9.89385 5.27222 9.91355 5.3848 9.95296C5.49739 9.99236 5.58183 10.0121 5.63812 10.0121C5.70004 10.0121 5.73663 9.98673 5.74789 9.93607C5.76478 9.8854 5.78729 9.71653 5.81544 9.42943C5.84922 9.14234 5.88018 8.72859 5.90832 8.18818C5.33977 8.68918 4.98231 9.01287 4.83595 9.15923C4.69522 9.30559 4.58826 9.37877 4.51508 9.37877C4.44753 9.37877 4.34339 9.33374 4.20265 9.24367C4.06755 9.14797 4 9.06634 4 8.99879C4 8.92561 4.10133 8.86932 4.30398 8.82992C4.4616 8.80177 5.00201 8.43305 5.92521 7.72376C5.94773 7.25653 5.9618 6.89626 5.96743 6.64294C5.50583 6.76679 5.21592 6.82871 5.09771 6.82871C4.98512 6.82871 4.88098 6.80619 4.78528 6.76116C4.69522 6.71612 4.65018 6.67109 4.65018 6.62606C4.65018 6.58102 4.68959 6.55006 4.7684 6.53317C4.9992 6.4994 5.40169 6.39244 5.97587 6.2123C5.9815 5.97587 5.98432 5.76759 5.98432 5.58745C5.98432 4.87254 5.9224 4.43908 5.79855 4.28709C5.731 4.19702 5.69723 4.12666 5.69723 4.07599C5.69723 4.02533 5.73945 4 5.82388 4C5.91395 4 6.0575 4.03659 6.25452 4.10977C6.45155 4.18295 6.55006 4.28146 6.55006 4.40531C6.55006 4.46723 6.52473 4.5573 6.47407 4.67551C6.4234 4.7881 6.37274 5.25814 6.32208 6.08565ZM8.02775 4.81906C8.2698 4.81343 8.56534 4.77402 8.91436 4.70084C9.269 4.62766 9.4998 4.57137 9.60676 4.53197C9.71934 4.48693 9.79534 4.46441 9.83474 4.46441C9.93607 4.46441 10.0881 4.52071 10.2907 4.63329C10.499 4.74025 10.6031 4.83032 10.6031 4.9035C10.6031 4.94853 10.5722 4.99638 10.5103 5.04704C10.454 5.09771 10.3892 5.18778 10.316 5.31725C10.2429 5.44109 10.1922 5.55368 10.1641 5.65501C10.1359 5.7507 10.0627 5.94491 9.94451 6.23764C9.8263 6.53036 9.74186 6.69924 9.6912 6.74427C9.64053 6.7893 9.59831 6.81182 9.56454 6.81182C9.53639 6.81182 9.51669 6.80338 9.50543 6.78649C9.49417 6.7696 9.46321 6.75271 9.41255 6.73583C9.36751 6.71894 9.33374 6.71049 9.31122 6.71049C9.2887 6.71049 9.15078 6.72738 8.89747 6.76116C8.64978 6.79493 8.47527 6.82871 8.37395 6.86248C8.35143 6.96944 8.30921 7.02292 8.24729 7.02292C8.19099 7.02292 8.14314 6.97788 8.10374 6.88782C8.06996 6.79775 8.02774 6.58102 7.97708 6.23764C7.92642 5.89425 7.87857 5.64656 7.83354 5.49457C7.7885 5.34258 7.72658 5.21029 7.64777 5.09771C7.56896 4.98512 7.52955 4.9035 7.52955 4.85283C7.52955 4.79654 7.57459 4.7684 7.66466 4.7684C7.75473 4.7684 7.87575 4.78528 8.02775 4.81906ZM8.35706 6.62606C8.89747 6.52473 9.20708 6.47406 9.28589 6.47406L9.37877 6.48251C9.41818 6.48251 9.48573 6.29956 9.58142 5.93365C9.67712 5.56212 9.72497 5.31162 9.72497 5.18215C9.72497 5.04704 9.70245 4.96261 9.65742 4.92883C9.61801 4.88942 9.54765 4.86972 9.44632 4.86972C9.39003 4.86972 9.17049 4.90068 8.7877 4.9626C8.40491 5.0189 8.20507 5.0386 8.18818 5.02171C8.19381 5.12304 8.21914 5.36228 8.26417 5.73944C8.70326 5.59308 8.95939 5.5199 9.03257 5.5199C9.10575 5.5199 9.17612 5.53398 9.24367 5.56212C9.31122 5.59027 9.34499 5.62404 9.34499 5.66345C9.34499 5.70285 9.31403 5.73944 9.25211 5.77322C9.19582 5.807 9.06635 5.8464 8.86369 5.89144C8.66667 5.93647 8.47246 5.95054 8.28106 5.93365L8.35706 6.62606ZM9.09168 9.58987C9.37877 9.75875 9.67712 9.88822 9.98673 9.97829C10.302 10.0627 10.9493 10.1753 11.9288 10.316C12.0414 10.3329 12.0977 10.3695 12.0977 10.4258C12.0977 10.4427 12.0865 10.4596 12.0639 10.4765C12.0414 10.4934 11.9316 10.5215 11.7346 10.5609C11.5376 10.606 11.2899 10.651 10.9916 10.696C10.6988 10.7467 10.4906 10.772 10.3667 10.772C10.2429 10.772 10.1387 10.7523 10.0543 10.7129C9.97547 10.6735 9.70245 10.4793 9.23522 10.1303L7.70688 8.99035C7.49859 9.43506 7.24246 9.77282 6.93848 10.0036C6.64013 10.2344 6.45436 10.3498 6.38118 10.3498C6.35304 10.3498 6.33896 10.3329 6.33896 10.2992C6.33896 10.2654 6.38118 10.2035 6.46562 10.1134C6.76397 9.80378 7.0004 9.47165 7.17491 9.11701C7.35505 8.76236 7.43386 8.51468 7.41134 8.37394C7.40571 8.33454 7.4029 8.30076 7.4029 8.27262C7.4029 8.17692 7.43386 8.12907 7.49578 8.12907C7.56333 8.12907 7.66184 8.1544 7.79132 8.20507C7.92642 8.2501 7.99397 8.29795 7.99397 8.34861C7.99397 8.39928 7.97145 8.46401 7.92642 8.54282C7.88138 8.616 7.84198 8.692 7.8082 8.77081C7.92642 8.87776 8.24447 9.08323 8.76236 9.38721C8.77362 9.03257 8.77925 8.75673 8.77925 8.55971C8.77925 8.0193 8.72577 7.72658 8.61882 7.68154C8.24166 7.73784 7.94893 7.7885 7.74065 7.83353C7.53237 7.87857 7.37756 7.90109 7.27624 7.90109C7.18054 7.90109 7.08203 7.8842 6.9807 7.85042C6.885 7.81102 6.83715 7.77443 6.83715 7.74065C6.83715 7.68999 6.92722 7.65903 7.10736 7.64777C7.29312 7.63088 7.72376 7.56051 8.39928 7.43667C9.08042 7.31283 9.54483 7.21994 9.79252 7.15802C10.0402 7.0961 10.2513 7.06514 10.4258 7.06514C10.606 7.06514 10.7467 7.09047 10.848 7.14113C10.955 7.18617 11.0084 7.23683 11.0084 7.29312C11.0084 7.34379 10.9662 7.38882 10.8818 7.42823C10.7973 7.462 10.6791 7.47889 10.5271 7.47889C10.2063 7.49015 9.70527 7.54081 9.02413 7.63088C9.14797 7.75472 9.20989 7.87012 9.20989 7.97708C9.20989 8.02211 9.20145 8.06715 9.18456 8.11218C9.16767 8.15722 9.15078 8.28106 9.1339 8.48371C9.269 8.47246 9.45758 8.42461 9.69964 8.34017C9.76156 8.31765 9.846 8.30639 9.95296 8.30639C10.0599 8.30639 10.1528 8.32891 10.2316 8.37394C10.3104 8.41898 10.3498 8.4612 10.3498 8.5006C10.3498 8.56815 10.2232 8.63008 9.96984 8.68637C9.72216 8.73703 9.54765 8.76236 9.44632 8.76236C9.35062 8.76236 9.24367 8.74548 9.12545 8.7117L9.09168 9.58987Z"
    fill="black" />
  <path
    d="M6.32208 6.08565C6.58665 6.00121 6.75834 5.95899 6.83715 5.95899C6.92159 5.95899 7.00885 5.97306 7.09891 6.00121C7.19461 6.02372 7.24246 6.06313 7.24246 6.11942C7.24246 6.17571 7.18054 6.23764 7.05669 6.30519C6.93848 6.36711 6.68798 6.44873 6.30519 6.55006L6.26297 7.462C6.69642 7.12425 6.93004 6.95537 6.96381 6.95537C7.00322 6.95537 7.03136 6.96381 7.04825 6.9807C7.06514 6.99759 7.07358 7.01447 7.07358 7.03136C7.07358 7.07077 7.02011 7.14676 6.91315 7.25935C6.80619 7.3663 6.58384 7.57177 6.24608 7.87575C6.24608 8.10655 6.24327 8.48372 6.23764 9.00724C6.23764 9.52513 6.23201 9.85444 6.22075 9.99517C6.21512 10.1359 6.1926 10.2654 6.1532 10.3836C6.11942 10.5074 6.06876 10.6285 6.00121 10.7467C5.93928 10.8649 5.89144 10.9353 5.85766 10.9578C5.82951 10.9859 5.79292 11 5.74789 11C5.70286 11 5.66345 10.9634 5.62967 10.8902C5.43265 10.5018 5.2694 10.2203 5.13993 10.0458C5.11178 10.0064 5.09771 9.97266 5.09771 9.94451C5.09771 9.91074 5.11741 9.89385 5.15682 9.89385C5.19622 9.89385 5.27222 9.91355 5.3848 9.95296C5.49739 9.99236 5.58183 10.0121 5.63812 10.0121C5.70004 10.0121 5.73663 9.98673 5.74789 9.93607C5.76478 9.8854 5.78729 9.71653 5.81544 9.42943C5.84922 9.14234 5.88018 8.72859 5.90832 8.18818C5.33977 8.68918 4.98231 9.01287 4.83595 9.15923C4.69522 9.30559 4.58826 9.37877 4.51508 9.37877C4.44753 9.37877 4.34339 9.33374 4.20265 9.24367C4.06755 9.14797 4 9.06634 4 8.99879C4 8.92561 4.10133 8.86932 4.30398 8.82992C4.4616 8.80177 5.00201 8.43305 5.92521 7.72376C5.94773 7.25653 5.9618 6.89626 5.96743 6.64294C5.50583 6.76679 5.21592 6.82871 5.09771 6.82871C4.98512 6.82871 4.88098 6.80619 4.78528 6.76116C4.69522 6.71612 4.65018 6.67109 4.65018 6.62606C4.65018 6.58102 4.68959 6.55006 4.7684 6.53317C4.9992 6.4994 5.40169 6.39244 5.97587 6.2123C5.9815 5.97587 5.98432 5.76759 5.98432 5.58745C5.98432 4.87254 5.9224 4.43908 5.79855 4.28709C5.731 4.19702 5.69723 4.12666 5.69723 4.07599C5.69723 4.02533 5.73945 4 5.82388 4C5.91395 4 6.0575 4.03659 6.25452 4.10977C6.45155 4.18295 6.55006 4.28146 6.55006 4.40531C6.55006 4.46723 6.52473 4.5573 6.47407 4.67551C6.4234 4.7881 6.37274 5.25814 6.32208 6.08565ZM8.02775 4.81906C8.2698 4.81343 8.56534 4.77402 8.91436 4.70084C9.269 4.62766 9.4998 4.57137 9.60676 4.53197C9.71934 4.48693 9.79534 4.46441 9.83474 4.46441C9.93607 4.46441 10.0881 4.52071 10.2907 4.63329C10.499 4.74025 10.6031 4.83032 10.6031 4.9035C10.6031 4.94853 10.5722 4.99638 10.5103 5.04704C10.454 5.09771 10.3892 5.18778 10.316 5.31725C10.2429 5.44109 10.1922 5.55368 10.1641 5.65501C10.1359 5.7507 10.0627 5.94491 9.94451 6.23764C9.8263 6.53036 9.74186 6.69924 9.6912 6.74427C9.64053 6.7893 9.59831 6.81182 9.56454 6.81182C9.53639 6.81182 9.51669 6.80338 9.50543 6.78649C9.49417 6.7696 9.46321 6.75271 9.41255 6.73583C9.36751 6.71894 9.33374 6.71049 9.31122 6.71049C9.2887 6.71049 9.15078 6.72738 8.89747 6.76116C8.64978 6.79493 8.47527 6.82871 8.37395 6.86248C8.35143 6.96944 8.30921 7.02292 8.24729 7.02292C8.19099 7.02292 8.14314 6.97788 8.10374 6.88782C8.06996 6.79775 8.02774 6.58102 7.97708 6.23764C7.92642 5.89425 7.87857 5.64656 7.83354 5.49457C7.7885 5.34258 7.72658 5.21029 7.64777 5.09771C7.56896 4.98512 7.52955 4.9035 7.52955 4.85283C7.52955 4.79654 7.57459 4.7684 7.66466 4.7684C7.75473 4.7684 7.87575 4.78528 8.02775 4.81906ZM8.35706 6.62606C8.89747 6.52473 9.20708 6.47406 9.28589 6.47406L9.37877 6.48251C9.41818 6.48251 9.48573 6.29956 9.58142 5.93365C9.67712 5.56212 9.72497 5.31162 9.72497 5.18215C9.72497 5.04704 9.70245 4.96261 9.65742 4.92883C9.61801 4.88942 9.54765 4.86972 9.44632 4.86972C9.39003 4.86972 9.17049 4.90068 8.7877 4.9626C8.40491 5.0189 8.20507 5.0386 8.18818 5.02171C8.19381 5.12304 8.21914 5.36228 8.26417 5.73944C8.70326 5.59308 8.95939 5.5199 9.03257 5.5199C9.10575 5.5199 9.17612 5.53398 9.24367 5.56212C9.31122 5.59027 9.34499 5.62404 9.34499 5.66345C9.34499 5.70285 9.31403 5.73944 9.25211 5.77322C9.19582 5.807 9.06635 5.8464 8.86369 5.89144C8.66667 5.93647 8.47246 5.95054 8.28106 5.93365L8.35706 6.62606ZM9.09168 9.58987C9.37877 9.75875 9.67712 9.88822 9.98673 9.97829C10.302 10.0627 10.9493 10.1753 11.9288 10.316C12.0414 10.3329 12.0977 10.3695 12.0977 10.4258C12.0977 10.4427 12.0865 10.4596 12.0639 10.4765C12.0414 10.4934 11.9316 10.5215 11.7346 10.5609C11.5376 10.606 11.2899 10.651 10.9916 10.696C10.6988 10.7467 10.4906 10.772 10.3667 10.772C10.2429 10.772 10.1387 10.7523 10.0543 10.7129C9.97547 10.6735 9.70245 10.4793 9.23522 10.1303L7.70688 8.99035C7.49859 9.43506 7.24246 9.77282 6.93848 10.0036C6.64013 10.2344 6.45436 10.3498 6.38118 10.3498C6.35304 10.3498 6.33896 10.3329 6.33896 10.2992C6.33896 10.2654 6.38118 10.2035 6.46562 10.1134C6.76397 9.80378 7.0004 9.47165 7.17491 9.11701C7.35505 8.76236 7.43386 8.51468 7.41134 8.37394C7.40571 8.33454 7.4029 8.30076 7.4029 8.27262C7.4029 8.17692 7.43386 8.12907 7.49578 8.12907C7.56333 8.12907 7.66184 8.1544 7.79132 8.20507C7.92642 8.2501 7.99397 8.29795 7.99397 8.34861C7.99397 8.39928 7.97145 8.46401 7.92642 8.54282C7.88138 8.616 7.84198 8.692 7.8082 8.77081C7.92642 8.87776 8.24447 9.08323 8.76236 9.38721C8.77362 9.03257 8.77925 8.75673 8.77925 8.55971C8.77925 8.0193 8.72577 7.72658 8.61882 7.68154C8.24166 7.73784 7.94893 7.7885 7.74065 7.83353C7.53237 7.87857 7.37756 7.90109 7.27624 7.90109C7.18054 7.90109 7.08203 7.8842 6.9807 7.85042C6.885 7.81102 6.83715 7.77443 6.83715 7.74065C6.83715 7.68999 6.92722 7.65903 7.10736 7.64777C7.29312 7.63088 7.72376 7.56051 8.39928 7.43667C9.08042 7.31283 9.54483 7.21994 9.79252 7.15802C10.0402 7.0961 10.2513 7.06514 10.4258 7.06514C10.606 7.06514 10.7467 7.09047 10.848 7.14113C10.955 7.18617 11.0084 7.23683 11.0084 7.29312C11.0084 7.34379 10.9662 7.38882 10.8818 7.42823C10.7973 7.462 10.6791 7.47889 10.5271 7.47889C10.2063 7.49015 9.70527 7.54081 9.02413 7.63088C9.14797 7.75472 9.20989 7.87012 9.20989 7.97708C9.20989 8.02211 9.20145 8.06715 9.18456 8.11218C9.16767 8.15722 9.15078 8.28106 9.1339 8.48371C9.269 8.47246 9.45758 8.42461 9.69964 8.34017C9.76156 8.31765 9.846 8.30639 9.95296 8.30639C10.0599 8.30639 10.1528 8.32891 10.2316 8.37394C10.3104 8.41898 10.3498 8.4612 10.3498 8.5006C10.3498 8.56815 10.2232 8.63008 9.96984 8.68637C9.72216 8.73703 9.54765 8.76236 9.44632 8.76236C9.35062 8.76236 9.24367 8.74548 9.12545 8.7117L9.09168 9.58987Z"
    stroke="black" stroke-width="0.168878" mask="url(#path-7-outside-2_16704_37975)" />
</svg>