<svg width="16" height="16" viewBox="0 0 16 16" fill="currentColor" xmlns="http://www.w3.org/2000/svg">
  <path d="M8 16C12.4183 16 16 12.4183 16 8C16 3.58172 12.4183 0 8 0C3.58172 0 0 3.58172 0 8C0 12.4183 3.58172 16 8 16Z"
    fill="currentColor" />
  <path
    d="M7.00004 11.2498C6.53003 11.2498 6.09003 11.0598 5.77003 10.6998L3.45003 8.1798C3.17003 7.8798 3.19003 7.3998 3.49003 7.1198C3.80003 6.8398 4.27004 6.8598 4.55004 7.1698L6.87003 9.6898C6.95003 9.7698 7.05004 9.7698 7.13004 9.6898L11.45 4.9998C11.73 4.6998 12.2 4.6798 12.51 4.9598C12.82 5.2398 12.83 5.7098 12.55 6.0198L8.23003 10.6998C7.91003 11.0598 7.47004 11.2498 7.00004 11.2498Z"
    fill="white" />
</svg>