<svg width="20" height="20" viewBox="0 0 20 20" fill="none" xmlns="http://www.w3.org/2000/svg">
<path d="M5.066 18.2419C4.51372 18.2419 4.066 17.7941 4.066 17.2419V17.2002C4.066 16.6479 4.51372 16.2002 5.066 16.2002H14.9531C15.5053 16.2002 15.9531 16.6479 15.9531 17.2002V17.2419C15.9531 17.7941 15.5053 18.2419 14.9531 18.2419H5.066ZM10.1878 14.6956C10.1878 14.6962 10.1873 14.6967 10.1867 14.6967H2C1.44771 14.6967 1 14.249 1 13.6967V2.7002C1 2.14791 1.44772 1.7002 2 1.7002H18C18.5523 1.7002 19 2.14791 19 2.7002V3.86141C19 4.41369 18.5523 4.86141 18 4.86141H11.4222C11.0727 4.86141 10.7485 5.0439 10.5672 5.34273L7.8695 9.78961C7.67713 10.1067 7.67606 10.5042 7.86672 10.8223L10.1876 14.695C10.1877 14.6952 10.1878 14.6954 10.1878 14.6956Z" fill="white"/>
<path d="M12.5654 15.141C12.2155 15.141 11.8921 14.9545 11.7168 14.6517L9.78409 11.3117C9.60835 11.008 9.60834 10.6335 9.78407 10.3298L11.7169 6.98933C11.8921 6.68649 12.2155 6.5 12.5653 6.5H16.4347C16.7845 6.5 17.1079 6.68649 17.2831 6.98933L19.2159 10.3298C19.3917 10.6335 19.3916 11.008 19.2159 11.3117L17.2831 14.6513C17.1079 14.9541 16.7846 15.1406 16.4348 15.1406L12.5654 15.141ZM12.5768 10.8203C12.5687 11.2129 12.6746 11.5992 12.881 11.9298C13.0874 12.2604 13.3849 12.5203 13.7356 12.6763C14.0864 12.8324 14.4744 12.8776 14.8502 12.8061C15.226 12.7346 15.5726 12.5497 15.8457 12.2749C16.1188 12.0001 16.3061 11.648 16.3836 11.2634C16.4612 10.8788 16.4255 10.4792 16.2811 10.1155C16.1367 9.75187 15.8902 9.44065 15.573 9.22158C15.2557 9.00251 14.8822 8.88551 14.5 8.88551C13.9956 8.88065 13.5099 9.08154 13.1493 9.44414C12.7888 9.80674 12.5829 10.3019 12.5768 10.8203Z" fill="white"/>
</svg>
