<svg width="20" height="20" viewBox="0 0 20 20" fill="none" xmlns="http://www.w3.org/2000/svg">
<g clip-path="url(#clip0_10119_29002)">
<path d="M10.809 10.5812H12.1894C12.2324 10.3748 12.2732 10.1297 12.2732 9.92329C12.2732 8.44396 10.9358 7.21191 9.38769 7.37747C8.21799 7.50003 7.25686 8.44396 7.13215 9.59431C6.96444 11.1145 8.17714 12.4282 9.72312 12.4282V11.6886C9.68012 11.0736 10.1833 10.5791 10.809 10.5812ZM19.1667 19.2056H11.3938C11.2261 19.2056 11.0605 19.0014 11.0605 18.7541V17.6876C11.0605 17.4403 11.1852 17.2361 11.3938 17.2361H19.1667C19.3344 17.2361 19.5 17.4403 19.5 17.6876V18.7541C19.5 19.1 19.3344 19.2056 19.1667 19.2056ZM19.1689 16.4942H11.3938C11.2261 16.4942 11.0605 16.29 11.0605 16.0427V14.9762C11.0605 14.7289 11.1852 14.5247 11.3938 14.5247H19.1667C19.3344 14.5247 19.5 14.7289 19.5 14.9762V16.0427C19.5 16.3 19.3344 16.4942 19.1689 16.4942ZM19.1689 13.7829H11.3938C11.2261 13.7829 11.0605 13.5786 11.0605 13.3313V12.2648C11.0605 12.0176 11.1852 11.8133 11.3938 11.8133H19.1667C19.3344 11.8133 19.5 12.0176 19.5 12.2648V13.3313C19.5 13.6 19.3344 13.7829 19.1689 13.7829ZM5.75174 9.92329C5.75174 12.0584 7.50628 13.8237 9.72097 13.8237V19.2035H8.09328C7.46543 19.2035 6.96444 18.7519 6.92359 18.137L6.71502 16.7802C6.15167 16.5458 5.61843 16.2405 5.12603 15.8771L3.82947 16.4104C3.57145 16.5415 3.27258 16.5695 2.9952 16.4921C2.70278 16.4018 2.45121 16.2147 2.28349 15.9588L0.653657 13.2088C0.361232 12.6755 0.485942 12.0176 1.02994 11.6886L2.15878 10.8264C2.11578 10.4974 2.11578 10.2093 2.11578 9.92329C2.11578 9.63516 2.11578 9.34704 2.15878 9.01806L1.07294 8.15584C0.541847 7.85051 0.354781 7.1732 0.653657 6.63781L2.28349 3.88558C2.61677 3.35018 3.28763 3.14591 3.82947 3.43404L5.12603 3.96728C5.62703 3.59745 6.13017 3.30933 6.71502 3.06421L6.88273 1.66874C6.92359 1.09249 7.42673 0.600098 8.05243 0.600098H11.3121C11.9378 0.600098 12.441 1.09249 12.441 1.70959L12.6495 3.06421C13.2258 3.27492 13.7633 3.58025 14.2385 3.96728L15.5329 3.43404C15.7823 3.30933 16.0769 3.27062 16.3672 3.35233C16.6618 3.43404 16.9112 3.64046 17.0789 3.88773L18.7496 6.63996C19.042 7.16675 18.8786 7.82901 18.3733 8.16014L17.2445 9.02236C17.2875 9.31048 17.2875 9.63731 17.2875 9.92759C17.2875 10.1319 17.2875 10.3791 17.2445 10.5855H13.6515C13.6515 10.3791 13.6945 10.1727 13.6945 9.92759C13.6945 7.79031 11.897 6.02501 9.72312 6.02501C7.54929 6.02071 5.75389 7.78816 5.75174 9.92329Z" fill="white"/>
</g>
<defs>
<clipPath id="clip0_10119_29002">
<rect width="20" height="20" fill="white"/>
</clipPath>
</defs>
</svg>
