<svg width="24" height="24" viewBox="0 0 24 24" fill="none" xmlns="http://www.w3.org/2000/svg">
<path d="M12 22C17.5229 22 22 17.5229 22 12C22 6.47715 17.5229 2 12 2C6.47715 2 2 6.47715 2 12C2 17.5229 6.47715 22 12 22Z" stroke="#242526" stroke-width="1.2" stroke-linejoin="round"/>
<path fill-rule="evenodd" clip-rule="evenodd" d="M12.0007 6C12.553 6.00006 13.0007 6.44782 13.0006 7.0001L13.0001 12.3861L17.4432 14.6054C17.9373 14.8522 18.1377 15.4528 17.8909 15.9468C17.6442 16.4409 17.0436 16.6414 16.5495 16.3946L11.5532 13.899C11.2141 13.7297 11 13.3833 11 13.0043L11.0006 6.9999C11.0007 6.44762 11.4484 5.99994 12.0007 6Z" fill="#242526"/>
</svg>
