<svg width="20" height="20" viewBox="0 0 20 20" fill="none" xmlns="http://www.w3.org/2000/svg">
<path fill-rule="evenodd" clip-rule="evenodd" d="M12.5 11.1C12.5 10.7686 12.7686 10.5 13.1 10.5H15.9C16.2314 10.5 16.5 10.7686 16.5 11.1V13.9C16.5 14.2314 16.2314 14.5 15.9 14.5H13.1C12.7686 14.5 12.5 14.2314 12.5 13.9V11.1ZM10 16.1C10 15.7686 10.2686 15.5 10.6 15.5H13.4C13.7314 15.5 14 15.7686 14 16.1V18.9C14 19.2314 13.7314 19.5 13.4 19.5H10.6C10.2686 19.5 10 19.2314 10 18.9V16.1ZM15.6 15.5C15.2686 15.5 15 15.7686 15 16.1V18.9C15 19.2314 15.2686 19.5 15.6 19.5H18.4C18.7314 19.5 19 19.2314 19 18.9V16.1C19 15.7686 18.7314 15.5 18.4 15.5H15.6Z" fill="white"/>
<path fill-rule="evenodd" clip-rule="evenodd" d="M2.75 0.75C1.92157 0.75 1.25 1.42157 1.25 2.25V17.75C1.25 18.5784 1.92157 19.25 2.75 19.25H9.0384C9.01326 19.1374 9 19.0202 9 18.9V16.1C9 15.2163 9.71634 14.5 10.6 14.5H11.6163C11.5413 14.3147 11.5 14.1122 11.5 13.9V11.1C11.5 10.2163 12.2163 9.5 13.1 9.5H15.9C16.7837 9.5 17.5 10.2163 17.5 11.1V13.9C17.5 14.1122 17.4587 14.3147 17.3837 14.5H18.4C18.5202 14.5 18.6374 14.5133 18.75 14.5384V2.25C18.75 1.42157 18.0784 0.75 17.25 0.75H2.75ZM3 3.7C3 3.3134 3.3134 3 3.7 3H11.3C11.6866 3 12 3.3134 12 3.7C12 4.0866 11.6866 4.4 11.3 4.4H3.7C3.3134 4.4 3 4.0866 3 3.7ZM3.7 6C3.3134 6 3 6.3134 3 6.7C3 7.0866 3.3134 7.4 3.7 7.4H8.3C8.6866 7.4 9 7.0866 9 6.7C9 6.3134 8.6866 6 8.3 6H3.7Z" fill="white"/>
</svg>
