<svg width="20" height="20" viewBox="0 0 20 20" fill="none" xmlns="http://www.w3.org/2000/svg">
<path d="M8.50254 0C8.81017 0 9.1 0.142169 9.27796 0.380723C10.4964 2.00519 12.8788 5.30949 14.455 8.31625C14.3048 8.30535 14.153 8.2998 14 8.2998C10.5758 8.2998 7.8 11.0756 7.8 14.4998C7.8 16.6824 8.92785 18.6017 10.6325 19.7065C9.95667 19.8975 9.24093 20 8.5 20C4.35847 20 1 16.7904 1 12.8337C1 9.66506 5.80763 2.93735 7.72458 0.380723C7.90508 0.142169 8.19491 0 8.50254 0Z" fill="white"/>
<path fill-rule="evenodd" clip-rule="evenodd" d="M14 19.5C16.7614 19.5 19 17.2614 19 14.5C19 11.7386 16.7614 9.5 14 9.5C11.2386 9.5 9 11.7386 9 14.5C9 17.2614 11.2386 19.5 14 19.5ZM11.8711 12.3692C12.1444 12.0958 12.5876 12.0958 12.861 12.3692L13.992 13.5002L15.1236 12.3685C15.397 12.0952 15.8402 12.0952 16.1136 12.3685C16.3869 12.6419 16.3869 13.0851 16.1136 13.3585L14.9819 14.4901L16.1137 15.6219C16.3871 15.8952 16.3871 16.3384 16.1137 16.6118C15.8403 16.8852 15.3971 16.8852 15.1238 16.6118L13.992 15.4801L12.8609 16.6112C12.5875 16.8845 12.1443 16.8845 11.8709 16.6112C11.5976 16.3378 11.5976 15.8946 11.8709 15.6212L13.002 14.4901L11.8711 13.3591C11.5977 13.0858 11.5977 12.6425 11.8711 12.3692Z" fill="white"/>
</svg>
