<svg width="16" height="16" viewBox="0 0 16 16" fill="none" xmlns="http://www.w3.org/2000/svg">
<g clip-path="url(#clip0_14147_19127)">
<path fill-rule="evenodd" clip-rule="evenodd" d="M14.9707 10.8369C14.9759 10.84 14.9808 10.8432 14.9856 10.8467C15.0831 10.9095 15.154 11.0066 15.184 11.1191C15.2157 11.2378 15.1993 11.3642 15.1385 11.4709L12.9048 15.3897C12.8356 15.5108 12.7234 15.6013 12.5904 15.6434C12.5794 15.6469 12.5681 15.6494 12.5566 15.651L11.1748 15.8355C11.1191 15.8503 11.0611 15.8545 11.0037 15.8479C10.94 15.8406 10.8785 15.82 10.8231 15.7875C10.7678 15.755 10.7198 15.7114 10.6823 15.6593C10.6467 15.6097 10.6212 15.5536 10.6074 15.4941L10.237 14.2471C10.206 14.11 10.2274 13.9656 10.2964 13.8432L12.5273 9.92052C12.588 9.81492 12.6881 9.73766 12.8056 9.70564C12.9232 9.67362 13.0486 9.68945 13.1545 9.74965L13.1584 9.75192L14.9707 10.8369ZM13.1248 10.9065L13.9968 11.4367L12.1346 14.7058L11.4176 14.7849L11.2549 14.1868L13.1248 10.9065Z" fill="#6C7380"/>
<path fill-rule="evenodd" clip-rule="evenodd" d="M11.2139 10.7404C11.2742 10.7001 11.3263 10.6489 11.3676 10.5895C11.3701 10.5863 11.3724 10.583 11.3747 10.5796C11.4624 10.45 11.4956 10.2912 11.4674 10.1373C11.4391 9.98338 11.3515 9.84673 11.2235 9.75673L11.2223 9.75587C10.7753 9.44659 10.2846 9.20809 9.76752 9.04768C11.1153 8.30546 12.0282 6.85367 12.0282 5.1872C12.0282 2.76833 10.1005 0.800049 7.71613 0.800049C5.33165 0.800049 3.4047 2.77038 3.4047 5.18847C3.4047 6.88637 4.35233 8.36022 5.74096 9.08958C5.21191 9.25013 4.70484 9.47808 4.23242 9.7684C3.38536 10.2925 2.65908 11.0199 2.07367 11.9257C1.09076 13.4499 0.839611 14.9554 0.827949 15.0308L0.806988 15.1661C0.793818 15.2499 0.798799 15.3355 0.821596 15.4173C0.844418 15.4991 0.884561 15.575 0.939306 15.64C0.994051 15.7049 1.06212 15.7574 1.13889 15.7937C1.21567 15.83 1.29935 15.8495 1.38429 15.8507L1.38902 15.8506C1.52981 15.8492 1.66542 15.7974 1.77123 15.7045C1.8769 15.6117 1.94591 15.4836 1.96562 15.3444L1.98416 15.2171C1.98985 15.1847 2.03239 14.947 2.13837 14.5891C2.28933 14.0793 2.56901 13.3255 3.05427 12.5736C4.17145 10.844 5.79813 9.96825 7.90894 9.96825C8.94639 9.96825 9.83519 10.2288 10.5597 10.7319C10.6229 10.7765 10.6943 10.8079 10.7699 10.8244C10.7829 10.8272 10.7959 10.8296 10.809 10.8315C10.8725 10.8408 10.9372 10.8395 11.0004 10.8276C11.0767 10.8131 11.1493 10.7835 11.2139 10.7404ZM5.4973 2.92264L5.49803 2.92189C5.78636 2.6254 6.13129 2.38984 6.51238 2.22917C6.89346 2.06851 7.3032 1.98601 7.71677 1.98657C8.55476 1.98657 9.3423 2.31797 9.93627 2.92331C10.5299 3.52708 10.8611 4.34092 10.8576 5.18765L10.8576 5.18926C10.8609 6.03579 10.5298 6.84938 9.93627 7.453L9.93546 7.45383C9.64719 7.75042 9.30227 7.9861 8.92119 8.14687C8.5401 8.30764 8.13014 8.39023 7.71653 8.38974C7.30292 8.39023 6.89343 8.30764 6.51234 8.14687C6.13126 7.9861 5.78635 7.75042 5.49807 7.45383L5.49724 7.45299C4.90356 6.84933 4.57262 6.03544 4.57659 5.18878L4.57659 5.18698C4.57294 4.34033 4.90386 3.52651 5.4973 2.92264Z" fill="#6C7380"/>
</g>
<defs>
<clipPath id="clip0_14147_19127">
<rect width="16" height="16" fill="white"/>
</clipPath>
</defs>
</svg>
