<svg width="24" height="24" viewBox="0 0 24 24" fill="none" xmlns="http://www.w3.org/2000/svg">
<path fill-rule="evenodd" clip-rule="evenodd" d="M12.002 22C17.5248 22 22.002 17.5229 22.002 12C22.002 6.47715 17.5248 2 12.002 2C6.4791 2 2.00195 6.47715 2.00195 12C2.00195 17.5229 6.4791 22 12.002 22Z" stroke="#6C7380" stroke-width="2" stroke-linecap="round" stroke-linejoin="round"/>
<path d="M12.002 11.5C13.3827 11.5 14.502 10.3807 14.502 9C14.502 7.6193 13.3827 6.5 12.002 6.5C10.6213 6.5 9.50195 7.6193 9.50195 9C9.50195 10.3807 10.6213 11.5 12.002 11.5Z" stroke="#6C7380" stroke-width="2" stroke-linejoin="round"/>
<path d="M5.01294 19.166C5.18479 16.5603 7.35274 14.5 10.0019 14.5H14.0019C16.6476 14.5 18.8134 16.5548 18.9903 19.1556" stroke="#6C7380" stroke-width="2" stroke-linecap="round" stroke-linejoin="round"/>
</svg>
