<svg width="20" height="20" viewBox="0 0 20 20" fill="none" xmlns="http://www.w3.org/2000/svg">
  <g clip-path="url(#clip0_22788_31166)">
    <path
      d="M3.3335 16.668C3.3335 15.2535 3.8954 13.8969 4.89559 12.8967C5.89579 11.8965 7.25234 11.3346 8.66683 11.3346C10.0813 11.3346 11.4379 11.8965 12.4381 12.8967C13.4383 13.8969 14.0002 15.2535 14.0002 16.668H12.6668C12.6668 15.6071 12.2454 14.5897 11.4953 13.8395C10.7451 13.0894 9.7277 12.668 8.66683 12.668C7.60596 12.668 6.58855 13.0894 5.8384 13.8395C5.08826 14.5897 4.66683 15.6071 4.66683 16.668H3.3335ZM8.66683 10.668C6.45683 10.668 4.66683 8.87797 4.66683 6.66797C4.66683 4.45797 6.45683 2.66797 8.66683 2.66797C10.8768 2.66797 12.6668 4.45797 12.6668 6.66797C12.6668 8.87797 10.8768 10.668 8.66683 10.668ZM8.66683 9.33464C10.1402 9.33464 11.3335 8.1413 11.3335 6.66797C11.3335 5.19464 10.1402 4.0013 8.66683 4.0013C7.1935 4.0013 6.00016 5.19464 6.00016 6.66797C6.00016 8.1413 7.1935 9.33464 8.66683 9.33464ZM14.1895 11.8033C15.1264 12.2253 15.9215 12.9088 16.4792 13.7718C17.037 14.6348 17.3336 15.6404 17.3335 16.668H16.0002C16.0003 15.8973 15.7779 15.143 15.3596 14.4957C14.9412 13.8484 14.3449 13.3357 13.6422 13.0193L14.1888 11.8033H14.1895ZM13.7308 4.27664C14.4025 4.5535 14.9768 5.02366 15.3808 5.62746C15.7849 6.23125 16.0004 6.94146 16.0002 7.66797C16.0004 8.58286 15.6586 9.46479 15.0419 10.1405C14.4251 10.8163 13.5779 11.2369 12.6668 11.32V9.97797C13.1608 9.90722 13.6191 9.67998 13.9744 9.32961C14.3297 8.97923 14.5633 8.52418 14.6409 8.03126C14.7186 7.53833 14.6361 7.0335 14.4058 6.59087C14.1754 6.14824 13.8091 5.79113 13.3608 5.57197L13.7308 4.27664Z"
      fill="#2871FF" />
  </g>
  <defs>
    <clipPath id="clip0_22788_31166">
      <rect width="16" height="16" fill="white" transform="translate(2 2)" />
    </clipPath>
  </defs>
</svg>