<svg width="24" height="24" viewBox="0 0 24 24" fill="none" xmlns="http://www.w3.org/2000/svg">
<path fill-rule="evenodd" clip-rule="evenodd" d="M12.0019 22C17.5248 22 22.0019 17.5229 22.0019 12C22.0019 6.47715 17.5248 2 12.0019 2C6.47907 2 2.00192 6.47715 2.00192 12C2.00192 17.5229 6.47907 22 12.0019 22Z" stroke="#6C7380" stroke-width="2" stroke-linecap="round" stroke-linejoin="round"/>
<path d="M12.0019 11.5C13.3826 11.5 14.5019 10.3807 14.5019 9C14.5019 7.6193 13.3826 6.5 12.0019 6.5C10.6212 6.5 9.50192 7.6193 9.50192 9C9.50192 10.3807 10.6212 11.5 12.0019 11.5Z" stroke="#6C7380" stroke-width="2" stroke-linejoin="round"/>
<path d="M5.01291 19.166C5.18476 16.5603 7.35271 14.5 10.0019 14.5H14.0019C16.6476 14.5 18.8134 16.5548 18.9903 19.1556" stroke="#6C7380" stroke-width="2" stroke-linecap="round" stroke-linejoin="round"/>
</svg>
