<svg width="28" height="28" viewBox="0 0 21 20" fill="none" xmlns="http://www.w3.org/2000/svg">
  <path
    d="M14.6665 7.66453L19.0127 4.62328C19.0751 4.57959 19.1483 4.55386 19.2243 4.54889C19.3003 4.54392 19.3763 4.55991 19.4438 4.5951C19.5114 4.6303 19.568 4.68335 19.6075 4.74849C19.6469 4.81363 19.6678 4.88836 19.6677 4.96453V15.032C19.6673 15.108 19.6462 15.1825 19.6067 15.2474C19.5671 15.3122 19.5105 15.3651 19.4431 15.4002C19.3757 15.4353 19.3 15.4513 19.2242 15.4466C19.1483 15.4419 19.0752 15.4165 19.0127 15.3733L14.6677 12.332V15.832C14.6674 16.0527 14.5796 16.2643 14.4235 16.4203C14.2675 16.5764 14.0559 16.6642 13.8352 16.6645H2.16648C1.94579 16.6642 1.73424 16.5764 1.57818 16.4203C1.42213 16.2643 1.33431 16.0527 1.33398 15.832V4.16453C1.33398 3.70453 1.70648 3.33203 2.16648 3.33203H13.834C14.294 3.33203 14.6665 3.70453 14.6665 4.16453V7.66453ZM14.6665 10.297L18.0002 12.6308V7.36453L14.6665 9.69828V10.297ZM3.00023 4.99828V14.9983H13.0002V4.99828H3.00023ZM4.66648 6.66453H6.33398V8.33203H4.66648V6.66453Z"
    fill="#2871FF" />
</svg>