<svg width="20" height="20" viewBox="0 0 20 20" fill="none" xmlns="http://www.w3.org/2000/svg">
<path d="M16.0391 12.1804L16.046 12.1842L18.6241 13.6288L18.6325 13.6336C18.8233 13.7443 18.9415 13.9423 18.9472 14.1571L18.9474 14.1654V16.8376L18.9473 16.8471C18.944 17.0593 18.8306 17.2564 18.645 17.3697L18.6376 17.3741L18.6307 17.3782L16.0517 18.863L16.0426 18.8682C15.844 18.9783 15.6001 18.9779 15.4017 18.8665L15.3946 18.8624L12.8167 17.3782L12.8083 17.3733C12.6212 17.2618 12.5058 17.0658 12.5001 16.8536L12.5 16.8465V14.1732L12.5001 14.1637C12.5034 13.9489 12.6195 13.7497 12.8088 13.6372L12.8167 13.6325L12.8249 13.6279L15.4022 12.1837C15.5992 12.0734 15.8411 12.0722 16.0391 12.1804ZM15.7237 14.7673C15.2998 14.7673 14.9561 15.111 14.9561 15.5348C14.9561 15.9587 15.2998 16.3024 15.7237 16.3024C16.1476 16.3024 16.4912 15.9587 16.4912 15.5348C16.4912 15.111 16.1476 14.7673 15.7237 14.7673Z" fill="white"/>
<path fill-rule="evenodd" clip-rule="evenodd" d="M2.02871 5.42866C1.39378 5.7814 1 6.45064 1 7.17697V17.0002C1 18.1047 1.89543 19.0002 3 19.0002L13.2289 19L12.2103 18.4135L12.1939 18.4039C11.6605 18.086 11.3173 17.5169 11.3006 16.8852L11.3003 16.876L11.3 16.8576V14.1632L11.3002 14.1449C11.3101 13.5049 11.6556 12.9265 12.1956 12.6055L12.2011 12.6022L12.2173 12.5927L12.2383 12.5808L14.8156 11.1367C15.3731 10.8243 16.0542 10.8208 16.6147 11.1273L16.6224 11.1315L16.6326 11.1371L19 12.4637V7.17697C19 6.45064 18.6062 5.7814 17.9713 5.42866L10.9713 1.53977C10.3672 1.20419 9.63276 1.20419 9.02871 1.53977L2.02871 5.42866ZM3 8.7C3 8.3134 3.3134 8 3.7 8H6.3C6.6866 8 7 8.3134 7 8.7C7 9.0866 6.6866 9.4 6.3 9.4H3.7C3.3134 9.4 3 9.0866 3 8.7ZM3.7 11C3.3134 11 3 11.3134 3 11.7C3 12.0866 3.3134 12.4 3.7 12.4H6.3C6.6866 12.4 7 12.0866 7 11.7C7 11.3134 6.6866 11 6.3 11H3.7Z" fill="white"/>
</svg>
