<svg xmlns="http://www.w3.org/2000/svg" width="20" height="20" viewBox="0 0 20 20" fill="none">
  <g clip-path="url(#clip0_14092_9259)">
    <path fill-rule="evenodd" clip-rule="evenodd"
      d="M17.7357 8.85878V17.4243C17.7357 17.7096 17.6105 17.9832 17.3875 18.1849C17.1645 18.3867 16.8621 18.5 16.5468 18.5H16V8.6C16 8.26863 15.7314 8 15.4 8H4.6C4.26863 8 4 8.26863 4 8.6V18.5H3.46831C3.15298 18.5 2.85056 18.3867 2.62759 18.1849C2.40462 17.9832 2.27935 17.7096 2.27935 17.4243V8.85555L1.46492 9.47409C1.28369 9.6116 1.04949 9.67834 0.813869 9.65963C0.578243 9.64092 0.360484 9.53829 0.208495 9.37432C0.0565057 9.21034 -0.0172629 8.99846 0.00341778 8.78527C0.0240984 8.57209 0.137534 8.37507 0.31877 8.23755L2.27935 6.7493V6.74285H2.28827L2.38636 6.66809L8.47142 2.00916C8.90079 1.6804 9.44506 1.5 10.0075 1.5C10.57 1.5 11.1143 1.6804 11.5437 2.00916L17.7262 6.74231H17.7357V6.75307L19.6916 8.23755C19.8687 8.37615 19.9785 8.57223 19.9972 8.78344C20.0158 8.99465 19.9419 9.20403 19.7914 9.36635C19.6409 9.52867 19.4258 9.63091 19.1927 9.65096C18.9596 9.67102 18.7271 9.60729 18.5454 9.47355L17.7357 8.85878Z"
      fill="white" />
    <rect x="5" y="9" width="10" height="4" rx="0.6" fill="white" />
    <rect x="5" y="14.5" width="10" height="4" rx="0.6" fill="white" />
  </g>
  <defs>
    <clipPath id="clip0_14092_9259">
      <rect width="20" height="20" fill="white" />
    </clipPath>
  </defs>
</svg>