<svg xmlns="http://www.w3.org/2000/svg" width="20" height="20" viewBox="0 0 20 20" fill="none">
  <path
    d="M16.4392 11.6804L16.446 11.6842L19.0241 13.1288L19.0325 13.1336C19.2233 13.2443 19.3416 13.4423 19.3472 13.6571L19.3474 13.6654V16.3376L19.3473 16.3471C19.344 16.5593 19.2307 16.7564 19.045 16.8697L19.0376 16.8741L19.0307 16.8782L16.4517 18.363L16.4426 18.3682C16.244 18.4783 16.0001 18.4779 15.8018 18.3665L15.7946 18.3624L13.2167 16.8782L13.2083 16.8733C13.0212 16.7618 12.9058 16.5658 12.9002 16.3536L12.9 16.3465V13.6732L12.9001 13.6637C12.9034 13.4489 13.0195 13.2497 13.2088 13.1372L13.2168 13.1325L13.2249 13.1279L15.8023 11.6837C15.9992 11.5734 16.2412 11.5722 16.4392 11.6804ZM16.1237 14.2673C15.6998 14.2673 15.3562 14.611 15.3562 15.0348C15.3562 15.4587 15.6998 15.8024 16.1237 15.8024C16.5476 15.8024 16.8913 15.4587 16.8913 15.0348C16.8913 14.611 16.5476 14.2673 16.1237 14.2673Z"
    fill="white" />
  <path fill-rule="evenodd" clip-rule="evenodd"
    d="M3.14219 16.9243V8.35878L2.41824 8.97355C2.25583 9.10729 2.04795 9.17102 1.8395 9.15096C1.63105 9.13091 1.43876 9.02867 1.30418 8.86635C1.16959 8.70403 1.10352 8.49465 1.12022 8.28344C1.13692 8.07223 1.23506 7.87615 1.39345 7.73755L3.14219 6.25307V6.24231H3.15069L8.67862 1.50916C9.06253 1.1804 9.54917 1 10.0521 1C10.555 1 11.0417 1.1804 11.4256 1.50916L16.8663 6.16809L16.954 6.24285H16.962V6.2493L18.715 7.73755C18.8771 7.87507 18.9785 8.07209 18.997 8.28527C19.0155 8.49846 18.9495 8.71034 18.8136 8.87432C18.6777 9.03829 18.483 9.14092 18.2723 9.15963C18.0617 9.17834 17.8523 9.1116 17.6902 8.97409L16.962 8.35555V10.827L16.9349 10.8118L16.9253 10.8065L16.9189 10.803C16.4187 10.5296 15.8109 10.5327 15.3135 10.8113L12.7361 12.2555L12.7172 12.2662L12.7024 12.2749L12.6979 12.2776C12.2163 12.5639 11.909 13.079 11.9002 13.6482L11.9001 13.665V16.3559L11.9003 16.3724L11.9005 16.3801C11.9154 16.9419 12.2207 17.4488 12.6964 17.7323L12.7115 17.7411L13.161 18H4.20525C3.92331 18 3.65291 17.8867 3.45355 17.6849C3.25419 17.4832 3.14219 17.2096 3.14219 16.9243ZM5 8.6C5 8.26863 5.26863 8 5.6 8H11.4C11.7314 8 12 8.26863 12 8.6C12 8.93137 11.7314 9.2 11.4 9.2H5.6C5.26863 9.2 5 8.93137 5 8.6ZM5.6 11C5.26863 11 5 11.2686 5 11.6C5 11.9314 5.26863 12.2 5.6 12.2H8.4C8.73137 12.2 9 11.9314 9 11.6C9 11.2686 8.73137 11 8.4 11H5.6Z"
    fill="white" />
</svg>