<svg xmlns="http://www.w3.org/2000/svg" width="20" height="20" viewBox="0 0 20 20" fill="none">
  <path
    d="M18.3824 16.5026L16.3094 14.8028C16.7675 13.9351 16.8723 12.9302 16.6027 11.9902C16.3331 11.0501 15.7091 10.2447 14.8563 9.73597C14.0035 9.22722 12.9851 9.0529 12.0061 9.24807C11.027 9.44325 10.16 9.99343 9.57932 10.7879C8.99868 11.5824 8.74755 12.5623 8.87645 13.5304C9.00536 14.4985 9.50474 15.383 10.2741 16.0059C11.0435 16.6288 12.0258 16.9439 13.0234 16.8879C14.0209 16.8318 14.9598 16.4087 15.651 15.7037L17.8138 17.477C17.8454 17.5023 17.8787 17.5244 17.9132 17.5421C17.6461 17.829 17.2655 18 16.7471 18H3.75882C3.46219 18 3.16846 17.9429 2.89441 17.832C2.62036 17.7211 2.37135 17.5585 2.16159 17.3536C1.95184 17.1487 1.78546 16.9054 1.67194 16.6376C1.55843 16.3699 1.5 16.0829 1.5 15.7931V8.06896H18.4412V15.7931C18.4412 16.0414 18.4225 16.2797 18.3824 16.5026ZM18.4412 6.96552H1.5L3.11336 3.1349C3.30904 2.79087 3.59533 2.50423 3.94255 2.30468C4.28978 2.10513 4.6853 1.99994 5.08814 2H14.853C15.2559 1.99994 15.6514 2.10513 15.9986 2.30468C16.3458 2.50423 16.6321 2.79087 16.8278 3.1349L18.4412 6.96552ZM12.7941 15.7931C12.4233 15.7931 12.0561 15.7218 11.7135 15.5832C11.3709 15.4446 11.0596 15.2414 10.7974 14.9852C10.5352 14.7291 10.3272 14.4249 10.1853 14.0902C10.0434 13.7555 9.97032 13.3968 9.97032 13.0345C9.97032 12.6722 10.0434 12.3135 10.1853 11.9787C10.3272 11.644 10.5352 11.3399 10.7974 11.0837C11.0596 10.8276 11.3709 10.6244 11.7135 10.4858C12.0561 10.3472 12.4233 10.2758 12.7941 10.2759C13.5429 10.2759 14.261 10.5666 14.7905 11.0839C15.3199 11.6013 15.6174 12.3029 15.6174 13.0345C15.6174 13.7661 15.3199 14.4677 14.7905 14.985C14.261 15.5024 13.5429 15.793 12.7941 15.7931Z"
    fill="white" />
</svg>