<svg width="24" height="24" viewBox="0 0 24 24" fill="none" xmlns="http://www.w3.org/2000/svg">
<path fill-rule="evenodd" clip-rule="evenodd" d="M4.81826 3.80005C4.26598 3.80005 3.81826 4.24776 3.81826 4.80005V15.0728C3.81826 15.6251 4.26598 16.0728 4.81826 16.0728H19.1819C19.7342 16.0728 20.1819 15.6251 20.1819 15.0728V4.80005C20.1819 4.24776 19.7342 3.80005 19.1819 3.80005H4.81826ZM13.6363 7.07288H5.45447V8.70924H13.6363V7.07288ZM5.45447 11.1637H9.54538V12.8001H5.45447V11.1637ZM3.5 17.7092C3.22386 17.7092 3 17.933 3 18.2092V19.6637C3 19.9399 3.22386 20.1637 3.5 20.1637H20.5C20.7761 20.1637 21 19.9399 21 19.6637V18.2092C21 17.933 20.7761 17.7092 20.5 17.7092H3.5Z" fill="#5991FF"/>
</svg>
